# Blender 4.4.3
# www.blender.org
mtllib Book.mtl
o Book
v -1.061319 1.237735 0.152830
v -1.061319 -0.162265 0.152830
v -1.061319 1.237735 0.052830
v -1.061319 -0.162265 0.052830
v -1.061319 1.237735 -0.047170
v -1.061319 -0.162265 -0.047170
v -1.061319 1.237735 -0.147170
v -1.061319 -0.162265 -0.147170
v -0.861319 -0.062264 0.252830
v -0.861319 -0.262265 0.252830
v -0.861319 -0.062264 0.152830
v -0.861319 -0.162265 0.152830
v -0.861319 -0.162265 0.052830
v -0.861319 -0.162265 -0.047170
v -0.861319 -0.062264 -0.147170
v -0.861319 -0.162265 -0.147170
v -0.861319 -0.062264 -0.247170
v -0.861319 -0.262265 -0.247170
v -0.061319 -0.062264 0.252830
v -0.061319 -0.262265 0.252830
v -0.061319 -0.062264 0.152830
v -0.061319 -0.162265 0.152830
v -0.061319 -0.162265 0.052830
v -0.061319 -0.162265 -0.047170
v -0.061319 -0.062264 -0.147170
v -0.061319 -0.162265 -0.147170
v -0.061319 -0.062264 -0.247170
v -0.061319 -0.262265 -0.247170
v 0.738681 -0.062264 0.252830
v 0.738681 -0.262265 0.252830
v 0.738681 -0.062264 0.152830
v 0.738681 -0.162265 0.152830
v 0.738681 -0.162265 0.052830
v 0.738681 -0.162265 -0.047170
v 0.738681 -0.062264 -0.147170
v 0.738681 -0.162265 -0.147170
v 0.738681 -0.062264 -0.247170
v 0.738681 -0.262265 -0.247170
v -0.761319 -0.062264 0.252830
v -0.761319 -0.262265 0.252830
v -0.761319 -0.062264 0.152830
v -0.761319 -0.162265 0.152830
v -0.761319 -0.162265 0.052830
v -0.761319 -0.162265 -0.047170
v -0.761319 -0.062264 -0.147170
v -0.761319 -0.162265 -0.147170
v -0.761319 -0.062264 -0.247170
v -0.761319 -0.262265 -0.247170
v 0.038681 -0.062264 0.252830
v 0.038681 -0.262265 0.252830
v 0.038681 -0.062264 0.152830
v 0.038681 -0.162265 0.152830
v 0.038681 -0.162265 0.052830
v 0.038681 -0.162265 -0.047170
v 0.038681 -0.062264 -0.147170
v 0.038681 -0.162265 -0.147170
v 0.038681 -0.062264 -0.247170
v 0.038681 -0.262265 -0.247170
v 0.838681 -0.062264 0.252830
v 0.838681 -0.262265 0.252830
v 0.838681 -0.062264 0.152830
v 0.838681 -0.162265 0.152830
v 0.838681 -0.162265 0.052830
v 0.838681 -0.162265 -0.047170
v 0.838681 -0.062264 -0.147170
v 0.838681 -0.162265 -0.147170
v 0.838681 -0.062264 -0.247170
v 0.838681 -0.262265 -0.247170
v 1.038681 1.237735 0.152830
v 1.038681 -0.162265 0.152830
v 1.038681 1.237735 0.052830
v 1.038681 -0.162265 0.052830
v 1.038681 1.237735 -0.047170
v 1.038681 -0.162265 -0.047170
v 1.038681 1.237735 -0.147170
v 1.038681 -0.162265 -0.147170
v -1.061319 1.237735 0.152830
v -1.061319 1.237735 0.052830
v -1.061319 1.237735 -0.047170
v -1.061319 1.237735 -0.147170
v 1.038681 1.237735 0.152830
v 1.038681 1.237735 0.052830
v 1.038681 1.237735 -0.047170
v 1.038681 1.237735 -0.147170
v -0.861319 -0.062264 0.252830
v -0.861319 -0.062264 0.152830
v -0.861319 -0.062264 -0.147170
v -0.861319 -0.062264 -0.247170
v -0.761319 -0.062264 0.252830
v -0.761319 -0.062264 0.152830
v -0.761319 -0.062264 -0.147170
v -0.761319 -0.062264 -0.247170
v -0.061319 -0.062264 0.252830
v -0.061319 -0.062264 0.152830
v -0.061319 -0.062264 -0.147170
v -0.061319 -0.062264 -0.247170
v 0.038681 -0.062264 0.252830
v 0.038681 -0.062264 0.152830
v 0.038681 -0.062264 -0.147170
v 0.038681 -0.062264 -0.247170
v 0.738681 -0.062264 0.252830
v 0.738681 -0.062264 0.152830
v 0.738681 -0.062264 -0.147170
v 0.738681 -0.062264 -0.247170
v 0.838681 -0.062264 0.252830
v 0.838681 -0.062264 0.152830
v 0.838681 -0.062264 -0.147170
v 0.838681 -0.062264 -0.247170
v -1.061319 -0.162265 0.152830
v -1.061319 -0.162265 0.052830
v -1.061319 -0.162265 -0.047170
v -1.061319 -0.162265 -0.147170
v -0.861319 -0.162265 0.152830
v -0.861319 -0.162265 0.052830
v -0.861319 -0.162265 -0.047170
v -0.861319 -0.162265 -0.147170
v -0.761319 -0.162265 0.152830
v -0.761319 -0.162265 0.052830
v -0.761319 -0.162265 -0.047170
v -0.761319 -0.162265 -0.147170
v -0.061319 -0.162265 0.152830
v -0.061319 -0.162265 0.052830
v -0.061319 -0.162265 -0.047170
v -0.061319 -0.162265 -0.147170
v 0.038681 -0.162265 0.152830
v 0.038681 -0.162265 0.052830
v 0.038681 -0.162265 -0.047170
v 0.038681 -0.162265 -0.147170
v 0.738681 -0.162265 0.152830
v 0.738681 -0.162265 0.052830
v 0.738681 -0.162265 -0.047170
v 0.738681 -0.162265 -0.147170
v 0.838681 -0.162265 0.152830
v 0.838681 -0.162265 0.052830
v 0.838681 -0.162265 -0.047170
v 0.838681 -0.162265 -0.147170
v 1.038681 -0.162265 0.152830
v 1.038681 -0.162265 0.052830
v 1.038681 -0.162265 -0.047170
v 1.038681 -0.162265 -0.147170
v -0.861319 -0.262265 0.252830
v -0.861319 -0.262265 -0.247170
v -0.761319 -0.262265 0.252830
v -0.761319 -0.262265 -0.247170
v -0.061319 -0.262265 0.252830
v -0.061319 -0.262265 -0.247170
v 0.038681 -0.262265 0.252830
v 0.038681 -0.262265 -0.247170
v 0.738681 -0.262265 0.252830
v 0.738681 -0.262265 -0.247170
v 0.838681 -0.262265 0.252830
v 0.838681 -0.262265 -0.247170
v -0.861319 -0.062264 0.252830
v -0.761319 -0.062264 0.252830
v -0.061319 -0.062264 0.252830
v 0.038681 -0.062264 0.252830
v 0.738681 -0.062264 0.252830
v 0.838681 -0.062264 0.252830
v -0.861319 -0.262265 0.252830
v -0.761319 -0.262265 0.252830
v -0.061319 -0.262265 0.252830
v 0.038681 -0.262265 0.252830
v 0.738681 -0.262265 0.252830
v 0.838681 -0.262265 0.252830
v -1.061319 1.237735 0.152830
v 1.038681 1.237735 0.152830
v -0.861319 -0.062264 0.152830
v -0.761319 -0.062264 0.152830
v -0.061319 -0.062264 0.152830
v 0.038681 -0.062264 0.152830
v 0.738681 -0.062264 0.152830
v 0.838681 -0.062264 0.152830
v -1.061319 -0.162265 0.152830
v -0.861319 -0.162265 0.152830
v -0.761319 -0.162265 0.152830
v -0.061319 -0.162265 0.152830
v 0.038681 -0.162265 0.152830
v 0.738681 -0.162265 0.152830
v 0.838681 -0.162265 0.152830
v 1.038681 -0.162265 0.152830
v -1.061319 1.237735 -0.147170
v 1.038681 1.237735 -0.147170
v 0.438681 1.037735 -0.147170
v 0.738681 1.037735 -0.147170
v 0.438681 0.037735 -0.147170
v 0.738681 0.037735 -0.147170
v -0.861319 -0.062264 -0.147170
v -0.761319 -0.062264 -0.147170
v -0.061319 -0.062264 -0.147170
v 0.038681 -0.062264 -0.147170
v 0.738681 -0.062264 -0.147170
v 0.838681 -0.062264 -0.147170
v -1.061319 -0.162265 -0.147170
v -0.861319 -0.162265 -0.147170
v -0.761319 -0.162265 -0.147170
v -0.061319 -0.162265 -0.147170
v 0.038681 -0.162265 -0.147170
v 0.738681 -0.162265 -0.147170
v 0.838681 -0.162265 -0.147170
v 1.038681 -0.162265 -0.147170
v -0.861319 -0.062264 -0.247170
v -0.761319 -0.062264 -0.247170
v -0.061319 -0.062264 -0.247170
v 0.038681 -0.062264 -0.247170
v 0.738681 -0.062264 -0.247170
v 0.838681 -0.062264 -0.247170
v -0.861319 -0.262265 -0.247170
v -0.761319 -0.262265 -0.247170
v -0.061319 -0.262265 -0.247170
v 0.038681 -0.262265 -0.247170
v 0.738681 -0.262265 -0.247170
v 0.838681 -0.262265 -0.247170
vn -1.0000 -0.0000 -0.0000
vn 1.0000 -0.0000 -0.0000
vn -0.0000 1.0000 -0.0000
vn -0.0000 -1.0000 -0.0000
vn -0.0000 -0.0000 1.0000
vn -0.0000 -0.0000 -1.0000
vt 0.802734 0.500000
vt 0.966797 0.500000
vt 0.951172 0.500000
vt 0.958984 0.500000
s 1
usemtl palette.209
f 3/1/1 2/1/1 1/1/1
f 4/1/1 2/1/1 3/1/1
f 5/2/1 4/2/1 3/2/1
f 6/2/1 4/2/1 5/2/1
f 7/1/1 6/1/1 5/1/1
f 8/1/1 6/1/1 7/1/1
f 11/3/1 10/3/1 9/3/1
f 12/3/1 10/3/1 11/3/1
f 13/3/1 10/3/1 12/3/1
f 14/3/1 10/3/1 13/3/1
f 16/3/1 10/3/1 14/3/1
f 17/3/1 16/3/1 15/3/1
f 18/3/1 10/3/1 16/3/1
f 18/3/1 16/3/1 17/3/1
f 21/3/1 20/3/1 19/3/1
f 22/3/1 20/3/1 21/3/1
f 23/3/1 20/3/1 22/3/1
f 24/3/1 20/3/1 23/3/1
f 26/3/1 20/3/1 24/3/1
f 27/3/1 26/3/1 25/3/1
f 28/3/1 20/3/1 26/3/1
f 28/3/1 26/3/1 27/3/1
f 31/3/1 30/3/1 29/3/1
f 32/3/1 30/3/1 31/3/1
f 33/3/1 30/3/1 32/3/1
f 34/3/1 30/3/1 33/3/1
f 36/3/1 30/3/1 34/3/1
f 37/3/1 36/3/1 35/3/1
f 38/3/1 30/3/1 36/3/1
f 38/3/1 36/3/1 37/3/1
f 39/3/2 40/3/2 41/3/2
f 41/3/2 40/3/2 42/3/2
f 42/3/2 40/3/2 43/3/2
f 43/3/2 40/3/2 44/3/2
f 44/3/2 40/3/2 46/3/2
f 45/3/2 46/3/2 47/3/2
f 46/3/2 40/3/2 48/3/2
f 47/3/2 46/3/2 48/3/2
f 49/3/2 50/3/2 51/3/2
f 51/3/2 50/3/2 52/3/2
f 52/3/2 50/3/2 53/3/2
f 53/3/2 50/3/2 54/3/2
f 54/3/2 50/3/2 56/3/2
f 55/3/2 56/3/2 57/3/2
f 56/3/2 50/3/2 58/3/2
f 57/3/2 56/3/2 58/3/2
f 59/3/2 60/3/2 61/3/2
f 61/3/2 60/3/2 62/3/2
f 62/3/2 60/3/2 63/3/2
f 63/3/2 60/3/2 64/3/2
f 64/3/2 60/3/2 66/3/2
f 65/3/2 66/3/2 67/3/2
f 66/3/2 60/3/2 68/3/2
f 67/3/2 66/3/2 68/3/2
f 69/1/2 70/1/2 71/1/2
f 71/1/2 70/1/2 72/1/2
f 71/2/2 72/2/2 73/2/2
f 73/2/2 72/2/2 74/2/2
f 73/1/2 74/1/2 75/1/2
f 75/1/2 74/1/2 76/1/2
f 81/1/3 78/1/3 77/1/3
f 82/2/3 79/2/3 78/2/3
f 82/1/3 78/1/3 81/1/3
f 83/1/3 80/1/3 79/1/3
f 83/2/3 79/2/3 82/2/3
f 84/1/3 80/1/3 83/1/3
f 89/3/3 86/3/3 85/3/3
f 90/3/3 86/3/3 89/3/3
f 91/3/3 88/3/3 87/3/3
f 92/3/3 88/3/3 91/3/3
f 97/3/3 94/3/3 93/3/3
f 98/3/3 94/3/3 97/3/3
f 99/3/3 96/3/3 95/3/3
f 100/3/3 96/3/3 99/3/3
f 105/3/3 102/3/3 101/3/3
f 106/3/3 102/3/3 105/3/3
f 107/3/3 104/3/3 103/3/3
f 108/3/3 104/3/3 107/3/3
f 109/1/4 110/1/4 113/1/4
f 110/2/4 111/2/4 114/2/4
f 113/1/4 110/1/4 114/1/4
f 111/1/4 112/1/4 115/1/4
f 114/2/4 111/2/4 115/2/4
f 115/1/4 112/1/4 116/1/4
f 117/1/4 118/1/4 121/1/4
f 118/2/4 119/2/4 122/2/4
f 121/1/4 118/1/4 122/1/4
f 119/1/4 120/1/4 123/1/4
f 122/2/4 119/2/4 123/2/4
f 123/1/4 120/1/4 124/1/4
f 125/1/4 126/1/4 129/1/4
f 126/2/4 127/2/4 130/2/4
f 129/1/4 126/1/4 130/1/4
f 127/1/4 128/1/4 131/1/4
f 130/2/4 127/2/4 131/2/4
f 131/1/4 128/1/4 132/1/4
f 133/1/4 134/1/4 137/1/4
f 134/2/4 135/2/4 138/2/4
f 137/1/4 134/1/4 138/1/4
f 135/1/4 136/1/4 139/1/4
f 138/2/4 135/2/4 139/2/4
f 139/1/4 136/1/4 140/1/4
f 141/3/4 142/3/4 143/3/4
f 143/3/4 142/3/4 144/3/4
f 145/3/4 146/3/4 147/3/4
f 147/3/4 146/3/4 148/3/4
f 149/3/4 150/3/4 151/3/4
f 151/3/4 150/3/4 152/3/4
f 159/3/5 154/3/5 153/3/5
f 160/3/5 154/3/5 159/3/5
f 161/3/5 156/3/5 155/3/5
f 162/3/5 156/3/5 161/3/5
f 163/3/5 158/3/5 157/3/5
f 164/3/5 158/3/5 163/3/5
f 167/1/5 166/1/5 165/1/5
f 168/1/5 166/1/5 167/1/5
f 169/1/5 166/1/5 168/1/5
f 170/1/5 166/1/5 169/1/5
f 171/1/5 166/1/5 170/1/5
f 172/1/5 166/1/5 171/1/5
f 173/1/5 167/1/5 165/1/5
f 174/1/5 167/1/5 173/1/5
f 175/1/5 169/1/5 168/1/5
f 176/1/5 169/1/5 175/1/5
f 177/1/5 171/1/5 170/1/5
f 178/1/5 171/1/5 177/1/5
f 179/1/5 166/1/5 172/1/5
f 180/1/5 166/1/5 179/1/5
f 181/1/6 182/1/6 183/1/6
f 183/1/6 182/1/6 184/1/6
f 181/1/6 183/1/6 185/1/6
f 183/4/6 184/4/6 185/4/6
f 184/1/6 182/1/6 186/1/6
f 185/4/6 184/4/6 186/4/6
f 181/1/6 185/1/6 187/1/6
f 185/1/6 186/1/6 187/1/6
f 187/1/6 186/1/6 188/1/6
f 188/1/6 186/1/6 189/1/6
f 189/1/6 186/1/6 190/1/6
f 186/1/6 182/1/6 191/1/6
f 190/1/6 186/1/6 191/1/6
f 191/1/6 182/1/6 192/1/6
f 181/1/6 187/1/6 193/1/6
f 193/1/6 187/1/6 194/1/6
f 188/1/6 189/1/6 195/1/6
f 195/1/6 189/1/6 196/1/6
f 190/1/6 191/1/6 197/1/6
f 197/1/6 191/1/6 198/1/6
f 192/1/6 182/1/6 199/1/6
f 199/1/6 182/1/6 200/1/6
f 201/3/6 202/3/6 207/3/6
f 207/3/6 202/3/6 208/3/6
f 203/3/6 204/3/6 209/3/6
f 209/3/6 204/3/6 210/3/6
f 205/3/6 206/3/6 211/3/6
f 211/3/6 206/3/6 212/3/6
