# Blender 4.4.3
# www.blender.org
mtllib Untitled_063.mtl
o Untitled.063
v 0.975401 1.895091 1.196721
v -0.224600 1.895091 1.196721
v -0.524599 1.895091 1.196721
v -1.724600 1.895091 1.196721
v 0.875401 1.895091 1.096721
v 0.175402 1.895091 1.096721
v -0.224600 1.895091 1.096721
v -0.524599 1.895091 1.096721
v 0.775400 1.895091 0.996721
v 0.275400 1.895091 0.996721
v 0.675402 1.895091 0.896721
v 0.575401 1.895091 0.896721
v 0.475401 1.895091 0.896721
v 0.375401 1.895091 0.896721
v 0.475401 1.895091 0.696721
v 0.375401 1.895091 0.696721
v 0.575401 1.895091 0.596721
v 0.375401 1.895091 0.596721
v 0.675402 1.895091 0.396721
v 0.375401 1.895091 0.396721
v 0.775400 1.895091 0.296721
v 0.275400 1.895091 0.296721
v 0.875401 1.895091 0.196721
v 0.175402 1.895091 0.196721
v -0.224600 1.895091 -1.903279
v -0.524599 1.895091 -1.903279
v 0.975401 1.895091 -2.003279
v -0.224600 1.895091 -2.003279
v -0.524599 1.895091 -2.003279
v -1.724600 1.895091 -2.003279
v 0.975401 -1.104909 1.196721
v -0.224600 -1.104909 1.196721
v -0.524599 -1.104909 1.196721
v -1.724600 -1.104909 1.196721
v -0.224600 -1.104909 1.096721
v -0.524599 -1.104909 1.096721
v 0.775400 -1.104909 0.996721
v 0.675402 -1.104909 0.996721
v 0.475401 -1.104909 0.996721
v 0.375401 -1.104909 0.996721
v 0.275400 -1.104909 0.996721
v 0.175402 -1.104909 0.996721
v -0.024599 -1.104909 0.996721
v -0.124599 -1.104909 0.996721
v 0.775400 -1.104909 0.896721
v 0.675402 -1.104909 0.896721
v 0.575401 -1.104909 0.896721
v 0.475401 -1.104909 0.896721
v 0.375401 -1.104909 0.896721
v 0.075401 -1.104909 0.896721
v -0.024599 -1.104909 0.896721
v 0.775400 -1.104909 0.796721
v 0.675402 -1.104909 0.796721
v 0.575401 -1.104909 0.796721
v 0.475401 -1.104909 0.796721
v 0.375401 -1.104909 0.796721
v 0.275400 -1.104909 0.796721
v 0.075401 -1.104909 0.796721
v -0.024599 -1.104909 0.796721
v 0.775400 -1.104909 0.696721
v 0.675402 -1.104909 0.696721
v 0.575401 -1.104909 0.696721
v 0.475401 -1.104909 0.696721
v 0.375401 -1.104909 0.696721
v 0.275400 -1.104909 0.696721
v 0.075401 -1.104909 0.696721
v -0.024599 -1.104909 0.696721
v -0.124599 -1.104909 0.696721
v 0.775400 -1.104909 0.596721
v 0.675402 -1.104909 0.596721
v 0.575401 -1.104909 0.596721
v 0.475401 -1.104909 0.596721
v 0.275400 -1.104909 0.596721
v 0.175402 -1.104909 0.596721
v 0.075401 -1.104909 0.596721
v -0.024599 -1.104909 0.596721
v -0.224600 -1.104909 -1.903279
v -0.524599 -1.104909 -1.903279
v 0.975401 -1.104909 -2.003279
v -0.224600 -1.104909 -2.003279
v -0.524599 -1.104909 -2.003279
v -1.724600 -1.104909 -2.003279
v 0.975401 1.895091 1.196721
v 0.975401 1.895091 -2.003279
v 0.975401 -0.404909 -1.303279
v 0.975401 -0.404909 -1.803279
v 0.975401 -0.604909 -1.303279
v 0.975401 -0.604909 -1.803279
v 0.975401 -0.704909 -1.303279
v 0.975401 -0.704909 -1.803279
v 0.975401 -0.904909 -1.303279
v 0.975401 -0.904909 -1.803279
v 0.975401 -1.104909 1.196721
v 0.975401 -1.104909 -2.003279
v -1.724600 1.895091 1.196721
v -1.724600 1.895091 -2.003279
v -1.724600 -0.004910 -1.203279
v -1.724600 -0.004910 -1.803279
v -1.724600 -0.104909 -1.303279
v -1.724600 -0.104909 -1.703279
v -1.724600 -0.804910 -1.303279
v -1.724600 -0.804910 -1.703279
v -1.724600 -0.904909 -1.203279
v -1.724600 -0.904909 -1.803279
v -1.724600 -1.104909 1.196721
v -1.724600 -1.104909 -2.003279
v 0.975401 1.895091 1.196721
v 0.975401 -1.104909 1.196721
v -0.224600 1.895091 1.196721
v -0.224600 -1.104909 1.196721
v -0.524599 1.895091 1.196721
v -0.524599 -1.104909 1.196721
v -1.724600 1.895091 1.196721
v -1.724600 -1.104909 1.196721
v 0.975401 1.895091 -2.003279
v 0.975401 -1.104909 -2.003279
v -0.224600 1.895091 -2.003279
v -0.224600 -1.104909 -2.003279
v -0.524599 1.895091 -2.003279
v -0.524599 -1.104909 -2.003279
v -1.724600 1.895091 -2.003279
v -1.724600 -1.104909 -2.003279
vn -0.0000 1.0000 -0.0000
vn -0.0000 -1.0000 -0.0000
vn 1.0000 -0.0000 -0.0000
vn 1.0000 -0.0000 0.0001
vn -1.0000 -0.0000 -0.0000
vn -0.0000 -0.0000 1.0000
vn -0.0000 -0.0000 -1.0000
vt 0.548828 0.500000
vt 0.916016 0.500000
vt 0.552734 0.500000
vt 0.537109 0.500000
vt 0.541016 0.500000
vt 0.908203 0.500000
s 1
usemtl palette.213
f 5/1/1 2/1/1 1/1/1
f 6/1/1 2/1/1 5/1/1
f 7/2/1 3/2/1 2/2/1
f 7/1/1 2/1/1 6/1/1
f 8/1/1 4/1/1 3/1/1
f 8/2/1 3/2/1 7/2/1
f 9/3/1 6/3/1 5/3/1
f 10/3/1 6/3/1 9/3/1
f 11/1/1 10/1/1 9/1/1
f 12/1/1 10/1/1 11/1/1
f 13/1/1 10/1/1 12/1/1
f 14/1/1 10/1/1 13/1/1
f 15/1/1 13/1/1 12/1/1
f 15/3/1 14/3/1 13/3/1
f 16/1/1 10/1/1 14/1/1
f 16/3/1 14/3/1 15/3/1
f 17/3/1 12/3/1 11/3/1
f 17/1/1 15/1/1 12/1/1
f 17/1/1 16/1/1 15/1/1
f 18/1/1 10/1/1 16/1/1
f 18/1/1 16/1/1 17/1/1
f 19/1/1 11/1/1 9/1/1
f 19/3/1 17/3/1 11/3/1
f 19/3/1 18/3/1 17/3/1
f 20/1/1 10/1/1 18/1/1
f 20/3/1 18/3/1 19/3/1
f 21/3/1 9/3/1 5/3/1
f 21/1/1 19/1/1 9/1/1
f 21/1/1 20/1/1 19/1/1
f 22/1/1 10/1/1 20/1/1
f 22/1/1 20/1/1 21/1/1
f 22/3/1 6/3/1 10/3/1
f 23/1/1 5/1/1 1/1/1
f 23/3/1 21/3/1 5/3/1
f 23/3/1 22/3/1 21/3/1
f 24/1/1 7/1/1 6/1/1
f 24/3/1 22/3/1 23/3/1
f 24/3/1 6/3/1 22/3/1
f 24/1/1 8/1/1 7/1/1
f 25/1/1 24/1/1 23/1/1
f 25/1/1 8/1/1 24/1/1
f 26/1/1 4/1/1 8/1/1
f 26/1/1 8/1/1 25/1/1
f 27/1/1 23/1/1 1/1/1
f 27/1/1 25/1/1 23/1/1
f 28/2/1 26/2/1 25/2/1
f 28/1/1 25/1/1 27/1/1
f 29/1/1 4/1/1 26/1/1
f 29/2/1 26/2/1 28/2/1
f 30/1/1 4/1/1 29/1/1
f 31/1/2 32/1/2 35/1/2
f 32/2/2 33/2/2 35/2/2
f 33/1/2 34/1/2 36/1/2
f 35/2/2 33/2/2 36/2/2
f 31/1/2 35/1/2 37/1/2
f 35/1/2 36/1/2 37/1/2
f 37/1/2 36/1/2 38/1/2
f 38/1/2 36/1/2 39/1/2
f 39/1/2 36/1/2 40/1/2
f 40/1/2 36/1/2 41/1/2
f 41/1/2 36/1/2 42/1/2
f 42/1/2 36/1/2 43/1/2
f 43/1/2 36/1/2 44/1/2
f 31/1/2 37/1/2 45/1/2
f 37/4/2 38/4/2 45/4/2
f 38/1/2 39/1/2 46/1/2
f 45/4/2 38/4/2 46/4/2
f 46/1/2 39/1/2 47/1/2
f 39/4/2 40/4/2 48/4/2
f 47/1/2 39/1/2 48/1/2
f 40/1/2 41/1/2 49/1/2
f 48/4/2 40/4/2 49/4/2
f 42/1/2 43/1/2 50/1/2
f 43/5/2 44/5/2 51/5/2
f 50/1/2 43/1/2 51/1/2
f 31/1/2 45/1/2 52/1/2
f 45/1/2 46/1/2 52/1/2
f 46/4/2 47/4/2 53/4/2
f 52/1/2 46/1/2 53/1/2
f 47/1/2 48/1/2 54/1/2
f 53/4/2 47/4/2 54/4/2
f 48/5/2 49/5/2 55/5/2
f 54/1/2 48/1/2 55/1/2
f 49/1/2 41/1/2 56/1/2
f 55/5/2 49/5/2 56/5/2
f 41/5/2 42/5/2 57/5/2
f 56/1/2 41/1/2 57/1/2
f 42/1/2 50/1/2 58/1/2
f 50/5/2 51/5/2 58/5/2
f 51/5/2 44/5/2 59/5/2
f 58/5/2 51/5/2 59/5/2
f 31/1/2 52/1/2 60/1/2
f 52/5/2 53/5/2 60/5/2
f 53/1/2 54/1/2 61/1/2
f 60/5/2 53/5/2 61/5/2
f 54/4/2 55/4/2 62/4/2
f 61/1/2 54/1/2 62/1/2
f 55/1/2 56/1/2 63/1/2
f 62/4/2 55/4/2 63/4/2
f 56/5/2 57/5/2 64/5/2
f 63/1/2 56/1/2 64/1/2
f 57/5/2 42/5/2 65/5/2
f 64/5/2 57/5/2 65/5/2
f 42/1/2 58/1/2 66/1/2
f 58/1/2 59/1/2 66/1/2
f 59/5/2 44/5/2 67/5/2
f 66/1/2 59/1/2 67/1/2
f 44/1/2 36/1/2 68/1/2
f 67/5/2 44/5/2 68/5/2
f 60/4/2 61/4/2 69/4/2
f 31/1/2 60/1/2 69/1/2
f 61/1/2 62/1/2 70/1/2
f 69/4/2 61/4/2 70/4/2
f 62/5/2 63/5/2 71/5/2
f 70/1/2 62/1/2 71/1/2
f 63/1/2 64/1/2 72/1/2
f 71/5/2 63/5/2 72/5/2
f 64/1/2 65/1/2 72/1/2
f 65/5/2 42/5/2 73/5/2
f 72/1/2 65/1/2 73/1/2
f 42/1/2 66/1/2 74/1/2
f 73/5/2 42/5/2 74/5/2
f 66/5/2 67/5/2 75/5/2
f 74/1/2 66/1/2 75/1/2
f 67/1/2 68/1/2 76/1/2
f 75/5/2 67/5/2 76/5/2
f 73/1/2 74/1/2 77/1/2
f 76/1/2 68/1/2 77/1/2
f 75/1/2 76/1/2 77/1/2
f 69/1/2 70/1/2 77/1/2
f 68/1/2 36/1/2 77/1/2
f 70/1/2 71/1/2 77/1/2
f 74/1/2 75/1/2 77/1/2
f 72/1/2 73/1/2 77/1/2
f 71/1/2 72/1/2 77/1/2
f 36/1/2 34/1/2 78/1/2
f 77/1/2 36/1/2 78/1/2
f 69/1/2 77/1/2 79/1/2
f 31/1/2 69/1/2 79/1/2
f 77/2/2 78/2/2 80/2/2
f 79/1/2 77/1/2 80/1/2
f 78/1/2 34/1/2 81/1/2
f 80/2/2 78/2/2 81/2/2
f 81/1/2 34/1/2 82/1/2
f 85/1/3 84/1/3 83/1/3
f 86/1/3 84/1/3 85/1/3
f 87/1/3 85/1/3 83/1/3
f 87/3/3 86/3/3 85/3/3
f 88/1/3 84/1/3 86/1/3
f 88/3/3 86/3/3 87/3/3
f 89/1/3 87/1/3 83/1/3
f 89/1/3 88/1/3 87/1/3
f 90/1/4 84/1/3 88/1/3
f 90/1/4 88/1/3 89/1/3
f 91/1/3 89/1/3 83/1/3
f 91/3/3 90/3/4 89/3/3
f 92/1/3 84/1/3 90/1/4
f 92/3/3 90/3/4 91/3/3
f 93/1/3 91/1/3 83/1/3
f 93/1/3 92/1/3 91/1/3
f 94/1/3 84/1/3 92/1/3
f 94/1/3 92/1/3 93/1/3
f 95/1/5 96/1/5 97/1/5
f 97/1/5 96/1/5 98/1/5
f 97/6/5 98/6/5 99/6/5
f 99/6/5 98/6/5 100/6/5
f 97/6/5 99/6/5 101/6/5
f 99/2/5 100/2/5 101/2/5
f 100/6/5 98/6/5 102/6/5
f 101/2/5 100/2/5 102/2/5
f 95/1/5 97/1/5 103/1/5
f 97/6/5 101/6/5 103/6/5
f 101/6/5 102/6/5 103/6/5
f 102/6/5 98/6/5 104/6/5
f 103/6/5 102/6/5 104/6/5
f 98/1/5 96/1/5 104/1/5
f 95/1/5 103/1/5 105/1/5
f 103/1/5 104/1/5 105/1/5
f 104/1/5 96/1/5 106/1/5
f 105/1/5 104/1/5 106/1/5
f 109/1/6 108/1/6 107/1/6
f 110/1/6 108/1/6 109/1/6
f 111/2/6 110/2/6 109/2/6
f 112/2/6 110/2/6 111/2/6
f 113/1/6 112/1/6 111/1/6
f 114/1/6 112/1/6 113/1/6
f 115/1/7 116/1/7 117/1/7
f 117/1/7 116/1/7 118/1/7
f 117/2/7 118/2/7 119/2/7
f 119/2/7 118/2/7 120/2/7
f 119/1/7 120/1/7 121/1/7
f 121/1/7 120/1/7 122/1/7
