# Blender 4.4.3
# www.blender.org
mtllib Untitled_043.mtl
o Untitled.043
v 1.393322 1.439105 0.910614
v -1.406679 1.439105 0.910614
v -0.306679 1.439105 0.810614
v -1.306679 1.439105 0.810614
v -0.406679 1.439105 0.710614
v -1.206678 1.439105 0.710614
v -0.406679 1.439105 0.210614
v -1.206678 1.439105 0.210614
v -0.306679 1.439105 0.110614
v -1.306679 1.439105 0.110614
v 1.193321 1.439105 -0.489386
v 0.993320 1.439105 -0.489386
v 0.693321 1.439105 -0.489386
v 0.593321 1.439105 -0.489386
v 0.293322 1.439105 -0.489386
v 0.193321 1.439105 -0.489386
v 1.093321 1.439105 -0.589386
v 0.993320 1.439105 -0.589386
v 0.793322 1.439105 -0.589386
v 0.693321 1.439105 -0.589386
v 0.593321 1.439105 -0.589386
v 0.493320 1.439105 -0.589386
v 0.193321 1.439105 -0.589386
v 0.093321 1.439105 -0.589386
v 1.093321 1.439105 -0.689386
v 0.893322 1.439105 -0.689386
v 0.593321 1.439105 -0.689386
v 0.493320 1.439105 -0.689386
v 0.293322 1.439105 -0.689386
v 0.093321 1.439105 -0.689386
v -0.006680 1.439105 -0.689386
v 1.193321 1.439105 -0.789386
v 0.893322 1.439105 -0.789386
v 0.793322 1.439105 -0.789386
v 0.693321 1.439105 -0.789386
v 0.493320 1.439105 -0.789386
v 0.293322 1.439105 -0.789386
v 0.093321 1.439105 -0.789386
v -0.006680 1.439105 -0.789386
v 1.393322 1.439105 -0.989386
v -1.406679 1.439105 -0.989386
v 1.393322 -1.260895 0.910614
v -1.406679 -1.260895 0.910614
v 1.293322 -1.260895 0.810614
v 0.293322 -1.260895 0.810614
v -0.006680 -1.260895 0.810614
v -1.306679 -1.260895 0.810614
v 1.193321 -1.260895 0.710614
v 1.093321 -1.260895 0.710614
v 0.993320 -1.260895 0.710614
v 0.793322 -1.260895 0.710614
v 0.693321 -1.260895 0.710614
v 0.393322 -1.260895 0.710614
v -0.106678 -1.260895 0.710614
v -0.406679 -1.260895 0.710614
v -0.506680 -1.260895 0.710614
v -0.806679 -1.260895 0.710614
v -0.906679 -1.260895 0.710614
v -1.206678 -1.260895 0.710614
v 1.193321 -1.260895 0.610614
v 1.093321 -1.260895 0.610614
v 0.993320 -1.260895 0.610614
v 0.793322 -1.260895 0.610614
v 0.693321 -1.260895 0.610614
v 0.393322 -1.260895 0.610614
v -0.606678 -1.260895 0.610614
v -0.706678 -1.260895 0.610614
v 1.193321 -1.260895 0.510614
v 1.093321 -1.260895 0.510614
v 0.993320 -1.260895 0.510614
v 0.893322 -1.260895 0.510614
v 0.793322 -1.260895 0.510614
v 0.593321 -1.260895 0.510614
v 0.493320 -1.260895 0.510614
v 0.393322 -1.260895 0.510614
v -0.206678 -1.260895 0.510614
v -0.306679 -1.260895 0.510614
v -0.606678 -1.260895 0.510614
v -0.706678 -1.260895 0.510614
v -1.006680 -1.260895 0.510614
v -1.106678 -1.260895 0.510614
v 1.193321 -1.260895 0.410614
v 1.093321 -1.260895 0.410614
v 0.993320 -1.260895 0.410614
v 0.893322 -1.260895 0.410614
v 0.793322 -1.260895 0.410614
v 0.593321 -1.260895 0.410614
v 0.493320 -1.260895 0.410614
v 0.393322 -1.260895 0.410614
v -0.606678 -1.260895 0.410614
v -0.706678 -1.260895 0.410614
v 1.293322 -1.260895 0.310614
v 0.293322 -1.260895 0.310614
v -0.206678 -1.260895 0.310614
v -0.306679 -1.260895 0.310614
v -0.606678 -1.260895 0.310614
v -0.706678 -1.260895 0.310614
v -1.006680 -1.260895 0.310614
v -1.106678 -1.260895 0.310614
v -0.106678 -1.260895 0.210614
v -0.406679 -1.260895 0.210614
v -0.506680 -1.260895 0.210614
v -0.806679 -1.260895 0.210614
v -0.906679 -1.260895 0.210614
v -1.206678 -1.260895 0.210614
v 1.293322 -1.260895 0.110614
v 0.293322 -1.260895 0.110614
v -0.006680 -1.260895 0.110614
v -1.306679 -1.260895 0.110614
v 1.393322 -1.260895 -0.989386
v -1.406679 -1.260895 -0.989386
v 1.393322 1.439105 0.910614
v 1.393322 1.439105 -0.989386
v 1.393322 1.239105 -0.389386
v 1.393322 1.239105 -0.789386
v 1.393322 1.039105 -0.389386
v 1.393322 1.039105 -0.789386
v 1.393322 0.939105 -0.389386
v 1.393322 0.939105 -0.789386
v 1.393322 0.739105 -0.389386
v 1.393322 0.739105 -0.789386
v 1.393322 0.339105 0.910614
v 1.393322 0.339105 0.810614
v 1.393322 0.339105 -0.889386
v 1.393322 0.339105 -0.989386
v 1.393322 -0.160895 0.910614
v 1.393322 -0.160895 0.810614
v 1.393322 -0.160895 -0.889386
v 1.393322 -0.160895 -0.989386
v 1.393322 -1.260895 0.910614
v 1.393322 -1.260895 -0.989386
v -1.406679 1.439105 0.910614
v -1.406679 1.439105 -0.989386
v -1.406679 1.239105 -0.389386
v -1.406679 1.239105 -0.489386
v -1.406679 1.139105 -0.489386
v -1.406679 1.139105 -0.589386
v -1.406679 1.039105 -0.089386
v -1.406679 1.039105 -0.389386
v -1.406679 1.039105 -0.589386
v -1.406679 1.039105 -0.689386
v -1.406679 0.939105 -0.689386
v -1.406679 0.939105 -0.789386
v -1.406679 0.839105 -0.689386
v -1.406679 0.839105 -0.789386
v -1.406679 0.739105 -0.089386
v -1.406679 0.739105 -0.389386
v -1.406679 0.739105 -0.589386
v -1.406679 0.739105 -0.689386
v -1.406679 0.639105 -0.489386
v -1.406679 0.639105 -0.589386
v -1.406679 0.539105 -0.389386
v -1.406679 0.539105 -0.489386
v -1.406679 0.339105 0.910614
v -1.406679 0.339105 0.810614
v -1.406679 0.339105 -0.889386
v -1.406679 0.339105 -0.989386
v -1.406679 -0.160895 0.910614
v -1.406679 -0.160895 0.810614
v -1.406679 -0.160895 -0.889386
v -1.406679 -0.160895 -0.989386
v -1.406679 -1.260895 0.910614
v -1.406679 -1.260895 -0.989386
v 1.393322 1.439105 0.910614
v 1.393322 0.339105 0.910614
v 1.393322 -0.160895 0.910614
v 1.393322 -1.260895 0.910614
v -1.406679 1.439105 0.910614
v -1.406679 0.339105 0.910614
v -1.406679 -0.160895 0.910614
v -1.406679 -1.260895 0.910614
v 1.393322 1.439105 -0.989386
v 1.393322 0.339105 -0.989386
v 1.393322 -0.160895 -0.989386
v 1.393322 -1.260895 -0.989386
v -1.406679 1.439105 -0.989386
v -1.406679 0.339105 -0.989386
v -1.406679 -0.160895 -0.989386
v -1.406679 -1.260895 -0.989386
vn -0.0000 1.0000 -0.0000
vn -0.0000 -1.0000 -0.0000
vn 1.0000 -0.0000 -0.0000
vn -1.0000 -0.0000 -0.0000
vn -0.0000 -0.0000 1.0000
vn -0.0000 -0.0000 -1.0000
vt 0.033203 0.500000
vt 0.548828 0.500000
vt 0.986328 0.500000
vt 0.958984 0.500000
vt 0.251953 0.500000
s 1
usemtl palette.184
f 3/1/1 2/1/1 1/1/1
f 4/1/1 2/1/1 3/1/1
f 5/2/1 4/2/1 3/2/1
f 6/2/1 4/2/1 5/2/1
f 7/2/1 5/2/1 3/2/1
f 7/1/1 6/1/1 5/1/1
f 8/2/1 4/2/1 6/2/1
f 8/1/1 6/1/1 7/1/1
f 9/1/1 3/1/1 1/1/1
f 9/2/1 7/2/1 3/2/1
f 9/2/1 8/2/1 7/2/1
f 10/2/1 4/2/1 8/2/1
f 10/2/1 8/2/1 9/2/1
f 10/1/1 2/1/1 4/1/1
f 11/1/1 9/1/1 1/1/1
f 11/1/1 10/1/1 9/1/1
f 12/1/1 10/1/1 11/1/1
f 13/1/1 10/1/1 12/1/1
f 14/1/1 10/1/1 13/1/1
f 15/1/1 10/1/1 14/1/1
f 16/1/1 10/1/1 15/1/1
f 17/3/1 12/3/1 11/3/1
f 18/1/1 13/1/1 12/1/1
f 18/3/1 12/3/1 17/3/1
f 19/1/1 13/1/1 18/1/1
f 20/3/1 14/3/1 13/3/1
f 20/1/1 13/1/1 19/1/1
f 21/1/1 15/1/1 14/1/1
f 21/3/1 14/3/1 20/3/1
f 22/1/1 15/1/1 21/1/1
f 23/1/1 10/1/1 16/1/1
f 23/3/1 16/3/1 15/3/1
f 24/1/1 10/1/1 23/1/1
f 25/3/1 17/3/1 11/3/1
f 25/1/1 19/1/1 18/1/1
f 25/1/1 18/1/1 17/1/1
f 26/1/1 19/1/1 25/1/1
f 27/3/1 22/3/1 21/3/1
f 27/1/1 21/1/1 20/1/1
f 28/1/1 15/1/1 22/1/1
f 28/3/1 22/3/1 27/3/1
f 29/3/1 24/3/1 23/3/1
f 29/1/1 15/1/1 28/1/1
f 29/3/1 23/3/1 15/3/1
f 30/1/1 10/1/1 24/1/1
f 30/3/1 24/3/1 29/3/1
f 31/1/1 10/1/1 30/1/1
f 32/1/1 11/1/1 1/1/1
f 32/3/1 25/3/1 11/3/1
f 32/3/1 26/3/1 25/3/1
f 33/1/1 19/1/1 26/1/1
f 33/3/1 26/3/1 32/3/1
f 34/3/1 20/3/1 19/3/1
f 34/1/1 19/1/1 33/1/1
f 35/1/1 27/1/1 20/1/1
f 35/3/1 20/3/1 34/3/1
f 35/1/1 28/1/1 27/1/1
f 36/3/1 29/3/1 28/3/1
f 36/1/1 28/1/1 35/1/1
f 37/1/1 30/1/1 29/1/1
f 37/3/1 29/3/1 36/3/1
f 38/3/1 31/3/1 30/3/1
f 38/1/1 30/1/1 37/1/1
f 39/1/1 10/1/1 31/1/1
f 39/3/1 31/3/1 38/3/1
f 40/1/1 38/1/1 37/1/1
f 40/1/1 34/1/1 33/1/1
f 40/1/1 39/1/1 38/1/1
f 40/1/1 37/1/1 36/1/1
f 40/1/1 32/1/1 1/1/1
f 40/1/1 33/1/1 32/1/1
f 40/1/1 36/1/1 35/1/1
f 40/1/1 35/1/1 34/1/1
f 41/1/1 2/1/1 10/1/1
f 41/1/1 39/1/1 40/1/1
f 41/1/1 10/1/1 39/1/1
f 42/1/2 43/1/2 44/1/2
f 44/1/2 43/1/2 45/1/2
f 45/1/2 43/1/2 46/1/2
f 46/1/2 43/1/2 47/1/2
f 44/4/2 45/4/2 48/4/2
f 48/4/2 45/4/2 49/4/2
f 49/4/2 45/4/2 50/4/2
f 50/4/2 45/4/2 51/4/2
f 51/4/2 45/4/2 52/4/2
f 52/4/2 45/4/2 53/4/2
f 46/3/2 47/3/2 54/3/2
f 54/3/2 47/3/2 55/3/2
f 55/3/2 47/3/2 56/3/2
f 56/3/2 47/3/2 57/3/2
f 57/3/2 47/3/2 58/3/2
f 58/3/2 47/3/2 59/3/2
f 44/4/2 48/4/2 60/4/2
f 48/3/2 49/3/2 60/3/2
f 49/4/2 50/4/2 61/4/2
f 60/3/2 49/3/2 61/3/2
f 50/3/2 51/3/2 62/3/2
f 61/4/2 50/4/2 62/4/2
f 51/4/2 52/4/2 63/4/2
f 62/3/2 51/3/2 63/3/2
f 52/3/2 53/3/2 64/3/2
f 63/4/2 52/4/2 64/4/2
f 53/4/2 45/4/2 65/4/2
f 64/3/2 53/3/2 65/3/2
f 56/1/2 57/1/2 66/1/2
f 66/1/2 57/1/2 67/1/2
f 63/4/2 64/4/2 68/4/2
f 44/4/2 60/4/2 68/4/2
f 60/4/2 61/4/2 68/4/2
f 61/4/2 62/4/2 68/4/2
f 64/4/2 65/4/2 68/4/2
f 62/4/2 63/4/2 68/4/2
f 68/4/2 65/4/2 69/4/2
f 69/4/2 65/4/2 70/4/2
f 70/4/2 65/4/2 71/4/2
f 71/4/2 65/4/2 72/4/2
f 72/4/2 65/4/2 73/4/2
f 73/4/2 65/4/2 74/4/2
f 65/4/2 45/4/2 75/4/2
f 74/4/2 65/4/2 75/4/2
f 54/1/2 55/1/2 76/1/2
f 76/1/2 55/1/2 77/1/2
f 66/3/2 67/3/2 78/3/2
f 56/1/2 66/1/2 78/1/2
f 67/1/2 57/1/2 79/1/2
f 78/3/2 67/3/2 79/3/2
f 58/1/2 59/1/2 80/1/2
f 80/1/2 59/1/2 81/1/2
f 44/4/2 68/4/2 82/4/2
f 68/3/2 69/3/2 82/3/2
f 69/4/2 70/4/2 83/4/2
f 82/3/2 69/3/2 83/3/2
f 70/3/2 71/3/2 84/3/2
f 83/4/2 70/4/2 84/4/2
f 71/4/2 72/4/2 85/4/2
f 84/3/2 71/3/2 85/3/2
f 72/3/2 73/3/2 86/3/2
f 85/4/2 72/4/2 86/4/2
f 73/4/2 74/4/2 87/4/2
f 86/3/2 73/3/2 87/3/2
f 74/3/2 75/3/2 88/3/2
f 87/4/2 74/4/2 88/4/2
f 75/4/2 45/4/2 89/4/2
f 88/3/2 75/3/2 89/3/2
f 56/1/2 78/1/2 90/1/2
f 78/1/2 79/1/2 90/1/2
f 79/1/2 57/1/2 91/1/2
f 90/1/2 79/1/2 91/1/2
f 42/1/2 44/1/2 92/1/2
f 85/4/2 86/4/2 92/4/2
f 87/4/2 88/4/2 92/4/2
f 44/4/2 82/4/2 92/4/2
f 88/4/2 89/4/2 92/4/2
f 82/4/2 83/4/2 92/4/2
f 86/4/2 87/4/2 92/4/2
f 84/4/2 85/4/2 92/4/2
f 83/4/2 84/4/2 92/4/2
f 45/1/2 46/1/2 93/1/2
f 92/4/2 89/4/2 93/4/2
f 89/4/2 45/4/2 93/4/2
f 54/1/2 76/1/2 94/1/2
f 76/3/2 77/3/2 94/3/2
f 77/1/2 55/1/2 95/1/2
f 94/3/2 77/3/2 95/3/2
f 56/1/2 90/1/2 96/1/2
f 90/3/2 91/3/2 96/3/2
f 91/1/2 57/1/2 97/1/2
f 96/3/2 91/3/2 97/3/2
f 58/1/2 80/1/2 98/1/2
f 80/3/2 81/3/2 98/3/2
f 81/1/2 59/1/2 99/1/2
f 98/3/2 81/3/2 99/3/2
f 54/1/2 94/1/2 100/1/2
f 94/1/2 95/1/2 100/1/2
f 46/3/2 54/3/2 100/3/2
f 95/1/2 55/1/2 101/1/2
f 100/1/2 95/1/2 101/1/2
f 55/3/2 56/3/2 101/3/2
f 56/1/2 96/1/2 102/1/2
f 101/3/2 56/3/2 102/3/2
f 96/1/2 97/1/2 102/1/2
f 57/3/2 58/3/2 103/3/2
f 102/1/2 97/1/2 103/1/2
f 97/1/2 57/1/2 103/1/2
f 98/1/2 99/1/2 104/1/2
f 103/3/2 58/3/2 104/3/2
f 58/1/2 98/1/2 104/1/2
f 59/3/2 47/3/2 105/3/2
f 104/1/2 99/1/2 105/1/2
f 99/1/2 59/1/2 105/1/2
f 42/1/2 92/1/2 106/1/2
f 92/3/2 93/3/2 106/3/2
f 93/1/2 46/1/2 107/1/2
f 106/3/2 93/3/2 107/3/2
f 100/3/2 101/3/2 108/3/2
f 107/1/2 46/1/2 108/1/2
f 103/3/2 104/3/2 108/3/2
f 101/3/2 102/3/2 108/3/2
f 104/3/2 105/3/2 108/3/2
f 102/3/2 103/3/2 108/3/2
f 46/3/2 100/3/2 108/3/2
f 47/1/2 43/1/2 109/1/2
f 108/3/2 105/3/2 109/3/2
f 105/3/2 47/3/2 109/3/2
f 106/1/2 107/1/2 110/1/2
f 107/1/2 108/1/2 110/1/2
f 108/1/2 109/1/2 110/1/2
f 42/1/2 106/1/2 110/1/2
f 109/1/2 43/1/2 111/1/2
f 110/1/2 109/1/2 111/1/2
f 114/1/3 113/1/3 112/1/3
f 115/1/3 113/1/3 114/1/3
f 116/1/3 114/1/3 112/1/3
f 116/2/3 115/2/3 114/2/3
f 117/1/3 113/1/3 115/1/3
f 117/2/3 115/2/3 116/2/3
f 118/1/3 116/1/3 112/1/3
f 118/1/3 117/1/3 116/1/3
f 119/1/3 113/1/3 117/1/3
f 119/1/3 117/1/3 118/1/3
f 120/1/3 118/1/3 112/1/3
f 120/2/3 119/2/3 118/2/3
f 121/1/3 113/1/3 119/1/3
f 121/2/3 119/2/3 120/2/3
f 122/1/3 120/1/3 112/1/3
f 122/1/3 121/1/3 120/1/3
f 123/1/3 121/1/3 122/1/3
f 124/1/3 113/1/3 121/1/3
f 124/1/3 121/1/3 123/1/3
f 125/1/3 113/1/3 124/1/3
f 126/2/3 123/2/3 122/2/3
f 127/1/3 124/1/3 123/1/3
f 127/2/3 123/2/3 126/2/3
f 128/2/3 125/2/3 124/2/3
f 128/1/3 124/1/3 127/1/3
f 129/2/3 125/2/3 128/2/3
f 130/1/3 127/1/3 126/1/3
f 130/1/3 128/1/3 127/1/3
f 130/1/3 129/1/3 128/1/3
f 131/1/3 129/1/3 130/1/3
f 132/1/4 133/1/4 134/1/4
f 134/1/4 133/1/4 135/1/4
f 134/5/4 135/5/4 136/5/4
f 135/1/4 133/1/4 136/1/4
f 136/1/4 133/1/4 137/1/4
f 132/1/4 134/1/4 138/1/4
f 134/5/4 136/5/4 139/5/4
f 138/1/4 134/1/4 139/1/4
f 136/5/4 137/5/4 139/5/4
f 137/1/4 133/1/4 140/1/4
f 139/5/4 137/5/4 140/5/4
f 140/1/4 133/1/4 141/1/4
f 138/5/4 139/5/4 142/5/4
f 141/1/4 133/1/4 142/1/4
f 140/5/4 141/5/4 142/5/4
f 139/5/4 140/5/4 142/5/4
f 142/1/4 133/1/4 143/1/4
f 138/5/4 142/5/4 144/5/4
f 142/5/4 143/5/4 144/5/4
f 143/1/4 133/1/4 145/1/4
f 144/5/4 143/5/4 145/5/4
f 132/1/4 138/1/4 146/1/4
f 138/5/4 144/5/4 146/5/4
f 146/5/4 144/5/4 147/5/4
f 147/5/4 144/5/4 148/5/4
f 144/1/4 145/1/4 149/1/4
f 148/5/4 144/5/4 149/5/4
f 147/5/4 148/5/4 150/5/4
f 148/1/4 149/1/4 151/1/4
f 150/5/4 148/5/4 151/5/4
f 146/1/4 147/1/4 152/1/4
f 147/5/4 150/5/4 152/5/4
f 150/1/4 151/1/4 153/1/4
f 152/5/4 150/5/4 153/5/4
f 132/1/4 146/1/4 154/1/4
f 146/1/4 152/1/4 154/1/4
f 152/1/4 153/1/4 154/1/4
f 154/1/4 153/1/4 155/1/4
f 145/1/4 133/1/4 156/1/4
f 155/1/4 153/1/4 156/1/4
f 149/1/4 145/1/4 156/1/4
f 153/1/4 151/1/4 156/1/4
f 151/1/4 149/1/4 156/1/4
f 156/1/4 133/1/4 157/1/4
f 154/2/4 155/2/4 158/2/4
f 155/1/4 156/1/4 159/1/4
f 158/2/4 155/2/4 159/2/4
f 156/2/4 157/2/4 160/2/4
f 159/1/4 156/1/4 160/1/4
f 160/2/4 157/2/4 161/2/4
f 158/1/4 159/1/4 162/1/4
f 159/1/4 160/1/4 162/1/4
f 160/1/4 161/1/4 162/1/4
f 162/1/4 161/1/4 163/1/4
f 168/1/5 165/1/5 164/1/5
f 169/2/5 166/2/5 165/2/5
f 169/1/5 165/1/5 168/1/5
f 170/1/5 167/1/5 166/1/5
f 170/2/5 166/2/5 169/2/5
f 171/1/5 167/1/5 170/1/5
f 172/1/6 173/1/6 176/1/6
f 173/2/6 174/2/6 177/2/6
f 176/1/6 173/1/6 177/1/6
f 174/1/6 175/1/6 178/1/6
f 177/2/6 174/2/6 178/2/6
f 178/1/6 175/1/6 179/1/6
