# Blender 4.4.3
# www.blender.org
mtllib Cactus.mtl
o Cactus
v -0.352564 0.349999 0.835898
v -0.352564 -0.350001 0.835898
v -0.352564 0.349999 0.335898
v -0.352564 -0.350001 0.335898
v -0.252564 0.049999 0.235898
v -0.252564 -0.050001 0.235898
v -0.252564 0.049999 0.135898
v -0.252564 -0.050001 0.135898
v -0.252564 0.049999 0.035898
v -0.252564 -0.050001 0.035898
v -0.252564 0.049999 -0.064102
v -0.252564 -0.050001 -0.064102
v -0.252564 0.049999 -0.164102
v -0.252564 -0.050001 -0.164102
v -0.252564 0.049999 -0.264102
v -0.252564 -0.050001 -0.264102
v -0.152564 0.249999 0.935898
v -0.152564 -0.250001 0.935898
v -0.152564 0.249999 0.835898
v -0.152564 -0.250001 0.835898
v -0.152564 0.149999 0.435898
v -0.152564 -0.150001 0.435898
v -0.152564 0.049999 0.235898
v -0.152564 -0.050001 0.235898
v -0.152564 0.049999 0.135898
v -0.152564 -0.050001 0.135898
v -0.152564 0.049999 0.035898
v -0.152564 -0.050001 0.035898
v -0.152564 0.049999 -0.064102
v -0.152564 -0.050001 -0.064102
v -0.152564 0.049999 -0.164102
v -0.152564 -0.050001 -0.164102
v -0.152564 0.049999 -0.264102
v -0.152564 -0.050001 -0.264102
v -0.152564 0.149999 -0.364102
v -0.152564 -0.150001 -0.364102
v -0.152564 0.049999 -0.464102
v -0.152564 -0.050001 -0.464102
v -0.152564 0.049999 -0.564102
v -0.152564 -0.050001 -0.564102
v -0.052564 0.249999 0.235898
v -0.052564 0.149999 0.235898
v -0.052564 -0.150001 0.235898
v -0.052564 -0.250001 0.235898
v -0.052564 0.249999 0.135898
v -0.052564 0.149999 0.135898
v -0.052564 -0.150001 0.135898
v -0.052564 -0.250001 0.135898
v -0.052564 0.249999 0.035898
v -0.052564 0.149999 0.035898
v -0.052564 -0.150001 0.035898
v -0.052564 -0.250001 0.035898
v -0.052564 0.249999 -0.064102
v -0.052564 0.149999 -0.064102
v -0.052564 -0.150001 -0.064102
v -0.052564 -0.250001 -0.064102
v -0.052564 0.249999 -0.164102
v -0.052564 0.149999 -0.164102
v -0.052564 -0.150001 -0.164102
v -0.052564 -0.250001 -0.164102
v -0.052564 0.249999 -0.264102
v -0.052564 0.149999 -0.264102
v -0.052564 -0.150001 -0.264102
v -0.052564 -0.250001 -0.264102
v -0.052564 0.049999 -0.364102
v -0.052564 -0.050001 -0.364102
v -0.052564 0.149999 -0.464102
v -0.052564 0.049999 -0.464102
v -0.052564 -0.050001 -0.464102
v -0.052564 -0.150001 -0.464102
v -0.052564 0.149999 -0.564102
v -0.052564 0.049999 -0.564102
v -0.052564 -0.050001 -0.564102
v -0.052564 -0.150001 -0.564102
v 0.247436 0.249999 0.435898
v 0.247436 -0.250001 0.435898
v 0.247436 0.249999 0.335898
v 0.247436 -0.250001 0.335898
v -0.252564 0.249999 0.435898
v -0.252564 -0.250001 0.435898
v -0.252564 0.249999 0.335898
v -0.252564 -0.250001 0.335898
v 0.047436 0.249999 0.235898
v 0.047436 0.149999 0.235898
v 0.047436 -0.150001 0.235898
v 0.047436 -0.250001 0.235898
v 0.047436 0.249999 0.135898
v 0.047436 0.149999 0.135898
v 0.047436 -0.150001 0.135898
v 0.047436 -0.250001 0.135898
v 0.047436 0.249999 0.035898
v 0.047436 0.149999 0.035898
v 0.047436 -0.150001 0.035898
v 0.047436 -0.250001 0.035898
v 0.047436 0.249999 -0.064102
v 0.047436 0.149999 -0.064102
v 0.047436 -0.150001 -0.064102
v 0.047436 -0.250001 -0.064102
v 0.047436 0.249999 -0.164102
v 0.047436 0.149999 -0.164102
v 0.047436 -0.150001 -0.164102
v 0.047436 -0.250001 -0.164102
v 0.047436 0.249999 -0.264102
v 0.047436 0.149999 -0.264102
v 0.047436 -0.150001 -0.264102
v 0.047436 -0.250001 -0.264102
v 0.047436 0.049999 -0.364102
v 0.047436 -0.050001 -0.364102
v 0.047436 0.149999 -0.464102
v 0.047436 0.049999 -0.464102
v 0.047436 -0.050001 -0.464102
v 0.047436 -0.150001 -0.464102
v 0.047436 0.149999 -0.564102
v 0.047436 0.049999 -0.564102
v 0.047436 -0.050001 -0.564102
v 0.047436 -0.150001 -0.564102
v 0.147436 0.149999 0.435898
v 0.147436 -0.150001 0.435898
v 0.147436 0.049999 0.235898
v 0.147436 -0.050001 0.235898
v 0.147436 0.049999 0.135898
v 0.147436 -0.050001 0.135898
v 0.147436 0.049999 0.035898
v 0.147436 -0.050001 0.035898
v 0.147436 0.049999 -0.064102
v 0.147436 -0.050001 -0.064102
v 0.147436 0.049999 -0.164102
v 0.147436 -0.050001 -0.164102
v 0.147436 0.049999 -0.264102
v 0.147436 -0.050001 -0.264102
v 0.147436 0.149999 -0.364102
v 0.147436 -0.150001 -0.364102
v 0.147436 0.049999 -0.464102
v 0.147436 -0.050001 -0.464102
v 0.147436 0.049999 -0.564102
v 0.147436 -0.050001 -0.564102
v 0.247436 0.249999 0.935898
v 0.247436 -0.250001 0.935898
v 0.247436 0.249999 0.835898
v 0.247436 -0.250001 0.835898
v 0.247436 0.049999 0.235898
v 0.247436 -0.050001 0.235898
v 0.247436 0.049999 0.135898
v 0.247436 -0.050001 0.135898
v 0.247436 0.049999 0.035898
v 0.247436 -0.050001 0.035898
v 0.247436 0.049999 -0.064102
v 0.247436 -0.050001 -0.064102
v 0.247436 0.049999 -0.164102
v 0.247436 -0.050001 -0.164102
v 0.247436 0.049999 -0.264102
v 0.247436 -0.050001 -0.264102
v 0.347436 0.349999 0.835898
v 0.347436 -0.350001 0.835898
v 0.347436 0.349999 0.335898
v 0.347436 -0.350001 0.335898
v -0.352564 0.349999 0.835898
v -0.352564 0.349999 0.335898
v 0.347436 0.349999 0.835898
v 0.347436 0.349999 0.335898
v -0.152564 0.249999 0.935898
v -0.152564 0.249999 0.835898
v -0.052564 0.249999 0.235898
v -0.052564 0.249999 0.135898
v -0.052564 0.249999 0.035898
v -0.052564 0.249999 -0.064102
v -0.052564 0.249999 -0.164102
v -0.052564 0.249999 -0.264102
v 0.047436 0.249999 0.235898
v 0.047436 0.249999 0.135898
v 0.047436 0.249999 0.035898
v 0.047436 0.249999 -0.064102
v 0.047436 0.249999 -0.164102
v 0.047436 0.249999 -0.264102
v 0.247436 0.249999 0.935898
v 0.247436 0.249999 0.835898
v -0.152564 0.149999 0.435898
v -0.152564 0.149999 -0.364102
v -0.052564 0.149999 0.235898
v -0.052564 0.149999 0.135898
v -0.052564 0.149999 0.035898
v -0.052564 0.149999 -0.064102
v -0.052564 0.149999 -0.164102
v -0.052564 0.149999 -0.264102
v -0.052564 0.149999 -0.464102
v -0.052564 0.149999 -0.564102
v 0.047436 0.149999 0.235898
v 0.047436 0.149999 0.135898
v 0.047436 0.149999 0.035898
v 0.047436 0.149999 -0.064102
v 0.047436 0.149999 -0.164102
v 0.047436 0.149999 -0.264102
v 0.047436 0.149999 -0.464102
v 0.047436 0.149999 -0.564102
v 0.147436 0.149999 0.435898
v 0.147436 0.149999 -0.364102
v -0.252564 0.049999 0.235898
v -0.252564 0.049999 0.135898
v -0.252564 0.049999 0.035898
v -0.252564 0.049999 -0.064102
v -0.252564 0.049999 -0.164102
v -0.252564 0.049999 -0.264102
v -0.152564 0.049999 0.235898
v -0.152564 0.049999 0.135898
v -0.152564 0.049999 0.035898
v -0.152564 0.049999 -0.064102
v -0.152564 0.049999 -0.164102
v -0.152564 0.049999 -0.264102
v -0.152564 0.049999 -0.464102
v -0.152564 0.049999 -0.564102
v -0.052564 0.049999 -0.364102
v -0.052564 0.049999 -0.464102
v -0.052564 0.049999 -0.564102
v 0.047436 0.049999 -0.364102
v 0.047436 0.049999 -0.464102
v 0.047436 0.049999 -0.564102
v 0.147436 0.049999 0.235898
v 0.147436 0.049999 0.135898
v 0.147436 0.049999 0.035898
v 0.147436 0.049999 -0.064102
v 0.147436 0.049999 -0.164102
v 0.147436 0.049999 -0.264102
v 0.147436 0.049999 -0.464102
v 0.147436 0.049999 -0.564102
v 0.247436 0.049999 0.235898
v 0.247436 0.049999 0.135898
v 0.247436 0.049999 0.035898
v 0.247436 0.049999 -0.064102
v 0.247436 0.049999 -0.164102
v 0.247436 0.049999 -0.264102
v -0.252564 -0.250001 0.435898
v -0.252564 -0.250001 0.335898
v 0.247436 -0.250001 0.435898
v 0.247436 -0.250001 0.335898
v -0.252564 0.249999 0.435898
v -0.252564 0.249999 0.335898
v 0.247436 0.249999 0.435898
v 0.247436 0.249999 0.335898
v -0.252564 -0.050001 0.235898
v -0.252564 -0.050001 0.135898
v -0.252564 -0.050001 0.035898
v -0.252564 -0.050001 -0.064102
v -0.252564 -0.050001 -0.164102
v -0.252564 -0.050001 -0.264102
v -0.152564 -0.050001 0.235898
v -0.152564 -0.050001 0.135898
v -0.152564 -0.050001 0.035898
v -0.152564 -0.050001 -0.064102
v -0.152564 -0.050001 -0.164102
v -0.152564 -0.050001 -0.264102
v -0.152564 -0.050001 -0.464102
v -0.152564 -0.050001 -0.564102
v -0.052564 -0.050001 -0.364102
v -0.052564 -0.050001 -0.464102
v -0.052564 -0.050001 -0.564102
v 0.047436 -0.050001 -0.364102
v 0.047436 -0.050001 -0.464102
v 0.047436 -0.050001 -0.564102
v 0.147436 -0.050001 0.235898
v 0.147436 -0.050001 0.135898
v 0.147436 -0.050001 0.035898
v 0.147436 -0.050001 -0.064102
v 0.147436 -0.050001 -0.164102
v 0.147436 -0.050001 -0.264102
v 0.147436 -0.050001 -0.464102
v 0.147436 -0.050001 -0.564102
v 0.247436 -0.050001 0.235898
v 0.247436 -0.050001 0.135898
v 0.247436 -0.050001 0.035898
v 0.247436 -0.050001 -0.064102
v 0.247436 -0.050001 -0.164102
v 0.247436 -0.050001 -0.264102
v -0.152564 -0.150001 0.435898
v -0.152564 -0.150001 -0.364102
v -0.052564 -0.150001 0.235898
v -0.052564 -0.150001 0.135898
v -0.052564 -0.150001 0.035898
v -0.052564 -0.150001 -0.064102
v -0.052564 -0.150001 -0.164102
v -0.052564 -0.150001 -0.264102
v -0.052564 -0.150001 -0.464102
v -0.052564 -0.150001 -0.564102
v 0.047436 -0.150001 0.235898
v 0.047436 -0.150001 0.135898
v 0.047436 -0.150001 0.035898
v 0.047436 -0.150001 -0.064102
v 0.047436 -0.150001 -0.164102
v 0.047436 -0.150001 -0.264102
v 0.047436 -0.150001 -0.464102
v 0.047436 -0.150001 -0.564102
v 0.147436 -0.150001 0.435898
v 0.147436 -0.150001 -0.364102
v -0.152564 -0.250001 0.935898
v -0.152564 -0.250001 0.835898
v -0.052564 -0.250001 0.235898
v -0.052564 -0.250001 0.135898
v -0.052564 -0.250001 0.035898
v -0.052564 -0.250001 -0.064102
v -0.052564 -0.250001 -0.164102
v -0.052564 -0.250001 -0.264102
v 0.047436 -0.250001 0.235898
v 0.047436 -0.250001 0.135898
v 0.047436 -0.250001 0.035898
v 0.047436 -0.250001 -0.064102
v 0.047436 -0.250001 -0.164102
v 0.047436 -0.250001 -0.264102
v 0.247436 -0.250001 0.935898
v 0.247436 -0.250001 0.835898
v -0.352564 -0.350001 0.835898
v -0.352564 -0.350001 0.335898
v 0.347436 -0.350001 0.835898
v 0.347436 -0.350001 0.335898
v -0.152564 0.249999 0.935898
v 0.247436 0.249999 0.935898
v -0.152564 -0.250001 0.935898
v 0.247436 -0.250001 0.935898
v -0.352564 0.349999 0.835898
v 0.347436 0.349999 0.835898
v -0.152564 0.249999 0.835898
v 0.247436 0.249999 0.835898
v -0.152564 -0.250001 0.835898
v 0.247436 -0.250001 0.835898
v -0.352564 -0.350001 0.835898
v 0.347436 -0.350001 0.835898
v -0.052564 0.249999 0.235898
v 0.047436 0.249999 0.235898
v -0.052564 0.149999 0.235898
v 0.047436 0.149999 0.235898
v -0.252564 0.049999 0.235898
v -0.152564 0.049999 0.235898
v 0.147436 0.049999 0.235898
v 0.247436 0.049999 0.235898
v -0.252564 -0.050001 0.235898
v -0.152564 -0.050001 0.235898
v 0.147436 -0.050001 0.235898
v 0.247436 -0.050001 0.235898
v -0.052564 -0.150001 0.235898
v 0.047436 -0.150001 0.235898
v -0.052564 -0.250001 0.235898
v 0.047436 -0.250001 0.235898
v -0.052564 0.249999 0.035898
v 0.047436 0.249999 0.035898
v -0.052564 0.149999 0.035898
v 0.047436 0.149999 0.035898
v -0.252564 0.049999 0.035898
v -0.152564 0.049999 0.035898
v 0.147436 0.049999 0.035898
v 0.247436 0.049999 0.035898
v -0.252564 -0.050001 0.035898
v -0.152564 -0.050001 0.035898
v 0.147436 -0.050001 0.035898
v 0.247436 -0.050001 0.035898
v -0.052564 -0.150001 0.035898
v 0.047436 -0.150001 0.035898
v -0.052564 -0.250001 0.035898
v 0.047436 -0.250001 0.035898
v -0.052564 0.249999 -0.164102
v 0.047436 0.249999 -0.164102
v -0.052564 0.149999 -0.164102
v 0.047436 0.149999 -0.164102
v -0.252564 0.049999 -0.164102
v -0.152564 0.049999 -0.164102
v 0.147436 0.049999 -0.164102
v 0.247436 0.049999 -0.164102
v -0.252564 -0.050001 -0.164102
v -0.152564 -0.050001 -0.164102
v 0.147436 -0.050001 -0.164102
v 0.247436 -0.050001 -0.164102
v -0.052564 -0.150001 -0.164102
v 0.047436 -0.150001 -0.164102
v -0.052564 -0.250001 -0.164102
v 0.047436 -0.250001 -0.164102
v -0.052564 0.149999 -0.464102
v 0.047436 0.149999 -0.464102
v -0.152564 0.049999 -0.464102
v -0.052564 0.049999 -0.464102
v 0.047436 0.049999 -0.464102
v 0.147436 0.049999 -0.464102
v -0.152564 -0.050001 -0.464102
v -0.052564 -0.050001 -0.464102
v 0.047436 -0.050001 -0.464102
v 0.147436 -0.050001 -0.464102
v -0.052564 -0.150001 -0.464102
v 0.047436 -0.150001 -0.464102
v -0.252564 0.249999 0.435898
v 0.247436 0.249999 0.435898
v -0.152564 0.149999 0.435898
v 0.147436 0.149999 0.435898
v -0.152564 -0.150001 0.435898
v 0.147436 -0.150001 0.435898
v -0.252564 -0.250001 0.435898
v 0.247436 -0.250001 0.435898
v -0.352564 0.349999 0.335898
v 0.347436 0.349999 0.335898
v -0.252564 0.249999 0.335898
v 0.247436 0.249999 0.335898
v -0.252564 -0.250001 0.335898
v 0.247436 -0.250001 0.335898
v -0.352564 -0.350001 0.335898
v 0.347436 -0.350001 0.335898
v -0.052564 0.249999 0.135898
v 0.047436 0.249999 0.135898
v -0.052564 0.149999 0.135898
v 0.047436 0.149999 0.135898
v -0.252564 0.049999 0.135898
v -0.152564 0.049999 0.135898
v 0.147436 0.049999 0.135898
v 0.247436 0.049999 0.135898
v -0.252564 -0.050001 0.135898
v -0.152564 -0.050001 0.135898
v 0.147436 -0.050001 0.135898
v 0.247436 -0.050001 0.135898
v -0.052564 -0.150001 0.135898
v 0.047436 -0.150001 0.135898
v -0.052564 -0.250001 0.135898
v 0.047436 -0.250001 0.135898
v -0.052564 0.249999 -0.064102
v 0.047436 0.249999 -0.064102
v -0.052564 0.149999 -0.064102
v 0.047436 0.149999 -0.064102
v -0.252564 0.049999 -0.064102
v -0.152564 0.049999 -0.064102
v 0.147436 0.049999 -0.064102
v 0.247436 0.049999 -0.064102
v -0.252564 -0.050001 -0.064102
v -0.152564 -0.050001 -0.064102
v 0.147436 -0.050001 -0.064102
v 0.247436 -0.050001 -0.064102
v -0.052564 -0.150001 -0.064102
v 0.047436 -0.150001 -0.064102
v -0.052564 -0.250001 -0.064102
v 0.047436 -0.250001 -0.064102
v -0.052564 0.249999 -0.264102
v 0.047436 0.249999 -0.264102
v -0.052564 0.149999 -0.264102
v 0.047436 0.149999 -0.264102
v -0.252564 0.049999 -0.264102
v -0.152564 0.049999 -0.264102
v 0.147436 0.049999 -0.264102
v 0.247436 0.049999 -0.264102
v -0.252564 -0.050001 -0.264102
v -0.152564 -0.050001 -0.264102
v 0.147436 -0.050001 -0.264102
v 0.247436 -0.050001 -0.264102
v -0.052564 -0.150001 -0.264102
v 0.047436 -0.150001 -0.264102
v -0.052564 -0.250001 -0.264102
v 0.047436 -0.250001 -0.264102
v -0.152564 0.149999 -0.364102
v 0.147436 0.149999 -0.364102
v -0.052564 0.049999 -0.364102
v 0.047436 0.049999 -0.364102
v -0.052564 -0.050001 -0.364102
v 0.047436 -0.050001 -0.364102
v -0.152564 -0.150001 -0.364102
v 0.147436 -0.150001 -0.364102
v -0.052564 0.149999 -0.564102
v 0.047436 0.149999 -0.564102
v -0.152564 0.049999 -0.564102
v -0.052564 0.049999 -0.564102
v 0.047436 0.049999 -0.564102
v 0.147436 0.049999 -0.564102
v -0.152564 -0.050001 -0.564102
v -0.052564 -0.050001 -0.564102
v 0.047436 -0.050001 -0.564102
v 0.147436 -0.050001 -0.564102
v -0.052564 -0.150001 -0.564102
v 0.047436 -0.150001 -0.564102
vn -1.0000 -0.0000 -0.0000
vn 1.0000 -0.0000 -0.0000
vn -0.0000 1.0000 -0.0000
vn 0.0001 1.0000 -0.0000
vn -0.0001 1.0000 -0.0000
vn -0.0000 -1.0000 -0.0000
vn -0.0000 -0.0000 1.0000
vn -0.0000 -0.0000 -1.0000
vt 0.958984 0.500000
vt 0.603516 0.500000
vt 0.623047 0.500000
vt 0.908203 0.500000
vt 0.541016 0.500000
vt 0.654297 0.500000
s 1
usemtl palette.155
f 3/1/1 2/1/1 1/1/1
f 4/1/1 2/1/1 3/1/1
f 7/2/1 6/2/1 5/2/1
f 8/2/1 6/2/1 7/2/1
f 11/2/1 10/2/1 9/2/1
f 12/2/1 10/2/1 11/2/1
f 15/2/1 14/2/1 13/2/1
f 16/2/1 14/2/1 15/2/1
f 19/1/1 18/1/1 17/1/1
f 20/1/1 18/1/1 19/1/1
f 23/3/1 22/3/1 21/3/1
f 24/3/1 22/3/1 23/3/1
f 25/3/1 23/3/1 21/3/1
f 26/3/1 22/3/1 24/3/1
f 27/3/1 25/3/1 21/3/1
f 27/3/1 26/3/1 25/3/1
f 28/3/1 22/3/1 26/3/1
f 28/3/1 26/3/1 27/3/1
f 29/3/1 27/3/1 21/3/1
f 30/3/1 22/3/1 28/3/1
f 31/3/1 29/3/1 21/3/1
f 31/3/1 30/3/1 29/3/1
f 32/3/1 22/3/1 30/3/1
f 32/3/1 30/3/1 31/3/1
f 33/3/1 31/3/1 21/3/1
f 34/3/1 22/3/1 32/3/1
f 35/3/1 33/3/1 21/3/1
f 35/3/1 34/3/1 33/3/1
f 36/3/1 22/3/1 34/3/1
f 36/3/1 34/3/1 35/3/1
f 39/4/1 38/4/1 37/4/1
f 40/4/1 38/4/1 39/4/1
f 45/2/1 42/2/1 41/2/1
f 46/2/1 42/2/1 45/2/1
f 47/2/1 44/2/1 43/2/1
f 48/2/1 44/2/1 47/2/1
f 53/2/1 50/2/1 49/2/1
f 54/2/1 50/2/1 53/2/1
f 55/2/1 52/2/1 51/2/1
f 56/2/1 52/2/1 55/2/1
f 61/2/1 58/2/1 57/2/1
f 62/2/1 58/2/1 61/2/1
f 63/2/1 60/2/1 59/2/1
f 64/2/1 60/2/1 63/2/1
f 68/4/1 66/4/1 65/4/1
f 69/4/1 66/4/1 68/4/1
f 71/4/1 68/4/1 67/4/1
f 72/4/1 68/4/1 71/4/1
f 73/4/1 70/4/1 69/4/1
f 74/4/1 70/4/1 73/4/1
f 77/1/1 76/1/1 75/1/1
f 78/1/1 76/1/1 77/1/1
f 79/1/2 80/1/2 81/1/2
f 81/1/2 80/1/2 82/1/2
f 83/2/2 84/2/2 87/2/2
f 87/2/2 84/2/2 88/2/2
f 85/2/2 86/2/2 89/2/2
f 89/2/2 86/2/2 90/2/2
f 91/2/2 92/2/2 95/2/2
f 95/2/2 92/2/2 96/2/2
f 93/2/2 94/2/2 97/2/2
f 97/2/2 94/2/2 98/2/2
f 99/2/2 100/2/2 103/2/2
f 103/2/2 100/2/2 104/2/2
f 101/2/2 102/2/2 105/2/2
f 105/2/2 102/2/2 106/2/2
f 107/4/2 108/4/2 110/4/2
f 110/4/2 108/4/2 111/4/2
f 109/4/2 110/4/2 113/4/2
f 113/4/2 110/4/2 114/4/2
f 111/4/2 112/4/2 115/4/2
f 115/4/2 112/4/2 116/4/2
f 117/3/2 118/3/2 119/3/2
f 119/3/2 118/3/2 120/3/2
f 117/3/2 119/3/2 121/3/2
f 120/3/2 118/3/2 122/3/2
f 117/3/2 121/3/2 123/3/2
f 121/3/2 122/3/2 123/3/2
f 122/3/2 118/3/2 124/3/2
f 123/3/2 122/3/2 124/3/2
f 117/3/2 123/3/2 125/3/2
f 124/3/2 118/3/2 126/3/2
f 117/3/2 125/3/2 127/3/2
f 125/3/2 126/3/2 127/3/2
f 126/3/2 118/3/2 128/3/2
f 127/3/2 126/3/2 128/3/2
f 117/3/2 127/3/2 129/3/2
f 128/3/2 118/3/2 130/3/2
f 117/3/2 129/3/2 131/3/2
f 129/3/2 130/3/2 131/3/2
f 130/3/2 118/3/2 132/3/2
f 131/3/2 130/3/2 132/3/2
f 133/4/2 134/4/2 135/4/2
f 135/4/2 134/4/2 136/4/2
f 137/1/2 138/1/2 139/1/2
f 139/1/2 138/1/2 140/1/2
f 141/2/2 142/2/2 143/2/2
f 143/2/2 142/2/2 144/2/2
f 145/2/2 146/2/2 147/2/2
f 147/2/2 146/2/2 148/2/2
f 149/2/2 150/2/2 151/2/2
f 151/2/2 150/2/2 152/2/2
f 153/1/2 154/1/2 155/1/2
f 155/1/2 154/1/2 156/1/2
f 159/1/3 158/1/3 157/1/3
f 160/1/3 158/1/3 159/1/3
f 169/2/3 164/2/3 163/2/3
f 170/2/3 164/2/3 169/2/3
f 171/2/3 166/2/3 165/2/3
f 172/2/3 166/2/3 171/2/3
f 173/2/3 168/2/3 167/2/3
f 174/2/3 168/2/3 173/2/3
f 175/1/3 162/1/3 161/1/3
f 176/1/3 162/1/3 175/1/3
f 179/3/3 178/3/3 177/3/3
f 180/3/3 178/3/3 179/3/3
f 181/3/3 178/3/3 180/3/3
f 182/3/4 178/3/3 181/3/3
f 183/3/3 178/3/3 182/3/4
f 184/3/3 178/3/3 183/3/3
f 187/3/3 179/3/3 177/3/3
f 188/3/3 181/3/3 180/3/3
f 189/3/3 181/3/3 188/3/3
f 190/3/3 183/3/3 182/3/4
f 191/3/5 183/3/3 190/3/3
f 192/3/3 178/3/3 184/3/3
f 193/4/3 186/4/3 185/4/3
f 194/4/3 186/4/3 193/4/3
f 195/3/3 192/3/3 191/3/5
f 195/3/3 191/3/5 190/3/3
f 195/3/3 187/3/3 177/3/3
f 195/3/3 189/3/3 188/3/3
f 195/3/3 188/3/3 187/3/3
f 195/3/3 190/3/3 189/3/3
f 196/3/3 178/3/3 192/3/3
f 196/3/3 192/3/3 195/3/3
f 203/2/3 198/2/3 197/2/3
f 204/2/3 198/2/3 203/2/3
f 205/2/3 200/2/3 199/2/3
f 206/2/3 200/2/3 205/2/3
f 207/2/3 202/2/3 201/2/3
f 208/2/3 202/2/3 207/2/3
f 212/4/3 210/4/3 209/4/3
f 213/4/3 210/4/3 212/4/3
f 214/4/3 212/4/3 211/4/3
f 215/4/3 212/4/3 214/4/3
f 223/4/3 216/4/3 215/4/3
f 224/4/3 216/4/3 223/4/3
f 225/2/3 218/2/3 217/2/3
f 226/2/3 218/2/3 225/2/3
f 227/2/3 220/2/3 219/2/3
f 228/2/3 220/2/3 227/2/3
f 229/2/3 222/2/3 221/2/3
f 230/2/3 222/2/3 229/2/3
f 233/1/3 232/1/3 231/1/3
f 234/1/3 232/1/3 233/1/3
f 235/1/6 236/1/6 237/1/6
f 237/1/6 236/1/6 238/1/6
f 239/2/6 240/2/6 245/2/6
f 245/2/6 240/2/6 246/2/6
f 241/2/6 242/2/6 247/2/6
f 247/2/6 242/2/6 248/2/6
f 243/2/6 244/2/6 249/2/6
f 249/2/6 244/2/6 250/2/6
f 251/4/6 252/4/6 254/4/6
f 254/4/6 252/4/6 255/4/6
f 253/4/6 254/4/6 256/4/6
f 256/4/6 254/4/6 257/4/6
f 257/4/6 258/4/6 265/4/6
f 265/4/6 258/4/6 266/4/6
f 259/2/6 260/2/6 267/2/6
f 267/2/6 260/2/6 268/2/6
f 261/2/6 262/2/6 269/2/6
f 269/2/6 262/2/6 270/2/6
f 263/2/6 264/2/6 271/2/6
f 271/2/6 264/2/6 272/2/6
f 273/3/6 274/3/6 275/3/6
f 275/3/6 274/3/6 276/3/6
f 276/3/6 274/3/6 277/3/6
f 277/3/6 274/3/6 278/3/6
f 278/3/6 274/3/6 279/3/6
f 279/3/6 274/3/6 280/3/6
f 273/3/6 275/3/6 283/3/6
f 276/3/6 277/3/6 284/3/6
f 284/3/6 277/3/6 285/3/6
f 278/3/6 279/3/6 286/3/6
f 286/3/6 279/3/6 287/3/6
f 280/3/6 274/3/6 288/3/6
f 281/4/6 282/4/6 289/4/6
f 289/4/6 282/4/6 290/4/6
f 287/3/6 288/3/6 291/3/6
f 286/3/6 287/3/6 291/3/6
f 273/3/6 283/3/6 291/3/6
f 284/3/6 285/3/6 291/3/6
f 283/3/6 284/3/6 291/3/6
f 285/3/6 286/3/6 291/3/6
f 288/3/6 274/3/6 292/3/6
f 291/3/6 288/3/6 292/3/6
f 295/2/6 296/2/6 301/2/6
f 301/2/6 296/2/6 302/2/6
f 297/2/6 298/2/6 303/2/6
f 303/2/6 298/2/6 304/2/6
f 299/2/6 300/2/6 305/2/6
f 305/2/6 300/2/6 306/2/6
f 293/1/6 294/1/6 307/1/6
f 307/1/6 294/1/6 308/1/6
f 309/1/6 310/1/6 311/1/6
f 311/1/6 310/1/6 312/1/6
f 315/1/7 314/1/7 313/1/7
f 316/1/7 314/1/7 315/1/7
f 319/1/7 318/1/7 317/1/7
f 320/1/7 318/1/7 319/1/7
f 321/1/7 319/1/7 317/1/7
f 322/1/7 318/1/7 320/1/7
f 323/1/7 321/1/7 317/1/7
f 323/1/7 322/1/7 321/1/7
f 324/1/7 318/1/7 322/1/7
f 324/1/7 322/1/7 323/1/7
f 327/2/7 326/2/7 325/2/7
f 328/2/7 326/2/7 327/2/7
f 333/2/7 330/2/7 329/2/7
f 334/2/7 330/2/7 333/2/7
f 335/2/7 332/2/7 331/2/7
f 336/2/7 332/2/7 335/2/7
f 339/2/7 338/2/7 337/2/7
f 340/2/7 338/2/7 339/2/7
f 343/2/7 342/2/7 341/2/7
f 344/2/7 342/2/7 343/2/7
f 349/2/7 346/2/7 345/2/7
f 350/2/7 346/2/7 349/2/7
f 351/2/7 348/2/7 347/2/7
f 352/2/7 348/2/7 351/2/7
f 355/2/7 354/2/7 353/2/7
f 356/2/7 354/2/7 355/2/7
f 359/2/7 358/2/7 357/2/7
f 360/2/7 358/2/7 359/2/7
f 365/2/7 362/2/7 361/2/7
f 366/2/7 362/2/7 365/2/7
f 367/2/7 364/2/7 363/2/7
f 368/2/7 364/2/7 367/2/7
f 371/2/7 370/2/7 369/2/7
f 372/2/7 370/2/7 371/2/7
f 376/4/7 374/4/7 373/4/7
f 377/4/7 374/4/7 376/4/7
f 379/4/7 376/4/7 375/4/7
f 380/4/7 376/4/7 379/4/7
f 381/4/7 378/4/7 377/4/7
f 382/4/7 378/4/7 381/4/7
f 383/4/7 381/4/7 380/4/7
f 384/4/7 381/4/7 383/4/7
f 385/5/8 386/5/8 387/5/8
f 387/5/8 386/5/8 388/5/8
f 385/5/8 387/5/8 389/5/8
f 388/5/8 386/5/8 390/5/8
f 385/5/8 389/5/8 391/5/8
f 389/5/8 390/5/8 391/5/8
f 390/5/8 386/5/8 392/5/8
f 391/5/8 390/5/8 392/5/8
f 393/1/8 394/1/8 395/1/8
f 395/1/8 394/1/8 396/1/8
f 393/1/8 395/1/8 397/1/8
f 396/1/8 394/1/8 398/1/8
f 393/1/8 397/1/8 399/1/8
f 397/1/8 398/1/8 399/1/8
f 398/1/8 394/1/8 400/1/8
f 399/1/8 398/1/8 400/1/8
f 401/2/8 402/2/8 403/2/8
f 403/2/8 402/2/8 404/2/8
f 405/2/8 406/2/8 409/2/8
f 409/2/8 406/2/8 410/2/8
f 407/2/8 408/2/8 411/2/8
f 411/2/8 408/2/8 412/2/8
f 413/2/8 414/2/8 415/2/8
f 415/2/8 414/2/8 416/2/8
f 417/2/8 418/2/8 419/2/8
f 419/2/8 418/2/8 420/2/8
f 421/2/8 422/2/8 425/2/8
f 425/2/8 422/2/8 426/2/8
f 423/2/8 424/2/8 427/2/8
f 427/2/8 424/2/8 428/2/8
f 429/2/8 430/2/8 431/2/8
f 431/2/8 430/2/8 432/2/8
f 433/2/8 434/2/8 435/2/8
f 435/2/8 434/2/8 436/2/8
f 437/2/8 438/2/8 441/2/8
f 441/2/8 438/2/8 442/2/8
f 439/2/8 440/2/8 443/2/8
f 443/2/8 440/2/8 444/2/8
f 445/2/8 446/2/8 447/2/8
f 447/2/8 446/2/8 448/2/8
f 449/3/8 450/3/8 451/3/8
f 451/3/8 450/3/8 452/3/8
f 449/3/8 451/3/8 453/3/8
f 452/3/8 450/3/8 454/3/8
f 449/3/8 453/3/8 455/3/8
f 453/3/8 454/3/8 455/3/8
f 454/3/8 450/3/8 456/3/8
f 455/3/8 454/3/8 456/3/8
f 457/4/8 458/4/8 460/4/8
f 460/4/8 458/4/8 461/4/8
f 459/4/8 460/4/8 463/4/8
f 460/6/8 461/6/8 464/6/8
f 463/4/8 460/4/8 464/4/8
f 461/4/8 462/4/8 465/4/8
f 464/6/8 461/6/8 465/6/8
f 465/4/8 462/4/8 466/4/8
f 464/4/8 465/4/8 467/4/8
f 467/4/8 465/4/8 468/4/8
