# Blender 4.4.3
# www.blender.org
mtllib Untitled_034.mtl
o Untitled.034
v 0.427521 0.643822 0.560674
v -0.072479 0.643822 0.560674
v 0.527520 0.643822 0.460674
v 0.427521 0.643822 0.460674
v -0.072479 0.643822 0.460674
v -0.172480 0.643822 0.460674
v 0.327520 0.643822 0.360674
v 0.027520 0.643822 0.360674
v 0.327520 0.643822 0.060674
v 0.027520 0.643822 0.060674
v 0.527520 0.643822 -0.039326
v 0.427521 0.643822 -0.039326
v -0.072479 0.643822 -0.039326
v -0.172480 0.643822 -0.039326
v 0.427521 0.643822 -0.139326
v -0.072479 0.643822 -0.139326
v 0.327520 0.543822 0.360674
v 0.027520 0.543822 0.360674
v 0.327520 0.543822 0.060674
v 0.027520 0.543822 0.060674
v -0.072479 0.143822 0.560674
v -0.572479 0.143822 0.560674
v -0.072479 0.143822 0.460674
v -0.172480 0.143822 0.360674
v -0.472480 0.143822 0.360674
v -0.172480 0.143822 0.260674
v -0.472480 0.143822 0.260674
v -0.172480 0.143822 0.160674
v -0.472480 0.143822 0.160674
v -0.172480 0.143822 0.060674
v -0.472480 0.143822 0.060674
v -0.072479 0.143822 -0.039326
v -0.172480 0.143822 -0.039326
v -0.472480 0.143822 -0.039326
v -0.172480 0.143822 -0.139326
v -0.472480 0.143822 -0.139326
v -0.072479 0.143822 -0.239326
v -0.572479 0.143822 -0.239326
v -0.172480 0.043822 -0.239326
v -0.472480 0.043822 -0.239326
v -0.172480 0.043822 -0.339326
v -0.472480 0.043822 -0.339326
v 0.827520 -0.056178 0.560674
v -0.072479 -0.056178 0.560674
v 0.427521 -0.056178 0.460674
v -0.072479 -0.056178 0.460674
v 0.727520 -0.056178 0.060674
v 0.527520 -0.056178 0.060674
v 0.727520 -0.056178 -0.039326
v 0.527520 -0.056178 -0.039326
v 0.427521 -0.056178 -0.039326
v -0.072479 -0.056178 -0.039326
v 0.827520 -0.056178 -0.139326
v -0.072479 -0.056178 -0.139326
v -0.272480 -0.056178 -0.339326
v -0.372479 -0.056178 -0.339326
v -0.272480 -0.056178 -0.439326
v -0.372479 -0.056178 -0.439326
v 0.427521 -0.156178 -0.139326
v -0.072479 -0.156178 -0.139326
v 0.327520 -0.156178 -0.239326
v 0.027520 -0.156178 -0.239326
v -0.072479 -0.156178 -0.239326
v 0.327520 -0.156178 -0.339326
v 0.027520 -0.156178 -0.339326
v 0.427521 -0.156178 -0.439326
v -0.072479 -0.156178 -0.439326
v -0.172480 -0.356178 -0.239326
v -0.472480 -0.356178 -0.239326
v -0.172480 -0.356178 -0.339326
v -0.472480 -0.356178 -0.339326
v 0.427521 0.443822 0.560674
v -0.072479 0.443822 0.560674
v 0.527520 0.443822 0.460674
v 0.427521 0.443822 0.460674
v -0.072479 0.443822 0.460674
v -0.172480 0.443822 0.460674
v 0.527520 0.443822 -0.039326
v 0.427521 0.443822 -0.039326
v -0.072479 0.443822 -0.039326
v -0.172480 0.443822 -0.039326
v 0.427521 0.443822 -0.139326
v -0.072479 0.443822 -0.139326
v -0.272480 -0.156178 -0.339326
v -0.372479 -0.156178 -0.339326
v -0.272480 -0.156178 -0.439326
v -0.372479 -0.156178 -0.439326
v -0.172480 -0.256178 -0.239326
v -0.472480 -0.256178 -0.239326
v -0.172480 -0.256178 -0.339326
v -0.472480 -0.256178 -0.339326
v 0.327520 -0.456178 -0.139326
v 0.027520 -0.456178 -0.139326
v 0.327520 -0.456178 -0.339326
v 0.027520 -0.456178 -0.339326
v 0.827520 -0.556178 0.560674
v -0.572479 -0.556178 0.560674
v 0.627521 -0.556178 0.460674
v -0.072479 -0.556178 0.460674
v -0.272480 -0.556178 0.360674
v -0.372479 -0.556178 0.360674
v -0.172480 -0.556178 0.260674
v -0.272480 -0.556178 0.260674
v -0.372479 -0.556178 0.260674
v -0.472480 -0.556178 0.260674
v -0.172480 -0.556178 0.160674
v -0.272480 -0.556178 0.160674
v -0.372479 -0.556178 0.160674
v -0.472480 -0.556178 0.160674
v -0.272480 -0.556178 0.060674
v -0.372479 -0.556178 0.060674
v 0.627521 -0.556178 -0.039326
v -0.072479 -0.556178 -0.039326
v 0.827520 -0.556178 -0.139326
v 0.427521 -0.556178 -0.139326
v 0.327520 -0.556178 -0.139326
v 0.027520 -0.556178 -0.139326
v -0.072479 -0.556178 -0.239326
v -0.172480 -0.556178 -0.239326
v -0.272480 -0.556178 -0.239326
v -0.372479 -0.556178 -0.239326
v -0.472480 -0.556178 -0.239326
v -0.572479 -0.556178 -0.239326
v 0.327520 -0.556178 -0.339326
v 0.027520 -0.556178 -0.339326
v -0.172480 -0.556178 -0.339326
v -0.272480 -0.556178 -0.339326
v -0.372479 -0.556178 -0.339326
v -0.472480 -0.556178 -0.339326
v 0.427521 -0.556178 -0.439326
v -0.072479 -0.556178 -0.439326
v 0.827520 -0.056178 0.560674
v 0.827520 -0.056178 -0.139326
v 0.827520 -0.556178 0.560674
v 0.827520 -0.556178 -0.139326
v 0.527520 0.643822 0.460674
v 0.527520 0.643822 -0.039326
v 0.527520 0.443822 0.460674
v 0.527520 0.443822 -0.039326
v 0.427521 0.643822 0.560674
v 0.427521 0.643822 0.460674
v 0.427521 0.643822 -0.039326
v 0.427521 0.643822 -0.139326
v 0.427521 0.443822 0.560674
v 0.427521 0.443822 0.460674
v 0.427521 0.443822 -0.039326
v 0.427521 0.443822 -0.139326
v 0.427521 0.343822 0.460674
v 0.427521 0.343822 -0.039326
v 0.427521 0.243822 0.460674
v 0.427521 0.243822 -0.039326
v 0.427521 0.143822 0.460674
v 0.427521 0.143822 -0.039326
v 0.427521 -0.056178 0.460674
v 0.427521 -0.056178 -0.039326
v 0.427521 -0.156178 -0.139326
v 0.427521 -0.156178 -0.439326
v 0.427521 -0.556178 -0.139326
v 0.427521 -0.556178 -0.439326
v 0.027520 0.643822 0.360674
v 0.027520 0.643822 0.060674
v 0.027520 0.543822 0.360674
v 0.027520 0.543822 0.060674
v 0.027520 -0.456178 -0.139326
v 0.027520 -0.456178 -0.339326
v 0.027520 -0.556178 -0.139326
v 0.027520 -0.556178 -0.339326
v -0.072479 0.143822 0.560674
v -0.072479 0.143822 0.460674
v -0.072479 0.143822 -0.039326
v -0.072479 0.143822 -0.239326
v -0.072479 -0.056178 0.560674
v -0.072479 -0.056178 0.460674
v -0.072479 -0.056178 -0.039326
v -0.072479 -0.056178 -0.139326
v -0.072479 -0.156178 -0.139326
v -0.072479 -0.156178 -0.239326
v -0.172480 0.043822 -0.239326
v -0.172480 0.043822 -0.339326
v -0.172480 -0.256178 -0.239326
v -0.172480 -0.256178 -0.339326
v -0.172480 -0.356178 -0.239326
v -0.172480 -0.356178 -0.339326
v -0.172480 -0.556178 -0.239326
v -0.172480 -0.556178 -0.339326
v -0.272480 -0.056178 -0.339326
v -0.272480 -0.056178 -0.439326
v -0.272480 -0.156178 -0.339326
v -0.272480 -0.156178 -0.439326
v 0.327520 0.643822 0.360674
v 0.327520 0.643822 0.060674
v 0.327520 0.543822 0.360674
v 0.327520 0.543822 0.060674
v 0.327520 -0.456178 -0.139326
v 0.327520 -0.456178 -0.339326
v 0.327520 -0.556178 -0.139326
v 0.327520 -0.556178 -0.339326
v -0.072479 0.643822 0.560674
v -0.072479 0.643822 0.460674
v -0.072479 0.643822 -0.039326
v -0.072479 0.643822 -0.139326
v -0.072479 0.443822 0.560674
v -0.072479 0.443822 0.460674
v -0.072479 0.443822 -0.039326
v -0.072479 0.443822 -0.139326
v -0.072479 0.343822 0.460674
v -0.072479 0.343822 -0.039326
v -0.072479 0.243822 0.460674
v -0.072479 0.243822 -0.039326
v -0.072479 0.143822 0.460674
v -0.072479 0.143822 -0.039326
v -0.072479 -0.156178 -0.239326
v -0.072479 -0.156178 -0.439326
v -0.072479 -0.556178 -0.239326
v -0.072479 -0.556178 -0.439326
v -0.172480 0.643822 0.460674
v -0.172480 0.643822 -0.039326
v -0.172480 0.443822 0.460674
v -0.172480 0.443822 -0.039326
v -0.372479 -0.056178 -0.339326
v -0.372479 -0.056178 -0.439326
v -0.372479 -0.156178 -0.339326
v -0.372479 -0.156178 -0.439326
v -0.472480 0.043822 -0.239326
v -0.472480 0.043822 -0.339326
v -0.472480 -0.256178 -0.239326
v -0.472480 -0.256178 -0.339326
v -0.472480 -0.356178 -0.239326
v -0.472480 -0.356178 -0.339326
v -0.472480 -0.556178 -0.239326
v -0.472480 -0.556178 -0.339326
v -0.572479 0.143822 0.560674
v -0.572479 0.143822 -0.239326
v -0.572479 0.043822 0.360674
v -0.572479 0.043822 0.260674
v -0.572479 0.043822 0.160674
v -0.572479 0.043822 0.060674
v -0.572479 0.043822 -0.039326
v -0.572479 0.043822 -0.139326
v -0.572479 -0.456178 0.360674
v -0.572479 -0.456178 0.260674
v -0.572479 -0.456178 0.160674
v -0.572479 -0.456178 0.060674
v -0.572479 -0.456178 -0.039326
v -0.572479 -0.456178 -0.139326
v -0.572479 -0.556178 0.560674
v -0.572479 -0.556178 -0.239326
v 0.827520 -0.056178 0.560674
v 0.827520 -0.556178 0.560674
v 0.427521 0.643822 0.560674
v 0.427521 0.443822 0.560674
v -0.072479 0.643822 0.560674
v -0.072479 0.443822 0.560674
v -0.072479 0.143822 0.560674
v -0.072479 -0.056178 0.560674
v -0.572479 0.143822 0.560674
v -0.572479 -0.556178 0.560674
v 0.527520 0.643822 0.460674
v 0.527520 0.443822 0.460674
v 0.427521 0.643822 0.460674
v 0.427521 0.443822 0.460674
v 0.427521 0.343822 0.460674
v 0.427521 0.243822 0.460674
v 0.427521 0.143822 0.460674
v 0.427521 -0.056178 0.460674
v -0.072479 0.643822 0.460674
v -0.072479 0.443822 0.460674
v -0.072479 0.343822 0.460674
v -0.072479 0.243822 0.460674
v -0.072479 0.143822 0.460674
v -0.072479 -0.056178 0.460674
v -0.172480 0.643822 0.460674
v -0.172480 0.443822 0.460674
v 0.327520 0.643822 0.060674
v 0.327520 0.543822 0.060674
v 0.027520 0.643822 0.060674
v 0.027520 0.543822 0.060674
v 0.327520 -0.456178 -0.339326
v 0.327520 -0.556178 -0.339326
v 0.027520 -0.456178 -0.339326
v 0.027520 -0.556178 -0.339326
v 0.327520 0.643822 0.360674
v 0.327520 0.543822 0.360674
v 0.027520 0.643822 0.360674
v 0.027520 0.543822 0.360674
v 0.527520 0.643822 -0.039326
v 0.527520 0.443822 -0.039326
v 0.427521 0.643822 -0.039326
v 0.427521 0.443822 -0.039326
v 0.427521 0.343822 -0.039326
v 0.427521 0.243822 -0.039326
v 0.427521 0.143822 -0.039326
v 0.427521 -0.056178 -0.039326
v -0.072479 0.643822 -0.039326
v -0.072479 0.443822 -0.039326
v -0.072479 0.343822 -0.039326
v -0.072479 0.243822 -0.039326
v -0.072479 0.143822 -0.039326
v -0.072479 -0.056178 -0.039326
v -0.172480 0.643822 -0.039326
v -0.172480 0.443822 -0.039326
v 0.827520 -0.056178 -0.139326
v 0.827520 -0.556178 -0.139326
v 0.727520 -0.256178 -0.139326
v 0.727520 -0.456178 -0.139326
v 0.527520 -0.256178 -0.139326
v 0.527520 -0.456178 -0.139326
v 0.427521 0.643822 -0.139326
v 0.427521 0.443822 -0.139326
v 0.427521 -0.156178 -0.139326
v 0.427521 -0.556178 -0.139326
v 0.327520 -0.456178 -0.139326
v 0.327520 -0.556178 -0.139326
v 0.027520 -0.456178 -0.139326
v 0.027520 -0.556178 -0.139326
v -0.072479 0.643822 -0.139326
v -0.072479 0.443822 -0.139326
v -0.072479 -0.056178 -0.139326
v -0.072479 -0.156178 -0.139326
v -0.072479 0.143822 -0.239326
v -0.072479 -0.156178 -0.239326
v -0.072479 -0.556178 -0.239326
v -0.172480 0.043822 -0.239326
v -0.172480 -0.256178 -0.239326
v -0.172480 -0.356178 -0.239326
v -0.172480 -0.556178 -0.239326
v -0.472480 0.043822 -0.239326
v -0.472480 -0.256178 -0.239326
v -0.472480 -0.356178 -0.239326
v -0.472480 -0.556178 -0.239326
v -0.572479 0.143822 -0.239326
v -0.572479 -0.556178 -0.239326
v -0.172480 0.043822 -0.339326
v -0.172480 -0.256178 -0.339326
v -0.172480 -0.356178 -0.339326
v -0.172480 -0.556178 -0.339326
v -0.272480 -0.056178 -0.339326
v -0.272480 -0.156178 -0.339326
v -0.272480 -0.456178 -0.339326
v -0.272480 -0.556178 -0.339326
v -0.372479 -0.056178 -0.339326
v -0.372479 -0.156178 -0.339326
v -0.372479 -0.456178 -0.339326
v -0.372479 -0.556178 -0.339326
v -0.472480 0.043822 -0.339326
v -0.472480 -0.256178 -0.339326
v -0.472480 -0.356178 -0.339326
v -0.472480 -0.556178 -0.339326
v 0.427521 -0.156178 -0.439326
v 0.427521 -0.556178 -0.439326
v -0.072479 -0.156178 -0.439326
v -0.072479 -0.556178 -0.439326
v -0.272480 -0.056178 -0.439326
v -0.272480 -0.156178 -0.439326
v -0.372479 -0.056178 -0.439326
v -0.372479 -0.156178 -0.439326
vn -0.0000 1.0000 -0.0000
vn -0.0000 -1.0000 -0.0000
vn 1.0000 -0.0000 -0.0000
vn -1.0000 -0.0000 -0.0000
vn -0.0000 -0.0000 1.0000
vn -0.0000 -0.0000 -1.0000
vt 0.990234 0.500000
vt 0.994141 0.500000
vt 0.986328 0.500000
vt 0.970703 0.500000
s 1
usemtl palette.163
f 4/1/1 2/1/1 1/1/1
f 5/1/1 2/1/1 4/1/1
f 7/1/1 4/1/1 3/1/1
f 7/1/1 6/1/1 5/1/1
f 7/1/1 5/1/1 4/1/1
f 8/1/1 6/1/1 7/1/1
f 9/1/1 7/1/1 3/1/1
f 10/1/1 6/1/1 8/1/1
f 11/1/1 9/1/1 3/1/1
f 11/1/1 10/1/1 9/1/1
f 12/1/1 10/1/1 11/1/1
f 13/1/1 6/1/1 10/1/1
f 13/1/1 10/1/1 12/1/1
f 14/1/1 6/1/1 13/1/1
f 15/1/1 13/1/1 12/1/1
f 16/1/1 13/1/1 15/1/1
f 19/2/1 18/2/1 17/2/1
f 20/2/1 18/2/1 19/2/1
f 23/1/1 22/1/1 21/1/1
f 24/1/1 22/1/1 23/1/1
f 25/1/1 22/1/1 24/1/1
f 26/1/1 24/1/1 23/1/1
f 26/3/1 25/3/1 24/3/1
f 27/1/1 22/1/1 25/1/1
f 27/3/1 25/3/1 26/3/1
f 28/1/1 26/1/1 23/1/1
f 28/1/1 27/1/1 26/1/1
f 29/1/1 22/1/1 27/1/1
f 29/1/1 27/1/1 28/1/1
f 30/1/1 28/1/1 23/1/1
f 30/3/1 29/3/1 28/3/1
f 31/1/1 22/1/1 29/1/1
f 31/3/1 29/3/1 30/3/1
f 32/1/1 30/1/1 23/1/1
f 32/1/1 31/1/1 30/1/1
f 33/1/1 31/1/1 32/1/1
f 34/1/1 22/1/1 31/1/1
f 34/1/1 31/1/1 33/1/1
f 35/1/1 33/1/1 32/1/1
f 35/3/1 34/3/1 33/3/1
f 36/1/1 22/1/1 34/1/1
f 36/3/1 34/3/1 35/3/1
f 37/1/1 35/1/1 32/1/1
f 37/1/1 36/1/1 35/1/1
f 38/1/1 22/1/1 36/1/1
f 38/1/1 36/1/1 37/1/1
f 41/1/1 40/1/1 39/1/1
f 42/1/1 40/1/1 41/1/1
f 45/1/1 44/1/1 43/1/1
f 46/1/1 44/1/1 45/1/1
f 47/1/1 45/1/1 43/1/1
f 48/1/1 45/1/1 47/1/1
f 49/1/1 47/1/1 43/1/1
f 49/4/1 48/4/1 47/4/1
f 50/1/1 45/1/1 48/1/1
f 50/4/1 48/4/1 49/4/1
f 51/1/1 45/1/1 50/1/1
f 53/1/1 49/1/1 43/1/1
f 53/1/1 52/1/1 51/1/1
f 53/1/1 51/1/1 50/1/1
f 53/1/1 50/1/1 49/1/1
f 54/1/1 52/1/1 53/1/1
f 57/4/1 56/4/1 55/4/1
f 58/4/1 56/4/1 57/4/1
f 61/1/1 60/1/1 59/1/1
f 62/1/1 60/1/1 61/1/1
f 63/1/1 60/1/1 62/1/1
f 64/1/1 61/1/1 59/1/1
f 64/4/1 62/4/1 61/4/1
f 65/1/1 63/1/1 62/1/1
f 65/4/1 62/4/1 64/4/1
f 66/1/1 64/1/1 59/1/1
f 66/1/1 65/1/1 64/1/1
f 67/1/1 63/1/1 65/1/1
f 67/1/1 65/1/1 66/1/1
f 70/1/1 69/1/1 68/1/1
f 71/1/1 69/1/1 70/1/1
f 72/1/2 73/1/2 75/1/2
f 75/1/2 73/1/2 76/1/2
f 74/1/2 75/1/2 78/1/2
f 78/1/2 75/1/2 79/1/2
f 76/1/2 77/1/2 80/1/2
f 80/1/2 77/1/2 81/1/2
f 79/1/2 80/1/2 82/1/2
f 82/1/2 80/1/2 83/1/2
f 84/4/2 85/4/2 86/4/2
f 86/4/2 85/4/2 87/4/2
f 88/1/2 89/1/2 90/1/2
f 90/1/2 89/1/2 91/1/2
f 92/2/2 93/2/2 94/2/2
f 94/2/2 93/2/2 95/2/2
f 96/1/2 97/1/2 98/1/2
f 98/1/2 97/1/2 99/1/2
f 99/1/2 97/1/2 100/1/2
f 100/1/2 97/1/2 101/1/2
f 99/1/2 100/1/2 102/1/2
f 100/4/2 101/4/2 103/4/2
f 102/1/2 100/1/2 103/1/2
f 101/1/2 97/1/2 104/1/2
f 103/4/2 101/4/2 104/4/2
f 104/1/2 97/1/2 105/1/2
f 102/4/2 103/4/2 106/4/2
f 99/1/2 102/1/2 106/1/2
f 103/1/2 104/1/2 107/1/2
f 106/4/2 103/4/2 107/4/2
f 104/4/2 105/4/2 108/4/2
f 107/1/2 104/1/2 108/1/2
f 105/1/2 97/1/2 109/1/2
f 108/4/2 105/4/2 109/4/2
f 107/4/2 108/4/2 110/4/2
f 106/1/2 107/1/2 110/1/2
f 108/1/2 109/1/2 111/1/2
f 110/4/2 108/4/2 111/4/2
f 96/1/2 98/1/2 112/1/2
f 98/2/2 99/2/2 112/2/2
f 110/1/2 111/1/2 113/1/2
f 112/2/2 99/2/2 113/2/2
f 106/1/2 110/1/2 113/1/2
f 99/1/2 106/1/2 113/1/2
f 96/1/2 112/1/2 114/1/2
f 112/1/2 113/1/2 114/1/2
f 114/1/2 113/1/2 115/1/2
f 115/1/2 113/1/2 116/1/2
f 116/1/2 113/1/2 117/1/2
f 113/1/2 111/1/2 118/1/2
f 117/1/2 113/1/2 118/1/2
f 118/1/2 111/1/2 119/1/2
f 119/1/2 111/1/2 120/1/2
f 111/1/2 109/1/2 121/1/2
f 120/1/2 111/1/2 121/1/2
f 109/1/2 97/1/2 122/1/2
f 121/1/2 109/1/2 122/1/2
f 122/1/2 97/1/2 123/1/2
f 115/1/2 116/1/2 124/1/2
f 117/1/2 118/1/2 125/1/2
f 119/1/2 120/1/2 126/1/2
f 120/3/2 121/3/2 127/3/2
f 126/1/2 120/1/2 127/1/2
f 121/1/2 122/1/2 128/1/2
f 127/3/2 121/3/2 128/3/2
f 128/1/2 122/1/2 129/1/2
f 124/1/2 125/1/2 130/1/2
f 115/1/2 124/1/2 130/1/2
f 125/1/2 118/1/2 131/1/2
f 130/1/2 125/1/2 131/1/2
f 134/1/3 133/1/3 132/1/3
f 135/1/3 133/1/3 134/1/3
f 138/1/3 137/1/3 136/1/3
f 139/1/3 137/1/3 138/1/3
f 144/1/3 141/1/3 140/1/3
f 145/1/3 141/1/3 144/1/3
f 146/1/3 143/1/3 142/1/3
f 147/1/3 143/1/3 146/1/3
f 148/2/3 146/2/3 145/2/3
f 149/2/3 146/2/3 148/2/3
f 150/1/3 149/1/3 148/1/3
f 151/1/3 149/1/3 150/1/3
f 152/2/3 151/2/3 150/2/3
f 153/2/3 151/2/3 152/2/3
f 154/1/3 153/1/3 152/1/3
f 155/1/3 153/1/3 154/1/3
f 158/1/3 157/1/3 156/1/3
f 159/1/3 157/1/3 158/1/3
f 162/1/3 161/1/3 160/1/3
f 163/1/3 161/1/3 162/1/3
f 166/1/3 165/1/3 164/1/3
f 167/1/3 165/1/3 166/1/3
f 172/1/3 169/1/3 168/1/3
f 173/1/3 169/1/3 172/1/3
f 174/1/3 171/1/3 170/1/3
f 175/1/3 171/1/3 174/1/3
f 176/1/3 171/1/3 175/1/3
f 177/1/3 171/1/3 176/1/3
f 180/1/3 179/1/3 178/1/3
f 181/1/3 179/1/3 180/1/3
f 184/1/3 183/1/3 182/1/3
f 185/1/3 183/1/3 184/1/3
f 188/4/3 187/4/3 186/4/3
f 189/4/3 187/4/3 188/4/3
f 190/1/4 191/1/4 192/1/4
f 192/1/4 191/1/4 193/1/4
f 194/1/4 195/1/4 196/1/4
f 196/1/4 195/1/4 197/1/4
f 198/1/4 199/1/4 202/1/4
f 202/1/4 199/1/4 203/1/4
f 200/1/4 201/1/4 204/1/4
f 204/1/4 201/1/4 205/1/4
f 203/2/4 204/2/4 206/2/4
f 206/2/4 204/2/4 207/2/4
f 206/1/4 207/1/4 208/1/4
f 208/1/4 207/1/4 209/1/4
f 208/2/4 209/2/4 210/2/4
f 210/2/4 209/2/4 211/2/4
f 212/1/4 213/1/4 214/1/4
f 214/1/4 213/1/4 215/1/4
f 216/1/4 217/1/4 218/1/4
f 218/1/4 217/1/4 219/1/4
f 220/4/4 221/4/4 222/4/4
f 222/4/4 221/4/4 223/4/4
f 224/1/4 225/1/4 226/1/4
f 226/1/4 225/1/4 227/1/4
f 228/1/4 229/1/4 230/1/4
f 230/1/4 229/1/4 231/1/4
f 232/1/4 233/1/4 234/1/4
f 234/1/4 233/1/4 235/1/4
f 235/1/4 233/1/4 236/1/4
f 236/1/4 233/1/4 237/1/4
f 237/1/4 233/1/4 238/1/4
f 238/1/4 233/1/4 239/1/4
f 232/1/4 234/1/4 240/1/4
f 234/3/4 235/3/4 240/3/4
f 235/1/4 236/1/4 241/1/4
f 240/3/4 235/3/4 241/3/4
f 236/3/4 237/3/4 242/3/4
f 241/1/4 236/1/4 242/1/4
f 237/1/4 238/1/4 243/1/4
f 242/3/4 237/3/4 243/3/4
f 238/3/4 239/3/4 244/3/4
f 243/1/4 238/1/4 244/1/4
f 239/1/4 233/1/4 245/1/4
f 244/3/4 239/3/4 245/3/4
f 243/1/4 244/1/4 246/1/4
f 242/1/4 243/1/4 246/1/4
f 244/1/4 245/1/4 246/1/4
f 241/1/4 242/1/4 246/1/4
f 240/1/4 241/1/4 246/1/4
f 232/1/4 240/1/4 246/1/4
f 245/1/4 233/1/4 247/1/4
f 246/1/4 245/1/4 247/1/4
f 252/1/5 251/1/5 250/1/5
f 253/1/5 251/1/5 252/1/5
f 255/1/5 249/1/5 248/1/5
f 256/1/5 255/1/5 254/1/5
f 257/1/5 249/1/5 255/1/5
f 257/1/5 255/1/5 256/1/5
f 260/1/5 259/1/5 258/1/5
f 261/1/5 259/1/5 260/1/5
f 267/2/5 262/2/5 261/2/5
f 268/1/5 263/1/5 262/1/5
f 268/2/5 262/2/5 267/2/5
f 269/2/5 264/2/5 263/2/5
f 269/1/5 263/1/5 268/1/5
f 270/1/5 265/1/5 264/1/5
f 270/2/5 264/2/5 269/2/5
f 271/1/5 265/1/5 270/1/5
f 272/1/5 267/1/5 266/1/5
f 273/1/5 267/1/5 272/1/5
f 276/1/5 275/1/5 274/1/5
f 277/1/5 275/1/5 276/1/5
f 280/1/5 279/1/5 278/1/5
f 281/1/5 279/1/5 280/1/5
f 282/1/6 283/1/6 284/1/6
f 284/1/6 283/1/6 285/1/6
f 286/1/6 287/1/6 288/1/6
f 288/1/6 287/1/6 289/1/6
f 289/2/6 290/2/6 295/2/6
f 290/1/6 291/1/6 296/1/6
f 295/2/6 290/2/6 296/2/6
f 291/2/6 292/2/6 297/2/6
f 296/1/6 291/1/6 297/1/6
f 292/1/6 293/1/6 298/1/6
f 297/2/6 292/2/6 298/2/6
f 298/1/6 293/1/6 299/1/6
f 294/1/6 295/1/6 300/1/6
f 300/1/6 295/1/6 301/1/6
f 302/1/6 303/1/6 304/1/6
f 304/1/6 303/1/6 305/1/6
f 302/1/6 304/1/6 306/1/6
f 304/3/6 305/3/6 306/3/6
f 305/1/6 303/1/6 307/1/6
f 306/3/6 305/3/6 307/3/6
f 302/1/6 306/1/6 310/1/6
f 306/1/6 307/1/6 310/1/6
f 307/1/6 303/1/6 311/1/6
f 310/1/6 307/1/6 311/1/6
f 312/1/6 313/1/6 314/1/6
f 314/1/6 313/1/6 315/1/6
f 308/1/6 309/1/6 316/1/6
f 316/1/6 309/1/6 317/1/6
f 302/1/6 310/1/6 318/1/6
f 318/1/6 310/1/6 319/1/6
f 320/1/6 321/1/6 323/1/6
f 321/1/6 322/1/6 323/1/6
f 323/1/6 322/1/6 324/1/6
f 324/1/6 322/1/6 325/1/6
f 325/1/6 322/1/6 326/1/6
f 320/1/6 323/1/6 327/1/6
f 324/1/6 325/1/6 328/1/6
f 328/1/6 325/1/6 329/1/6
f 320/1/6 327/1/6 331/1/6
f 329/1/6 330/1/6 331/1/6
f 328/1/6 329/1/6 331/1/6
f 327/1/6 328/1/6 331/1/6
f 331/1/6 330/1/6 332/1/6
f 333/1/6 334/1/6 337/1/6
f 337/1/6 334/1/6 338/1/6
f 335/1/6 336/1/6 339/1/6
f 339/1/6 336/1/6 340/1/6
f 333/1/6 337/1/6 341/1/6
f 338/1/6 334/1/6 342/1/6
f 339/3/6 340/3/6 343/3/6
f 335/1/6 339/1/6 343/1/6
f 343/3/6 340/3/6 344/3/6
f 333/1/6 341/1/6 345/1/6
f 341/1/6 342/1/6 345/1/6
f 342/1/6 334/1/6 346/1/6
f 345/1/6 342/1/6 346/1/6
f 343/1/6 344/1/6 347/1/6
f 335/1/6 343/1/6 347/1/6
f 347/1/6 344/1/6 348/1/6
f 349/1/6 350/1/6 351/1/6
f 351/1/6 350/1/6 352/1/6
f 353/4/6 354/4/6 355/4/6
f 355/4/6 354/4/6 356/4/6
