# Blender 4.4.3
# www.blender.org
mtllib Cap_Black.mtl
o Cap_Black
v -0.861576 0.830052 0.370935
v -0.861576 -0.769948 0.370935
v -0.861576 0.830052 0.270935
v -0.861576 -0.769948 0.270935
v -0.261576 0.830052 0.270935
v -0.261576 -0.769948 0.270935
v -0.261576 0.330052 0.170935
v -0.261576 0.230052 0.170935
v -0.261576 -0.069948 0.170935
v -0.261576 -0.269948 0.170935
v -0.261576 0.130053 0.070935
v -0.261576 -0.069948 0.070935
v -0.261576 -0.169948 0.070935
v -0.261576 0.230052 -0.229065
v -0.261576 0.130053 -0.229065
v -0.261576 -0.069948 -0.229065
v -0.261576 0.830052 -0.329065
v -0.261576 0.730052 -0.329065
v -0.261576 0.330052 -0.329065
v -0.261576 0.130053 -0.329065
v -0.261576 -0.169948 -0.329065
v -0.261576 -0.269948 -0.329065
v -0.261576 -0.669948 -0.329065
v -0.261576 -0.769948 -0.329065
v -0.261576 0.730052 -0.429065
v -0.261576 -0.669948 -0.429065
v 0.238424 0.130053 -0.429065
v 0.238424 -0.069948 -0.429065
v 0.238424 0.130053 -0.529065
v 0.238424 -0.069948 -0.529065
v 0.838424 0.730052 0.370935
v 0.838424 -0.669948 0.370935
v 0.838424 0.130053 0.270935
v 0.838424 -0.069948 0.270935
v 0.838424 0.130053 0.070935
v 0.838424 -0.069948 0.070935
v 0.838424 0.730052 -0.129065
v 0.838424 -0.669948 -0.129065
v -0.161576 0.730052 0.370935
v -0.161576 -0.669948 0.370935
v -0.161576 0.330052 0.170935
v -0.161576 0.230052 0.170935
v -0.161576 -0.069948 0.170935
v -0.161576 -0.269948 0.170935
v -0.161576 0.130053 0.070935
v -0.161576 -0.069948 0.070935
v -0.161576 -0.169948 0.070935
v -0.161576 0.730052 -0.129065
v -0.161576 0.330052 -0.129065
v -0.161576 0.230052 -0.129065
v -0.161576 0.130053 -0.129065
v -0.161576 -0.069948 -0.129065
v -0.161576 -0.169948 -0.129065
v -0.161576 -0.269948 -0.129065
v -0.161576 -0.669948 -0.129065
v 0.438424 0.130053 -0.429065
v 0.438424 -0.069948 -0.429065
v 0.438424 0.130053 -0.529065
v 0.438424 -0.069948 -0.529065
v 0.838424 0.730052 -0.329065
v 0.838424 -0.669948 -0.329065
v 0.838424 0.730052 -0.429065
v 0.838424 -0.669948 -0.429065
v 0.938424 0.830052 0.370935
v 0.938424 -0.769948 0.370935
v 0.938424 0.130053 0.270935
v 0.938424 -0.069948 0.270935
v 0.938424 0.130053 0.070935
v 0.938424 -0.069948 0.070935
v 0.938424 0.830052 -0.329065
v 0.938424 -0.769948 -0.329065
v -0.861576 0.830052 0.370935
v -0.861576 0.830052 0.270935
v -0.261576 0.830052 0.270935
v -0.261576 0.830052 -0.329065
v 0.938424 0.830052 0.370935
v 0.938424 0.830052 -0.329065
v -0.261576 0.730052 -0.329065
v -0.261576 0.730052 -0.429065
v 0.838424 0.730052 -0.329065
v 0.838424 0.730052 -0.429065
v 0.238424 0.130053 -0.429065
v 0.238424 0.130053 -0.529065
v 0.438424 0.130053 -0.429065
v 0.438424 0.130053 -0.529065
v -0.161576 -0.669948 0.370935
v -0.161576 -0.669948 -0.129065
v -0.061576 -0.669948 0.270935
v -0.061576 -0.669948 0.070935
v 0.238424 -0.669948 0.270935
v 0.238424 -0.669948 0.070935
v 0.838424 -0.669948 0.370935
v 0.838424 -0.669948 -0.129065
v -0.161576 0.730052 0.370935
v -0.161576 0.730052 -0.129065
v 0.838424 0.730052 0.370935
v 0.838424 0.730052 -0.129065
v 0.238424 -0.069948 -0.429065
v 0.238424 -0.069948 -0.529065
v 0.438424 -0.069948 -0.429065
v 0.438424 -0.069948 -0.529065
v -0.261576 -0.669948 -0.329065
v -0.261576 -0.669948 -0.429065
v 0.838424 -0.669948 -0.329065
v 0.838424 -0.669948 -0.429065
v -0.861576 -0.769948 0.370935
v -0.861576 -0.769948 0.270935
v -0.261576 -0.769948 0.270935
v -0.261576 -0.769948 -0.329065
v -0.061576 -0.769948 0.270935
v -0.061576 -0.769948 0.070935
v 0.238424 -0.769948 0.270935
v 0.238424 -0.769948 0.070935
v 0.938424 -0.769948 0.370935
v 0.938424 -0.769948 -0.329065
v -0.861576 0.830052 0.370935
v 0.938424 0.830052 0.370935
v -0.161576 0.730052 0.370935
v 0.838424 0.730052 0.370935
v -0.761576 0.230052 0.370935
v -0.661576 0.230052 0.370935
v -0.461576 0.230052 0.370935
v -0.361576 0.230052 0.370935
v -0.761576 0.130053 0.370935
v -0.661576 0.130053 0.370935
v -0.561576 0.130053 0.370935
v -0.461576 0.130053 0.370935
v -0.361576 0.130053 0.370935
v -0.661576 0.030052 0.370935
v -0.561576 0.030052 0.370935
v -0.461576 0.030052 0.370935
v -0.761576 -0.069948 0.370935
v -0.661576 -0.069948 0.370935
v -0.561576 -0.069948 0.370935
v -0.461576 -0.069948 0.370935
v -0.361576 -0.069948 0.370935
v -0.761576 -0.169948 0.370935
v -0.661576 -0.169948 0.370935
v -0.461576 -0.169948 0.370935
v -0.361576 -0.169948 0.370935
v -0.161576 -0.669948 0.370935
v 0.838424 -0.669948 0.370935
v -0.861576 -0.769948 0.370935
v 0.938424 -0.769948 0.370935
v -0.161576 0.730052 -0.129065
v 0.838424 0.730052 -0.129065
v -0.161576 0.330052 -0.129065
v -0.161576 0.230052 -0.129065
v -0.161576 0.130053 -0.129065
v 0.338424 0.130053 -0.129065
v 0.438424 0.130053 -0.129065
v -0.161576 -0.069948 -0.129065
v 0.338424 -0.069948 -0.129065
v 0.438424 -0.069948 -0.129065
v -0.161576 -0.169948 -0.129065
v -0.161576 -0.269948 -0.129065
v -0.161576 -0.669948 -0.129065
v 0.838424 -0.669948 -0.129065
v -0.861576 0.830052 0.270935
v -0.261576 0.830052 0.270935
v -0.761576 0.230052 0.270935
v -0.661576 0.230052 0.270935
v -0.461576 0.230052 0.270935
v -0.361576 0.230052 0.270935
v -0.761576 0.130053 0.270935
v -0.661576 0.130053 0.270935
v -0.561576 0.130053 0.270935
v -0.461576 0.130053 0.270935
v -0.361576 0.130053 0.270935
v -0.661576 0.030052 0.270935
v -0.561576 0.030052 0.270935
v -0.461576 0.030052 0.270935
v -0.761576 -0.069948 0.270935
v -0.661576 -0.069948 0.270935
v -0.561576 -0.069948 0.270935
v -0.461576 -0.069948 0.270935
v -0.361576 -0.069948 0.270935
v -0.761576 -0.169948 0.270935
v -0.661576 -0.169948 0.270935
v -0.461576 -0.169948 0.270935
v -0.361576 -0.169948 0.270935
v -0.861576 -0.769948 0.270935
v -0.261576 -0.769948 0.270935
v -0.261576 0.830052 -0.329065
v 0.938424 0.830052 -0.329065
v -0.261576 0.730052 -0.329065
v 0.838424 0.730052 -0.329065
v -0.261576 -0.669948 -0.329065
v 0.838424 -0.669948 -0.329065
v -0.261576 -0.769948 -0.329065
v 0.938424 -0.769948 -0.329065
v -0.261576 0.730052 -0.429065
v 0.838424 0.730052 -0.429065
v 0.238424 0.130053 -0.429065
v 0.438424 0.130053 -0.429065
v 0.238424 -0.069948 -0.429065
v 0.438424 -0.069948 -0.429065
v -0.261576 -0.669948 -0.429065
v 0.838424 -0.669948 -0.429065
v 0.238424 0.130053 -0.529065
v 0.438424 0.130053 -0.529065
v 0.238424 -0.069948 -0.529065
v 0.438424 -0.069948 -0.529065
vn -1.0000 -0.0000 -0.0000
vn 1.0000 -0.0000 -0.0000
vn -0.0000 1.0000 -0.0000
vn -0.0000 -1.0000 -0.0000
vn -0.0000 -0.0000 1.0000
vn -0.0000 -0.0000 -1.0000
vt 0.990234 0.500000
vt 0.958984 0.500000
vt 0.986328 0.500000
vt 0.232422 0.500000
vt 0.044922 0.500000
s 1
usemtl palette.194
f 3/1/1 2/1/1 1/1/1
f 4/1/1 2/1/1 3/1/1
f 7/1/1 6/1/1 5/1/1
f 8/1/1 6/1/1 7/1/1
f 9/1/1 6/1/1 8/1/1
f 10/1/1 6/1/1 9/1/1
f 11/1/1 9/1/1 8/1/1
f 12/2/1 10/2/1 9/2/1
f 12/1/1 9/1/1 11/1/1
f 13/2/1 10/2/1 12/2/1
f 14/2/1 8/2/1 7/2/1
f 14/1/1 11/1/1 8/1/1
f 15/2/1 12/2/1 11/2/1
f 15/1/1 11/1/1 14/1/1
f 16/1/1 13/1/1 12/1/1
f 16/2/1 12/2/1 15/2/1
f 17/1/1 7/1/1 5/1/1
f 18/1/1 7/1/1 17/1/1
f 19/2/1 15/2/1 14/2/1
f 19/1/1 7/1/1 18/1/1
f 19/2/1 14/2/1 7/2/1
f 20/1/1 16/1/1 15/1/1
f 20/2/1 15/2/1 19/2/1
f 21/1/1 13/1/1 16/1/1
f 21/1/1 16/1/1 20/1/1
f 21/2/1 10/2/1 13/2/1
f 22/1/1 6/1/1 10/1/1
f 22/2/1 10/2/1 21/2/1
f 23/1/1 6/1/1 22/1/1
f 24/1/1 6/1/1 23/1/1
f 25/1/1 20/1/1 19/1/1
f 25/1/1 19/1/1 18/1/1
f 25/1/1 23/1/1 22/1/1
f 25/1/1 22/1/1 21/1/1
f 25/1/1 21/1/1 20/1/1
f 26/1/1 23/1/1 25/1/1
f 29/3/1 28/3/1 27/3/1
f 30/3/1 28/3/1 29/3/1
f 33/1/1 32/1/1 31/1/1
f 34/1/1 32/1/1 33/1/1
f 35/1/1 33/1/1 31/1/1
f 35/2/1 34/2/1 33/2/1
f 36/1/1 32/1/1 34/1/1
f 36/2/1 34/2/1 35/2/1
f 37/1/1 35/1/1 31/1/1
f 37/1/1 36/1/1 35/1/1
f 38/1/1 32/1/1 36/1/1
f 38/1/1 36/1/1 37/1/1
f 39/1/2 40/1/2 41/1/2
f 41/1/2 40/1/2 42/1/2
f 42/1/2 40/1/2 43/1/2
f 43/1/2 40/1/2 44/1/2
f 42/1/2 43/1/2 45/1/2
f 43/2/2 44/2/2 46/2/2
f 45/1/2 43/1/2 46/1/2
f 46/2/2 44/2/2 47/2/2
f 39/1/2 41/1/2 48/1/2
f 41/2/2 42/2/2 49/2/2
f 48/1/2 41/1/2 49/1/2
f 42/1/2 45/1/2 50/1/2
f 49/2/2 42/2/2 50/2/2
f 45/2/2 46/2/2 51/2/2
f 50/1/2 45/1/2 51/1/2
f 46/1/2 47/1/2 52/1/2
f 51/2/2 46/2/2 52/2/2
f 47/2/2 44/2/2 53/2/2
f 52/1/2 47/1/2 53/1/2
f 44/1/2 40/1/2 54/1/2
f 53/2/2 44/2/2 54/2/2
f 54/1/2 40/1/2 55/1/2
f 56/3/2 57/3/2 58/3/2
f 58/3/2 57/3/2 59/3/2
f 60/1/2 61/1/2 62/1/2
f 62/1/2 61/1/2 63/1/2
f 64/1/2 65/1/2 66/1/2
f 66/1/2 65/1/2 67/1/2
f 64/1/2 66/1/2 68/1/2
f 66/2/2 67/2/2 68/2/2
f 67/1/2 65/1/2 69/1/2
f 68/2/2 67/2/2 69/2/2
f 64/1/2 68/1/2 70/1/2
f 68/1/2 69/1/2 70/1/2
f 69/1/2 65/1/2 71/1/2
f 70/1/2 69/1/2 71/1/2
f 74/1/3 73/1/3 72/1/3
f 76/1/3 74/1/3 72/1/3
f 76/1/3 75/1/3 74/1/3
f 77/1/3 75/1/3 76/1/3
f 80/1/3 79/1/3 78/1/3
f 81/1/3 79/1/3 80/1/3
f 84/3/3 83/3/3 82/3/3
f 85/3/3 83/3/3 84/3/3
f 88/1/3 87/1/3 86/1/3
f 89/1/3 87/1/3 88/1/3
f 90/1/3 88/1/3 86/1/3
f 90/2/3 89/2/3 88/2/3
f 91/1/3 87/1/3 89/1/3
f 91/2/3 89/2/3 90/2/3
f 92/1/3 90/1/3 86/1/3
f 92/1/3 91/1/3 90/1/3
f 93/1/3 87/1/3 91/1/3
f 93/1/3 91/1/3 92/1/3
f 94/1/4 95/1/4 96/1/4
f 96/1/4 95/1/4 97/1/4
f 98/3/4 99/3/4 100/3/4
f 100/3/4 99/3/4 101/3/4
f 102/1/4 103/1/4 104/1/4
f 104/1/4 103/1/4 105/1/4
f 106/1/4 107/1/4 108/1/4
f 106/1/4 108/1/4 110/1/4
f 108/1/4 109/1/4 110/1/4
f 110/1/4 109/1/4 111/1/4
f 106/1/4 110/1/4 112/1/4
f 110/2/4 111/2/4 112/2/4
f 111/1/4 109/1/4 113/1/4
f 112/2/4 111/2/4 113/2/4
f 106/1/4 112/1/4 114/1/4
f 112/1/4 113/1/4 114/1/4
f 113/1/4 109/1/4 115/1/4
f 114/1/4 113/1/4 115/1/4
f 118/1/5 117/1/5 116/1/5
f 119/1/5 117/1/5 118/1/5
f 120/1/5 118/1/5 116/1/5
f 121/1/5 118/1/5 120/1/5
f 122/1/5 118/1/5 121/1/5
f 123/1/5 118/1/5 122/1/5
f 124/1/5 120/1/5 116/1/5
f 124/3/5 121/3/5 120/3/5
f 125/4/5 122/4/5 121/4/5
f 125/3/5 121/3/5 124/3/5
f 126/4/5 122/4/5 125/4/5
f 127/3/5 123/3/5 122/3/5
f 127/4/5 122/4/5 126/4/5
f 128/1/5 118/1/5 123/1/5
f 128/3/5 123/3/5 127/3/5
f 129/5/5 126/5/5 125/5/5
f 129/4/5 125/4/5 124/4/5
f 130/4/5 127/4/5 126/4/5
f 130/5/5 126/5/5 129/5/5
f 130/4/5 128/4/5 127/4/5
f 131/4/5 128/4/5 130/4/5
f 132/4/5 129/4/5 124/4/5
f 132/1/5 124/1/5 116/1/5
f 132/4/5 130/4/5 129/4/5
f 133/4/5 130/4/5 132/4/5
f 134/5/5 131/5/5 130/5/5
f 134/4/5 130/4/5 133/4/5
f 135/4/5 128/4/5 131/4/5
f 135/5/5 131/5/5 134/5/5
f 136/1/5 118/1/5 128/1/5
f 136/4/5 128/4/5 135/4/5
f 137/3/5 133/3/5 132/3/5
f 137/1/5 132/1/5 116/1/5
f 138/4/5 134/4/5 133/4/5
f 138/3/5 133/3/5 137/3/5
f 138/4/5 135/4/5 134/4/5
f 139/3/5 136/3/5 135/3/5
f 139/4/5 135/4/5 138/4/5
f 140/1/5 118/1/5 136/1/5
f 140/3/5 136/3/5 139/3/5
f 141/1/5 138/1/5 137/1/5
f 141/1/5 118/1/5 140/1/5
f 141/1/5 140/1/5 139/1/5
f 141/1/5 139/1/5 138/1/5
f 142/1/5 117/1/5 119/1/5
f 143/1/5 141/1/5 137/1/5
f 143/1/5 142/1/5 141/1/5
f 143/1/5 137/1/5 116/1/5
f 144/1/5 117/1/5 142/1/5
f 144/1/5 142/1/5 143/1/5
f 147/1/5 146/1/5 145/1/5
f 148/1/5 146/1/5 147/1/5
f 149/1/5 146/1/5 148/1/5
f 150/1/5 146/1/5 149/1/5
f 151/1/5 146/1/5 150/1/5
f 152/1/5 150/1/5 149/1/5
f 153/3/5 151/3/5 150/3/5
f 153/1/5 150/1/5 152/1/5
f 154/1/5 146/1/5 151/1/5
f 154/3/5 151/3/5 153/3/5
f 155/1/5 153/1/5 152/1/5
f 155/1/5 154/1/5 153/1/5
f 156/1/5 154/1/5 155/1/5
f 157/1/5 154/1/5 156/1/5
f 158/1/5 146/1/5 154/1/5
f 158/1/5 154/1/5 157/1/5
f 159/1/6 160/1/6 161/1/6
f 161/1/6 160/1/6 162/1/6
f 162/1/6 160/1/6 163/1/6
f 163/1/6 160/1/6 164/1/6
f 159/1/6 161/1/6 165/1/6
f 161/3/6 162/3/6 165/3/6
f 162/4/6 163/4/6 166/4/6
f 165/3/6 162/3/6 166/3/6
f 166/4/6 163/4/6 167/4/6
f 163/3/6 164/3/6 168/3/6
f 167/4/6 163/4/6 168/4/6
f 164/1/6 160/1/6 169/1/6
f 168/3/6 164/3/6 169/3/6
f 166/5/6 167/5/6 170/5/6
f 165/4/6 166/4/6 170/4/6
f 167/4/6 168/4/6 171/4/6
f 170/5/6 167/5/6 171/5/6
f 168/4/6 169/4/6 171/4/6
f 171/4/6 169/4/6 172/4/6
f 165/4/6 170/4/6 173/4/6
f 159/1/6 165/1/6 173/1/6
f 170/4/6 171/4/6 173/4/6
f 173/4/6 171/4/6 174/4/6
f 171/5/6 172/5/6 175/5/6
f 174/4/6 171/4/6 175/4/6
f 172/4/6 169/4/6 176/4/6
f 175/5/6 172/5/6 176/5/6
f 169/1/6 160/1/6 177/1/6
f 176/4/6 169/4/6 177/4/6
f 173/3/6 174/3/6 178/3/6
f 159/1/6 173/1/6 178/1/6
f 174/4/6 175/4/6 179/4/6
f 178/3/6 174/3/6 179/3/6
f 175/4/6 176/4/6 179/4/6
f 176/3/6 177/3/6 180/3/6
f 179/4/6 176/4/6 180/4/6
f 177/1/6 160/1/6 181/1/6
f 180/3/6 177/3/6 181/3/6
f 159/1/6 178/1/6 182/1/6
f 178/1/6 179/1/6 182/1/6
f 180/1/6 181/1/6 182/1/6
f 179/1/6 180/1/6 182/1/6
f 181/1/6 160/1/6 183/1/6
f 182/1/6 181/1/6 183/1/6
f 184/1/6 185/1/6 186/1/6
f 186/1/6 185/1/6 187/1/6
f 187/1/6 185/1/6 189/1/6
f 188/1/6 189/1/6 190/1/6
f 189/1/6 185/1/6 191/1/6
f 190/1/6 189/1/6 191/1/6
f 192/1/6 193/1/6 194/1/6
f 194/1/6 193/1/6 195/1/6
f 192/1/6 194/1/6 196/1/6
f 195/1/6 193/1/6 197/1/6
f 192/1/6 196/1/6 198/1/6
f 196/1/6 197/1/6 198/1/6
f 197/1/6 193/1/6 199/1/6
f 198/1/6 197/1/6 199/1/6
f 200/3/6 201/3/6 202/3/6
f 202/3/6 201/3/6 203/3/6
