# Blender 4.4.3
# www.blender.org
mtllib Drink_Energy.mtl
o Drink_Energy
v -0.349091 0.392272 0.950000
v -0.349091 -0.107728 0.950000
v -0.349091 -0.407728 0.950000
v -0.349091 0.392272 0.850000
v -0.349091 -0.107728 0.850000
v -0.349091 -0.407728 0.850000
v -0.349091 0.392272 0.750000
v -0.349091 -0.107728 0.750000
v -0.349091 -0.407728 0.750000
v -0.349091 -0.007728 0.450000
v -0.349091 -0.107728 0.450000
v -0.349091 0.192272 0.250000
v -0.349091 -0.007728 0.250000
v -0.349091 -0.207727 0.250000
v -0.349091 0.192272 0.150000
v -0.349091 -0.007728 0.150000
v -0.349091 -0.207727 0.150000
v -0.349091 0.292273 0.050000
v -0.349091 0.192272 0.050000
v -0.349091 0.092272 0.050000
v -0.349091 -0.007728 0.050000
v -0.349091 -0.107728 0.050000
v -0.349091 -0.207727 0.050000
v -0.349091 -0.307728 0.050000
v -0.349091 0.392272 -0.050000
v -0.349091 0.292273 -0.050000
v -0.349091 0.192272 -0.050000
v -0.349091 0.092272 -0.050000
v -0.349091 -0.107728 -0.050000
v -0.349091 -0.207727 -0.050000
v -0.349091 -0.307728 -0.050000
v -0.349091 -0.407728 -0.050000
v -0.349091 -0.007728 -0.150000
v -0.349091 -0.107728 -0.150000
v -0.349091 -0.207727 -0.150000
v -0.349091 -0.307728 -0.150000
v -0.349091 0.292273 -0.250000
v -0.349091 0.192272 -0.250000
v -0.349091 0.092272 -0.250000
v -0.349091 -0.007728 -0.250000
v -0.349091 -0.107728 -0.250000
v -0.349091 -0.207727 -0.250000
v -0.349091 0.092272 -0.450000
v -0.349091 -0.007728 -0.450000
v -0.349091 0.392272 -0.850000
v -0.349091 0.092272 -0.850000
v -0.349091 0.392272 -0.950000
v -0.349091 -0.407728 -0.950000
v -0.049091 0.192272 -0.850000
v -0.049091 0.092272 -0.850000
v -0.049091 -0.107728 -0.850000
v -0.049091 0.192272 -0.950000
v -0.049091 0.092272 -0.950000
v -0.049091 -0.107728 -0.950000
v 0.250909 0.192272 -0.850000
v 0.250909 -0.207727 -0.850000
v 0.250909 0.192272 -0.950000
v 0.250909 -0.207727 -0.950000
v 0.350909 0.292273 0.950000
v 0.350909 0.092272 0.950000
v 0.350909 -0.307728 0.950000
v 0.350909 0.292273 0.850000
v 0.350909 0.092272 0.850000
v 0.350909 -0.307728 0.850000
v -0.249091 0.292273 0.950000
v -0.249091 -0.107728 0.950000
v -0.249091 -0.307728 0.950000
v -0.249091 0.292273 0.850000
v -0.249091 -0.107728 0.850000
v -0.249091 -0.307728 0.850000
v -0.149091 0.192272 -0.850000
v -0.149091 -0.207727 -0.850000
v -0.149091 0.192272 -0.950000
v -0.149091 -0.207727 -0.950000
v 0.150909 0.192272 -0.850000
v 0.150909 0.092272 -0.850000
v 0.150909 -0.107728 -0.850000
v 0.150909 0.192272 -0.950000
v 0.150909 0.092272 -0.950000
v 0.150909 -0.107728 -0.950000
v 0.450909 0.392272 0.950000
v 0.450909 0.092272 0.950000
v 0.450909 -0.407728 0.950000
v 0.450909 0.392272 0.850000
v 0.450909 0.092272 0.850000
v 0.450909 -0.407728 0.850000
v 0.450909 0.392272 0.750000
v 0.450909 0.092272 0.750000
v 0.450909 -0.407728 0.750000
v 0.450909 0.092272 0.350000
v 0.450909 -0.007728 0.350000
v 0.450909 0.392272 -0.050000
v 0.450909 -0.007728 -0.050000
v 0.450909 -0.407728 -0.050000
v 0.450909 -0.007728 -0.450000
v 0.450909 -0.107728 -0.450000
v 0.450909 -0.107728 -0.850000
v 0.450909 -0.407728 -0.850000
v 0.450909 0.392272 -0.950000
v 0.450909 -0.407728 -0.950000
v -0.349091 0.392272 0.950000
v -0.349091 0.392272 0.850000
v -0.349091 0.392272 0.750000
v -0.349091 0.392272 -0.050000
v -0.349091 0.392272 -0.850000
v -0.349091 0.392272 -0.950000
v -0.049091 0.392272 0.950000
v -0.049091 0.392272 0.850000
v -0.049091 0.392272 0.750000
v -0.049091 0.392272 0.450000
v 0.050909 0.392272 0.450000
v 0.050909 0.392272 -0.050000
v 0.050909 0.392272 -0.450000
v 0.150909 0.392272 -0.450000
v 0.150909 0.392272 -0.850000
v 0.450909 0.392272 0.950000
v 0.450909 0.392272 0.850000
v 0.450909 0.392272 0.750000
v 0.450909 0.392272 -0.050000
v 0.450909 0.392272 -0.950000
v -0.149091 -0.207727 -0.850000
v -0.149091 -0.207727 -0.950000
v 0.250909 -0.207727 -0.850000
v 0.250909 -0.207727 -0.950000
v -0.249091 -0.307728 0.950000
v -0.249091 -0.307728 0.850000
v 0.150909 -0.307728 0.950000
v 0.150909 -0.307728 0.850000
v 0.350909 -0.307728 0.950000
v 0.350909 -0.307728 0.850000
v -0.249091 0.292273 0.950000
v -0.249091 0.292273 0.850000
v -0.049091 0.292273 0.950000
v -0.049091 0.292273 0.850000
v 0.350909 0.292273 0.950000
v 0.350909 0.292273 0.850000
v -0.149091 0.192272 -0.850000
v -0.149091 0.192272 -0.950000
v -0.049091 0.192272 -0.850000
v -0.049091 0.192272 -0.950000
v 0.150909 0.192272 -0.850000
v 0.150909 0.192272 -0.950000
v 0.250909 0.192272 -0.850000
v 0.250909 0.192272 -0.950000
v -0.049091 -0.107728 -0.850000
v -0.049091 -0.107728 -0.950000
v 0.150909 -0.107728 -0.850000
v 0.150909 -0.107728 -0.950000
v -0.349091 -0.407728 0.950000
v -0.349091 -0.407728 0.850000
v -0.349091 -0.407728 0.750000
v -0.349091 -0.407728 -0.050000
v -0.349091 -0.407728 -0.950000
v -0.049091 -0.407728 -0.450000
v -0.049091 -0.407728 -0.850000
v 0.050909 -0.407728 0.350000
v 0.050909 -0.407728 -0.050000
v 0.050909 -0.407728 -0.450000
v 0.150909 -0.407728 0.950000
v 0.150909 -0.407728 0.850000
v 0.150909 -0.407728 0.750000
v 0.150909 -0.407728 0.350000
v 0.450909 -0.407728 0.950000
v 0.450909 -0.407728 0.850000
v 0.450909 -0.407728 0.750000
v 0.450909 -0.407728 -0.050000
v 0.450909 -0.407728 -0.850000
v 0.450909 -0.407728 -0.950000
v -0.349091 0.392272 0.950000
v -0.049091 0.392272 0.950000
v 0.450909 0.392272 0.950000
v -0.249091 0.292273 0.950000
v -0.049091 0.292273 0.950000
v 0.350909 0.292273 0.950000
v 0.350909 0.092272 0.950000
v 0.450909 0.092272 0.950000
v -0.349091 -0.107728 0.950000
v -0.249091 -0.107728 0.950000
v -0.249091 -0.307728 0.950000
v 0.150909 -0.307728 0.950000
v 0.350909 -0.307728 0.950000
v -0.349091 -0.407728 0.950000
v 0.150909 -0.407728 0.950000
v 0.450909 -0.407728 0.950000
v -0.249091 0.292273 0.850000
v -0.049091 0.292273 0.850000
v 0.350909 0.292273 0.850000
v 0.350909 0.092272 0.850000
v -0.249091 -0.107728 0.850000
v -0.249091 -0.307728 0.850000
v 0.150909 -0.307728 0.850000
v 0.350909 -0.307728 0.850000
v -0.149091 0.192272 -0.850000
v -0.049091 0.192272 -0.850000
v 0.150909 0.192272 -0.850000
v 0.250909 0.192272 -0.850000
v -0.049091 0.092272 -0.850000
v 0.150909 0.092272 -0.850000
v -0.049091 -0.107728 -0.850000
v 0.150909 -0.107728 -0.850000
v -0.149091 -0.207727 -0.850000
v 0.250909 -0.207727 -0.850000
v -0.349091 0.392272 -0.950000
v 0.450909 0.392272 -0.950000
v -0.249091 0.292273 -0.950000
v 0.350909 0.292273 -0.950000
v -0.149091 0.192272 -0.950000
v -0.049091 0.192272 -0.950000
v 0.150909 0.192272 -0.950000
v 0.250909 0.192272 -0.950000
v -0.049091 0.092272 -0.950000
v 0.150909 0.092272 -0.950000
v -0.049091 -0.107728 -0.950000
v 0.150909 -0.107728 -0.950000
v -0.149091 -0.207727 -0.950000
v 0.250909 -0.207727 -0.950000
v -0.249091 -0.307728 -0.950000
v 0.350909 -0.307728 -0.950000
v -0.349091 -0.407728 -0.950000
v 0.450909 -0.407728 -0.950000
vn -1.0000 -0.0000 -0.0000
vn 1.0000 -0.0000 -0.0000
vn -0.0000 1.0000 -0.0000
vn -0.0000 -1.0000 -0.0000
vn -0.0000 -0.0000 1.0000
vn -0.0000 -0.0000 -1.0000
vt 0.958984 0.500000
vt 0.798828 0.500000
vt 0.908203 0.500000
vt 0.064453 0.500000
vt 0.982422 0.500000
vt 0.974609 0.500000
s 1
usemtl palette.197
f 4/1/1 2/1/1 1/1/1
f 5/2/1 3/2/1 2/2/1
f 5/1/1 2/1/1 4/1/1
f 6/2/1 3/2/1 5/2/1
f 7/2/1 5/2/1 4/2/1
f 8/1/1 6/1/1 5/1/1
f 8/2/1 5/2/1 7/2/1
f 9/1/1 6/1/1 8/1/1
f 10/1/1 8/1/1 7/1/1
f 11/2/1 9/2/1 8/2/1
f 11/1/1 8/1/1 10/1/1
f 12/1/1 10/1/1 7/1/1
f 13/2/1 11/2/1 10/2/1
f 13/1/1 10/1/1 12/1/1
f 14/2/1 9/2/1 11/2/1
f 14/2/1 11/2/1 13/2/1
f 15/3/1 13/3/1 12/3/1
f 15/1/1 12/1/1 7/1/1
f 15/3/1 14/3/1 13/3/1
f 16/3/1 14/3/1 15/3/1
f 17/2/1 9/2/1 14/2/1
f 17/3/1 14/3/1 16/3/1
f 18/1/1 16/1/1 15/1/1
f 18/1/1 15/1/1 7/1/1
f 19/1/1 16/1/1 18/1/1
f 20/1/1 16/1/1 19/1/1
f 21/2/1 17/2/1 16/2/1
f 21/1/1 16/1/1 20/1/1
f 22/2/1 17/2/1 21/2/1
f 23/2/1 9/2/1 17/2/1
f 23/2/1 17/2/1 22/2/1
f 24/2/1 9/2/1 23/2/1
f 25/1/1 18/1/1 7/1/1
f 26/3/1 19/3/1 18/3/1
f 26/1/1 18/1/1 25/1/1
f 27/1/1 20/1/1 19/1/1
f 27/3/1 19/3/1 26/3/1
f 28/4/1 22/4/1 21/4/1
f 28/1/1 20/1/1 27/1/1
f 28/4/1 21/4/1 20/4/1
f 29/2/1 23/2/1 22/2/1
f 29/4/1 22/4/1 28/4/1
f 30/3/1 24/3/1 23/3/1
f 30/2/1 23/2/1 29/2/1
f 31/2/1 9/2/1 24/2/1
f 31/3/1 24/3/1 30/3/1
f 32/2/1 9/2/1 31/2/1
f 33/3/1 29/3/1 28/3/1
f 34/1/1 30/1/1 29/1/1
f 34/3/1 29/3/1 33/3/1
f 35/3/1 31/3/1 30/3/1
f 35/1/1 30/1/1 34/1/1
f 36/1/1 32/1/1 31/1/1
f 36/3/1 31/3/1 35/3/1
f 37/3/1 27/3/1 26/3/1
f 37/2/1 26/2/1 25/2/1
f 38/2/1 28/2/1 27/2/1
f 38/3/1 27/3/1 37/3/1
f 39/3/1 33/3/1 28/3/1
f 39/2/1 28/2/1 38/2/1
f 40/1/1 34/1/1 33/1/1
f 40/3/1 33/3/1 39/3/1
f 41/3/1 35/3/1 34/3/1
f 41/1/1 34/1/1 40/1/1
f 42/1/1 36/1/1 35/1/1
f 42/3/1 35/3/1 41/3/1
f 43/2/1 38/2/1 37/2/1
f 43/2/1 39/2/1 38/2/1
f 43/2/1 40/2/1 39/2/1
f 44/1/1 41/1/1 40/1/1
f 44/2/1 40/2/1 43/2/1
f 44/1/1 42/1/1 41/1/1
f 45/2/1 43/2/1 37/2/1
f 45/2/1 37/2/1 25/2/1
f 46/1/1 44/1/1 43/1/1
f 46/2/1 43/2/1 45/2/1
f 47/1/1 46/1/1 45/1/1
f 48/1/1 32/1/1 36/1/1
f 48/1/1 46/1/1 47/1/1
f 48/1/1 42/1/1 44/1/1
f 48/1/1 44/1/1 46/1/1
f 48/1/1 36/1/1 42/1/1
f 52/5/1 50/5/1 49/5/1
f 53/6/1 51/6/1 50/6/1
f 53/5/1 50/5/1 52/5/1
f 54/6/1 51/6/1 53/6/1
f 57/6/1 56/6/1 55/6/1
f 58/6/1 56/6/1 57/6/1
f 62/2/1 60/2/1 59/2/1
f 63/1/1 61/1/1 60/1/1
f 63/2/1 60/2/1 62/2/1
f 64/1/1 61/1/1 63/1/1
f 65/1/2 66/1/2 68/1/2
f 66/2/2 67/2/2 69/2/2
f 68/1/2 66/1/2 69/1/2
f 69/2/2 67/2/2 70/2/2
f 71/6/2 72/6/2 73/6/2
f 73/6/2 72/6/2 74/6/2
f 75/5/2 76/5/2 78/5/2
f 76/6/2 77/6/2 79/6/2
f 78/5/2 76/5/2 79/5/2
f 79/6/2 77/6/2 80/6/2
f 81/2/2 82/2/2 84/2/2
f 82/1/2 83/1/2 85/1/2
f 84/2/2 82/2/2 85/2/2
f 85/1/2 83/1/2 86/1/2
f 84/1/2 85/1/2 87/1/2
f 85/2/2 86/2/2 88/2/2
f 87/1/2 85/1/2 88/1/2
f 88/2/2 86/2/2 89/2/2
f 87/2/2 88/2/2 90/2/2
f 88/1/2 89/1/2 90/1/2
f 90/1/2 89/1/2 91/1/2
f 87/2/2 90/2/2 92/2/2
f 90/2/2 91/2/2 92/2/2
f 91/1/2 89/1/2 93/1/2
f 92/2/2 91/2/2 93/2/2
f 93/1/2 89/1/2 94/1/2
f 92/1/2 93/1/2 95/1/2
f 93/2/2 94/2/2 95/2/2
f 95/2/2 94/2/2 96/2/2
f 95/1/2 96/1/2 97/1/2
f 96/2/2 94/2/2 97/2/2
f 97/2/2 94/2/2 98/2/2
f 92/1/2 95/1/2 99/1/2
f 95/1/2 97/1/2 99/1/2
f 97/1/2 98/1/2 99/1/2
f 99/1/2 98/1/2 100/1/2
f 107/1/3 102/1/3 101/1/3
f 108/2/3 103/2/3 102/2/3
f 108/1/3 102/1/3 107/1/3
f 109/1/3 104/1/3 103/1/3
f 109/2/3 103/2/3 108/2/3
f 110/1/3 104/1/3 109/1/3
f 111/2/3 110/2/3 109/2/3
f 111/1/3 104/1/3 110/1/3
f 112/2/3 105/2/3 104/2/3
f 112/1/3 104/1/3 111/1/3
f 113/2/3 105/2/3 112/2/3
f 114/1/3 113/1/3 112/1/3
f 114/2/3 105/2/3 113/2/3
f 115/1/3 106/1/3 105/1/3
f 115/2/3 105/2/3 114/2/3
f 116/2/3 108/2/3 107/2/3
f 117/1/3 109/1/3 108/1/3
f 117/2/3 108/2/3 116/2/3
f 118/2/3 111/2/3 109/2/3
f 118/1/3 109/1/3 117/1/3
f 118/2/3 112/2/3 111/2/3
f 119/1/3 114/1/3 112/1/3
f 119/2/3 112/2/3 118/2/3
f 119/1/3 115/1/3 114/1/3
f 120/1/3 106/1/3 115/1/3
f 120/1/3 115/1/3 119/1/3
f 123/6/3 122/6/3 121/6/3
f 124/6/3 122/6/3 123/6/3
f 127/2/3 126/2/3 125/2/3
f 128/2/3 126/2/3 127/2/3
f 129/1/3 128/1/3 127/1/3
f 130/1/3 128/1/3 129/1/3
f 131/1/4 132/1/4 133/1/4
f 133/1/4 132/1/4 134/1/4
f 133/2/4 134/2/4 135/2/4
f 135/2/4 134/2/4 136/2/4
f 137/6/4 138/6/4 139/6/4
f 139/6/4 138/6/4 140/6/4
f 141/6/4 142/6/4 143/6/4
f 143/6/4 142/6/4 144/6/4
f 145/6/4 146/6/4 147/6/4
f 147/6/4 146/6/4 148/6/4
f 152/1/4 153/1/4 154/1/4
f 154/1/4 153/1/4 155/1/4
f 151/2/4 152/2/4 156/2/4
f 152/1/4 154/1/4 157/1/4
f 156/2/4 152/2/4 157/2/4
f 154/2/4 155/2/4 158/2/4
f 157/1/4 154/1/4 158/1/4
f 149/2/4 150/2/4 159/2/4
f 150/1/4 151/1/4 160/1/4
f 159/2/4 150/2/4 160/2/4
f 151/2/4 156/2/4 161/2/4
f 160/1/4 151/1/4 161/1/4
f 156/1/4 157/1/4 162/1/4
f 161/2/4 156/2/4 162/2/4
f 159/1/4 160/1/4 163/1/4
f 160/2/4 161/2/4 164/2/4
f 163/1/4 160/1/4 164/1/4
f 161/1/4 162/1/4 165/1/4
f 164/2/4 161/2/4 165/2/4
f 162/1/4 157/1/4 166/1/4
f 165/1/4 162/1/4 166/1/4
f 157/2/4 158/2/4 166/2/4
f 158/2/4 155/2/4 167/2/4
f 166/2/4 158/2/4 167/2/4
f 155/1/4 153/1/4 167/1/4
f 167/1/4 153/1/4 168/1/4
f 172/1/5 170/1/5 169/1/5
f 173/2/5 171/2/5 170/2/5
f 173/1/5 170/1/5 172/1/5
f 174/2/5 171/2/5 173/2/5
f 175/2/5 171/2/5 174/2/5
f 176/2/5 171/2/5 175/2/5
f 177/1/5 172/1/5 169/1/5
f 178/1/5 172/1/5 177/1/5
f 179/2/5 178/2/5 177/2/5
f 181/1/5 176/1/5 175/1/5
f 182/2/5 180/2/5 179/2/5
f 182/2/5 179/2/5 177/2/5
f 183/1/5 181/1/5 180/1/5
f 183/2/5 180/2/5 182/2/5
f 184/1/5 176/1/5 181/1/5
f 184/1/5 181/1/5 183/1/5
f 188/1/5 186/1/5 185/1/5
f 188/1/5 187/1/5 186/1/5
f 189/1/5 188/1/5 185/1/5
f 190/1/5 188/1/5 189/1/5
f 191/1/5 188/1/5 190/1/5
f 192/1/5 188/1/5 191/1/5
f 193/5/6 194/5/6 197/5/6
f 195/5/6 196/5/6 198/5/6
f 193/5/6 197/5/6 199/5/6
f 198/5/6 196/5/6 200/5/6
f 193/5/6 199/5/6 201/5/6
f 199/5/6 200/5/6 201/5/6
f 200/5/6 196/5/6 202/5/6
f 201/5/6 200/5/6 202/5/6
f 203/1/6 204/1/6 205/1/6
f 205/1/6 204/1/6 206/1/6
f 205/6/6 206/6/6 207/6/6
f 207/6/6 206/6/6 208/6/6
f 208/6/6 206/6/6 209/6/6
f 209/6/6 206/6/6 210/6/6
f 208/5/6 209/5/6 211/5/6
f 211/5/6 209/5/6 212/5/6
f 211/6/6 212/6/6 213/6/6
f 213/6/6 212/6/6 214/6/6
f 205/6/6 207/6/6 215/6/6
f 210/6/6 206/6/6 216/6/6
f 203/1/6 205/1/6 217/1/6
f 215/6/6 216/6/6 217/6/6
f 205/6/6 215/6/6 217/6/6
f 216/6/6 206/6/6 218/6/6
f 217/6/6 216/6/6 218/6/6
f 206/1/6 204/1/6 218/1/6
f 203/1/6 217/1/6 219/1/6
f 217/1/6 218/1/6 219/1/6
f 218/1/6 204/1/6 220/1/6
f 219/1/6 218/1/6 220/1/6
