# Blender 4.4.3
# www.blender.org
mtllib Face_024.mtl
o Face.024
v -0.426188 0.099198 0.373810
v -0.426188 -0.100801 0.373810
v -0.426188 0.099198 0.173810
v -0.426188 -0.100801 0.173810
v -0.326188 0.699199 0.773810
v -0.326188 -0.700801 0.773810
v -0.326188 0.299199 0.673810
v -0.326188 0.099198 0.673810
v -0.326188 -0.100801 0.673810
v -0.326188 -0.300801 0.673810
v -0.326188 0.699199 0.573810
v -0.326188 0.399199 0.573810
v -0.326188 0.199199 0.573810
v -0.326188 0.099198 0.573810
v -0.326188 -0.100801 0.573810
v -0.326188 -0.200801 0.573810
v -0.326188 -0.400802 0.573810
v -0.326188 -0.700801 0.573810
v -0.326188 0.399199 0.473810
v -0.326188 0.299199 0.473810
v -0.326188 0.199199 0.473810
v -0.326188 -0.200801 0.473810
v -0.326188 -0.300801 0.473810
v -0.326188 -0.400802 0.473810
v -0.326188 0.299199 0.373810
v -0.326188 0.099198 0.373810
v -0.326188 -0.100801 0.373810
v -0.326188 -0.300801 0.373810
v -0.326188 0.599198 0.273810
v -0.326188 0.299199 0.273810
v -0.326188 -0.300801 0.273810
v -0.326188 -0.600801 0.273810
v -0.326188 0.599198 0.173810
v -0.326188 0.499198 0.173810
v -0.326188 0.299199 0.173810
v -0.326188 0.099198 0.173810
v -0.326188 -0.100801 0.173810
v -0.326188 -0.300801 0.173810
v -0.326188 -0.500801 0.173810
v -0.326188 -0.600801 0.173810
v -0.326188 0.499198 0.073810
v -0.326188 0.399199 0.073810
v -0.326188 -0.300801 0.073810
v -0.326188 -0.400802 0.073810
v -0.326188 0.599198 -0.026190
v -0.326188 0.499198 -0.026190
v -0.326188 0.399199 -0.026190
v -0.326188 0.299199 -0.026190
v -0.326188 -0.300801 -0.026190
v -0.326188 -0.400802 -0.026190
v -0.326188 -0.500801 -0.026190
v -0.326188 -0.600801 -0.026190
v -0.326188 0.599198 -0.126190
v -0.326188 0.499198 -0.126190
v -0.326188 0.299199 -0.126190
v -0.326188 0.199199 -0.126190
v -0.326188 -0.200801 -0.126190
v -0.326188 -0.300801 -0.126190
v -0.326188 -0.500801 -0.126190
v -0.326188 -0.600801 -0.126190
v -0.326188 0.499198 -0.226190
v -0.326188 0.299199 -0.226190
v -0.326188 0.199199 -0.226190
v -0.326188 -0.200801 -0.226190
v -0.326188 -0.300801 -0.226190
v -0.326188 -0.500801 -0.226190
v -0.326188 0.699199 -0.626190
v -0.326188 -0.700801 -0.626190
v -0.326188 0.699199 -0.726190
v -0.326188 0.599198 -0.726190
v -0.326188 -0.600801 -0.726190
v -0.326188 -0.700801 -0.726190
v -0.326188 0.599198 -0.826190
v -0.326188 -0.600801 -0.826190
v -0.226189 0.499198 -0.826190
v -0.226189 -0.500801 -0.826190
v -0.226189 0.499198 -0.926190
v -0.226189 -0.500801 -0.926190
v 0.073812 0.799199 0.373810
v 0.073812 0.699199 0.373810
v 0.073812 -0.700801 0.373810
v 0.073812 -0.800801 0.373810
v 0.073812 0.799199 -0.026190
v 0.073812 0.699199 -0.026190
v 0.073812 -0.700801 -0.026190
v 0.073812 -0.800801 -0.026190
v 0.273811 0.799199 0.373810
v 0.273811 0.699199 0.373810
v 0.273811 -0.700801 0.373810
v 0.273811 -0.800801 0.373810
v 0.273811 0.799199 -0.026190
v 0.273811 0.699199 -0.026190
v 0.273811 -0.700801 -0.026190
v 0.273811 -0.800801 -0.026190
v 0.573812 0.499198 -0.826190
v 0.573812 -0.500801 -0.826190
v 0.573812 0.499198 -0.926190
v 0.573812 -0.500801 -0.926190
v 0.673812 0.699199 0.773810
v 0.673812 -0.700801 0.773810
v 0.673812 0.599198 0.573810
v 0.673812 0.499198 0.573810
v 0.673812 -0.500801 0.573810
v 0.673812 -0.600801 0.573810
v 0.673812 0.699199 0.473810
v 0.673812 0.599198 0.473810
v 0.673812 0.499198 0.473810
v 0.673812 -0.500801 0.473810
v 0.673812 -0.600801 0.473810
v 0.673812 -0.700801 0.473810
v 0.673812 0.699199 -0.726190
v 0.673812 0.599198 -0.726190
v 0.673812 -0.600801 -0.726190
v 0.673812 -0.700801 -0.726190
v 0.673812 0.599198 -0.826190
v 0.673812 -0.600801 -0.826190
v 0.073812 0.799199 0.373810
v 0.073812 0.799199 -0.026190
v 0.273811 0.799199 0.373810
v 0.273811 0.799199 -0.026190
v -0.326188 0.699199 0.773810
v -0.326188 0.699199 0.573810
v -0.326188 0.699199 -0.626190
v -0.326188 0.699199 -0.726190
v -0.226189 0.699199 0.573810
v -0.226189 0.699199 0.473810
v -0.226189 0.699199 -0.426190
v -0.226189 0.699199 -0.526190
v -0.226189 0.699199 -0.626190
v -0.126188 0.699199 0.573810
v -0.126188 0.699199 0.473810
v -0.126188 0.699199 -0.426190
v -0.126188 0.699199 -0.526190
v 0.073812 0.699199 0.773810
v 0.073812 0.699199 0.373810
v 0.073812 0.699199 -0.026190
v 0.273811 0.699199 0.373810
v 0.273811 0.699199 -0.026190
v 0.373812 0.699199 0.473810
v 0.373812 0.699199 0.373810
v 0.473811 0.699199 0.473810
v 0.473811 0.699199 0.373810
v 0.673812 0.699199 0.773810
v 0.673812 0.699199 0.473810
v 0.673812 0.699199 -0.726190
v -0.326188 0.599198 -0.726190
v -0.326188 0.599198 -0.826190
v 0.673812 0.599198 -0.726190
v 0.673812 0.599198 -0.826190
v -0.226189 0.499198 -0.826190
v -0.226189 0.499198 -0.926190
v 0.573812 0.499198 -0.826190
v 0.573812 0.499198 -0.926190
v -0.426188 0.099198 0.373810
v -0.426188 0.099198 0.173810
v -0.326188 0.099198 0.373810
v -0.326188 0.099198 0.173810
v -0.426188 -0.100801 0.373810
v -0.426188 -0.100801 0.173810
v -0.326188 -0.100801 0.373810
v -0.326188 -0.100801 0.173810
v -0.226189 -0.500801 -0.826190
v -0.226189 -0.500801 -0.926190
v 0.573812 -0.500801 -0.826190
v 0.573812 -0.500801 -0.926190
v -0.326188 -0.600801 -0.726190
v -0.326188 -0.600801 -0.826190
v 0.673812 -0.600801 -0.726190
v 0.673812 -0.600801 -0.826190
v -0.326188 -0.700801 0.773810
v -0.326188 -0.700801 0.573810
v -0.326188 -0.700801 -0.626190
v -0.326188 -0.700801 -0.726190
v -0.226189 -0.700801 0.573810
v -0.226189 -0.700801 0.473810
v -0.226189 -0.700801 -0.426190
v -0.226189 -0.700801 -0.526190
v -0.226189 -0.700801 -0.626190
v -0.126188 -0.700801 0.573810
v -0.126188 -0.700801 0.473810
v -0.126188 -0.700801 -0.426190
v -0.126188 -0.700801 -0.526190
v 0.073812 -0.700801 0.773810
v 0.073812 -0.700801 0.373810
v 0.073812 -0.700801 -0.026190
v 0.273811 -0.700801 0.373810
v 0.273811 -0.700801 -0.026190
v 0.373812 -0.700801 0.473810
v 0.373812 -0.700801 0.373810
v 0.473811 -0.700801 0.473810
v 0.473811 -0.700801 0.373810
v 0.673812 -0.700801 0.773810
v 0.673812 -0.700801 0.473810
v 0.673812 -0.700801 -0.726190
v 0.073812 -0.800801 0.373810
v 0.073812 -0.800801 -0.026190
v 0.273811 -0.800801 0.373810
v 0.273811 -0.800801 -0.026190
v -0.326188 0.699199 0.773810
v 0.073812 0.699199 0.773810
v 0.673812 0.699199 0.773810
v -0.126188 0.599198 0.773810
v 0.073812 0.599198 0.773810
v -0.126188 -0.600801 0.773810
v 0.073812 -0.600801 0.773810
v -0.326188 -0.700801 0.773810
v 0.073812 -0.700801 0.773810
v 0.673812 -0.700801 0.773810
v 0.073812 0.799199 0.373810
v 0.273811 0.799199 0.373810
v 0.073812 0.699199 0.373810
v 0.273811 0.699199 0.373810
v -0.426188 0.099198 0.373810
v -0.326188 0.099198 0.373810
v -0.426188 -0.100801 0.373810
v -0.326188 -0.100801 0.373810
v 0.073812 -0.700801 0.373810
v 0.273811 -0.700801 0.373810
v 0.073812 -0.800801 0.373810
v 0.273811 -0.800801 0.373810
v -0.426188 0.099198 0.173810
v -0.326188 0.099198 0.173810
v -0.426188 -0.100801 0.173810
v -0.326188 -0.100801 0.173810
v 0.073812 0.799199 -0.026190
v 0.273811 0.799199 -0.026190
v 0.073812 0.699199 -0.026190
v 0.273811 0.699199 -0.026190
v 0.073812 -0.700801 -0.026190
v 0.273811 -0.700801 -0.026190
v 0.073812 -0.800801 -0.026190
v 0.273811 -0.800801 -0.026190
v -0.326188 0.699199 -0.726190
v 0.673812 0.699199 -0.726190
v -0.326188 0.599198 -0.726190
v 0.673812 0.599198 -0.726190
v -0.326188 -0.600801 -0.726190
v 0.673812 -0.600801 -0.726190
v -0.326188 -0.700801 -0.726190
v 0.673812 -0.700801 -0.726190
v -0.326188 0.599198 -0.826190
v 0.673812 0.599198 -0.826190
v -0.226189 0.499198 -0.826190
v 0.573812 0.499198 -0.826190
v -0.226189 -0.500801 -0.826190
v 0.573812 -0.500801 -0.826190
v -0.326188 -0.600801 -0.826190
v 0.673812 -0.600801 -0.826190
v -0.226189 0.499198 -0.926190
v 0.573812 0.499198 -0.926190
v -0.226189 -0.500801 -0.926190
v 0.573812 -0.500801 -0.926190
vn -1.0000 -0.0000 -0.0000
vn 1.0000 -0.0000 -0.0000
vn -0.0000 1.0000 -0.0000
vn 0.0002 1.0000 -0.0000
vn -0.0000 -1.0000 -0.0000
vn -0.0000 -0.0000 1.0000
vn -0.0000 -0.0000 -1.0000
vt 0.083984 0.500000
vt 0.537109 0.500000
vt 0.544922 0.500000
vt 0.056641 0.500000
vt 0.033203 0.500000
s 1
usemtl palette.177
f 3/1/1 2/1/1 1/1/1
f 4/1/1 2/1/1 3/1/1
f 7/2/1 6/2/1 5/2/1
f 8/2/1 6/2/1 7/2/1
f 9/2/1 6/2/1 8/2/1
f 10/2/1 6/2/1 9/2/1
f 11/2/1 7/2/1 5/2/1
f 12/2/1 7/2/1 11/2/1
f 13/3/1 8/3/1 7/3/1
f 14/1/1 9/1/1 8/1/1
f 14/3/1 8/3/1 13/3/1
f 15/3/1 10/3/1 9/3/1
f 15/1/1 9/1/1 14/1/1
f 16/3/1 10/3/1 15/3/1
f 17/2/1 6/2/1 10/2/1
f 18/2/1 6/2/1 17/2/1
f 19/2/1 7/2/1 12/2/1
f 19/4/1 12/4/1 11/4/1
f 20/3/1 13/3/1 7/3/1
f 20/2/1 7/2/1 19/2/1
f 21/5/1 14/5/1 13/5/1
f 21/3/1 13/3/1 20/3/1
f 21/5/1 15/5/1 14/5/1
f 21/5/1 16/5/1 15/5/1
f 22/3/1 10/3/1 16/3/1
f 22/5/1 16/5/1 21/5/1
f 23/2/1 17/2/1 10/2/1
f 23/3/1 10/3/1 22/3/1
f 24/4/1 18/4/1 17/4/1
f 24/2/1 17/2/1 23/2/1
f 25/2/1 21/2/1 20/2/1
f 25/4/1 20/4/1 19/4/1
f 25/2/1 23/2/1 22/2/1
f 25/2/1 22/2/1 21/2/1
f 26/2/1 23/2/1 25/2/1
f 27/2/1 23/2/1 26/2/1
f 28/4/1 24/4/1 23/4/1
f 28/2/1 23/2/1 27/2/1
f 29/4/1 19/4/1 11/4/1
f 29/4/1 25/4/1 19/4/1
f 29/4/1 26/4/1 25/4/1
f 30/4/1 26/4/1 29/4/1
f 31/4/1 24/4/1 28/4/1
f 31/4/1 28/4/1 27/4/1
f 32/4/1 18/4/1 24/4/1
f 32/4/1 24/4/1 31/4/1
f 33/5/1 30/5/1 29/5/1
f 33/4/1 29/4/1 11/4/1
f 34/5/1 30/5/1 33/5/1
f 35/4/1 26/4/1 30/4/1
f 35/5/1 30/5/1 34/5/1
f 36/4/1 26/4/1 35/4/1
f 37/4/1 31/4/1 27/4/1
f 38/5/1 32/5/1 31/5/1
f 38/4/1 31/4/1 37/4/1
f 39/5/1 32/5/1 38/5/1
f 40/4/1 18/4/1 32/4/1
f 40/5/1 32/5/1 39/5/1
f 41/4/1 34/4/1 33/4/1
f 41/2/1 35/2/1 34/2/1
f 42/2/1 35/2/1 41/2/1
f 43/4/1 36/4/1 35/4/1
f 43/2/1 39/2/1 38/2/1
f 43/4/1 37/4/1 36/4/1
f 43/4/1 38/4/1 37/4/1
f 44/2/1 39/2/1 43/2/1
f 45/4/1 41/4/1 33/4/1
f 45/4/1 33/4/1 11/4/1
f 46/5/1 42/5/1 41/5/1
f 46/4/1 41/4/1 45/4/1
f 47/2/1 35/2/1 42/2/1
f 47/5/1 42/5/1 46/5/1
f 48/4/1 43/4/1 35/4/1
f 48/2/1 35/2/1 47/2/1
f 49/5/1 44/5/1 43/5/1
f 49/4/1 43/4/1 48/4/1
f 50/2/1 39/2/1 44/2/1
f 50/5/1 44/5/1 49/5/1
f 51/4/1 40/4/1 39/4/1
f 51/2/1 39/2/1 50/2/1
f 52/4/1 18/4/1 40/4/1
f 52/4/1 40/4/1 51/4/1
f 53/3/1 46/3/1 45/3/1
f 53/4/1 45/4/1 11/4/1
f 54/4/1 51/4/1 50/4/1
f 54/3/1 46/3/1 53/3/1
f 54/4/1 49/4/1 48/4/1
f 54/4/1 47/4/1 46/4/1
f 54/4/1 48/4/1 47/4/1
f 54/4/1 50/4/1 49/4/1
f 55/4/1 51/4/1 54/4/1
f 56/4/1 51/4/1 55/4/1
f 57/4/1 51/4/1 56/4/1
f 58/4/1 51/4/1 57/4/1
f 59/3/1 52/3/1 51/3/1
f 59/4/1 51/4/1 58/4/1
f 60/4/1 18/4/1 52/4/1
f 60/3/1 52/3/1 59/3/1
f 61/4/1 54/4/1 53/4/1
f 61/2/1 55/2/1 54/2/1
f 62/3/1 56/3/1 55/3/1
f 62/2/1 55/2/1 61/2/1
f 63/4/1 57/4/1 56/4/1
f 63/3/1 56/3/1 62/3/1
f 64/3/1 58/3/1 57/3/1
f 64/4/1 57/4/1 63/4/1
f 65/2/1 59/2/1 58/2/1
f 65/3/1 58/3/1 64/3/1
f 66/4/1 60/4/1 59/4/1
f 66/2/1 59/2/1 65/2/1
f 67/4/1 64/4/1 63/4/1
f 67/4/1 53/4/1 11/4/1
f 67/4/1 66/4/1 65/4/1
f 67/4/1 62/4/1 61/4/1
f 67/4/1 61/4/1 53/4/1
f 67/4/1 65/4/1 64/4/1
f 67/4/1 63/4/1 62/4/1
f 68/4/1 60/4/1 66/4/1
f 68/4/1 66/4/1 67/4/1
f 68/4/1 18/4/1 60/4/1
f 69/2/1 68/2/1 67/2/1
f 70/2/1 68/2/1 69/2/1
f 71/2/1 68/2/1 70/2/1
f 72/2/1 68/2/1 71/2/1
f 73/2/1 71/2/1 70/2/1
f 74/2/1 71/2/1 73/2/1
f 77/2/1 76/2/1 75/2/1
f 78/2/1 76/2/1 77/2/1
f 83/1/1 80/1/1 79/1/1
f 84/1/1 80/1/1 83/1/1
f 85/1/1 82/1/1 81/1/1
f 86/1/1 82/1/1 85/1/1
f 87/1/2 88/1/2 91/1/2
f 91/1/2 88/1/2 92/1/2
f 89/1/2 90/1/2 93/1/2
f 93/1/2 90/1/2 94/1/2
f 95/2/2 96/2/2 97/2/2
f 97/2/2 96/2/2 98/2/2
f 99/4/2 100/4/2 101/4/2
f 101/4/2 100/4/2 102/4/2
f 102/4/2 100/4/2 103/4/2
f 103/4/2 100/4/2 104/4/2
f 99/4/2 101/4/2 105/4/2
f 101/3/2 102/3/2 106/3/2
f 105/4/2 101/4/2 106/4/2
f 102/2/2 103/2/2 107/2/2
f 106/3/2 102/3/2 107/3/2
f 103/3/2 104/3/2 108/3/2
f 107/2/2 103/2/2 108/2/2
f 104/4/2 100/4/2 109/4/2
f 108/3/2 104/3/2 109/3/2
f 109/4/2 100/4/2 110/4/2
f 107/2/2 108/2/2 111/2/2
f 105/2/2 106/2/2 111/2/2
f 109/2/2 110/2/2 111/2/2
f 108/2/2 109/2/2 111/2/2
f 106/2/2 107/2/2 111/2/2
f 111/2/2 110/2/2 112/2/2
f 112/2/2 110/2/2 113/2/2
f 113/2/2 110/2/2 114/2/2
f 112/2/2 113/2/2 115/2/2
f 115/2/2 113/2/2 116/2/2
f 119/1/3 118/1/3 117/1/3
f 120/1/3 118/1/3 119/1/3
f 125/2/3 122/2/3 121/2/3
f 125/4/3 123/4/3 122/4/3
f 126/4/4 123/4/3 125/4/3
f 127/4/3 123/4/3 126/4/4
f 128/4/3 123/4/3 127/4/3
f 129/2/3 124/2/3 123/2/3
f 129/4/3 123/4/3 128/4/3
f 130/2/3 125/2/3 121/2/3
f 130/3/3 126/3/4 125/3/3
f 131/4/3 127/4/3 126/4/4
f 131/3/3 126/3/4 130/3/3
f 132/3/3 128/3/3 127/3/3
f 132/4/3 127/4/3 131/4/3
f 133/2/3 129/2/3 128/2/3
f 133/3/3 128/3/3 132/3/3
f 134/2/3 131/2/3 130/2/3
f 134/2/3 132/2/3 131/2/3
f 134/2/3 133/2/3 132/2/3
f 134/2/3 130/2/3 121/2/3
f 135/2/3 133/2/3 134/2/3
f 136/2/3 133/2/3 135/2/3
f 137/4/3 135/4/3 134/4/3
f 138/2/3 133/2/3 136/2/3
f 139/4/3 137/4/3 134/4/3
f 140/2/3 138/2/3 137/2/3
f 140/4/3 137/4/3 139/4/3
f 141/4/3 139/4/3 134/4/3
f 141/3/3 140/3/3 139/3/3
f 142/2/3 138/2/3 140/2/3
f 142/3/3 140/3/3 141/3/3
f 143/4/3 141/4/3 134/4/3
f 144/2/3 142/2/3 141/2/3
f 144/4/3 141/4/3 143/4/3
f 145/2/3 129/2/3 133/2/3
f 145/2/3 142/2/3 144/2/3
f 145/2/3 124/2/3 129/2/3
f 145/2/3 138/2/3 142/2/3
f 145/2/3 133/2/3 138/2/3
f 148/2/3 147/2/3 146/2/3
f 149/2/3 147/2/3 148/2/3
f 152/2/3 151/2/3 150/2/3
f 153/2/3 151/2/3 152/2/3
f 156/1/3 155/1/3 154/1/3
f 157/1/3 155/1/3 156/1/3
f 158/1/5 159/1/5 160/1/5
f 160/1/5 159/1/5 161/1/5
f 162/2/5 163/2/5 164/2/5
f 164/2/5 163/2/5 165/2/5
f 166/2/5 167/2/5 168/2/5
f 168/2/5 167/2/5 169/2/5
f 170/2/5 171/2/5 174/2/5
f 171/4/5 172/4/5 174/4/5
f 174/4/5 172/4/5 175/4/5
f 175/4/5 172/4/5 176/4/5
f 176/4/5 172/4/5 177/4/5
f 172/2/5 173/2/5 178/2/5
f 177/4/5 172/4/5 178/4/5
f 170/2/5 174/2/5 179/2/5
f 174/3/5 175/3/5 179/3/5
f 175/4/5 176/4/5 180/4/5
f 179/3/5 175/3/5 180/3/5
f 176/3/5 177/3/5 181/3/5
f 180/4/5 176/4/5 181/4/5
f 177/2/5 178/2/5 182/2/5
f 181/3/5 177/3/5 182/3/5
f 179/2/5 180/2/5 183/2/5
f 180/2/5 181/2/5 183/2/5
f 181/2/5 182/2/5 183/2/5
f 170/2/5 179/2/5 183/2/5
f 183/2/5 182/2/5 184/2/5
f 184/2/5 182/2/5 185/2/5
f 183/4/5 184/4/5 186/4/5
f 185/2/5 182/2/5 187/2/5
f 183/4/5 186/4/5 188/4/5
f 186/2/5 187/2/5 189/2/5
f 188/4/5 186/4/5 189/4/5
f 183/4/5 188/4/5 190/4/5
f 188/3/5 189/3/5 190/3/5
f 189/2/5 187/2/5 191/2/5
f 190/3/5 189/3/5 191/3/5
f 183/4/5 190/4/5 192/4/5
f 190/2/5 191/2/5 193/2/5
f 192/4/5 190/4/5 193/4/5
f 182/2/5 178/2/5 194/2/5
f 193/2/5 191/2/5 194/2/5
f 178/2/5 173/2/5 194/2/5
f 191/2/5 187/2/5 194/2/5
f 187/2/5 182/2/5 194/2/5
f 195/1/5 196/1/5 197/1/5
f 197/1/5 196/1/5 198/1/5
f 202/2/6 200/2/6 199/2/6
f 203/4/6 201/4/6 200/4/6
f 203/2/6 200/2/6 202/2/6
f 204/2/6 202/2/6 199/2/6
f 204/4/6 203/4/6 202/4/6
f 205/4/6 201/4/6 203/4/6
f 205/4/6 203/4/6 204/4/6
f 206/2/6 204/2/6 199/2/6
f 206/2/6 205/2/6 204/2/6
f 207/4/6 201/4/6 205/4/6
f 207/2/6 205/2/6 206/2/6
f 208/4/6 201/4/6 207/4/6
f 211/1/6 210/1/6 209/1/6
f 212/1/6 210/1/6 211/1/6
f 215/1/6 214/1/6 213/1/6
f 216/1/6 214/1/6 215/1/6
f 219/1/6 218/1/6 217/1/6
f 220/1/6 218/1/6 219/1/6
f 221/1/7 222/1/7 223/1/7
f 223/1/7 222/1/7 224/1/7
f 225/1/7 226/1/7 227/1/7
f 227/1/7 226/1/7 228/1/7
f 229/1/7 230/1/7 231/1/7
f 231/1/7 230/1/7 232/1/7
f 233/2/7 234/2/7 235/2/7
f 235/2/7 234/2/7 236/2/7
f 237/2/7 238/2/7 239/2/7
f 239/2/7 238/2/7 240/2/7
f 241/2/7 242/2/7 243/2/7
f 243/2/7 242/2/7 244/2/7
f 241/2/7 243/2/7 245/2/7
f 244/2/7 242/2/7 246/2/7
f 241/2/7 245/2/7 247/2/7
f 245/2/7 246/2/7 247/2/7
f 246/2/7 242/2/7 248/2/7
f 247/2/7 246/2/7 248/2/7
f 249/2/7 250/2/7 251/2/7
f 251/2/7 250/2/7 252/2/7
