# Blender 4.4.3
# www.blender.org
mtllib Face_022.mtl
o Face.022
v -0.739282 0.900009 -0.860715
v -0.739282 -0.899992 -0.860715
v -0.739282 0.900009 -1.460715
v -0.739282 -0.899992 -1.460715
v -0.639282 0.100008 -0.060715
v -0.639282 -0.099991 -0.060715
v -0.639282 0.100008 -0.260715
v -0.639282 -0.099991 -0.260715
v -0.539282 0.700008 0.339285
v -0.539282 -0.699991 0.339285
v -0.539282 0.100008 0.239285
v -0.539282 -0.099991 0.239285
v -0.539282 0.200008 0.139285
v -0.539282 0.100008 0.139285
v -0.539282 -0.099991 0.139285
v -0.539282 -0.199991 0.139285
v -0.539282 0.200008 0.039285
v -0.539282 -0.199991 0.039285
v -0.539282 0.600008 -0.060715
v -0.539282 0.400009 -0.060715
v -0.539282 0.100008 -0.060715
v -0.539282 -0.099991 -0.060715
v -0.539282 -0.399992 -0.060715
v -0.539282 -0.599991 -0.060715
v -0.539282 0.600008 -0.260715
v -0.539282 0.400009 -0.260715
v -0.539282 0.300009 -0.260715
v -0.539282 0.100008 -0.260715
v -0.539282 -0.099991 -0.260715
v -0.539282 -0.299992 -0.260715
v -0.539282 -0.399992 -0.260715
v -0.539282 -0.599991 -0.260715
v -0.539282 0.400009 -0.460715
v -0.539282 0.300009 -0.460715
v -0.539282 -0.299992 -0.460715
v -0.539282 -0.399992 -0.460715
v -0.539282 0.600008 -0.560715
v -0.539282 0.200008 -0.560715
v -0.539282 -0.199991 -0.560715
v -0.539282 -0.599991 -0.560715
v -0.539282 0.600008 -0.660715
v -0.539282 0.200008 -0.660715
v -0.539282 -0.199991 -0.660715
v -0.539282 -0.599991 -0.660715
v -0.539282 0.700008 -0.860715
v -0.539282 -0.699991 -0.860715
v -0.439282 0.900009 -0.160715
v -0.439282 0.700008 -0.160715
v -0.439282 -0.699991 -0.160715
v -0.439282 -0.899992 -0.160715
v -0.439282 0.900009 -0.860715
v -0.439282 0.700008 -0.860715
v -0.439282 -0.699991 -0.860715
v -0.439282 -0.899992 -0.860715
v -0.139282 1.000010 0.139285
v -0.139282 0.700008 0.139285
v -0.139282 -0.699991 0.139285
v -0.139282 -0.999990 0.139285
v -0.139282 0.800009 -0.060715
v -0.139282 0.700008 -0.060715
v -0.139282 -0.699991 -0.060715
v -0.139282 -0.799992 -0.060715
v -0.139282 1.000010 -0.160715
v -0.139282 0.900009 -0.160715
v -0.139282 0.800009 -0.160715
v -0.139282 0.700008 -0.160715
v -0.139282 -0.699991 -0.160715
v -0.139282 -0.799992 -0.160715
v -0.139282 -0.899992 -0.160715
v -0.139282 -0.999990 -0.160715
v 0.060718 0.900009 -0.160715
v 0.060718 0.800009 -0.160715
v 0.060718 -0.799992 -0.160715
v 0.060718 -0.899992 -0.160715
v 0.060718 0.900009 -0.460715
v 0.060718 0.800009 -0.460715
v 0.060718 -0.799992 -0.460715
v 0.060718 -0.899992 -0.460715
v 0.260718 0.900009 0.339285
v 0.260718 0.700008 0.339285
v 0.260718 -0.699991 0.339285
v 0.260718 -0.899992 0.339285
v 0.260718 0.900009 0.139285
v 0.260718 0.700008 0.139285
v 0.260718 -0.699991 0.139285
v 0.260718 -0.899992 0.139285
v 0.460718 0.300009 0.839285
v 0.460718 -0.299992 0.839285
v 0.460718 0.500010 0.739285
v 0.460718 0.300009 0.739285
v 0.460718 -0.299992 0.739285
v 0.460718 -0.499990 0.739285
v 0.460718 0.700008 0.639285
v 0.460718 0.500010 0.639285
v 0.460718 -0.499990 0.639285
v 0.460718 -0.699991 0.639285
v 0.460718 0.900009 0.539285
v 0.460718 0.700008 0.539285
v 0.460718 -0.699991 0.539285
v 0.460718 -0.899992 0.539285
v 0.460718 0.900009 0.339285
v 0.460718 0.700008 0.339285
v 0.460718 -0.699991 0.339285
v 0.460718 -0.899992 0.339285
v -0.139282 0.900009 -0.160715
v -0.139282 0.800009 -0.160715
v -0.139282 -0.799992 -0.160715
v -0.139282 -0.899992 -0.160715
v -0.139282 0.900009 -0.460715
v -0.139282 0.800009 -0.460715
v -0.139282 -0.799992 -0.460715
v -0.139282 -0.899992 -0.460715
v 0.060718 1.000010 0.139285
v 0.060718 0.900009 0.139285
v 0.060718 -0.899992 0.139285
v 0.060718 -0.999990 0.139285
v 0.060718 1.000010 -0.160715
v 0.060718 0.900009 -0.160715
v 0.060718 -0.899992 -0.160715
v 0.060718 -0.999990 -0.160715
v 0.660718 0.300009 0.839285
v 0.660718 -0.299992 0.839285
v 0.660718 0.500010 0.739285
v 0.660718 0.300009 0.739285
v 0.660718 -0.299992 0.739285
v 0.660718 -0.499990 0.739285
v 0.660718 0.700008 0.639285
v 0.660718 0.500010 0.639285
v 0.660718 -0.499990 0.639285
v 0.660718 -0.699991 0.639285
v 0.660718 0.900009 0.539285
v 0.660718 0.700008 0.539285
v 0.660718 -0.699991 0.539285
v 0.660718 -0.899992 0.539285
v 0.660718 0.900009 -1.460715
v 0.660718 -0.899992 -1.460715
v -0.139282 1.000010 0.139285
v -0.139282 1.000010 -0.160715
v 0.060718 1.000010 0.139285
v 0.060718 1.000010 -0.160715
v -0.739282 0.900009 -0.860715
v -0.739282 0.900009 -1.460715
v -0.439282 0.900009 -0.160715
v -0.439282 0.900009 -0.860715
v -0.139282 0.900009 -0.160715
v -0.139282 0.900009 -0.460715
v 0.060718 0.900009 0.139285
v 0.060718 0.900009 -0.160715
v 0.060718 0.900009 -0.460715
v 0.260718 0.900009 0.339285
v 0.260718 0.900009 0.139285
v 0.460718 0.900009 0.539285
v 0.460718 0.900009 0.339285
v 0.660718 0.900009 0.539285
v 0.660718 0.900009 -1.460715
v -0.139282 0.800009 -0.160715
v -0.139282 0.800009 -0.460715
v 0.060718 0.800009 -0.160715
v 0.060718 0.800009 -0.460715
v -0.539282 0.700008 0.339285
v -0.539282 0.700008 -0.860715
v -0.439282 0.700008 -0.160715
v -0.439282 0.700008 -0.860715
v -0.139282 0.700008 0.139285
v -0.139282 0.700008 -0.060715
v -0.139282 0.700008 -0.160715
v 0.060718 0.700008 0.139285
v 0.260718 0.700008 0.339285
v 0.260718 0.700008 0.139285
v 0.460718 0.700008 0.639285
v 0.460718 0.700008 0.539285
v 0.660718 0.700008 0.639285
v 0.660718 0.700008 0.539285
v 0.460718 0.500010 0.739285
v 0.460718 0.500010 0.639285
v 0.660718 0.500010 0.739285
v 0.660718 0.500010 0.639285
v 0.460718 0.300009 0.839285
v 0.460718 0.300009 0.739285
v 0.660718 0.300009 0.839285
v 0.660718 0.300009 0.739285
v -0.639282 0.100008 -0.060715
v -0.639282 0.100008 -0.260715
v -0.539282 0.100008 -0.060715
v -0.539282 0.100008 -0.260715
v -0.639282 -0.099991 -0.060715
v -0.639282 -0.099991 -0.260715
v -0.539282 -0.099991 -0.060715
v -0.539282 -0.099991 -0.260715
v 0.460718 -0.299992 0.839285
v 0.460718 -0.299992 0.739285
v 0.660718 -0.299992 0.839285
v 0.660718 -0.299992 0.739285
v 0.460718 -0.499990 0.739285
v 0.460718 -0.499990 0.639285
v 0.660718 -0.499990 0.739285
v 0.660718 -0.499990 0.639285
v -0.539282 -0.699991 0.339285
v -0.539282 -0.699991 -0.860715
v -0.439282 -0.699991 -0.160715
v -0.439282 -0.699991 -0.860715
v -0.139282 -0.699991 0.139285
v -0.139282 -0.699991 -0.060715
v -0.139282 -0.699991 -0.160715
v 0.060718 -0.699991 0.139285
v 0.260718 -0.699991 0.339285
v 0.260718 -0.699991 0.139285
v 0.460718 -0.699991 0.639285
v 0.460718 -0.699991 0.539285
v 0.660718 -0.699991 0.639285
v 0.660718 -0.699991 0.539285
v -0.139282 -0.799992 -0.160715
v -0.139282 -0.799992 -0.460715
v 0.060718 -0.799992 -0.160715
v 0.060718 -0.799992 -0.460715
v -0.739282 -0.899992 -0.860715
v -0.739282 -0.899992 -1.460715
v -0.439282 -0.899992 -0.160715
v -0.439282 -0.899992 -0.860715
v -0.139282 -0.899992 -0.160715
v -0.139282 -0.899992 -0.460715
v 0.060718 -0.899992 0.139285
v 0.060718 -0.899992 -0.160715
v 0.060718 -0.899992 -0.460715
v 0.260718 -0.899992 0.339285
v 0.260718 -0.899992 0.139285
v 0.460718 -0.899992 0.539285
v 0.460718 -0.899992 0.339285
v 0.660718 -0.899992 0.539285
v 0.660718 -0.899992 -1.460715
v -0.139282 -0.999990 0.139285
v -0.139282 -0.999990 -0.160715
v 0.060718 -0.999990 0.139285
v 0.060718 -0.999990 -0.160715
v 0.460718 0.300009 0.839285
v 0.660718 0.300009 0.839285
v 0.460718 -0.299992 0.839285
v 0.660718 -0.299992 0.839285
v 0.460718 0.500010 0.739285
v 0.660718 0.500010 0.739285
v 0.460718 0.300009 0.739285
v 0.660718 0.300009 0.739285
v 0.460718 -0.299992 0.739285
v 0.660718 -0.299992 0.739285
v 0.460718 -0.499990 0.739285
v 0.660718 -0.499990 0.739285
v 0.460718 0.700008 0.639285
v 0.660718 0.700008 0.639285
v 0.460718 0.500010 0.639285
v 0.660718 0.500010 0.639285
v 0.460718 -0.499990 0.639285
v 0.660718 -0.499990 0.639285
v 0.460718 -0.699991 0.639285
v 0.660718 -0.699991 0.639285
v 0.460718 0.900009 0.539285
v 0.660718 0.900009 0.539285
v 0.460718 0.700008 0.539285
v 0.660718 0.700008 0.539285
v 0.460718 -0.699991 0.539285
v 0.660718 -0.699991 0.539285
v 0.460718 -0.899992 0.539285
v 0.660718 -0.899992 0.539285
v 0.260718 0.900009 0.339285
v 0.460718 0.900009 0.339285
v -0.539282 0.700008 0.339285
v 0.260718 0.700008 0.339285
v 0.460718 0.700008 0.339285
v -0.539282 -0.699991 0.339285
v 0.260718 -0.699991 0.339285
v 0.460718 -0.699991 0.339285
v 0.260718 -0.899992 0.339285
v 0.460718 -0.899992 0.339285
v -0.139282 1.000010 0.139285
v 0.060718 1.000010 0.139285
v 0.060718 0.900009 0.139285
v 0.260718 0.900009 0.139285
v -0.139282 0.700008 0.139285
v 0.060718 0.700008 0.139285
v 0.260718 0.700008 0.139285
v -0.139282 -0.699991 0.139285
v 0.060718 -0.699991 0.139285
v 0.260718 -0.699991 0.139285
v 0.060718 -0.899992 0.139285
v 0.260718 -0.899992 0.139285
v -0.139282 -0.999990 0.139285
v 0.060718 -0.999990 0.139285
v -0.639282 0.100008 -0.060715
v -0.539282 0.100008 -0.060715
v -0.639282 -0.099991 -0.060715
v -0.539282 -0.099991 -0.060715
v -0.439282 0.900009 -0.160715
v -0.139282 0.900009 -0.160715
v -0.139282 0.800009 -0.160715
v -0.439282 0.700008 -0.160715
v -0.139282 0.700008 -0.160715
v -0.439282 -0.699991 -0.160715
v -0.139282 -0.699991 -0.160715
v -0.139282 -0.799992 -0.160715
v -0.439282 -0.899992 -0.160715
v -0.139282 -0.899992 -0.160715
v -0.139282 0.900009 -0.460715
v 0.060718 0.900009 -0.460715
v -0.139282 0.800009 -0.460715
v 0.060718 0.800009 -0.460715
v -0.139282 -0.799992 -0.460715
v 0.060718 -0.799992 -0.460715
v -0.139282 -0.899992 -0.460715
v 0.060718 -0.899992 -0.460715
v -0.739282 0.900009 -0.860715
v -0.439282 0.900009 -0.860715
v -0.539282 0.700008 -0.860715
v -0.439282 0.700008 -0.860715
v -0.539282 -0.699991 -0.860715
v -0.439282 -0.699991 -0.860715
v -0.739282 -0.899992 -0.860715
v -0.439282 -0.899992 -0.860715
v -0.139282 1.000010 -0.160715
v 0.060718 1.000010 -0.160715
v -0.139282 0.900009 -0.160715
v 0.060718 0.900009 -0.160715
v -0.139282 0.800009 -0.160715
v 0.060718 0.800009 -0.160715
v -0.139282 -0.799992 -0.160715
v 0.060718 -0.799992 -0.160715
v -0.139282 -0.899992 -0.160715
v 0.060718 -0.899992 -0.160715
v -0.139282 -0.999990 -0.160715
v 0.060718 -0.999990 -0.160715
v -0.639282 0.100008 -0.260715
v -0.539282 0.100008 -0.260715
v -0.639282 -0.099991 -0.260715
v -0.539282 -0.099991 -0.260715
v -0.739282 0.900009 -1.460715
v 0.660718 0.900009 -1.460715
v -0.739282 -0.899992 -1.460715
v 0.660718 -0.899992 -1.460715
vn -1.0000 -0.0000 -0.0000
vn 1.0000 -0.0000 -0.0000
vn -0.0000 1.0000 -0.0000
vn -0.0000 -1.0000 -0.0000
vn -0.0000 -0.0000 1.0000
vn -0.0000 -0.0000 -1.0000
vt 0.068359 0.500000
vt 0.056641 0.500000
vt 0.033203 0.500000
vt 0.052734 0.500000
vt 0.537109 0.500000
vt 0.248047 0.500000
s 1
usemtl palette.175
f 3/1/1 2/1/1 1/1/1
f 4/1/1 2/1/1 3/1/1
f 7/2/1 6/2/1 5/2/1
f 8/2/1 6/2/1 7/2/1
f 11/3/1 10/3/1 9/3/1
f 12/3/1 10/3/1 11/3/1
f 13/3/1 11/3/1 9/3/1
f 14/2/1 12/2/1 11/2/1
f 14/3/1 11/3/1 13/3/1
f 15/3/1 10/3/1 12/3/1
f 15/2/1 12/2/1 14/2/1
f 16/3/1 10/3/1 15/3/1
f 17/2/1 14/2/1 13/2/1
f 17/3/1 13/3/1 9/3/1
f 17/2/1 16/2/1 15/2/1
f 17/2/1 15/2/1 14/2/1
f 18/3/1 10/3/1 16/3/1
f 18/2/1 16/2/1 17/2/1
f 19/3/1 17/3/1 9/3/1
f 19/3/1 18/3/1 17/3/1
f 20/3/1 18/3/1 19/3/1
f 21/3/1 18/3/1 20/3/1
f 22/3/1 18/3/1 21/3/1
f 23/3/1 10/3/1 18/3/1
f 23/3/1 18/3/1 22/3/1
f 24/3/1 10/3/1 23/3/1
f 25/3/1 19/3/1 9/3/1
f 25/4/1 20/4/1 19/4/1
f 26/3/1 21/3/1 20/3/1
f 26/4/1 20/4/1 25/4/1
f 27/3/1 21/3/1 26/3/1
f 28/3/1 21/3/1 27/3/1
f 29/3/1 23/3/1 22/3/1
f 30/3/1 23/3/1 29/3/1
f 31/4/1 24/4/1 23/4/1
f 31/3/1 23/3/1 30/3/1
f 32/3/1 10/3/1 24/3/1
f 32/4/1 24/4/1 31/4/1
f 33/3/1 26/3/1 25/3/1
f 33/5/1 27/5/1 26/5/1
f 34/3/1 30/3/1 29/3/1
f 34/5/1 27/5/1 33/5/1
f 34/3/1 28/3/1 27/3/1
f 34/3/1 29/3/1 28/3/1
f 35/5/1 31/5/1 30/5/1
f 35/3/1 30/3/1 34/3/1
f 36/3/1 32/3/1 31/3/1
f 36/5/1 31/5/1 35/5/1
f 37/3/1 34/3/1 33/3/1
f 37/3/1 33/3/1 25/3/1
f 37/3/1 36/3/1 35/3/1
f 37/3/1 35/3/1 34/3/1
f 37/3/1 25/3/1 9/3/1
f 38/3/1 36/3/1 37/3/1
f 39/3/1 36/3/1 38/3/1
f 40/3/1 32/3/1 36/3/1
f 40/3/1 36/3/1 39/3/1
f 40/3/1 10/3/1 32/3/1
f 41/2/1 38/2/1 37/2/1
f 41/3/1 37/3/1 9/3/1
f 42/3/1 39/3/1 38/3/1
f 42/2/1 38/2/1 41/2/1
f 43/2/1 40/2/1 39/2/1
f 43/3/1 39/3/1 42/3/1
f 44/3/1 10/3/1 40/3/1
f 44/2/1 40/2/1 43/2/1
f 45/3/1 41/3/1 9/3/1
f 45/3/1 43/3/1 42/3/1
f 45/3/1 44/3/1 43/3/1
f 45/3/1 42/3/1 41/3/1
f 46/3/1 10/3/1 44/3/1
f 46/3/1 44/3/1 45/3/1
f 51/1/1 48/1/1 47/1/1
f 52/1/1 48/1/1 51/1/1
f 53/1/1 50/1/1 49/1/1
f 54/1/1 50/1/1 53/1/1
f 59/6/1 56/6/1 55/6/1
f 60/6/1 56/6/1 59/6/1
f 61/6/1 58/6/1 57/6/1
f 62/6/1 58/6/1 61/6/1
f 63/6/1 59/6/1 55/6/1
f 64/6/1 59/6/1 63/6/1
f 65/2/1 60/2/1 59/2/1
f 65/6/1 59/6/1 64/6/1
f 66/2/1 60/2/1 65/2/1
f 67/2/1 62/2/1 61/2/1
f 68/6/1 58/6/1 62/6/1
f 68/2/1 62/2/1 67/2/1
f 69/6/1 58/6/1 68/6/1
f 70/6/1 58/6/1 69/6/1
f 75/1/1 72/1/1 71/1/1
f 76/1/1 72/1/1 75/1/1
f 77/1/1 74/1/1 73/1/1
f 78/1/1 74/1/1 77/1/1
f 83/1/1 80/1/1 79/1/1
f 84/1/1 80/1/1 83/1/1
f 85/1/1 82/1/1 81/1/1
f 86/1/1 82/1/1 85/1/1
f 90/1/1 88/1/1 87/1/1
f 91/1/1 88/1/1 90/1/1
f 94/1/1 90/1/1 89/1/1
f 94/1/1 92/1/1 91/1/1
f 94/1/1 91/1/1 90/1/1
f 95/1/1 92/1/1 94/1/1
f 98/1/1 94/1/1 93/1/1
f 98/1/1 96/1/1 95/1/1
f 98/1/1 95/1/1 94/1/1
f 99/1/1 96/1/1 98/1/1
f 101/1/1 98/1/1 97/1/1
f 101/1/1 100/1/1 99/1/1
f 101/1/1 99/1/1 98/1/1
f 102/1/1 100/1/1 101/1/1
f 103/1/1 100/1/1 102/1/1
f 104/1/1 100/1/1 103/1/1
f 105/1/2 106/1/2 109/1/2
f 109/1/2 106/1/2 110/1/2
f 107/1/2 108/1/2 111/1/2
f 111/1/2 108/1/2 112/1/2
f 113/6/2 114/6/2 117/6/2
f 117/6/2 114/6/2 118/6/2
f 115/6/2 116/6/2 119/6/2
f 119/6/2 116/6/2 120/6/2
f 121/1/2 122/1/2 124/1/2
f 124/1/2 122/1/2 125/1/2
f 123/1/2 124/1/2 128/1/2
f 125/1/2 126/1/2 128/1/2
f 124/1/2 125/1/2 128/1/2
f 128/1/2 126/1/2 129/1/2
f 127/1/2 128/1/2 132/1/2
f 129/1/2 130/1/2 132/1/2
f 128/1/2 129/1/2 132/1/2
f 132/1/2 130/1/2 133/1/2
f 131/1/2 132/1/2 135/1/2
f 133/1/2 134/1/2 135/1/2
f 132/1/2 133/1/2 135/1/2
f 135/1/2 134/1/2 136/1/2
f 139/6/3 138/6/3 137/6/3
f 140/6/3 138/6/3 139/6/3
f 144/1/3 142/1/3 141/1/3
f 145/1/3 144/1/3 143/1/3
f 146/1/3 144/1/3 145/1/3
f 149/1/3 144/1/3 146/1/3
f 151/1/3 148/1/3 147/1/3
f 151/1/3 149/1/3 148/1/3
f 153/1/3 151/1/3 150/1/3
f 154/1/3 153/1/3 152/1/3
f 155/1/3 142/1/3 144/1/3
f 155/1/3 153/1/3 154/1/3
f 155/1/3 144/1/3 149/1/3
f 155/1/3 151/1/3 153/1/3
f 155/1/3 149/1/3 151/1/3
f 158/2/3 157/2/3 156/2/3
f 159/2/3 157/2/3 158/2/3
f 162/3/3 161/3/3 160/3/3
f 163/3/3 161/3/3 162/3/3
f 164/3/3 162/3/3 160/3/3
f 165/3/3 162/3/3 164/3/3
f 166/3/3 162/3/3 165/3/3
f 167/3/3 164/3/3 160/3/3
f 168/3/3 167/3/3 160/3/3
f 169/3/3 167/3/3 168/3/3
f 172/1/3 171/1/3 170/1/3
f 173/1/3 171/1/3 172/1/3
f 176/1/3 175/1/3 174/1/3
f 177/1/3 175/1/3 176/1/3
f 180/1/3 179/1/3 178/1/3
f 181/1/3 179/1/3 180/1/3
f 184/2/3 183/2/3 182/2/3
f 185/2/3 183/2/3 184/2/3
f 186/2/4 187/2/4 188/2/4
f 188/2/4 187/2/4 189/2/4
f 190/1/4 191/1/4 192/1/4
f 192/1/4 191/1/4 193/1/4
f 194/1/4 195/1/4 196/1/4
f 196/1/4 195/1/4 197/1/4
f 198/3/4 199/3/4 200/3/4
f 200/3/4 199/3/4 201/3/4
f 198/3/4 200/3/4 202/3/4
f 202/3/4 200/3/4 203/3/4
f 203/3/4 200/3/4 204/3/4
f 198/3/4 202/3/4 205/3/4
f 198/3/4 205/3/4 206/3/4
f 206/3/4 205/3/4 207/3/4
f 208/1/4 209/1/4 210/1/4
f 210/1/4 209/1/4 211/1/4
f 212/2/4 213/2/4 214/2/4
f 214/2/4 213/2/4 215/2/4
f 216/1/4 217/1/4 219/1/4
f 218/1/4 219/1/4 220/1/4
f 220/1/4 219/1/4 221/1/4
f 221/1/4 219/1/4 224/1/4
f 222/1/4 223/1/4 226/1/4
f 223/1/4 224/1/4 226/1/4
f 225/1/4 226/1/4 228/1/4
f 227/1/4 228/1/4 229/1/4
f 219/1/4 217/1/4 230/1/4
f 229/1/4 228/1/4 230/1/4
f 224/1/4 219/1/4 230/1/4
f 228/1/4 226/1/4 230/1/4
f 226/1/4 224/1/4 230/1/4
f 231/6/4 232/6/4 233/6/4
f 233/6/4 232/6/4 234/6/4
f 237/1/5 236/1/5 235/1/5
f 238/1/5 236/1/5 237/1/5
f 241/1/5 240/1/5 239/1/5
f 242/1/5 240/1/5 241/1/5
f 245/1/5 244/1/5 243/1/5
f 246/1/5 244/1/5 245/1/5
f 249/1/5 248/1/5 247/1/5
f 250/1/5 248/1/5 249/1/5
f 253/1/5 252/1/5 251/1/5
f 254/1/5 252/1/5 253/1/5
f 257/1/5 256/1/5 255/1/5
f 258/1/5 256/1/5 257/1/5
f 261/1/5 260/1/5 259/1/5
f 262/1/5 260/1/5 261/1/5
f 266/1/5 264/1/5 263/1/5
f 267/1/5 264/1/5 266/1/5
f 268/3/5 266/3/5 265/3/5
f 268/3/5 267/3/5 266/3/5
f 269/3/5 267/3/5 268/3/5
f 270/3/5 267/3/5 269/3/5
f 271/1/5 270/1/5 269/1/5
f 272/1/5 270/1/5 271/1/5
f 275/6/5 274/6/5 273/6/5
f 277/6/5 275/6/5 273/6/5
f 278/1/5 276/1/5 275/1/5
f 278/6/5 275/6/5 277/6/5
f 279/1/5 276/1/5 278/1/5
f 283/6/5 281/6/5 280/6/5
f 283/1/5 282/1/5 281/1/5
f 284/1/5 282/1/5 283/1/5
f 285/6/5 283/6/5 280/6/5
f 286/6/5 283/6/5 285/6/5
f 289/2/5 288/2/5 287/2/5
f 290/2/5 288/2/5 289/2/5
f 293/1/5 292/1/5 291/1/5
f 294/1/5 293/1/5 291/1/5
f 295/1/5 293/1/5 294/1/5
f 298/1/5 297/1/5 296/1/5
f 299/1/5 298/1/5 296/1/5
f 300/1/5 298/1/5 299/1/5
f 303/1/5 302/1/5 301/1/5
f 304/1/5 302/1/5 303/1/5
f 307/1/5 306/1/5 305/1/5
f 308/1/5 306/1/5 307/1/5
f 311/1/5 310/1/5 309/1/5
f 312/1/5 310/1/5 311/1/5
f 313/1/5 311/1/5 309/1/5
f 315/1/5 313/1/5 309/1/5
f 315/1/5 314/1/5 313/1/5
f 316/1/5 314/1/5 315/1/5
f 317/6/6 318/6/6 319/6/6
f 319/6/6 318/6/6 320/6/6
f 319/6/6 320/6/6 321/6/6
f 321/6/6 320/6/6 322/6/6
f 323/6/6 324/6/6 325/6/6
f 325/6/6 324/6/6 326/6/6
f 325/6/6 326/6/6 327/6/6
f 327/6/6 326/6/6 328/6/6
f 329/2/6 330/2/6 331/2/6
f 331/2/6 330/2/6 332/2/6
f 333/1/6 334/1/6 335/1/6
f 335/1/6 334/1/6 336/1/6
