# Blender 4.4.3
# www.blender.org
mtllib Face_017.mtl
o Face.017
v -0.295189 0.098976 0.445017
v -0.295189 -0.101024 0.445017
v -0.295189 0.098976 0.245017
v -0.295189 -0.101024 0.245017
v -0.295189 0.198977 -0.454983
v -0.295189 -0.201024 -0.454983
v -0.295189 0.298976 -0.554983
v -0.295189 0.198977 -0.554983
v -0.295189 -0.201024 -0.554983
v -0.295189 -0.301023 -0.554983
v -0.295189 0.298976 -0.754983
v -0.295189 -0.301023 -0.754983
v -0.195189 0.698977 0.845017
v -0.195189 -0.701024 0.845017
v -0.195189 0.298976 0.745017
v -0.195189 -0.301023 0.745017
v -0.195189 0.698977 0.645017
v -0.195189 0.598976 0.645017
v -0.195189 0.398976 0.645017
v -0.195189 0.298976 0.645017
v -0.195189 0.198977 0.645017
v -0.195189 0.098976 0.645017
v -0.195189 -0.101024 0.645017
v -0.195189 -0.201024 0.645017
v -0.195189 -0.301023 0.645017
v -0.195189 -0.401024 0.645017
v -0.195189 -0.601024 0.645017
v -0.195189 -0.701024 0.645017
v -0.195189 0.698977 0.545017
v -0.195189 0.598976 0.545017
v -0.195189 0.398976 0.545017
v -0.195189 0.298976 0.545017
v -0.195189 0.198977 0.545017
v -0.195189 0.098976 0.545017
v -0.195189 -0.101024 0.545017
v -0.195189 -0.201024 0.545017
v -0.195189 -0.301023 0.545017
v -0.195189 -0.401024 0.545017
v -0.195189 -0.601024 0.545017
v -0.195189 -0.701024 0.545017
v -0.195189 0.298976 0.445017
v -0.195189 0.098976 0.445017
v -0.195189 -0.101024 0.445017
v -0.195189 -0.301023 0.445017
v -0.195189 0.498977 0.345017
v -0.195189 0.298976 0.345017
v -0.195189 -0.301023 0.345017
v -0.195189 -0.501023 0.345017
v -0.195189 0.598976 0.245017
v -0.195189 0.498977 0.245017
v -0.195189 0.298976 0.245017
v -0.195189 0.098976 0.245017
v -0.195189 -0.101024 0.245017
v -0.195189 -0.301023 0.245017
v -0.195189 -0.501023 0.245017
v -0.195189 -0.601024 0.245017
v -0.195189 0.598976 0.145017
v -0.195189 0.498977 0.145017
v -0.195189 0.398976 0.145017
v -0.195189 0.298976 0.145017
v -0.195189 -0.401024 0.145017
v -0.195189 -0.501023 0.145017
v -0.195189 -0.601024 0.145017
v -0.195189 0.498977 0.045017
v -0.195189 0.398976 0.045017
v -0.195189 0.298976 0.045017
v -0.195189 -0.301023 0.045017
v -0.195189 -0.401024 0.045017
v -0.195189 -0.501023 0.045017
v -0.195189 0.398976 -0.054983
v -0.195189 0.298976 -0.054983
v -0.195189 -0.301023 -0.054983
v -0.195189 -0.401024 -0.054983
v -0.195189 0.698977 -0.154983
v -0.195189 0.198977 -0.154983
v -0.195189 -0.201024 -0.154983
v -0.195189 -0.701024 -0.154983
v -0.195189 0.698977 -0.254983
v -0.195189 0.598976 -0.254983
v -0.195189 0.298976 -0.254983
v -0.195189 0.198977 -0.254983
v -0.195189 -0.201024 -0.254983
v -0.195189 -0.301023 -0.254983
v -0.195189 -0.601024 -0.254983
v -0.195189 -0.701024 -0.254983
v -0.195189 0.598976 -0.354983
v -0.195189 0.298976 -0.354983
v -0.195189 -0.301023 -0.354983
v -0.195189 -0.601024 -0.354983
v -0.195189 0.198977 -0.454983
v -0.195189 -0.201024 -0.454983
v -0.195189 0.698977 -0.554983
v -0.195189 0.298976 -0.554983
v -0.195189 0.198977 -0.554983
v -0.195189 -0.201024 -0.554983
v -0.195189 -0.301023 -0.554983
v -0.195189 -0.701024 -0.554983
v -0.195189 0.698977 -0.654983
v -0.195189 0.598976 -0.654983
v -0.195189 -0.601024 -0.654983
v -0.195189 -0.701024 -0.654983
v -0.195189 0.598976 -0.754983
v -0.195189 0.298976 -0.754983
v -0.195189 -0.301023 -0.754983
v -0.195189 -0.601024 -0.754983
v 0.204811 0.798976 0.445017
v 0.204811 0.698977 0.445017
v 0.204811 -0.701024 0.445017
v 0.204811 -0.801023 0.445017
v 0.204811 0.798976 0.045017
v 0.204811 0.698977 0.045017
v 0.204811 -0.701024 0.045017
v 0.204811 -0.801023 0.045017
v 0.404811 0.798976 0.445017
v 0.404811 0.698977 0.445017
v 0.404811 -0.701024 0.445017
v 0.404811 -0.801023 0.445017
v 0.404811 0.798976 0.045017
v 0.404811 0.698977 0.045017
v 0.404811 -0.701024 0.045017
v 0.404811 -0.801023 0.045017
v 0.804811 0.698977 0.845017
v 0.804811 -0.701024 0.845017
v 0.804811 0.698977 0.445017
v 0.804811 -0.701024 0.445017
v 0.804811 0.698977 -0.654983
v 0.804811 0.598976 -0.654983
v 0.804811 -0.601024 -0.654983
v 0.804811 -0.701024 -0.654983
v 0.804811 0.598976 -0.754983
v 0.804811 -0.601024 -0.754983
v 0.204811 0.798976 0.445017
v 0.204811 0.798976 0.045017
v 0.404811 0.798976 0.445017
v 0.404811 0.798976 0.045017
v -0.195189 0.698977 0.845017
v -0.195189 0.698977 0.645017
v -0.195189 0.698977 0.545017
v -0.195189 0.698977 -0.154983
v -0.195189 0.698977 -0.254983
v -0.195189 0.698977 -0.554983
v -0.195189 0.698977 -0.654983
v -0.095189 0.698977 -0.154983
v -0.095189 0.698977 -0.254983
v -0.095189 0.698977 -0.454983
v -0.095189 0.698977 -0.554983
v 0.004811 0.698977 0.645017
v 0.004811 0.698977 0.545017
v 0.004811 0.698977 0.445017
v 0.004811 0.698977 -0.354983
v 0.004811 0.698977 -0.454983
v 0.004811 0.698977 -0.554983
v 0.104811 0.698977 0.545017
v 0.104811 0.698977 0.445017
v 0.104811 0.698977 -0.354983
v 0.104811 0.698977 -0.454983
v 0.204811 0.698977 0.845017
v 0.204811 0.698977 0.445017
v 0.204811 0.698977 0.045017
v 0.404811 0.698977 0.445017
v 0.404811 0.698977 0.045017
v 0.804811 0.698977 0.845017
v 0.804811 0.698977 0.445017
v 0.804811 0.698977 -0.654983
v -0.195189 0.598976 -0.654983
v -0.195189 0.598976 -0.754983
v 0.804811 0.598976 -0.654983
v 0.804811 0.598976 -0.754983
v -0.295189 0.298976 -0.554983
v -0.295189 0.298976 -0.754983
v -0.195189 0.298976 -0.554983
v -0.195189 0.298976 -0.754983
v -0.295189 0.198977 -0.454983
v -0.295189 0.198977 -0.554983
v -0.195189 0.198977 -0.454983
v -0.195189 0.198977 -0.554983
v -0.295189 0.098976 0.445017
v -0.295189 0.098976 0.245017
v -0.195189 0.098976 0.445017
v -0.195189 0.098976 0.245017
v -0.295189 -0.101024 0.445017
v -0.295189 -0.101024 0.245017
v -0.195189 -0.101024 0.445017
v -0.195189 -0.101024 0.245017
v -0.295189 -0.201024 -0.454983
v -0.295189 -0.201024 -0.554983
v -0.195189 -0.201024 -0.454983
v -0.195189 -0.201024 -0.554983
v -0.295189 -0.301023 -0.554983
v -0.295189 -0.301023 -0.754983
v -0.195189 -0.301023 -0.554983
v -0.195189 -0.301023 -0.754983
v -0.195189 -0.601024 -0.654983
v -0.195189 -0.601024 -0.754983
v 0.804811 -0.601024 -0.654983
v 0.804811 -0.601024 -0.754983
v -0.195189 -0.701024 0.845017
v -0.195189 -0.701024 0.645017
v -0.195189 -0.701024 0.545017
v -0.195189 -0.701024 -0.154983
v -0.195189 -0.701024 -0.254983
v -0.195189 -0.701024 -0.554983
v -0.195189 -0.701024 -0.654983
v -0.095189 -0.701024 -0.154983
v -0.095189 -0.701024 -0.254983
v -0.095189 -0.701024 -0.454983
v -0.095189 -0.701024 -0.554983
v 0.004811 -0.701024 0.645017
v 0.004811 -0.701024 0.545017
v 0.004811 -0.701024 0.445017
v 0.004811 -0.701024 -0.354983
v 0.004811 -0.701024 -0.454983
v 0.004811 -0.701024 -0.554983
v 0.104811 -0.701024 0.545017
v 0.104811 -0.701024 0.445017
v 0.104811 -0.701024 -0.354983
v 0.104811 -0.701024 -0.454983
v 0.204811 -0.701024 0.845017
v 0.204811 -0.701024 0.445017
v 0.204811 -0.701024 0.045017
v 0.404811 -0.701024 0.445017
v 0.404811 -0.701024 0.045017
v 0.804811 -0.701024 0.845017
v 0.804811 -0.701024 0.445017
v 0.804811 -0.701024 -0.654983
v 0.204811 -0.801023 0.445017
v 0.204811 -0.801023 0.045017
v 0.404811 -0.801023 0.445017
v 0.404811 -0.801023 0.045017
v -0.195189 0.698977 0.845017
v 0.204811 0.698977 0.845017
v 0.804811 0.698977 0.845017
v 0.004811 0.598976 0.845017
v 0.204811 0.598976 0.845017
v 0.004811 -0.601024 0.845017
v 0.204811 -0.601024 0.845017
v -0.195189 -0.701024 0.845017
v 0.204811 -0.701024 0.845017
v 0.804811 -0.701024 0.845017
v 0.204811 0.798976 0.445017
v 0.404811 0.798976 0.445017
v 0.204811 0.698977 0.445017
v 0.404811 0.698977 0.445017
v -0.295189 0.098976 0.445017
v -0.195189 0.098976 0.445017
v -0.295189 -0.101024 0.445017
v -0.195189 -0.101024 0.445017
v 0.204811 -0.701024 0.445017
v 0.404811 -0.701024 0.445017
v 0.204811 -0.801023 0.445017
v 0.404811 -0.801023 0.445017
v -0.295189 0.198977 -0.454983
v -0.195189 0.198977 -0.454983
v -0.295189 -0.201024 -0.454983
v -0.195189 -0.201024 -0.454983
v -0.295189 0.298976 -0.554983
v -0.195189 0.298976 -0.554983
v -0.295189 0.198977 -0.554983
v -0.195189 0.198977 -0.554983
v -0.295189 -0.201024 -0.554983
v -0.195189 -0.201024 -0.554983
v -0.295189 -0.301023 -0.554983
v -0.195189 -0.301023 -0.554983
v -0.295189 0.098976 0.245017
v -0.195189 0.098976 0.245017
v -0.295189 -0.101024 0.245017
v -0.195189 -0.101024 0.245017
v 0.204811 0.798976 0.045017
v 0.404811 0.798976 0.045017
v 0.204811 0.698977 0.045017
v 0.404811 0.698977 0.045017
v 0.204811 -0.701024 0.045017
v 0.404811 -0.701024 0.045017
v 0.204811 -0.801023 0.045017
v 0.404811 -0.801023 0.045017
v -0.195189 0.698977 -0.654983
v 0.804811 0.698977 -0.654983
v -0.195189 0.598976 -0.654983
v 0.804811 0.598976 -0.654983
v -0.195189 -0.601024 -0.654983
v 0.804811 -0.601024 -0.654983
v -0.195189 -0.701024 -0.654983
v 0.804811 -0.701024 -0.654983
v -0.195189 0.598976 -0.754983
v 0.804811 0.598976 -0.754983
v -0.295189 0.298976 -0.754983
v -0.195189 0.298976 -0.754983
v -0.295189 -0.301023 -0.754983
v -0.195189 -0.301023 -0.754983
v -0.195189 -0.601024 -0.754983
v 0.804811 -0.601024 -0.754983
vn -1.0000 -0.0000 -0.0000
vn 1.0000 -0.0000 -0.0000
vn -0.0000 1.0000 -0.0000
vn -0.0000 -1.0000 -0.0000
vn 0.0001 -1.0000 -0.0000
vn -0.0000 -0.0000 1.0000
vn -0.0000 -0.0000 -1.0000
vt 0.083984 0.500000
vt 0.990234 0.500000
vt 0.056641 0.500000
vt 0.548828 0.500000
vt 0.033203 0.500000
s 1
usemtl palette.165
f 3/1/1 2/1/1 1/1/1
f 4/1/1 2/1/1 3/1/1
f 8/2/1 6/2/1 5/2/1
f 9/2/1 6/2/1 8/2/1
f 11/2/1 8/2/1 7/2/1
f 11/2/1 10/2/1 9/2/1
f 11/2/1 9/2/1 8/2/1
f 12/2/1 10/2/1 11/2/1
f 15/2/1 14/2/1 13/2/1
f 16/2/1 14/2/1 15/2/1
f 17/2/1 15/2/1 13/2/1
f 18/2/1 15/2/1 17/2/1
f 19/2/1 15/2/1 18/2/1
f 20/3/1 16/3/1 15/3/1
f 20/2/1 15/2/1 19/2/1
f 21/3/1 16/3/1 20/3/1
f 22/3/1 16/3/1 21/3/1
f 23/3/1 16/3/1 22/3/1
f 24/3/1 16/3/1 23/3/1
f 25/2/1 14/2/1 16/2/1
f 25/3/1 16/3/1 24/3/1
f 26/2/1 14/2/1 25/2/1
f 27/2/1 14/2/1 26/2/1
f 28/2/1 14/2/1 27/2/1
f 29/4/1 18/4/1 17/4/1
f 30/3/1 19/3/1 18/3/1
f 30/4/1 18/4/1 29/4/1
f 31/2/1 20/2/1 19/2/1
f 31/3/1 19/3/1 30/3/1
f 31/2/1 21/2/1 20/2/1
f 32/2/1 21/2/1 31/2/1
f 33/4/1 22/4/1 21/4/1
f 33/2/1 21/2/1 32/2/1
f 34/1/1 23/1/1 22/1/1
f 34/4/1 22/4/1 33/4/1
f 35/4/1 24/4/1 23/4/1
f 35/1/1 23/1/1 34/1/1
f 36/2/1 25/2/1 24/2/1
f 36/4/1 24/4/1 35/4/1
f 36/2/1 26/2/1 25/2/1
f 37/2/1 26/2/1 36/2/1
f 38/3/1 27/3/1 26/3/1
f 38/2/1 26/2/1 37/2/1
f 39/4/1 28/4/1 27/4/1
f 39/3/1 27/3/1 38/3/1
f 40/4/1 28/4/1 39/4/1
f 41/2/1 34/2/1 33/2/1
f 41/3/1 30/3/1 29/3/1
f 41/3/1 32/3/1 31/3/1
f 41/2/1 33/2/1 32/2/1
f 41/2/1 36/2/1 35/2/1
f 41/2/1 37/2/1 36/2/1
f 41/3/1 31/3/1 30/3/1
f 41/2/1 35/2/1 34/2/1
f 42/2/1 37/2/1 41/2/1
f 43/2/1 37/2/1 42/2/1
f 44/3/1 40/3/1 39/3/1
f 44/2/1 37/2/1 43/2/1
f 44/3/1 38/3/1 37/3/1
f 44/3/1 39/3/1 38/3/1
f 45/3/1 42/3/1 41/3/1
f 45/3/1 41/3/1 29/3/1
f 46/3/1 42/3/1 45/3/1
f 47/3/1 40/3/1 44/3/1
f 47/3/1 44/3/1 43/3/1
f 48/3/1 40/3/1 47/3/1
f 49/3/1 45/3/1 29/3/1
f 50/4/1 46/4/1 45/4/1
f 50/3/1 45/3/1 49/3/1
f 51/3/1 42/3/1 46/3/1
f 51/4/1 46/4/1 50/4/1
f 52/3/1 42/3/1 51/3/1
f 53/3/1 47/3/1 43/3/1
f 54/4/1 48/4/1 47/4/1
f 54/3/1 47/3/1 53/3/1
f 55/3/1 40/3/1 48/3/1
f 55/4/1 48/4/1 54/4/1
f 56/3/1 40/3/1 55/3/1
f 57/4/1 50/4/1 49/4/1
f 57/3/1 49/3/1 29/3/1
f 58/2/1 51/2/1 50/2/1
f 58/4/1 50/4/1 57/4/1
f 59/2/1 51/2/1 58/2/1
f 60/3/1 54/3/1 53/3/1
f 60/2/1 51/2/1 59/2/1
f 60/3/1 52/3/1 51/3/1
f 60/3/1 53/3/1 52/3/1
f 61/2/1 55/2/1 54/2/1
f 62/4/1 56/4/1 55/4/1
f 62/2/1 55/2/1 61/2/1
f 63/3/1 40/3/1 56/3/1
f 63/4/1 56/4/1 62/4/1
f 64/2/1 59/2/1 58/2/1
f 64/3/1 58/3/1 57/3/1
f 65/5/1 60/5/1 59/5/1
f 65/2/1 59/2/1 64/2/1
f 66/3/1 54/3/1 60/3/1
f 66/5/1 60/5/1 65/5/1
f 67/2/1 61/2/1 54/2/1
f 67/3/1 54/3/1 66/3/1
f 68/5/1 62/5/1 61/5/1
f 68/2/1 61/2/1 67/2/1
f 69/3/1 63/3/1 62/3/1
f 69/5/1 62/5/1 68/5/1
f 70/4/1 66/4/1 65/4/1
f 70/3/1 65/3/1 64/3/1
f 71/3/1 67/3/1 66/3/1
f 71/4/1 66/4/1 70/4/1
f 72/4/1 68/4/1 67/4/1
f 72/3/1 67/3/1 71/3/1
f 73/3/1 69/3/1 68/3/1
f 73/4/1 68/4/1 72/4/1
f 74/3/1 70/3/1 64/3/1
f 74/3/1 71/3/1 70/3/1
f 74/3/1 73/3/1 72/3/1
f 74/3/1 64/3/1 57/3/1
f 74/3/1 72/3/1 71/3/1
f 74/3/1 57/3/1 29/3/1
f 75/3/1 73/3/1 74/3/1
f 76/3/1 73/3/1 75/3/1
f 77/3/1 69/3/1 73/3/1
f 77/3/1 73/3/1 76/3/1
f 77/3/1 63/3/1 69/3/1
f 77/3/1 40/3/1 63/3/1
f 78/4/1 75/4/1 74/4/1
f 79/4/1 75/4/1 78/4/1
f 80/4/1 75/4/1 79/4/1
f 81/3/1 76/3/1 75/3/1
f 81/4/1 75/4/1 80/4/1
f 82/4/1 77/4/1 76/4/1
f 82/3/1 76/3/1 81/3/1
f 83/4/1 77/4/1 82/4/1
f 84/4/1 77/4/1 83/4/1
f 85/4/1 77/4/1 84/4/1
f 86/2/1 80/2/1 79/2/1
f 86/3/1 79/3/1 78/3/1
f 87/3/1 81/3/1 80/3/1
f 87/2/1 80/2/1 86/2/1
f 87/3/1 82/3/1 81/3/1
f 87/3/1 83/3/1 82/3/1
f 88/2/1 84/2/1 83/2/1
f 88/3/1 83/3/1 87/3/1
f 89/3/1 85/3/1 84/3/1
f 89/2/1 84/2/1 88/2/1
f 90/3/1 88/3/1 87/3/1
f 90/3/1 87/3/1 86/3/1
f 90/3/1 89/3/1 88/3/1
f 91/3/1 89/3/1 90/3/1
f 92/3/1 86/3/1 78/3/1
f 92/3/1 90/3/1 86/3/1
f 93/3/1 90/3/1 92/3/1
f 94/3/1 90/3/1 93/3/1
f 95/3/1 89/3/1 91/3/1
f 96/3/1 89/3/1 95/3/1
f 97/3/1 85/3/1 89/3/1
f 97/3/1 89/3/1 96/3/1
f 98/2/1 93/2/1 92/2/1
f 99/2/1 93/2/1 98/2/1
f 100/2/1 97/2/1 96/2/1
f 101/2/1 97/2/1 100/2/1
f 102/2/1 93/2/1 99/2/1
f 103/2/1 93/2/1 102/2/1
f 104/2/1 100/2/1 96/2/1
f 105/2/1 100/2/1 104/2/1
f 110/1/1 107/1/1 106/1/1
f 111/1/1 107/1/1 110/1/1
f 112/1/1 109/1/1 108/1/1
f 113/1/1 109/1/1 112/1/1
f 114/1/2 115/1/2 118/1/2
f 118/1/2 115/1/2 119/1/2
f 116/1/2 117/1/2 120/1/2
f 120/1/2 117/1/2 121/1/2
f 122/3/2 123/3/2 124/3/2
f 124/3/2 123/3/2 125/3/2
f 124/2/2 125/2/2 126/2/2
f 126/2/2 125/2/2 127/2/2
f 127/2/2 125/2/2 128/2/2
f 128/2/2 125/2/2 129/2/2
f 127/2/2 128/2/2 130/2/2
f 130/2/2 128/2/2 131/2/2
f 134/1/3 133/1/3 132/1/3
f 135/1/3 133/1/3 134/1/3
f 143/3/3 139/3/3 138/3/3
f 143/4/3 140/4/3 139/4/3
f 144/3/3 141/3/3 140/3/3
f 144/4/3 140/4/3 143/4/3
f 145/3/3 141/3/3 144/3/3
f 146/2/3 142/2/3 141/2/3
f 146/3/3 141/3/3 145/3/3
f 147/2/3 137/2/3 136/2/3
f 147/4/3 138/4/3 137/4/3
f 148/3/3 145/3/3 144/3/3
f 148/4/3 138/4/3 147/4/3
f 148/3/3 143/3/3 138/3/3
f 148/3/3 144/3/3 143/3/3
f 149/3/3 145/3/3 148/3/3
f 150/3/3 145/3/3 149/3/3
f 151/4/3 146/4/3 145/4/3
f 151/3/3 145/3/3 150/3/3
f 152/2/3 142/2/3 146/2/3
f 152/4/3 146/4/3 151/4/3
f 153/2/3 148/2/3 147/2/3
f 153/4/3 149/4/3 148/4/3
f 154/3/3 150/3/3 149/3/3
f 154/4/3 149/4/3 153/4/3
f 155/4/3 151/4/3 150/4/3
f 155/3/3 150/3/3 154/3/3
f 156/2/3 152/2/3 151/2/3
f 156/4/3 151/4/3 155/4/3
f 157/2/3 154/2/3 153/2/3
f 157/2/3 153/2/3 147/2/3
f 157/2/3 156/2/3 155/2/3
f 157/2/3 155/2/3 154/2/3
f 157/2/3 147/2/3 136/2/3
f 158/2/3 156/2/3 157/2/3
f 159/2/3 156/2/3 158/2/3
f 160/3/3 158/3/3 157/3/3
f 161/2/3 156/2/3 159/2/3
f 162/3/3 160/3/3 157/3/3
f 163/2/3 161/2/3 160/2/3
f 163/3/3 160/3/3 162/3/3
f 164/2/3 152/2/3 156/2/3
f 164/2/3 161/2/3 163/2/3
f 164/2/3 142/2/3 152/2/3
f 164/2/3 156/2/3 161/2/3
f 167/2/3 166/2/3 165/2/3
f 168/2/3 166/2/3 167/2/3
f 171/2/3 170/2/3 169/2/3
f 172/2/3 170/2/3 171/2/3
f 175/2/3 174/2/3 173/2/3
f 176/2/3 174/2/3 175/2/3
f 179/1/3 178/1/3 177/1/3
f 180/1/3 178/1/3 179/1/3
f 181/1/4 182/1/4 183/1/4
f 183/1/4 182/1/4 184/1/4
f 185/2/4 186/2/4 187/2/4
f 187/2/4 186/2/4 188/2/4
f 189/2/4 190/2/4 191/2/4
f 191/2/4 190/2/4 192/2/4
f 193/2/4 194/2/4 195/2/4
f 195/2/4 194/2/4 196/2/4
f 199/3/4 200/3/4 204/3/4
f 200/4/4 201/4/4 204/4/4
f 201/3/4 202/3/4 205/3/4
f 204/4/4 201/4/4 205/4/4
f 205/3/4 202/3/4 206/3/4
f 202/2/4 203/2/4 207/2/4
f 206/3/4 202/3/4 207/3/4
f 197/2/4 198/2/4 208/2/4
f 198/4/4 199/4/4 208/4/4
f 205/3/4 206/3/4 209/3/4
f 208/4/4 199/4/4 209/4/4
f 199/3/4 204/3/4 209/3/4
f 204/3/4 205/3/4 209/3/4
f 209/3/4 206/3/4 210/3/5
f 210/3/5 206/3/4 211/3/4
f 206/4/4 207/4/4 212/4/4
f 211/3/4 206/3/4 212/3/4
f 207/2/4 203/2/4 213/2/4
f 212/4/4 207/4/4 213/4/4
f 208/2/4 209/2/4 214/2/4
f 209/4/4 210/4/5 214/4/4
f 210/3/5 211/3/4 215/3/4
f 214/4/4 210/4/5 215/4/4
f 211/4/4 212/4/4 216/4/4
f 215/3/4 211/3/4 216/3/4
f 212/2/4 213/2/4 217/2/4
f 216/4/4 212/4/4 217/4/4
f 214/2/4 215/2/4 218/2/4
f 208/2/4 214/2/4 218/2/4
f 216/2/4 217/2/4 218/2/4
f 215/2/4 216/2/4 218/2/4
f 197/2/4 208/2/4 218/2/4
f 218/2/4 217/2/4 219/2/4
f 219/2/4 217/2/4 220/2/4
f 218/3/4 219/3/4 221/3/4
f 220/2/4 217/2/4 222/2/4
f 218/3/4 221/3/4 223/3/4
f 221/2/4 222/2/4 224/2/4
f 223/3/4 221/3/4 224/3/4
f 217/2/4 213/2/4 225/2/4
f 224/2/4 222/2/4 225/2/4
f 213/2/4 203/2/4 225/2/4
f 222/2/4 217/2/4 225/2/4
f 226/1/4 227/1/4 228/1/4
f 228/1/4 227/1/4 229/1/4
f 233/2/6 231/2/6 230/2/6
f 234/3/6 232/3/6 231/3/6
f 234/2/6 231/2/6 233/2/6
f 235/2/6 233/2/6 230/2/6
f 235/3/6 234/3/6 233/3/6
f 236/3/6 232/3/6 234/3/6
f 236/3/6 234/3/6 235/3/6
f 237/2/6 235/2/6 230/2/6
f 237/2/6 236/2/6 235/2/6
f 238/3/6 232/3/6 236/3/6
f 238/2/6 236/2/6 237/2/6
f 239/3/6 232/3/6 238/3/6
f 242/1/6 241/1/6 240/1/6
f 243/1/6 241/1/6 242/1/6
f 246/1/6 245/1/6 244/1/6
f 247/1/6 245/1/6 246/1/6
f 250/1/6 249/1/6 248/1/6
f 251/1/6 249/1/6 250/1/6
f 254/2/6 253/2/6 252/2/6
f 255/2/6 253/2/6 254/2/6
f 258/2/6 257/2/6 256/2/6
f 259/2/6 257/2/6 258/2/6
f 262/2/6 261/2/6 260/2/6
f 263/2/6 261/2/6 262/2/6
f 264/1/7 265/1/7 266/1/7
f 266/1/7 265/1/7 267/1/7
f 268/1/7 269/1/7 270/1/7
f 270/1/7 269/1/7 271/1/7
f 272/1/7 273/1/7 274/1/7
f 274/1/7 273/1/7 275/1/7
f 276/2/7 277/2/7 278/2/7
f 278/2/7 277/2/7 279/2/7
f 280/2/7 281/2/7 282/2/7
f 282/2/7 281/2/7 283/2/7
f 284/2/7 285/2/7 287/2/7
f 286/2/7 287/2/7 288/2/7
f 287/2/7 285/2/7 289/2/7
f 288/2/7 287/2/7 289/2/7
f 289/2/7 285/2/7 290/2/7
f 290/2/7 285/2/7 291/2/7
