# Blender 4.4.3
# www.blender.org
mtllib Face_Base.mtl
o Face_Base
v -0.396193 0.101271 0.375950
v -0.396193 -0.098730 0.375950
v -0.396193 0.101271 0.275950
v -0.396193 -0.098730 0.275950
v -0.296192 0.701269 0.775950
v -0.296192 -0.698730 0.775950
v -0.296192 0.201269 0.575950
v -0.296192 -0.198730 0.575950
v -0.296192 0.301270 0.475950
v -0.296192 0.201269 0.475950
v -0.296192 -0.198730 0.475950
v -0.296192 -0.298731 0.475950
v -0.296192 0.601271 0.375950
v -0.296192 0.401270 0.375950
v -0.296192 0.301270 0.375950
v -0.296192 0.201269 0.375950
v -0.296192 0.101271 0.375950
v -0.296192 -0.098730 0.375950
v -0.296192 -0.198730 0.375950
v -0.296192 -0.298731 0.375950
v -0.296192 -0.398729 0.375950
v -0.296192 -0.598730 0.375950
v -0.296192 0.101271 0.275950
v -0.296192 -0.098730 0.275950
v -0.296192 0.601271 0.175950
v -0.296192 0.401270 0.175950
v -0.296192 0.301270 0.175950
v -0.296192 -0.298731 0.175950
v -0.296192 -0.398729 0.175950
v -0.296192 -0.598730 0.175950
v -0.296192 0.601271 -0.024050
v -0.296192 0.501270 -0.024050
v -0.296192 0.401270 -0.024050
v -0.296192 0.301270 -0.024050
v -0.296192 -0.298731 -0.024050
v -0.296192 -0.398729 -0.024050
v -0.296192 -0.498730 -0.024050
v -0.296192 -0.598730 -0.024050
v -0.296192 0.601271 -0.124050
v -0.296192 0.501270 -0.124050
v -0.296192 0.201269 -0.124050
v -0.296192 -0.298731 -0.124050
v -0.296192 -0.498730 -0.124050
v -0.296192 -0.598730 -0.124050
v -0.296192 0.501270 -0.224050
v -0.296192 0.201269 -0.224050
v -0.296192 -0.298731 -0.224050
v -0.296192 -0.498730 -0.224050
v -0.296192 0.701269 -0.824050
v -0.296192 0.601271 -0.824050
v -0.296192 -0.598730 -0.824050
v -0.296192 -0.698730 -0.824050
v -0.296192 0.601271 -0.924051
v -0.296192 -0.598730 -0.924051
v 0.103807 0.801270 0.375950
v 0.103807 0.701269 0.375950
v 0.103807 -0.698730 0.375950
v 0.103807 -0.798731 0.375950
v 0.103807 0.801270 -0.024050
v 0.103807 0.701269 -0.024050
v 0.103807 -0.698730 -0.024050
v 0.103807 -0.798731 -0.024050
v 0.303807 0.801270 0.375950
v 0.303807 0.701269 0.375950
v 0.303807 -0.698730 0.375950
v 0.303807 -0.798731 0.375950
v 0.303807 0.801270 -0.024050
v 0.303807 0.701269 -0.024050
v 0.303807 -0.698730 -0.024050
v 0.303807 -0.798731 -0.024050
v 0.703808 0.701269 0.775950
v 0.703808 -0.698730 0.775950
v 0.703808 0.701269 -0.824050
v 0.703808 0.601271 -0.824050
v 0.703808 -0.598730 -0.824050
v 0.703808 -0.698730 -0.824050
v 0.703808 0.601271 -0.924051
v 0.703808 -0.598730 -0.924051
v 0.103807 0.801270 0.375950
v 0.103807 0.801270 -0.024050
v 0.303807 0.801270 0.375950
v 0.303807 0.801270 -0.024050
v -0.296192 0.701269 0.775950
v -0.296192 0.701269 -0.824050
v 0.103807 0.701269 0.375950
v 0.103807 0.701269 -0.024050
v 0.303807 0.701269 0.375950
v 0.303807 0.701269 -0.024050
v 0.703808 0.701269 0.775950
v 0.703808 0.701269 -0.824050
v -0.296192 0.601271 -0.824050
v -0.296192 0.601271 -0.924051
v 0.703808 0.601271 -0.824050
v 0.703808 0.601271 -0.924051
v -0.396193 0.101271 0.375950
v -0.396193 0.101271 0.275950
v -0.296192 0.101271 0.375950
v -0.296192 0.101271 0.275950
v -0.396193 -0.098730 0.375950
v -0.396193 -0.098730 0.275950
v -0.296192 -0.098730 0.375950
v -0.296192 -0.098730 0.275950
v -0.296192 -0.598730 -0.824050
v -0.296192 -0.598730 -0.924051
v 0.703808 -0.598730 -0.824050
v 0.703808 -0.598730 -0.924051
v -0.296192 -0.698730 0.775950
v -0.296192 -0.698730 -0.824050
v 0.103807 -0.698730 0.375950
v 0.103807 -0.698730 -0.024050
v 0.303807 -0.698730 0.375950
v 0.303807 -0.698730 -0.024050
v 0.703808 -0.698730 0.775950
v 0.703808 -0.698730 -0.824050
v 0.103807 -0.798731 0.375950
v 0.103807 -0.798731 -0.024050
v 0.303807 -0.798731 0.375950
v 0.303807 -0.798731 -0.024050
v -0.296192 0.701269 0.775950
v 0.703808 0.701269 0.775950
v -0.296192 -0.698730 0.775950
v 0.703808 -0.698730 0.775950
v 0.103807 0.801270 0.375950
v 0.303807 0.801270 0.375950
v 0.103807 0.701269 0.375950
v 0.303807 0.701269 0.375950
v -0.396193 0.101271 0.375950
v -0.296192 0.101271 0.375950
v -0.396193 -0.098730 0.375950
v -0.296192 -0.098730 0.375950
v 0.103807 -0.698730 0.375950
v 0.303807 -0.698730 0.375950
v 0.103807 -0.798731 0.375950
v 0.303807 -0.798731 0.375950
v -0.396193 0.101271 0.275950
v -0.296192 0.101271 0.275950
v -0.396193 -0.098730 0.275950
v -0.296192 -0.098730 0.275950
v 0.103807 0.801270 -0.024050
v 0.303807 0.801270 -0.024050
v 0.103807 0.701269 -0.024050
v 0.303807 0.701269 -0.024050
v 0.103807 -0.698730 -0.024050
v 0.303807 -0.698730 -0.024050
v 0.103807 -0.798731 -0.024050
v 0.303807 -0.798731 -0.024050
v -0.296192 0.701269 -0.824050
v 0.703808 0.701269 -0.824050
v -0.296192 0.601271 -0.824050
v 0.703808 0.601271 -0.824050
v -0.296192 -0.598730 -0.824050
v 0.703808 -0.598730 -0.824050
v -0.296192 -0.698730 -0.824050
v 0.703808 -0.698730 -0.824050
v -0.296192 0.601271 -0.924051
v 0.703808 0.601271 -0.924051
v -0.296192 -0.598730 -0.924051
v 0.703808 -0.598730 -0.924051
vn -1.0000 -0.0000 -0.0000
vn -1.0000 -0.0000 0.0001
vn 1.0000 -0.0000 -0.0000
vn -0.0000 1.0000 -0.0000
vn -0.0000 -1.0000 -0.0000
vn -0.0000 -0.0000 1.0000
vn -0.0000 -0.0000 -1.0000
vt 0.083984 0.500000
vt 0.056641 0.500000
vt 0.033203 0.500000
vt 0.994141 0.500000
s 1
usemtl palette.220
f 3/1/1 2/1/1 1/1/1
f 4/1/1 2/1/1 3/1/1
f 7/2/1 6/2/1 5/2/1
f 8/2/1 6/2/1 7/2/1
f 9/2/1 7/2/1 5/2/1
f 10/1/1 8/1/1 7/1/1
f 10/2/1 7/2/1 9/2/1
f 11/2/1 6/2/1 8/2/1
f 11/1/1 8/1/1 10/1/1
f 12/2/1 6/2/1 11/2/1
f 13/2/1 9/2/1 5/2/1
f 14/2/1 9/2/1 13/2/1
f 15/1/1 10/1/1 9/1/1
f 15/2/1 9/2/1 14/2/1
f 16/2/1 11/2/1 10/2/1
f 16/1/1 10/1/1 15/1/1
f 17/2/1 11/2/1 16/2/1
f 18/2/1 11/2/1 17/2/1
f 19/1/1 12/1/1 11/1/1
f 19/2/1 11/2/1 18/2/1
f 20/2/1 6/2/1 12/2/1
f 20/1/1 12/1/1 19/1/1
f 21/2/1 6/2/1 20/2/1
f 22/2/1 6/2/1 21/2/1
f 23/2/1 15/2/1 14/2/1
f 23/2/1 16/2/1 15/2/1
f 23/2/1 17/2/1 16/2/1
f 24/2/1 19/2/1 18/2/1
f 24/2/1 21/2/1 20/2/1
f 24/2/1 20/2/1 19/2/1
f 25/3/1 14/3/1 13/3/1
f 25/2/1 13/2/1 5/2/1
f 26/2/1 24/2/1 23/2/1
f 26/3/1 14/3/1 25/3/1
f 26/2/1 23/2/1 14/2/1
f 27/2/1 24/2/1 26/2/1
f 28/2/1 21/2/1 24/2/1
f 28/2/1 24/2/1 27/2/1
f 29/3/1 22/3/1 21/3/1
f 29/2/1 21/2/1 28/2/1
f 30/2/1 6/2/1 22/2/1
f 30/3/1 22/3/1 29/3/1
f 31/2/1 25/2/1 5/2/1
f 31/2/1 26/2/1 25/2/1
f 32/2/1 26/2/1 31/2/1
f 33/4/1 27/4/1 26/4/1
f 33/2/1 26/2/1 32/2/1
f 34/2/1 28/2/1 27/2/1
f 34/4/1 27/4/1 33/4/1
f 35/4/2 29/4/1 28/4/1
f 35/2/2 28/2/1 34/2/1
f 36/2/1 30/2/1 29/2/1
f 36/4/1 29/4/1 35/4/2
f 37/2/1 30/2/1 36/2/1
f 38/2/1 6/2/1 30/2/1
f 38/2/1 30/2/1 37/2/1
f 39/4/1 32/4/1 31/4/1
f 39/2/1 31/2/1 5/2/1
f 40/2/1 37/2/1 36/2/1
f 40/4/1 32/4/1 39/4/1
f 40/2/1 34/2/1 33/2/1
f 40/2/1 36/2/1 35/2/2
f 40/2/1 33/2/1 32/2/1
f 40/2/1 35/2/2 34/2/1
f 41/2/1 37/2/1 40/2/1
f 42/2/1 37/2/1 41/2/1
f 43/4/1 38/4/1 37/4/1
f 43/2/1 37/2/1 42/2/1
f 44/2/1 6/2/1 38/2/1
f 44/4/1 38/4/1 43/4/1
f 45/2/1 40/2/1 39/2/1
f 45/4/1 41/4/1 40/4/1
f 46/2/1 42/2/1 41/2/1
f 46/4/1 41/4/1 45/4/1
f 47/4/1 43/4/1 42/4/1
f 47/2/1 42/2/1 46/2/1
f 48/2/1 44/2/1 43/2/1
f 48/4/1 43/4/1 47/4/1
f 49/2/1 39/2/1 5/2/1
f 49/2/1 45/2/1 39/2/1
f 49/2/1 48/2/1 47/2/1
f 49/2/1 47/2/1 46/2/1
f 49/2/1 46/2/1 45/2/1
f 50/2/1 48/2/1 49/2/1
f 51/2/1 44/2/1 48/2/1
f 51/2/1 48/2/1 50/2/1
f 51/2/1 6/2/1 44/2/1
f 52/2/1 6/2/1 51/2/1
f 53/2/1 51/2/1 50/2/1
f 54/2/1 51/2/1 53/2/1
f 59/1/1 56/1/1 55/1/1
f 60/1/1 56/1/1 59/1/1
f 61/1/1 58/1/1 57/1/1
f 62/1/1 58/1/1 61/1/1
f 63/1/3 64/1/3 67/1/3
f 67/1/3 64/1/3 68/1/3
f 65/1/3 66/1/3 69/1/3
f 69/1/3 66/1/3 70/1/3
f 71/2/3 72/2/3 73/2/3
f 73/2/3 72/2/3 74/2/3
f 74/2/3 72/2/3 75/2/3
f 75/2/3 72/2/3 76/2/3
f 74/2/3 75/2/3 77/2/3
f 77/2/3 75/2/3 78/2/3
f 81/1/4 80/1/4 79/1/4
f 82/1/4 80/1/4 81/1/4
f 85/2/4 84/2/4 83/2/4
f 86/2/4 84/2/4 85/2/4
f 87/2/4 85/2/4 83/2/4
f 88/2/4 84/2/4 86/2/4
f 89/2/4 87/2/4 83/2/4
f 89/2/4 88/2/4 87/2/4
f 90/2/4 84/2/4 88/2/4
f 90/2/4 88/2/4 89/2/4
f 93/2/4 92/2/4 91/2/4
f 94/2/4 92/2/4 93/2/4
f 97/1/4 96/1/4 95/1/4
f 98/1/4 96/1/4 97/1/4
f 99/1/5 100/1/5 101/1/5
f 101/1/5 100/1/5 102/1/5
f 103/2/5 104/2/5 105/2/5
f 105/2/5 104/2/5 106/2/5
f 107/2/5 108/2/5 109/2/5
f 109/2/5 108/2/5 110/2/5
f 107/2/5 109/2/5 111/2/5
f 110/2/5 108/2/5 112/2/5
f 107/2/5 111/2/5 113/2/5
f 111/2/5 112/2/5 113/2/5
f 112/2/5 108/2/5 114/2/5
f 113/2/5 112/2/5 114/2/5
f 115/1/5 116/1/5 117/1/5
f 117/1/5 116/1/5 118/1/5
f 121/2/6 120/2/6 119/2/6
f 122/2/6 120/2/6 121/2/6
f 125/1/6 124/1/6 123/1/6
f 126/1/6 124/1/6 125/1/6
f 129/1/6 128/1/6 127/1/6
f 130/1/6 128/1/6 129/1/6
f 133/1/6 132/1/6 131/1/6
f 134/1/6 132/1/6 133/1/6
f 135/1/7 136/1/7 137/1/7
f 137/1/7 136/1/7 138/1/7
f 139/1/7 140/1/7 141/1/7
f 141/1/7 140/1/7 142/1/7
f 143/1/7 144/1/7 145/1/7
f 145/1/7 144/1/7 146/1/7
f 147/2/7 148/2/7 149/2/7
f 149/2/7 148/2/7 150/2/7
f 151/2/7 152/2/7 153/2/7
f 153/2/7 152/2/7 154/2/7
f 155/2/7 156/2/7 157/2/7
f 157/2/7 156/2/7 158/2/7
