# Blender 4.4.3
# www.blender.org
mtllib Glasses.mtl
o Glasses
v -0.298427 0.603142 0.255118
v -0.298427 0.203142 0.255118
v -0.298427 -0.196858 0.255118
v -0.298427 -0.596858 0.255118
v -0.298427 0.703142 0.155118
v -0.298427 0.603142 0.155118
v -0.298427 0.303142 0.155118
v -0.298427 0.203142 0.155118
v -0.298427 0.103142 0.155118
v -0.298427 -0.096858 0.155118
v -0.298427 -0.196858 0.155118
v -0.298427 -0.496858 0.155118
v -0.298427 -0.596858 0.155118
v -0.298427 -0.696858 0.155118
v -0.298427 0.403142 0.055118
v -0.298427 0.303142 0.055118
v -0.298427 -0.396858 0.055118
v -0.298427 -0.496858 0.055118
v -0.298427 0.803142 -0.044882
v -0.298427 0.703142 -0.044882
v -0.298427 0.103142 -0.044882
v -0.298427 -0.096858 -0.044882
v -0.298427 -0.696858 -0.044882
v -0.298427 -0.796858 -0.044882
v -0.298427 0.603142 -0.144882
v -0.298427 0.403142 -0.144882
v -0.298427 0.203142 -0.144882
v -0.298427 -0.196858 -0.144882
v -0.298427 -0.396858 -0.144882
v -0.298427 -0.596858 -0.144882
v -0.298427 0.803142 -0.244882
v -0.298427 -0.796858 -0.244882
v 0.401573 0.803142 0.055118
v 0.401573 0.703142 0.055118
v 0.401573 -0.696858 0.055118
v 0.401573 -0.796858 0.055118
v 0.401573 0.803142 -0.044882
v 0.401573 0.703142 -0.044882
v 0.401573 -0.696858 -0.044882
v 0.401573 -0.796858 -0.044882
v -0.198427 0.603142 0.255118
v -0.198427 0.203142 0.255118
v -0.198427 -0.196858 0.255118
v -0.198427 -0.596858 0.255118
v -0.198427 0.703142 0.155118
v -0.198427 0.603142 0.155118
v -0.198427 0.303142 0.155118
v -0.198427 0.203142 0.155118
v -0.198427 0.103142 0.155118
v -0.198427 -0.096858 0.155118
v -0.198427 -0.196858 0.155118
v -0.198427 -0.496858 0.155118
v -0.198427 -0.596858 0.155118
v -0.198427 -0.696858 0.155118
v -0.198427 0.403142 0.055118
v -0.198427 0.303142 0.055118
v -0.198427 -0.396858 0.055118
v -0.198427 -0.496858 0.055118
v -0.198427 0.703142 -0.044882
v -0.198427 0.103142 -0.044882
v -0.198427 -0.096858 -0.044882
v -0.198427 -0.696858 -0.044882
v -0.198427 0.703142 -0.144882
v -0.198427 0.603142 -0.144882
v -0.198427 0.403142 -0.144882
v -0.198427 0.203142 -0.144882
v -0.198427 -0.196858 -0.144882
v -0.198427 -0.396858 -0.144882
v -0.198427 -0.596858 -0.144882
v -0.198427 -0.696858 -0.144882
v -0.198427 0.703142 -0.244882
v -0.198427 -0.696858 -0.244882
v 0.301573 0.803142 -0.144882
v 0.301573 0.703142 -0.144882
v 0.301573 -0.696858 -0.144882
v 0.301573 -0.796858 -0.144882
v 0.301573 0.803142 -0.244882
v 0.301573 0.703142 -0.244882
v 0.301573 -0.696858 -0.244882
v 0.301573 -0.796858 -0.244882
v 0.401573 0.803142 -0.044882
v 0.401573 0.703142 -0.044882
v 0.401573 -0.696858 -0.044882
v 0.401573 -0.796858 -0.044882
v 0.401573 0.803142 -0.144882
v 0.401573 0.703142 -0.144882
v 0.401573 -0.696858 -0.144882
v 0.401573 -0.796858 -0.144882
v 0.501573 0.803142 0.055118
v 0.501573 0.703142 0.055118
v 0.501573 -0.696858 0.055118
v 0.501573 -0.796858 0.055118
v 0.501573 0.803142 -0.044882
v 0.501573 0.703142 -0.044882
v 0.501573 -0.696858 -0.044882
v 0.501573 -0.796858 -0.044882
v -0.298427 0.803142 -0.044882
v -0.298427 0.803142 -0.244882
v -0.198427 0.803142 -0.044882
v -0.198427 0.803142 -0.144882
v 0.001573 0.803142 -0.044882
v 0.001573 0.803142 -0.144882
v 0.301573 0.803142 -0.144882
v 0.301573 0.803142 -0.244882
v 0.401573 0.803142 0.055118
v 0.401573 0.803142 -0.044882
v 0.401573 0.803142 -0.144882
v 0.501573 0.803142 0.055118
v 0.501573 0.803142 -0.044882
v -0.298427 0.703142 0.155118
v -0.298427 0.703142 -0.044882
v -0.198427 0.703142 0.155118
v -0.198427 0.703142 -0.044882
v -0.298427 0.603142 0.255118
v -0.298427 0.603142 0.155118
v -0.198427 0.603142 0.255118
v -0.198427 0.603142 0.155118
v -0.298427 -0.096858 0.155118
v -0.298427 -0.096858 -0.044882
v -0.198427 -0.096858 0.155118
v -0.198427 -0.096858 -0.044882
v -0.298427 -0.196858 0.255118
v -0.298427 -0.196858 0.155118
v -0.198427 -0.196858 0.255118
v -0.198427 -0.196858 0.155118
v -0.198427 -0.696858 -0.044882
v -0.198427 -0.696858 -0.144882
v -0.198427 -0.696858 -0.244882
v 0.001573 -0.696858 -0.044882
v 0.001573 -0.696858 -0.144882
v 0.301573 -0.696858 -0.144882
v 0.301573 -0.696858 -0.244882
v 0.401573 -0.696858 0.055118
v 0.401573 -0.696858 -0.044882
v 0.401573 -0.696858 -0.144882
v 0.501573 -0.696858 0.055118
v 0.501573 -0.696858 -0.044882
v -0.198427 0.703142 -0.044882
v -0.198427 0.703142 -0.144882
v -0.198427 0.703142 -0.244882
v 0.001573 0.703142 -0.044882
v 0.001573 0.703142 -0.144882
v 0.301573 0.703142 -0.144882
v 0.301573 0.703142 -0.244882
v 0.401573 0.703142 0.055118
v 0.401573 0.703142 -0.044882
v 0.401573 0.703142 -0.144882
v 0.501573 0.703142 0.055118
v 0.501573 0.703142 -0.044882
v -0.298427 0.203142 0.255118
v -0.298427 0.203142 0.155118
v -0.198427 0.203142 0.255118
v -0.198427 0.203142 0.155118
v -0.298427 0.103142 0.155118
v -0.298427 0.103142 -0.044882
v -0.198427 0.103142 0.155118
v -0.198427 0.103142 -0.044882
v -0.298427 -0.596858 0.255118
v -0.298427 -0.596858 0.155118
v -0.198427 -0.596858 0.255118
v -0.198427 -0.596858 0.155118
v -0.298427 -0.696858 0.155118
v -0.298427 -0.696858 -0.044882
v -0.198427 -0.696858 0.155118
v -0.198427 -0.696858 -0.044882
v -0.298427 -0.796858 -0.044882
v -0.298427 -0.796858 -0.244882
v -0.198427 -0.796858 -0.044882
v -0.198427 -0.796858 -0.144882
v 0.001573 -0.796858 -0.044882
v 0.001573 -0.796858 -0.144882
v 0.301573 -0.796858 -0.144882
v 0.301573 -0.796858 -0.244882
v 0.401573 -0.796858 0.055118
v 0.401573 -0.796858 -0.044882
v 0.401573 -0.796858 -0.144882
v 0.501573 -0.796858 0.055118
v 0.501573 -0.796858 -0.044882
v -0.298427 0.603142 0.255118
v -0.198427 0.603142 0.255118
v -0.298427 0.203142 0.255118
v -0.198427 0.203142 0.255118
v -0.298427 -0.196858 0.255118
v -0.198427 -0.196858 0.255118
v -0.298427 -0.596858 0.255118
v -0.198427 -0.596858 0.255118
v -0.298427 0.703142 0.155118
v -0.198427 0.703142 0.155118
v -0.298427 0.603142 0.155118
v -0.198427 0.603142 0.155118
v -0.298427 0.203142 0.155118
v -0.198427 0.203142 0.155118
v -0.298427 0.103142 0.155118
v -0.198427 0.103142 0.155118
v -0.298427 -0.096858 0.155118
v -0.198427 -0.096858 0.155118
v -0.298427 -0.196858 0.155118
v -0.198427 -0.196858 0.155118
v -0.298427 -0.596858 0.155118
v -0.198427 -0.596858 0.155118
v -0.298427 -0.696858 0.155118
v -0.198427 -0.696858 0.155118
v 0.401573 0.803142 0.055118
v 0.501573 0.803142 0.055118
v 0.401573 0.703142 0.055118
v 0.501573 0.703142 0.055118
v 0.401573 -0.696858 0.055118
v 0.501573 -0.696858 0.055118
v 0.401573 -0.796858 0.055118
v 0.501573 -0.796858 0.055118
v -0.298427 0.803142 -0.044882
v -0.198427 0.803142 -0.044882
v 0.001573 0.803142 -0.044882
v 0.401573 0.803142 -0.044882
v -0.298427 0.703142 -0.044882
v -0.198427 0.703142 -0.044882
v 0.001573 0.703142 -0.044882
v 0.401573 0.703142 -0.044882
v -0.298427 0.103142 -0.044882
v -0.198427 0.103142 -0.044882
v -0.298427 -0.096858 -0.044882
v -0.198427 -0.096858 -0.044882
v -0.298427 -0.696858 -0.044882
v -0.198427 -0.696858 -0.044882
v 0.001573 -0.696858 -0.044882
v 0.401573 -0.696858 -0.044882
v -0.298427 -0.796858 -0.044882
v -0.198427 -0.796858 -0.044882
v 0.001573 -0.796858 -0.044882
v 0.401573 -0.796858 -0.044882
v 0.401573 0.803142 -0.044882
v 0.501573 0.803142 -0.044882
v 0.401573 0.703142 -0.044882
v 0.501573 0.703142 -0.044882
v 0.401573 -0.696858 -0.044882
v 0.501573 -0.696858 -0.044882
v 0.401573 -0.796858 -0.044882
v 0.501573 -0.796858 -0.044882
v 0.301573 0.803142 -0.144882
v 0.401573 0.803142 -0.144882
v 0.301573 0.703142 -0.144882
v 0.401573 0.703142 -0.144882
v 0.301573 -0.696858 -0.144882
v 0.401573 -0.696858 -0.144882
v 0.301573 -0.796858 -0.144882
v 0.401573 -0.796858 -0.144882
v -0.298427 0.803142 -0.244882
v 0.301573 0.803142 -0.244882
v -0.198427 0.703142 -0.244882
v 0.301573 0.703142 -0.244882
v -0.198427 -0.696858 -0.244882
v 0.301573 -0.696858 -0.244882
v -0.298427 -0.796858 -0.244882
v 0.301573 -0.796858 -0.244882
vn -1.0000 -0.0000 -0.0000
vn 1.0000 -0.0000 -0.0000
vn -0.0000 1.0000 -0.0000
vn -0.0000 -1.0000 -0.0000
vn -0.0000 -0.0000 1.0000
vn -0.0000 -0.0000 -1.0000
vt 0.916016 0.500000
vt 0.138672 0.500000
vt 0.091797 0.500000
vt 0.974609 0.500000
s 1
usemtl palette.201
f 6/1/1 2/1/1 1/1/1
f 7/1/1 2/1/1 6/1/1
f 8/1/1 2/1/1 7/1/1
f 11/1/1 4/1/1 3/1/1
f 12/1/1 4/1/1 11/1/1
f 13/1/1 4/1/1 12/1/1
f 15/2/1 7/2/1 6/2/1
f 16/3/1 8/3/1 7/3/1
f 16/2/1 7/2/1 15/2/1
f 17/2/1 12/2/1 11/2/1
f 18/3/1 13/3/1 12/3/1
f 18/2/1 12/2/1 17/2/1
f 20/1/1 6/1/1 5/1/1
f 21/1/1 9/1/1 8/1/1
f 22/1/1 11/1/1 10/1/1
f 23/1/1 14/1/1 13/1/1
f 25/1/1 20/1/1 19/1/1
f 25/2/1 15/2/1 6/2/1
f 25/1/1 6/1/1 20/1/1
f 26/3/1 16/3/1 15/3/1
f 26/2/1 15/2/1 25/2/1
f 27/1/1 22/1/1 21/1/1
f 27/3/1 16/3/1 26/3/1
f 27/1/1 21/1/1 8/1/1
f 27/3/1 8/3/1 16/3/1
f 28/1/1 11/1/1 22/1/1
f 28/1/1 22/1/1 27/1/1
f 28/2/1 17/2/1 11/2/1
f 29/3/1 18/3/1 17/3/1
f 29/2/1 17/2/1 28/2/1
f 30/1/1 24/1/1 23/1/1
f 30/3/1 18/3/1 29/3/1
f 30/3/1 13/3/1 18/3/1
f 30/1/1 23/1/1 13/1/1
f 31/1/1 29/1/1 28/1/1
f 31/1/1 28/1/1 27/1/1
f 31/1/1 30/1/1 29/1/1
f 31/1/1 26/1/1 25/1/1
f 31/1/1 27/1/1 26/1/1
f 31/1/1 25/1/1 19/1/1
f 32/1/1 24/1/1 30/1/1
f 32/1/1 30/1/1 31/1/1
f 37/1/1 34/1/1 33/1/1
f 38/1/1 34/1/1 37/1/1
f 39/1/1 36/1/1 35/1/1
f 40/1/1 36/1/1 39/1/1
f 41/1/2 42/1/2 46/1/2
f 46/1/2 42/1/2 47/1/2
f 47/1/2 42/1/2 48/1/2
f 43/1/2 44/1/2 51/1/2
f 51/1/2 44/1/2 52/1/2
f 52/1/2 44/1/2 53/1/2
f 46/2/2 47/2/2 55/2/2
f 47/3/2 48/3/2 56/3/2
f 55/2/2 47/2/2 56/2/2
f 51/2/2 52/2/2 57/2/2
f 52/3/2 53/3/2 58/3/2
f 57/2/2 52/2/2 58/2/2
f 45/1/2 46/1/2 59/1/2
f 48/1/2 49/1/2 60/1/2
f 50/1/2 51/1/2 61/1/2
f 53/1/2 54/1/2 62/1/2
f 59/1/2 46/1/2 63/1/2
f 46/2/2 55/2/2 64/2/2
f 63/1/2 46/1/2 64/1/2
f 55/3/2 56/3/2 65/3/2
f 64/2/2 55/2/2 65/2/2
f 60/1/2 61/1/2 66/1/2
f 65/3/2 56/3/2 66/3/2
f 48/1/2 60/1/2 66/1/2
f 56/3/2 48/3/2 66/3/2
f 61/1/2 51/1/2 67/1/2
f 66/1/2 61/1/2 67/1/2
f 51/2/2 57/2/2 67/2/2
f 57/3/2 58/3/2 68/3/2
f 67/2/2 57/2/2 68/2/2
f 58/3/2 53/3/2 69/3/2
f 68/3/2 58/3/2 69/3/2
f 53/1/2 62/1/2 69/1/2
f 69/1/2 62/1/2 70/1/2
f 67/1/2 68/1/2 71/1/2
f 64/1/2 65/1/2 71/1/2
f 69/1/2 70/1/2 71/1/2
f 68/1/2 69/1/2 71/1/2
f 66/1/2 67/1/2 71/1/2
f 63/1/2 64/1/2 71/1/2
f 65/1/2 66/1/2 71/1/2
f 71/1/2 70/1/2 72/1/2
f 73/1/2 74/1/2 77/1/2
f 77/1/2 74/1/2 78/1/2
f 75/1/2 76/1/2 79/1/2
f 79/1/2 76/1/2 80/1/2
f 81/1/2 82/1/2 85/1/2
f 85/1/2 82/1/2 86/1/2
f 83/1/2 84/1/2 87/1/2
f 87/1/2 84/1/2 88/1/2
f 89/1/2 90/1/2 93/1/2
f 93/1/2 90/1/2 94/1/2
f 91/1/2 92/1/2 95/1/2
f 95/1/2 92/1/2 96/1/2
f 99/1/3 98/1/3 97/1/3
f 100/1/3 98/1/3 99/1/3
f 101/4/3 100/4/3 99/4/3
f 102/1/3 98/1/3 100/1/3
f 102/4/3 100/4/3 101/4/3
f 103/1/3 102/1/3 101/1/3
f 103/1/3 98/1/3 102/1/3
f 104/1/3 98/1/3 103/1/3
f 106/1/3 103/1/3 101/1/3
f 107/1/3 103/1/3 106/1/3
f 108/1/3 106/1/3 105/1/3
f 109/1/3 106/1/3 108/1/3
f 112/1/3 111/1/3 110/1/3
f 113/1/3 111/1/3 112/1/3
f 116/1/3 115/1/3 114/1/3
f 117/1/3 115/1/3 116/1/3
f 120/1/3 119/1/3 118/1/3
f 121/1/3 119/1/3 120/1/3
f 124/1/3 123/1/3 122/1/3
f 125/1/3 123/1/3 124/1/3
f 129/4/3 127/4/3 126/4/3
f 130/1/3 128/1/3 127/1/3
f 130/4/3 127/4/3 129/4/3
f 131/1/3 130/1/3 129/1/3
f 131/1/3 128/1/3 130/1/3
f 132/1/3 128/1/3 131/1/3
f 134/1/3 131/1/3 129/1/3
f 135/1/3 131/1/3 134/1/3
f 136/1/3 134/1/3 133/1/3
f 137/1/3 134/1/3 136/1/3
f 138/4/4 139/4/4 141/4/4
f 139/1/4 140/1/4 142/1/4
f 141/4/4 139/4/4 142/4/4
f 141/1/4 142/1/4 143/1/4
f 142/1/4 140/1/4 143/1/4
f 143/1/4 140/1/4 144/1/4
f 141/1/4 143/1/4 146/1/4
f 146/1/4 143/1/4 147/1/4
f 145/1/4 146/1/4 148/1/4
f 148/1/4 146/1/4 149/1/4
f 150/1/4 151/1/4 152/1/4
f 152/1/4 151/1/4 153/1/4
f 154/1/4 155/1/4 156/1/4
f 156/1/4 155/1/4 157/1/4
f 158/1/4 159/1/4 160/1/4
f 160/1/4 159/1/4 161/1/4
f 162/1/4 163/1/4 164/1/4
f 164/1/4 163/1/4 165/1/4
f 166/1/4 167/1/4 168/1/4
f 168/1/4 167/1/4 169/1/4
f 168/4/4 169/4/4 170/4/4
f 169/1/4 167/1/4 171/1/4
f 170/4/4 169/4/4 171/4/4
f 170/1/4 171/1/4 172/1/4
f 171/1/4 167/1/4 172/1/4
f 172/1/4 167/1/4 173/1/4
f 170/1/4 172/1/4 175/1/4
f 175/1/4 172/1/4 176/1/4
f 174/1/4 175/1/4 177/1/4
f 177/1/4 175/1/4 178/1/4
f 181/1/5 180/1/5 179/1/5
f 182/1/5 180/1/5 181/1/5
f 185/1/5 184/1/5 183/1/5
f 186/1/5 184/1/5 185/1/5
f 189/1/5 188/1/5 187/1/5
f 190/1/5 188/1/5 189/1/5
f 193/1/5 192/1/5 191/1/5
f 194/1/5 192/1/5 193/1/5
f 197/1/5 196/1/5 195/1/5
f 198/1/5 196/1/5 197/1/5
f 201/1/5 200/1/5 199/1/5
f 202/1/5 200/1/5 201/1/5
f 205/1/5 204/1/5 203/1/5
f 206/1/5 204/1/5 205/1/5
f 209/1/5 208/1/5 207/1/5
f 210/1/5 208/1/5 209/1/5
f 215/1/5 212/1/5 211/1/5
f 216/4/5 213/4/5 212/4/5
f 216/1/5 212/1/5 215/1/5
f 217/1/5 214/1/5 213/1/5
f 217/4/5 213/4/5 216/4/5
f 218/1/5 214/1/5 217/1/5
f 221/1/5 220/1/5 219/1/5
f 222/1/5 220/1/5 221/1/5
f 227/1/5 224/1/5 223/1/5
f 228/4/5 225/4/5 224/4/5
f 228/1/5 224/1/5 227/1/5
f 229/1/5 226/1/5 225/1/5
f 229/4/5 225/4/5 228/4/5
f 230/1/5 226/1/5 229/1/5
f 231/1/6 232/1/6 233/1/6
f 233/1/6 232/1/6 234/1/6
f 235/1/6 236/1/6 237/1/6
f 237/1/6 236/1/6 238/1/6
f 239/1/6 240/1/6 241/1/6
f 241/1/6 240/1/6 242/1/6
f 243/1/6 244/1/6 245/1/6
f 245/1/6 244/1/6 246/1/6
f 247/1/6 248/1/6 249/1/6
f 249/1/6 248/1/6 250/1/6
f 247/1/6 249/1/6 251/1/6
f 247/1/6 251/1/6 253/1/6
f 251/1/6 252/1/6 253/1/6
f 253/1/6 252/1/6 254/1/6
