# Blender 4.4.3
# www.blender.org
mtllib Untitled_039.mtl
o Untitled.039
v -0.735790 0.568230 0.167224
v -0.735790 -0.831770 0.167224
v -0.735790 0.568230 0.067224
v -0.735790 -0.431770 0.067224
v -0.735790 -0.431770 -0.032776
v -0.735790 -0.631770 -0.032776
v -0.735790 0.568230 -0.132776
v -0.735790 -0.631770 -0.132776
v -0.735790 -0.831770 -0.132776
v -0.635790 1.268229 0.167224
v -0.635790 1.168230 0.167224
v -0.635790 0.568230 0.167224
v -0.635790 0.568230 0.067224
v -0.635790 1.268229 -0.132776
v -0.635790 1.168230 -0.132776
v -0.635790 0.568230 -0.132776
v -0.435790 -0.231771 0.167224
v -0.435790 -0.931770 0.167224
v -0.435790 -0.231771 0.067224
v -0.435790 -0.531770 0.067224
v -0.435790 -0.531770 -0.032776
v -0.435790 -0.731770 -0.032776
v -0.435790 -0.231771 -0.132776
v -0.435790 -0.731770 -0.132776
v -0.435790 -0.931770 -0.132776
v -0.135790 -0.231771 0.167224
v -0.135790 -0.931770 0.167224
v -0.135790 -0.231771 0.067224
v -0.135790 -0.531770 0.067224
v -0.135790 -0.531770 -0.032776
v -0.135790 -0.731770 -0.032776
v -0.135790 -0.231771 -0.132776
v -0.135790 -0.731770 -0.132776
v -0.135790 -0.931770 -0.132776
v 0.164210 -0.231771 0.167224
v 0.164210 -0.831770 0.167224
v 0.164210 -0.231771 0.067224
v 0.164210 -0.431770 0.067224
v 0.164210 -0.431770 -0.032776
v 0.164210 -0.631770 -0.032776
v 0.164210 -0.231771 -0.132776
v 0.164210 -0.631770 -0.132776
v 0.164210 -0.831770 -0.132776
v 0.464210 -0.031770 0.167224
v 0.464210 -0.431770 0.167224
v 0.464210 -0.031770 0.067224
v 0.464210 -0.031770 -0.032776
v 0.464210 -0.231771 -0.032776
v 0.464210 -0.031770 -0.132776
v 0.464210 -0.231771 -0.132776
v 0.464210 -0.431770 -0.132776
v -0.535790 -0.231771 0.167224
v -0.535790 -0.831770 0.167224
v -0.535790 -0.231771 0.067224
v -0.535790 -0.431770 0.067224
v -0.535790 -0.431770 -0.032776
v -0.535790 -0.631770 -0.032776
v -0.535790 -0.231771 -0.132776
v -0.535790 -0.631770 -0.132776
v -0.535790 -0.831770 -0.132776
v -0.235790 -0.231771 0.167224
v -0.235790 -0.931770 0.167224
v -0.235790 -0.231771 0.067224
v -0.235790 -0.531770 0.067224
v -0.235790 -0.531770 -0.032776
v -0.235790 -0.731770 -0.032776
v -0.235790 -0.231771 -0.132776
v -0.235790 -0.731770 -0.132776
v -0.235790 -0.931770 -0.132776
v 0.064210 -0.231771 0.167224
v 0.064210 -0.931770 0.167224
v 0.064210 -0.231771 0.067224
v 0.064210 -0.531770 0.067224
v 0.064210 -0.531770 -0.032776
v 0.064210 -0.731770 -0.032776
v 0.064210 -0.231771 -0.132776
v 0.064210 -0.731770 -0.132776
v 0.064210 -0.931770 -0.132776
v 0.364210 1.268229 0.167224
v 0.364210 1.168230 0.167224
v 0.364210 0.568230 0.167224
v 0.364210 -0.031770 0.167224
v 0.364210 -0.831770 0.167224
v 0.364210 0.568230 0.067224
v 0.364210 -0.031770 0.067224
v 0.364210 -0.431770 0.067224
v 0.364210 -0.431770 -0.032776
v 0.364210 -0.631770 -0.032776
v 0.364210 1.268229 -0.132776
v 0.364210 1.168230 -0.132776
v 0.364210 0.568230 -0.132776
v 0.364210 -0.031770 -0.132776
v 0.364210 -0.631770 -0.132776
v 0.364210 -0.831770 -0.132776
v 0.464210 0.568230 0.167224
v 0.464210 0.368230 0.167224
v 0.464210 0.568230 0.067224
v 0.464210 0.368230 0.067224
v 0.464210 0.568230 -0.132776
v 0.464210 0.368230 -0.132776
v 0.564210 0.368230 0.167224
v 0.564210 0.168230 0.167224
v 0.564210 0.368230 0.067224
v 0.564210 0.168230 0.067224
v 0.564210 0.368230 -0.132776
v 0.564210 0.168230 -0.132776
v 0.664210 0.168230 0.167224
v 0.664210 -0.431770 0.167224
v 0.664210 0.168230 0.067224
v 0.664210 -0.131770 0.067224
v 0.664210 -0.131770 -0.032776
v 0.664210 -0.231771 -0.032776
v 0.664210 0.168230 -0.132776
v 0.664210 -0.231771 -0.132776
v 0.664210 -0.431770 -0.132776
v -0.635790 1.268229 0.167224
v -0.635790 1.268229 -0.132776
v -0.535790 1.268229 0.067224
v -0.535790 1.268229 -0.032776
v 0.264210 1.268229 0.067224
v 0.264210 1.268229 -0.032776
v 0.364210 1.268229 0.167224
v 0.364210 1.268229 -0.132776
v -0.735790 0.568230 0.167224
v -0.735790 0.568230 0.067224
v -0.735790 0.568230 -0.132776
v -0.635790 0.568230 0.167224
v -0.635790 0.568230 0.067224
v -0.635790 0.568230 -0.132776
v 0.364210 0.568230 0.167224
v 0.364210 0.568230 0.067224
v 0.364210 0.568230 -0.132776
v 0.464210 0.568230 0.167224
v 0.464210 0.568230 0.067224
v 0.464210 0.568230 -0.132776
v 0.464210 0.368230 0.167224
v 0.464210 0.368230 0.067224
v 0.464210 0.368230 -0.132776
v 0.564210 0.368230 0.167224
v 0.564210 0.368230 0.067224
v 0.564210 0.368230 -0.132776
v 0.564210 0.168230 0.167224
v 0.564210 0.168230 0.067224
v 0.564210 0.168230 -0.132776
v 0.664210 0.168230 0.167224
v 0.664210 0.168230 0.067224
v 0.664210 0.168230 -0.132776
v 0.364210 -0.031770 0.167224
v 0.364210 -0.031770 0.067224
v 0.364210 -0.031770 -0.132776
v 0.464210 -0.031770 0.167224
v 0.464210 -0.031770 0.067224
v 0.464210 -0.031770 -0.032776
v 0.464210 -0.031770 -0.132776
v -0.535790 -0.231771 0.167224
v -0.535790 -0.231771 0.067224
v -0.535790 -0.231771 -0.132776
v -0.435790 -0.231771 0.167224
v -0.435790 -0.231771 0.067224
v -0.435790 -0.231771 -0.132776
v -0.235790 -0.231771 0.167224
v -0.235790 -0.231771 0.067224
v -0.235790 -0.231771 -0.132776
v -0.135790 -0.231771 0.167224
v -0.135790 -0.231771 0.067224
v -0.135790 -0.231771 -0.132776
v 0.064210 -0.231771 0.167224
v 0.064210 -0.231771 0.067224
v 0.064210 -0.231771 -0.132776
v 0.164210 -0.231771 0.167224
v 0.164210 -0.231771 0.067224
v 0.164210 -0.231771 -0.132776
v 0.464210 -0.431770 0.167224
v 0.464210 -0.431770 -0.132776
v 0.664210 -0.431770 0.167224
v 0.664210 -0.431770 -0.132776
v -0.735790 -0.831770 0.167224
v -0.735790 -0.831770 -0.132776
v -0.535790 -0.831770 0.167224
v -0.535790 -0.831770 -0.132776
v 0.164210 -0.831770 0.167224
v 0.164210 -0.831770 -0.132776
v 0.364210 -0.831770 0.167224
v 0.364210 -0.831770 -0.132776
v -0.435790 -0.931770 0.167224
v -0.435790 -0.931770 -0.132776
v -0.235790 -0.931770 0.167224
v -0.235790 -0.931770 -0.132776
v -0.135790 -0.931770 0.167224
v -0.135790 -0.931770 -0.132776
v 0.064210 -0.931770 0.167224
v 0.064210 -0.931770 -0.132776
v -0.635790 1.268229 0.167224
v 0.364210 1.268229 0.167224
v -0.635790 1.168230 0.167224
v -0.235790 1.168230 0.167224
v -0.035790 1.168230 0.167224
v 0.364210 1.168230 0.167224
v -0.235790 0.868230 0.167224
v -0.035790 0.868230 0.167224
v -0.535790 0.668230 0.167224
v 0.264210 0.668230 0.167224
v -0.735790 0.568230 0.167224
v -0.635790 0.568230 0.167224
v -0.535790 0.568230 0.167224
v 0.264210 0.568230 0.167224
v 0.364210 0.568230 0.167224
v 0.464210 0.568230 0.167224
v 0.464210 0.368230 0.167224
v 0.564210 0.368230 0.167224
v 0.564210 0.168230 0.167224
v 0.664210 0.168230 0.167224
v 0.364210 -0.031770 0.167224
v 0.464210 -0.031770 0.167224
v -0.535790 -0.231771 0.167224
v -0.435790 -0.231771 0.167224
v -0.235790 -0.231771 0.167224
v -0.135790 -0.231771 0.167224
v 0.064210 -0.231771 0.167224
v 0.164210 -0.231771 0.167224
v 0.464210 -0.431770 0.167224
v 0.664210 -0.431770 0.167224
v -0.735790 -0.831770 0.167224
v -0.535790 -0.831770 0.167224
v 0.164210 -0.831770 0.167224
v 0.364210 -0.831770 0.167224
v -0.435790 -0.931770 0.167224
v -0.235790 -0.931770 0.167224
v -0.135790 -0.931770 0.167224
v 0.064210 -0.931770 0.167224
v -0.635790 1.268229 -0.132776
v 0.364210 1.268229 -0.132776
v -0.635790 1.168230 -0.132776
v 0.364210 1.168230 -0.132776
v -0.535790 0.968230 -0.132776
v -0.135790 0.968230 -0.132776
v -0.035790 0.968230 -0.132776
v 0.064210 0.968230 -0.132776
v 0.164210 0.968230 -0.132776
v 0.264210 0.968230 -0.132776
v -0.535790 0.868230 -0.132776
v -0.435790 0.868230 -0.132776
v -0.335790 0.868230 -0.132776
v -0.135790 0.868230 -0.132776
v -0.435790 0.768229 -0.132776
v -0.335790 0.768229 -0.132776
v -0.235790 0.768229 -0.132776
v 0.064210 0.768229 -0.132776
v 0.164210 0.768229 -0.132776
v 0.264210 0.768229 -0.132776
v -0.535790 0.668230 -0.132776
v -0.335790 0.668230 -0.132776
v -0.235790 0.668230 -0.132776
v -0.135790 0.668230 -0.132776
v 0.064210 0.668230 -0.132776
v 0.164210 0.668230 -0.132776
v 0.264210 0.668230 -0.132776
v -0.735790 0.568230 -0.132776
v -0.635790 0.568230 -0.132776
v -0.535790 0.568230 -0.132776
v -0.135790 0.568230 -0.132776
v -0.035790 0.568230 -0.132776
v 0.064210 0.568230 -0.132776
v 0.164210 0.568230 -0.132776
v 0.264210 0.568230 -0.132776
v 0.364210 0.568230 -0.132776
v 0.464210 0.568230 -0.132776
v 0.464210 0.368230 -0.132776
v 0.564210 0.368230 -0.132776
v 0.564210 0.168230 -0.132776
v 0.664210 0.168230 -0.132776
v 0.364210 -0.031770 -0.132776
v 0.464210 -0.031770 -0.132776
v -0.535790 -0.231771 -0.132776
v -0.435790 -0.231771 -0.132776
v -0.235790 -0.231771 -0.132776
v -0.135790 -0.231771 -0.132776
v 0.064210 -0.231771 -0.132776
v 0.164210 -0.231771 -0.132776
v 0.464210 -0.231771 -0.132776
v 0.664210 -0.231771 -0.132776
v 0.464210 -0.431770 -0.132776
v 0.664210 -0.431770 -0.132776
v -0.735790 -0.631770 -0.132776
v -0.535790 -0.631770 -0.132776
v 0.164210 -0.631770 -0.132776
v 0.364210 -0.631770 -0.132776
v -0.435790 -0.731770 -0.132776
v -0.235790 -0.731770 -0.132776
v -0.135790 -0.731770 -0.132776
v 0.064210 -0.731770 -0.132776
v -0.735790 -0.831770 -0.132776
v -0.535790 -0.831770 -0.132776
v 0.164210 -0.831770 -0.132776
v 0.364210 -0.831770 -0.132776
v -0.435790 -0.931770 -0.132776
v -0.235790 -0.931770 -0.132776
v -0.135790 -0.931770 -0.132776
v 0.064210 -0.931770 -0.132776
vn -1.0000 -0.0000 -0.0000
vn 1.0000 -0.0000 -0.0000
vn -0.0000 1.0000 -0.0000
vn -0.0000 -1.0000 -0.0000
vn -0.0000 -0.0000 1.0000
vn -0.0000 -0.0000 -1.0000
vt 0.994141 0.500000
vt 0.986328 0.500000
vt 0.912109 0.500000
vt 0.990234 0.500000
s 1
usemtl palette.173
f 3/1/1 2/1/1 1/1/1
f 4/1/1 2/1/1 3/1/1
f 5/2/1 4/2/1 3/2/1
f 5/1/1 2/1/1 4/1/1
f 6/1/1 2/1/1 5/1/1
f 7/2/1 5/2/1 3/2/1
f 7/2/1 6/2/1 5/2/1
f 8/1/1 2/1/1 6/1/1
f 8/2/1 6/2/1 7/2/1
f 9/1/1 2/1/1 8/1/1
f 13/2/1 12/2/1 11/2/1
f 14/3/1 11/3/1 10/3/1
f 15/2/1 13/2/1 11/2/1
f 15/3/1 11/3/1 14/3/1
f 16/2/1 13/2/1 15/2/1
f 19/1/1 18/1/1 17/1/1
f 20/1/1 18/1/1 19/1/1
f 21/2/1 20/2/1 19/2/1
f 21/1/1 18/1/1 20/1/1
f 22/1/1 18/1/1 21/1/1
f 23/2/1 21/2/1 19/2/1
f 23/2/1 22/2/1 21/2/1
f 24/1/1 18/1/1 22/1/1
f 24/2/1 22/2/1 23/2/1
f 25/1/1 18/1/1 24/1/1
f 28/1/1 27/1/1 26/1/1
f 29/1/1 27/1/1 28/1/1
f 30/2/1 29/2/1 28/2/1
f 30/1/1 27/1/1 29/1/1
f 31/1/1 27/1/1 30/1/1
f 32/2/1 30/2/1 28/2/1
f 32/2/1 31/2/1 30/2/1
f 33/1/1 27/1/1 31/1/1
f 33/2/1 31/2/1 32/2/1
f 34/1/1 27/1/1 33/1/1
f 37/1/1 36/1/1 35/1/1
f 38/1/1 36/1/1 37/1/1
f 39/2/1 38/2/1 37/2/1
f 39/1/1 36/1/1 38/1/1
f 40/1/1 36/1/1 39/1/1
f 41/2/1 39/2/1 37/2/1
f 41/2/1 40/2/1 39/2/1
f 42/1/1 36/1/1 40/1/1
f 42/2/1 40/2/1 41/2/1
f 43/1/1 36/1/1 42/1/1
f 46/1/1 45/1/1 44/1/1
f 47/1/1 45/1/1 46/1/1
f 48/1/1 45/1/1 47/1/1
f 49/2/1 48/2/1 47/2/1
f 50/1/1 45/1/1 48/1/1
f 50/2/1 48/2/1 49/2/1
f 51/1/1 45/1/1 50/1/1
f 52/1/2 53/1/2 54/1/2
f 54/1/2 53/1/2 55/1/2
f 54/2/2 55/2/2 56/2/2
f 55/1/2 53/1/2 56/1/2
f 56/1/2 53/1/2 57/1/2
f 54/2/2 56/2/2 58/2/2
f 56/2/2 57/2/2 58/2/2
f 57/1/2 53/1/2 59/1/2
f 58/2/2 57/2/2 59/2/2
f 59/1/2 53/1/2 60/1/2
f 61/1/2 62/1/2 63/1/2
f 63/1/2 62/1/2 64/1/2
f 63/2/2 64/2/2 65/2/2
f 64/1/2 62/1/2 65/1/2
f 65/1/2 62/1/2 66/1/2
f 63/2/2 65/2/2 67/2/2
f 65/2/2 66/2/2 67/2/2
f 66/1/2 62/1/2 68/1/2
f 67/2/2 66/2/2 68/2/2
f 68/1/2 62/1/2 69/1/2
f 70/1/2 71/1/2 72/1/2
f 72/1/2 71/1/2 73/1/2
f 72/2/2 73/2/2 74/2/2
f 73/1/2 71/1/2 74/1/2
f 74/1/2 71/1/2 75/1/2
f 72/2/2 74/2/2 76/2/2
f 74/2/2 75/2/2 76/2/2
f 75/1/2 71/1/2 77/1/2
f 76/2/2 75/2/2 77/2/2
f 77/1/2 71/1/2 78/1/2
f 80/2/2 81/2/2 84/2/2
f 82/1/2 83/1/2 85/1/2
f 85/1/2 83/1/2 86/1/2
f 85/2/2 86/2/2 87/2/2
f 86/1/2 83/1/2 87/1/2
f 87/1/2 83/1/2 88/1/2
f 79/3/2 80/3/2 89/3/2
f 80/2/2 84/2/2 90/2/2
f 89/3/2 80/3/2 90/3/2
f 90/2/2 84/2/2 91/2/2
f 85/2/2 87/2/2 92/2/2
f 87/2/2 88/2/2 92/2/2
f 88/1/2 83/1/2 93/1/2
f 92/2/2 88/2/2 93/2/2
f 93/1/2 83/1/2 94/1/2
f 95/1/2 96/1/2 97/1/2
f 97/1/2 96/1/2 98/1/2
f 97/2/2 98/2/2 99/2/2
f 99/2/2 98/2/2 100/2/2
f 101/1/2 102/1/2 103/1/2
f 103/1/2 102/1/2 104/1/2
f 103/2/2 104/2/2 105/2/2
f 105/2/2 104/2/2 106/2/2
f 107/1/2 108/1/2 109/1/2
f 109/1/2 108/1/2 110/1/2
f 109/2/2 110/2/2 111/2/2
f 110/1/2 108/1/2 111/1/2
f 111/1/2 108/1/2 112/1/2
f 109/2/2 111/2/2 113/2/2
f 111/2/2 112/2/2 113/2/2
f 112/1/2 108/1/2 114/1/2
f 113/2/2 112/2/2 114/2/2
f 114/1/2 108/1/2 115/1/2
f 118/3/3 117/3/3 116/3/3
f 119/3/3 117/3/3 118/3/3
f 120/3/3 118/3/3 116/3/3
f 120/1/3 119/1/3 118/1/3
f 121/3/3 117/3/3 119/3/3
f 121/1/3 119/1/3 120/1/3
f 122/3/3 120/3/3 116/3/3
f 122/3/3 121/3/3 120/3/3
f 123/3/3 117/3/3 121/3/3
f 123/3/3 121/3/3 122/3/3
f 127/1/3 125/1/3 124/1/3
f 128/2/3 126/2/3 125/2/3
f 128/1/3 125/1/3 127/1/3
f 129/2/3 126/2/3 128/2/3
f 133/1/3 131/1/3 130/1/3
f 134/2/3 132/2/3 131/2/3
f 134/1/3 131/1/3 133/1/3
f 135/2/3 132/2/3 134/2/3
f 139/1/3 137/1/3 136/1/3
f 140/2/3 138/2/3 137/2/3
f 140/1/3 137/1/3 139/1/3
f 141/2/3 138/2/3 140/2/3
f 145/1/3 143/1/3 142/1/3
f 146/2/3 144/2/3 143/2/3
f 146/1/3 143/1/3 145/1/3
f 147/2/3 144/2/3 146/2/3
f 148/1/4 149/1/4 151/1/4
f 149/2/4 150/2/4 152/2/4
f 151/1/4 149/1/4 152/1/4
f 152/2/4 150/2/4 153/2/4
f 153/2/4 150/2/4 154/2/4
f 155/1/4 156/1/4 158/1/4
f 156/2/4 157/2/4 159/2/4
f 158/1/4 156/1/4 159/1/4
f 159/2/4 157/2/4 160/2/4
f 161/1/4 162/1/4 164/1/4
f 162/2/4 163/2/4 165/2/4
f 164/1/4 162/1/4 165/1/4
f 165/2/4 163/2/4 166/2/4
f 167/1/4 168/1/4 170/1/4
f 168/2/4 169/2/4 171/2/4
f 170/1/4 168/1/4 171/1/4
f 171/2/4 169/2/4 172/2/4
f 173/1/4 174/1/4 175/1/4
f 175/1/4 174/1/4 176/1/4
f 177/1/4 178/1/4 179/1/4
f 179/1/4 178/1/4 180/1/4
f 181/1/4 182/1/4 183/1/4
f 183/1/4 182/1/4 184/1/4
f 185/1/4 186/1/4 187/1/4
f 187/1/4 186/1/4 188/1/4
f 189/1/4 190/1/4 191/1/4
f 191/1/4 190/1/4 192/1/4
f 195/3/5 194/3/5 193/3/5
f 196/3/5 194/3/5 195/3/5
f 197/3/5 194/3/5 196/3/5
f 198/3/5 194/3/5 197/3/5
f 199/2/5 196/2/5 195/2/5
f 199/3/5 197/3/5 196/3/5
f 200/2/5 198/2/5 197/2/5
f 200/3/5 197/3/5 199/3/5
f 201/2/5 199/2/5 195/2/5
f 201/2/5 200/2/5 199/2/5
f 202/2/5 198/2/5 200/2/5
f 202/2/5 200/2/5 201/2/5
f 204/2/5 201/2/5 195/2/5
f 205/1/5 202/1/5 201/1/5
f 205/2/5 201/2/5 204/2/5
f 206/2/5 198/2/5 202/2/5
f 206/1/5 202/1/5 205/1/5
f 207/2/5 198/2/5 206/2/5
f 209/1/5 207/1/5 206/1/5
f 209/1/5 208/1/5 207/1/5
f 209/1/5 206/1/5 205/1/5
f 209/1/5 205/1/5 204/1/5
f 209/1/5 204/1/5 203/1/5
f 211/1/5 210/1/5 209/1/5
f 213/1/5 209/1/5 203/1/5
f 213/1/5 212/1/5 211/1/5
f 213/1/5 211/1/5 209/1/5
f 214/1/5 212/1/5 213/1/5
f 215/1/5 213/1/5 203/1/5
f 216/1/5 213/1/5 215/1/5
f 217/1/5 213/1/5 216/1/5
f 218/1/5 213/1/5 217/1/5
f 219/1/5 213/1/5 218/1/5
f 220/1/5 213/1/5 219/1/5
f 221/1/5 212/1/5 214/1/5
f 222/1/5 212/1/5 221/1/5
f 223/1/5 215/1/5 203/1/5
f 224/1/5 215/1/5 223/1/5
f 225/1/5 213/1/5 220/1/5
f 226/1/5 213/1/5 225/1/5
f 227/1/5 217/1/5 216/1/5
f 228/1/5 217/1/5 227/1/5
f 229/1/5 219/1/5 218/1/5
f 230/1/5 219/1/5 229/1/5
f 231/3/6 232/3/6 233/3/6
f 233/3/6 232/3/6 234/3/6
f 233/2/6 234/2/6 235/2/6
f 235/2/6 234/2/6 236/2/6
f 236/2/6 234/2/6 237/2/6
f 237/2/6 234/2/6 238/2/6
f 238/2/6 234/2/6 239/2/6
f 239/2/6 234/2/6 240/2/6
f 233/2/6 235/2/6 241/2/6
f 235/4/6 236/4/6 241/4/6
f 241/4/6 236/4/6 242/4/6
f 242/4/6 236/4/6 243/4/6
f 236/2/6 237/2/6 244/2/6
f 243/4/6 236/4/6 244/4/6
f 242/4/6 243/4/6 245/4/6
f 241/2/6 242/2/6 245/2/6
f 243/2/6 244/2/6 246/2/6
f 245/4/6 243/4/6 246/4/6
f 246/2/6 244/2/6 247/2/6
f 237/4/6 238/4/6 248/4/6
f 238/2/6 239/2/6 248/2/6
f 239/4/6 240/4/6 249/4/6
f 248/2/6 239/2/6 249/2/6
f 240/2/6 234/2/6 250/2/6
f 249/4/6 240/4/6 250/4/6
f 233/2/6 241/2/6 251/2/6
f 241/2/6 245/2/6 251/2/6
f 245/2/6 246/2/6 251/2/6
f 246/4/6 247/4/6 252/4/6
f 251/2/6 246/2/6 252/2/6
f 247/2/6 244/2/6 253/2/6
f 252/4/6 247/4/6 253/4/6
f 244/2/6 237/2/6 254/2/6
f 253/2/6 244/2/6 254/2/6
f 248/4/6 249/4/6 255/4/6
f 237/4/6 248/4/6 255/4/6
f 249/2/6 250/2/6 256/2/6
f 255/4/6 249/4/6 256/4/6
f 250/2/6 234/2/6 257/2/6
f 256/2/6 250/2/6 257/2/6
f 233/2/6 251/2/6 259/2/6
f 253/4/6 254/4/6 260/4/6
f 252/4/6 253/4/6 260/4/6
f 259/2/6 251/2/6 260/2/6
f 251/4/6 252/4/6 260/4/6
f 254/2/6 237/2/6 261/2/6
f 260/4/6 254/4/6 261/4/6
f 237/4/6 255/4/6 262/4/6
f 261/2/6 237/2/6 262/2/6
f 255/2/6 256/2/6 263/2/6
f 262/4/6 255/4/6 263/4/6
f 256/4/6 257/4/6 264/4/6
f 263/2/6 256/2/6 264/2/6
f 257/2/6 234/2/6 265/2/6
f 264/4/6 257/4/6 265/4/6
f 265/2/6 234/2/6 266/2/6
f 265/2/6 266/2/6 268/2/6
f 266/2/6 267/2/6 268/2/6
f 264/2/6 265/2/6 268/2/6
f 260/2/6 261/2/6 268/2/6
f 261/2/6 262/2/6 268/2/6
f 263/2/6 264/2/6 268/2/6
f 262/2/6 263/2/6 268/2/6
f 259/2/6 260/2/6 268/2/6
f 258/2/6 259/2/6 268/2/6
f 268/2/6 269/2/6 270/2/6
f 258/2/6 268/2/6 272/2/6
f 270/2/6 271/2/6 272/2/6
f 268/2/6 270/2/6 272/2/6
f 272/2/6 271/2/6 273/2/6
f 258/2/6 272/2/6 274/2/6
f 274/2/6 272/2/6 275/2/6
f 275/2/6 272/2/6 276/2/6
f 276/2/6 272/2/6 277/2/6
f 277/2/6 272/2/6 278/2/6
f 278/2/6 272/2/6 279/2/6
f 273/2/6 271/2/6 280/2/6
f 280/2/6 271/2/6 281/2/6
f 280/1/6 281/1/6 282/1/6
f 282/1/6 281/1/6 283/1/6
f 258/2/6 274/2/6 284/2/6
f 284/2/6 274/2/6 285/2/6
f 279/2/6 272/2/6 286/2/6
f 286/2/6 272/2/6 287/2/6
f 275/2/6 276/2/6 288/2/6
f 288/2/6 276/2/6 289/2/6
f 277/2/6 278/2/6 290/2/6
f 290/2/6 278/2/6 291/2/6
f 284/1/6 285/1/6 292/1/6
f 292/1/6 285/1/6 293/1/6
f 286/1/6 287/1/6 294/1/6
f 294/1/6 287/1/6 295/1/6
f 288/1/6 289/1/6 296/1/6
f 296/1/6 289/1/6 297/1/6
f 290/1/6 291/1/6 298/1/6
f 298/1/6 291/1/6 299/1/6
