# Blender 4.4.3
# www.blender.org
mtllib Untitled_031.mtl
o Untitled.031
v 1.145677 0.549747 0.098378
v 1.145677 0.549747 -0.101622
v 1.145677 0.249748 0.098378
v 1.145677 0.249748 -0.101622
v 1.045677 0.749748 0.298378
v 1.045677 0.749748 -0.301622
v 1.045677 0.549747 0.098378
v 1.045677 0.549747 -0.101622
v 1.045677 0.249748 0.098378
v 1.045677 0.249748 -0.101622
v 1.045677 0.049747 0.298378
v 1.045677 0.049747 -0.301622
v 0.945677 0.049747 0.098378
v 0.945677 0.049747 -0.101622
v 0.945677 -0.750252 0.098378
v 0.945677 -0.750252 -0.101622
v 0.845677 0.949748 0.498378
v 0.845677 0.949748 -0.501621
v 0.845677 0.749748 0.298378
v 0.845677 0.749748 -0.301622
v 0.845677 0.049747 0.298378
v 0.845677 0.049747 0.198378
v 0.845677 0.049747 0.098378
v 0.845677 0.049747 -0.101622
v 0.845677 0.049747 -0.201622
v 0.845677 0.049747 -0.301622
v 0.845677 -0.050252 0.498378
v 0.845677 -0.050252 0.298378
v 0.845677 -0.050252 0.198378
v 0.845677 -0.050252 0.098378
v 0.845677 -0.050252 -0.101622
v 0.845677 -0.050252 -0.201622
v 0.845677 -0.050252 -0.301622
v 0.845677 -0.050252 -0.501621
v 0.845677 -0.550252 0.398378
v 0.845677 -0.550252 0.098378
v 0.845677 -0.550252 -0.101622
v 0.845677 -0.550252 -0.401621
v 0.845677 -0.750252 0.098378
v 0.845677 -0.750252 -0.101622
v 0.845677 -0.950253 0.398378
v 0.845677 -0.950253 -0.401621
v -0.554323 0.949748 0.498378
v -0.554323 0.949748 -0.501621
v -0.554323 0.749748 0.298378
v -0.554323 0.749748 -0.301622
v -0.554323 0.149748 0.298378
v -0.554323 0.149748 -0.301622
v -0.554323 -0.050252 0.498378
v -0.554323 -0.050252 -0.501621
v -0.654323 0.749748 0.298378
v -0.654323 0.749748 -0.301622
v -0.654323 0.149748 0.298378
v -0.654323 0.149748 -0.301622
v -0.854323 -0.050252 0.098378
v -0.854323 -0.050252 -0.101622
v -0.854323 -0.550252 0.098378
v -0.854323 -0.550252 -0.101622
v 0.845677 -0.050252 0.098378
v 0.845677 -0.050252 -0.101622
v 0.845677 -0.550252 0.098378
v 0.845677 -0.550252 -0.101622
v 0.645677 0.749748 0.298378
v 0.645677 0.749748 -0.301622
v 0.645677 0.149748 0.298378
v 0.645677 0.149748 -0.301622
v 0.545677 0.949748 0.498378
v 0.545677 0.949748 -0.501621
v 0.545677 0.749748 0.298378
v 0.545677 0.749748 -0.301622
v 0.545677 0.149748 0.298378
v 0.545677 0.149748 -0.301622
v 0.545677 -0.050252 0.498378
v 0.545677 -0.050252 -0.501621
v -0.854323 0.949748 0.498378
v -0.854323 0.949748 -0.501621
v -0.854323 0.749748 0.298378
v -0.854323 0.749748 -0.301622
v -0.854323 0.049747 0.298378
v -0.854323 0.049747 0.198378
v -0.854323 0.049747 0.098378
v -0.854323 0.049747 -0.101622
v -0.854323 0.049747 -0.201622
v -0.854323 0.049747 -0.301622
v -0.854323 -0.050252 0.498378
v -0.854323 -0.050252 0.298378
v -0.854323 -0.050252 0.198378
v -0.854323 -0.050252 0.098378
v -0.854323 -0.050252 -0.101622
v -0.854323 -0.050252 -0.201622
v -0.854323 -0.050252 -0.301622
v -0.854323 -0.050252 -0.501621
v -0.854323 -0.550252 0.398378
v -0.854323 -0.550252 0.098378
v -0.854323 -0.550252 -0.101622
v -0.854323 -0.550252 -0.401621
v -0.854323 -0.750252 0.098378
v -0.854323 -0.750252 -0.101622
v -0.854323 -0.950253 0.398378
v -0.854323 -0.950253 -0.401621
v -0.954323 0.049747 0.098378
v -0.954323 0.049747 -0.101622
v -0.954323 -0.750252 0.098378
v -0.954323 -0.750252 -0.101622
v -1.054323 0.749748 0.298378
v -1.054323 0.749748 -0.301622
v -1.054323 0.549747 0.098378
v -1.054323 0.549747 -0.101622
v -1.054323 0.249748 0.098378
v -1.054323 0.249748 -0.101622
v -1.054323 0.049747 0.298378
v -1.054323 0.049747 -0.301622
v -1.154323 0.549747 0.098378
v -1.154323 0.549747 -0.101622
v -1.154323 0.249748 0.098378
v -1.154323 0.249748 -0.101622
v 0.845677 0.949748 0.498378
v 0.845677 -0.050252 0.498378
v 0.545677 0.949748 0.498378
v 0.545677 -0.050252 0.498378
v -0.554323 0.949748 0.498378
v -0.554323 -0.050252 0.498378
v -0.854323 0.949748 0.498378
v -0.854323 -0.050252 0.498378
v 0.845677 -0.550252 0.398378
v 0.845677 -0.950253 0.398378
v -0.854323 -0.550252 0.398378
v -0.854323 -0.950253 0.398378
v 1.045677 0.749748 0.298378
v 1.045677 0.049747 0.298378
v 0.845677 0.749748 0.298378
v 0.845677 0.049747 0.298378
v -0.854323 0.749748 0.298378
v -0.854323 0.049747 0.298378
v -1.054323 0.749748 0.298378
v -1.054323 0.049747 0.298378
v 1.145677 0.549747 0.098378
v 1.145677 0.249748 0.098378
v 1.045677 0.549747 0.098378
v 1.045677 0.249748 0.098378
v 0.945677 0.049747 0.098378
v 0.945677 -0.750252 0.098378
v 0.845677 0.049747 0.098378
v 0.845677 -0.050252 0.098378
v 0.845677 -0.550252 0.098378
v 0.845677 -0.750252 0.098378
v -0.854323 0.049747 0.098378
v -0.854323 -0.050252 0.098378
v -0.854323 -0.550252 0.098378
v -0.854323 -0.750252 0.098378
v -0.954323 0.049747 0.098378
v -0.954323 -0.750252 0.098378
v -1.054323 0.549747 0.098378
v -1.054323 0.249748 0.098378
v -1.154323 0.549747 0.098378
v -1.154323 0.249748 0.098378
v 0.645677 0.749748 -0.301622
v 0.645677 0.149748 -0.301622
v 0.545677 0.749748 -0.301622
v 0.545677 0.149748 -0.301622
v -0.554323 0.749748 -0.301622
v -0.554323 0.149748 -0.301622
v -0.654323 0.749748 -0.301622
v -0.654323 0.149748 -0.301622
v 0.645677 0.749748 0.298378
v 0.645677 0.149748 0.298378
v 0.545677 0.749748 0.298378
v 0.545677 0.149748 0.298378
v -0.554323 0.749748 0.298378
v -0.554323 0.149748 0.298378
v -0.654323 0.749748 0.298378
v -0.654323 0.149748 0.298378
v 1.145677 0.549747 -0.101622
v 1.145677 0.249748 -0.101622
v 1.045677 0.549747 -0.101622
v 1.045677 0.249748 -0.101622
v 0.945677 0.049747 -0.101622
v 0.945677 -0.750252 -0.101622
v 0.845677 0.049747 -0.101622
v 0.845677 -0.050252 -0.101622
v 0.845677 -0.550252 -0.101622
v 0.845677 -0.750252 -0.101622
v -0.854323 0.049747 -0.101622
v -0.854323 -0.050252 -0.101622
v -0.854323 -0.550252 -0.101622
v -0.854323 -0.750252 -0.101622
v -0.954323 0.049747 -0.101622
v -0.954323 -0.750252 -0.101622
v -1.054323 0.549747 -0.101622
v -1.054323 0.249748 -0.101622
v -1.154323 0.549747 -0.101622
v -1.154323 0.249748 -0.101622
v 1.045677 0.749748 -0.301622
v 1.045677 0.049747 -0.301622
v 0.845677 0.749748 -0.301622
v 0.845677 0.049747 -0.301622
v -0.854323 0.749748 -0.301622
v -0.854323 0.049747 -0.301622
v -1.054323 0.749748 -0.301622
v -1.054323 0.049747 -0.301622
v 0.845677 -0.550252 -0.401621
v 0.845677 -0.950253 -0.401621
v -0.854323 -0.550252 -0.401621
v -0.854323 -0.950253 -0.401621
v 0.845677 0.949748 -0.501621
v 0.845677 -0.050252 -0.501621
v 0.545677 0.949748 -0.501621
v 0.545677 -0.050252 -0.501621
v -0.554323 0.949748 -0.501621
v -0.554323 -0.050252 -0.501621
v -0.854323 0.949748 -0.501621
v -0.854323 -0.050252 -0.501621
v 0.845677 0.949748 0.498378
v 0.545677 0.949748 0.498378
v -0.554323 0.949748 0.498378
v -0.854323 0.949748 0.498378
v 0.845677 0.949748 -0.501621
v 0.545677 0.949748 -0.501621
v -0.554323 0.949748 -0.501621
v -0.854323 0.949748 -0.501621
v 1.045677 0.749748 0.298378
v 0.845677 0.749748 0.298378
v -0.854323 0.749748 0.298378
v -1.054323 0.749748 0.298378
v 1.045677 0.749748 -0.301622
v 0.845677 0.749748 -0.301622
v -0.854323 0.749748 -0.301622
v -1.054323 0.749748 -0.301622
v 1.145677 0.549747 0.098378
v 1.045677 0.549747 0.098378
v -1.054323 0.549747 0.098378
v -1.154323 0.549747 0.098378
v 1.145677 0.549747 -0.101622
v 1.045677 0.549747 -0.101622
v -1.054323 0.549747 -0.101622
v -1.154323 0.549747 -0.101622
v 0.645677 0.149748 0.298378
v 0.545677 0.149748 0.298378
v -0.554323 0.149748 0.298378
v -0.654323 0.149748 0.298378
v 0.645677 0.149748 -0.301622
v 0.545677 0.149748 -0.301622
v -0.554323 0.149748 -0.301622
v -0.654323 0.149748 -0.301622
v 0.845677 -0.550252 0.398378
v -0.854323 -0.550252 0.398378
v 0.845677 -0.550252 0.098378
v -0.854323 -0.550252 0.098378
v 0.845677 -0.550252 -0.101622
v -0.854323 -0.550252 -0.101622
v 0.845677 -0.550252 -0.401621
v -0.854323 -0.550252 -0.401621
v 0.645677 0.749748 0.298378
v 0.545677 0.749748 0.298378
v -0.554323 0.749748 0.298378
v -0.654323 0.749748 0.298378
v 0.645677 0.749748 -0.301622
v 0.545677 0.749748 -0.301622
v -0.554323 0.749748 -0.301622
v -0.654323 0.749748 -0.301622
v 1.145677 0.249748 0.098378
v 1.045677 0.249748 0.098378
v -1.054323 0.249748 0.098378
v -1.154323 0.249748 0.098378
v 1.145677 0.249748 -0.101622
v 1.045677 0.249748 -0.101622
v -1.054323 0.249748 -0.101622
v -1.154323 0.249748 -0.101622
v 1.045677 0.049747 0.298378
v 0.845677 0.049747 0.298378
v -0.854323 0.049747 0.298378
v -1.054323 0.049747 0.298378
v 0.845677 0.049747 0.198378
v -0.854323 0.049747 0.198378
v 0.945677 0.049747 0.098378
v 0.845677 0.049747 0.098378
v -0.854323 0.049747 0.098378
v -0.954323 0.049747 0.098378
v 0.945677 0.049747 -0.101622
v 0.845677 0.049747 -0.101622
v -0.854323 0.049747 -0.101622
v -0.954323 0.049747 -0.101622
v 0.845677 0.049747 -0.201622
v -0.854323 0.049747 -0.201622
v 1.045677 0.049747 -0.301622
v 0.845677 0.049747 -0.301622
v -0.854323 0.049747 -0.301622
v -1.054323 0.049747 -0.301622
v 0.845677 -0.050252 0.498378
v 0.545677 -0.050252 0.498378
v -0.554323 -0.050252 0.498378
v -0.854323 -0.050252 0.498378
v 0.845677 -0.050252 0.298378
v 0.645677 -0.050252 0.298378
v -0.654323 -0.050252 0.298378
v -0.854323 -0.050252 0.298378
v 0.845677 -0.050252 0.198378
v 0.645677 -0.050252 0.198378
v -0.654323 -0.050252 0.198378
v -0.854323 -0.050252 0.198378
v 0.845677 -0.050252 0.098378
v 0.645677 -0.050252 0.098378
v -0.654323 -0.050252 0.098378
v -0.854323 -0.050252 0.098378
v 0.845677 -0.050252 -0.101622
v 0.645677 -0.050252 -0.101622
v -0.654323 -0.050252 -0.101622
v -0.854323 -0.050252 -0.101622
v 0.845677 -0.050252 -0.201622
v 0.645677 -0.050252 -0.201622
v -0.654323 -0.050252 -0.201622
v -0.854323 -0.050252 -0.201622
v 0.845677 -0.050252 -0.301622
v 0.645677 -0.050252 -0.301622
v -0.654323 -0.050252 -0.301622
v -0.854323 -0.050252 -0.301622
v 0.845677 -0.050252 -0.501621
v 0.545677 -0.050252 -0.501621
v -0.554323 -0.050252 -0.501621
v -0.854323 -0.050252 -0.501621
v 0.945677 -0.750252 0.098378
v 0.845677 -0.750252 0.098378
v -0.854323 -0.750252 0.098378
v -0.954323 -0.750252 0.098378
v 0.945677 -0.750252 -0.101622
v 0.845677 -0.750252 -0.101622
v -0.854323 -0.750252 -0.101622
v -0.954323 -0.750252 -0.101622
v 0.845677 -0.950253 0.398378
v -0.854323 -0.950253 0.398378
v 0.545677 -0.950253 0.298378
v 0.445677 -0.950253 0.298378
v 0.145677 -0.950253 0.298378
v 0.045677 -0.950253 0.298378
v -0.054323 -0.950253 0.298378
v -0.554323 -0.950253 0.298378
v 0.545677 -0.950253 0.198378
v 0.445677 -0.950253 0.198378
v 0.345677 -0.950253 0.198378
v -0.154323 -0.950253 0.198378
v -0.554323 -0.950253 0.198378
v 0.445677 -0.950253 0.098378
v 0.345677 -0.950253 0.098378
v 0.145677 -0.950253 0.098378
v -0.054323 -0.950253 0.098378
v -0.154323 -0.950253 0.098378
v -0.354323 -0.950253 0.098378
v 0.445677 -0.950253 -0.001622
v 0.345677 -0.950253 -0.001622
v 0.145677 -0.950253 -0.001622
v -0.154323 -0.950253 -0.001622
v -0.254323 -0.950253 -0.001622
v -0.354323 -0.950253 -0.001622
v -0.454323 -0.950253 -0.001622
v 0.545677 -0.950253 -0.101622
v 0.445677 -0.950253 -0.101622
v 0.345677 -0.950253 -0.101622
v -0.254323 -0.950253 -0.101622
v -0.454323 -0.950253 -0.101622
v -0.554323 -0.950253 -0.101622
v -0.054323 -0.950253 -0.201622
v -0.454323 -0.950253 -0.201622
v 0.545677 -0.950253 -0.301622
v 0.445677 -0.950253 -0.301622
v 0.145677 -0.950253 -0.301622
v 0.045677 -0.950253 -0.301622
v -0.054323 -0.950253 -0.301622
v -0.554323 -0.950253 -0.301622
v 0.845677 -0.950253 -0.401621
v -0.854323 -0.950253 -0.401621
vn 1.0000 -0.0000 -0.0000
vn -1.0000 -0.0000 -0.0000
vn -0.0000 -0.0000 1.0000
vn -0.0000 -0.0000 -1.0000
vn -0.0000 1.0000 -0.0000
vn -0.0000 -1.0000 -0.0000
vt 0.908203 0.500000
vt 0.958984 0.500000
vt 0.955078 0.500000
vt 0.994141 0.500000
s 1
usemtl palette.157
f 3/1/1 2/1/1 1/1/1
f 4/1/1 2/1/1 3/1/1
f 7/2/1 6/2/1 5/2/1
f 8/2/1 6/2/1 7/2/1
f 9/2/1 7/2/1 5/2/1
f 10/2/1 6/2/1 8/2/1
f 11/2/1 9/2/1 5/2/1
f 11/2/1 10/2/1 9/2/1
f 12/2/1 6/2/1 10/2/1
f 12/2/1 10/2/1 11/2/1
f 15/1/1 14/1/1 13/1/1
f 16/1/1 14/1/1 15/1/1
f 19/3/1 18/3/1 17/3/1
f 20/3/1 18/3/1 19/3/1
f 21/3/1 19/3/1 17/3/1
f 26/3/1 18/3/1 20/3/1
f 27/3/1 21/3/1 17/3/1
f 28/1/1 22/1/1 21/1/1
f 28/3/1 21/3/1 27/3/1
f 29/3/1 23/3/1 22/3/1
f 29/1/1 22/1/1 28/1/1
f 30/3/1 23/3/1 29/3/1
f 31/3/1 25/3/1 24/3/1
f 32/1/1 26/1/1 25/1/1
f 32/3/1 25/3/1 31/3/1
f 33/3/1 18/3/1 26/3/1
f 33/1/1 26/1/1 32/1/1
f 34/3/1 18/3/1 33/3/1
f 39/3/1 36/3/1 35/3/1
f 40/3/1 38/3/1 37/3/1
f 41/3/1 39/3/1 35/3/1
f 41/3/1 40/3/1 39/3/1
f 42/3/1 38/3/1 40/3/1
f 42/3/1 40/3/1 41/3/1
f 45/3/1 44/3/1 43/3/1
f 46/3/1 44/3/1 45/3/1
f 47/3/1 45/3/1 43/3/1
f 48/3/1 44/3/1 46/3/1
f 49/3/1 47/3/1 43/3/1
f 49/3/1 48/3/1 47/3/1
f 50/3/1 44/3/1 48/3/1
f 50/3/1 48/3/1 49/3/1
f 53/4/1 52/4/1 51/4/1
f 54/4/1 52/4/1 53/4/1
f 57/1/1 56/1/1 55/1/1
f 58/1/1 56/1/1 57/1/1
f 59/1/2 60/1/2 61/1/2
f 61/1/2 60/1/2 62/1/2
f 63/4/2 64/4/2 65/4/2
f 65/4/2 64/4/2 66/4/2
f 67/3/2 68/3/2 69/3/2
f 69/3/2 68/3/2 70/3/2
f 67/3/2 69/3/2 71/3/2
f 70/3/2 68/3/2 72/3/2
f 67/3/2 71/3/2 73/3/2
f 71/3/2 72/3/2 73/3/2
f 72/3/2 68/3/2 74/3/2
f 73/3/2 72/3/2 74/3/2
f 75/3/2 76/3/2 77/3/2
f 77/3/2 76/3/2 78/3/2
f 75/3/2 77/3/2 79/3/2
f 78/3/2 76/3/2 84/3/2
f 75/3/2 79/3/2 85/3/2
f 79/1/2 80/1/2 86/1/2
f 85/3/2 79/3/2 86/3/2
f 80/3/2 81/3/2 87/3/2
f 86/1/2 80/1/2 87/1/2
f 87/3/2 81/3/2 88/3/2
f 82/3/2 83/3/2 89/3/2
f 83/1/2 84/1/2 90/1/2
f 89/3/2 83/3/2 90/3/2
f 84/3/2 76/3/2 91/3/2
f 90/1/2 84/1/2 91/1/2
f 91/3/2 76/3/2 92/3/2
f 93/3/2 94/3/2 97/3/2
f 95/3/2 96/3/2 98/3/2
f 93/3/2 97/3/2 99/3/2
f 97/3/2 98/3/2 99/3/2
f 98/3/2 96/3/2 100/3/2
f 99/3/2 98/3/2 100/3/2
f 101/1/2 102/1/2 103/1/2
f 103/1/2 102/1/2 104/1/2
f 105/2/2 106/2/2 107/2/2
f 107/2/2 106/2/2 108/2/2
f 105/2/2 107/2/2 109/2/2
f 108/2/2 106/2/2 110/2/2
f 105/2/2 109/2/2 111/2/2
f 109/2/2 110/2/2 111/2/2
f 110/2/2 106/2/2 112/2/2
f 111/2/2 110/2/2 112/2/2
f 113/1/2 114/1/2 115/1/2
f 115/1/2 114/1/2 116/1/2
f 119/3/3 118/3/3 117/3/3
f 120/3/3 118/3/3 119/3/3
f 123/3/3 122/3/3 121/3/3
f 124/3/3 122/3/3 123/3/3
f 127/3/3 126/3/3 125/3/3
f 128/3/3 126/3/3 127/3/3
f 131/2/3 130/2/3 129/2/3
f 132/2/3 130/2/3 131/2/3
f 135/2/3 134/2/3 133/2/3
f 136/2/3 134/2/3 135/2/3
f 139/1/3 138/1/3 137/1/3
f 140/1/3 138/1/3 139/1/3
f 143/1/3 142/1/3 141/1/3
f 144/1/3 142/1/3 143/1/3
f 145/1/3 142/1/3 144/1/3
f 146/1/3 142/1/3 145/1/3
f 151/1/3 148/1/3 147/1/3
f 151/1/3 150/1/3 149/1/3
f 151/1/3 149/1/3 148/1/3
f 152/1/3 150/1/3 151/1/3
f 155/1/3 154/1/3 153/1/3
f 156/1/3 154/1/3 155/1/3
f 159/3/3 158/3/3 157/3/3
f 160/3/3 158/3/3 159/3/3
f 163/3/3 162/3/3 161/3/3
f 164/3/3 162/3/3 163/3/3
f 165/3/4 166/3/4 167/3/4
f 167/3/4 166/3/4 168/3/4
f 169/3/4 170/3/4 171/3/4
f 171/3/4 170/3/4 172/3/4
f 173/1/4 174/1/4 175/1/4
f 175/1/4 174/1/4 176/1/4
f 177/1/4 178/1/4 179/1/4
f 179/1/4 178/1/4 180/1/4
f 180/1/4 178/1/4 181/1/4
f 181/1/4 178/1/4 182/1/4
f 183/1/4 184/1/4 187/1/4
f 185/1/4 186/1/4 187/1/4
f 184/1/4 185/1/4 187/1/4
f 187/1/4 186/1/4 188/1/4
f 189/1/4 190/1/4 191/1/4
f 191/1/4 190/1/4 192/1/4
f 193/2/4 194/2/4 195/2/4
f 195/2/4 194/2/4 196/2/4
f 197/2/4 198/2/4 199/2/4
f 199/2/4 198/2/4 200/2/4
f 201/3/4 202/3/4 203/3/4
f 203/3/4 202/3/4 204/3/4
f 205/3/4 206/3/4 207/3/4
f 207/3/4 206/3/4 208/3/4
f 209/3/4 210/3/4 211/3/4
f 211/3/4 210/3/4 212/3/4
f 217/3/5 214/3/5 213/3/5
f 218/3/5 214/3/5 217/3/5
f 219/3/5 216/3/5 215/3/5
f 220/3/5 216/3/5 219/3/5
f 225/2/5 222/2/5 221/2/5
f 226/2/5 222/2/5 225/2/5
f 227/2/5 224/2/5 223/2/5
f 228/2/5 224/2/5 227/2/5
f 233/1/5 230/1/5 229/1/5
f 234/1/5 230/1/5 233/1/5
f 235/1/5 232/1/5 231/1/5
f 236/1/5 232/1/5 235/1/5
f 241/3/5 238/3/5 237/3/5
f 242/3/5 238/3/5 241/3/5
f 243/3/5 240/3/5 239/3/5
f 244/3/5 240/3/5 243/3/5
f 247/3/5 246/3/5 245/3/5
f 248/3/5 246/3/5 247/3/5
f 249/3/5 248/3/5 247/3/5
f 250/3/5 248/3/5 249/3/5
f 251/3/5 250/3/5 249/3/5
f 252/3/5 250/3/5 251/3/5
f 253/3/6 254/3/6 257/3/6
f 257/3/6 254/3/6 258/3/6
f 255/3/6 256/3/6 259/3/6
f 259/3/6 256/3/6 260/3/6
f 261/1/6 262/1/6 265/1/6
f 265/1/6 262/1/6 266/1/6
f 263/1/6 264/1/6 267/1/6
f 267/1/6 264/1/6 268/1/6
f 269/2/6 270/2/6 273/2/6
f 271/2/6 272/2/6 274/2/6
f 269/2/6 273/2/6 275/2/6
f 275/2/6 273/2/6 276/2/6
f 274/2/6 272/2/6 277/2/6
f 277/2/6 272/2/6 278/2/6
f 269/2/6 275/2/6 279/2/6
f 278/2/6 272/2/6 282/2/6
f 279/2/6 280/2/6 283/2/6
f 281/2/6 282/2/6 284/2/6
f 279/2/6 283/2/6 285/2/6
f 269/2/6 279/2/6 285/2/6
f 285/2/6 283/2/6 286/2/6
f 284/2/6 282/2/6 287/2/6
f 282/2/6 272/2/6 288/2/6
f 287/2/6 282/2/6 288/2/6
f 289/3/6 290/3/6 293/3/6
f 293/3/6 290/3/6 294/3/6
f 291/3/6 292/3/6 295/3/6
f 295/3/6 292/3/6 296/3/6
f 293/1/6 294/1/6 297/1/6
f 294/3/6 290/3/6 298/3/6
f 297/1/6 294/1/6 298/1/6
f 291/3/6 295/3/6 299/3/6
f 295/1/6 296/1/6 299/1/6
f 299/1/6 296/1/6 300/1/6
f 297/3/6 298/3/6 301/3/6
f 298/3/6 290/3/6 302/3/6
f 301/3/6 298/3/6 302/3/6
f 291/3/6 299/3/6 303/3/6
f 299/3/6 300/3/6 303/3/6
f 303/3/6 300/3/6 304/3/6
f 301/1/6 302/1/6 305/1/6
f 302/3/6 290/3/6 306/3/6
f 305/1/6 302/1/6 306/1/6
f 291/3/6 303/3/6 307/3/6
f 303/1/6 304/1/6 307/1/6
f 307/1/6 304/1/6 308/1/6
f 305/3/6 306/3/6 309/3/6
f 306/3/6 290/3/6 310/3/6
f 309/3/6 306/3/6 310/3/6
f 291/3/6 307/3/6 311/3/6
f 307/3/6 308/3/6 311/3/6
f 311/3/6 308/3/6 312/3/6
f 309/1/6 310/1/6 313/1/6
f 310/3/6 290/3/6 314/3/6
f 313/1/6 310/1/6 314/1/6
f 291/3/6 311/3/6 315/3/6
f 311/1/6 312/1/6 315/1/6
f 315/1/6 312/1/6 316/1/6
f 313/3/6 314/3/6 317/3/6
f 314/3/6 290/3/6 318/3/6
f 317/3/6 314/3/6 318/3/6
f 291/3/6 315/3/6 319/3/6
f 315/3/6 316/3/6 319/3/6
f 319/3/6 316/3/6 320/3/6
f 321/1/6 322/1/6 325/1/6
f 325/1/6 322/1/6 326/1/6
f 323/1/6 324/1/6 327/1/6
f 327/1/6 324/1/6 328/1/6
f 329/3/6 330/3/6 331/3/6
f 331/3/6 330/3/6 332/3/6
f 332/3/6 330/3/6 333/3/6
f 333/3/6 330/3/6 334/3/6
f 334/3/6 330/3/6 335/3/6
f 335/3/6 330/3/6 336/3/6
f 329/3/6 331/3/6 337/3/6
f 331/1/6 332/1/6 337/1/6
f 332/3/6 333/3/6 338/3/6
f 337/1/6 332/1/6 338/1/6
f 338/3/6 333/3/6 339/3/6
f 335/1/6 336/1/6 340/1/6
f 336/3/6 330/3/6 341/3/6
f 340/1/6 336/1/6 341/1/6
f 337/3/6 338/3/6 342/3/6
f 338/1/6 339/1/6 342/1/6
f 339/3/6 333/3/6 343/3/6
f 342/1/6 339/1/6 343/1/6
f 333/1/6 334/1/6 344/1/6
f 343/3/6 333/3/6 344/3/6
f 335/1/6 340/1/6 345/1/6
f 334/3/6 335/3/6 345/3/6
f 340/3/6 341/3/6 346/3/6
f 345/1/6 340/1/6 346/1/6
f 346/3/6 341/3/6 347/3/6
f 337/3/6 342/3/6 348/3/6
f 342/3/6 343/3/6 348/3/6
f 343/1/6 344/1/6 349/1/6
f 348/3/6 343/3/6 349/3/6
f 344/1/6 334/1/6 350/1/6
f 349/1/6 344/1/6 350/1/6
f 346/1/6 347/1/6 351/1/6
f 345/3/6 346/3/6 351/3/6
f 351/1/6 347/1/6 352/1/6
f 347/3/6 341/3/6 353/3/6
f 352/1/6 347/1/6 353/1/6
f 353/3/6 341/3/6 354/3/6
f 329/3/6 337/3/6 355/3/6
f 337/3/6 348/3/6 355/3/6
f 348/1/6 349/1/6 356/1/6
f 355/3/6 348/3/6 356/3/6
f 349/3/6 350/3/6 357/3/6
f 356/1/6 349/1/6 357/1/6
f 351/3/6 352/3/6 358/3/6
f 353/1/6 354/1/6 358/1/6
f 352/1/6 353/1/6 358/1/6
f 354/3/6 341/3/6 359/3/6
f 358/1/6 354/1/6 359/1/6
f 341/3/6 330/3/6 360/3/6
f 359/3/6 341/3/6 360/3/6
f 351/3/6 358/3/6 361/3/6
f 358/3/6 359/3/6 361/3/6
f 334/3/6 345/3/6 361/3/6
f 345/3/6 351/3/6 361/3/6
f 359/1/6 360/1/6 362/1/6
f 361/3/6 359/3/6 362/3/6
f 329/3/6 355/3/6 363/3/6
f 355/1/6 356/1/6 363/1/6
f 356/3/6 357/3/6 364/3/6
f 363/1/6 356/1/6 364/1/6
f 357/3/6 350/3/6 365/3/6
f 364/3/6 357/3/6 365/3/6
f 350/1/6 334/1/6 365/1/6
f 334/3/6 361/3/6 366/3/6
f 365/1/6 334/1/6 366/1/6
f 361/1/6 362/1/6 367/1/6
f 366/3/6 361/3/6 367/3/6
f 362/1/6 360/1/6 368/1/6
f 367/1/6 362/1/6 368/1/6
f 360/3/6 330/3/6 368/3/6
f 366/3/6 367/3/6 369/3/6
f 363/3/6 364/3/6 369/3/6
f 367/3/6 368/3/6 369/3/6
f 329/3/6 363/3/6 369/3/6
f 365/3/6 366/3/6 369/3/6
f 364/3/6 365/3/6 369/3/6
f 368/3/6 330/3/6 370/3/6
f 369/3/6 368/3/6 370/3/6
