# Blender 4.4.3
# www.blender.org
mtllib Untitled_051.mtl
o Untitled.051
v -0.394119 0.454902 0.350000
v -0.394119 0.354902 0.350000
v -0.394119 0.454902 -0.350000
v -0.394119 0.354902 -0.350000
v -0.194119 2.454902 0.050000
v -0.194119 2.354902 0.050000
v -0.194119 2.254902 0.050000
v -0.194119 0.554902 0.050000
v -0.194119 0.454902 0.050000
v -0.194119 0.354902 0.050000
v -0.194119 0.154902 0.050000
v -0.194119 -5.745098 0.050000
v -0.194119 2.454902 -0.050000
v -0.194119 2.354902 -0.050000
v -0.194119 2.254902 -0.050000
v -0.194119 0.554902 -0.050000
v -0.194119 0.454902 -0.050000
v -0.194119 0.354902 -0.050000
v -0.194119 0.154902 -0.050000
v -0.194119 -5.745098 -0.050000
v -0.094119 -5.745098 0.050000
v -0.094119 -5.845098 0.050000
v -0.094119 -5.745098 -0.050000
v -0.094119 -5.845098 -0.050000
v 0.005881 -5.845098 0.050000
v 0.005881 -5.945098 0.050000
v 0.005881 -5.845098 -0.050000
v 0.005881 -5.945098 -0.050000
v 0.205881 2.454902 0.050000
v 0.205881 2.354902 0.050000
v 0.205881 2.254902 0.050000
v 0.205881 0.554902 0.050000
v 0.205881 0.454902 0.050000
v 0.205881 0.354902 0.050000
v 0.205881 0.154902 0.050000
v 0.205881 -5.945098 0.050000
v 0.205881 2.454902 -0.050000
v 0.205881 2.354902 -0.050000
v 0.205881 2.254902 -0.050000
v 0.205881 0.554902 -0.050000
v 0.205881 0.454902 -0.050000
v 0.205881 0.354902 -0.050000
v 0.205881 0.154902 -0.050000
v 0.205881 -5.945098 -0.050000
v 0.405881 0.454902 0.350000
v 0.405881 0.354902 0.350000
v 0.405881 0.454902 -0.350000
v 0.405881 0.354902 -0.350000
v -0.194119 2.454902 0.050000
v -0.194119 2.454902 -0.050000
v -0.094119 2.454902 0.050000
v -0.094119 2.454902 -0.050000
v 0.105881 2.454902 0.050000
v 0.105881 2.454902 -0.050000
v 0.205881 2.454902 0.050000
v 0.205881 2.454902 -0.050000
v -0.394119 0.454902 0.350000
v -0.394119 0.454902 -0.350000
v -0.194119 0.454902 0.050000
v -0.194119 0.454902 -0.050000
v 0.205881 0.454902 0.050000
v 0.205881 0.454902 -0.050000
v 0.405881 0.454902 0.350000
v 0.405881 0.454902 -0.350000
v -0.394119 0.354902 0.350000
v -0.394119 0.354902 -0.350000
v -0.194119 0.354902 0.050000
v -0.194119 0.354902 -0.050000
v 0.205881 0.354902 0.050000
v 0.205881 0.354902 -0.050000
v 0.405881 0.354902 0.350000
v 0.405881 0.354902 -0.350000
v -0.194119 -5.745098 0.050000
v -0.194119 -5.745098 -0.050000
v -0.094119 -5.745098 0.050000
v -0.094119 -5.745098 -0.050000
v -0.094119 -5.845098 0.050000
v -0.094119 -5.845098 -0.050000
v 0.005881 -5.845098 0.050000
v 0.005881 -5.845098 -0.050000
v 0.005881 -5.945098 0.050000
v 0.005881 -5.945098 -0.050000
v 0.205881 -5.945098 0.050000
v 0.205881 -5.945098 -0.050000
v -0.394119 0.454902 0.350000
v 0.405881 0.454902 0.350000
v -0.394119 0.354902 0.350000
v 0.405881 0.354902 0.350000
v -0.194119 2.454902 0.050000
v -0.094119 2.454902 0.050000
v 0.105881 2.454902 0.050000
v 0.205881 2.454902 0.050000
v -0.194119 2.354902 0.050000
v -0.094119 2.354902 0.050000
v 0.105881 2.354902 0.050000
v 0.205881 2.354902 0.050000
v -0.194119 2.254902 0.050000
v 0.205881 2.254902 0.050000
v -0.094119 2.154902 0.050000
v 0.105881 2.154902 0.050000
v -0.094119 2.054902 0.050000
v 0.105881 2.054902 0.050000
v -0.094119 1.954902 0.050000
v 0.105881 1.954902 0.050000
v -0.094119 1.854902 0.050000
v 0.105881 1.854902 0.050000
v -0.094119 1.754902 0.050000
v 0.105881 1.754902 0.050000
v -0.094119 1.654902 0.050000
v 0.105881 1.654902 0.050000
v -0.094119 1.554902 0.050000
v 0.105881 1.554902 0.050000
v -0.094119 1.454902 0.050000
v 0.105881 1.454902 0.050000
v -0.094119 1.354902 0.050000
v 0.105881 1.354902 0.050000
v -0.094119 1.254902 0.050000
v 0.105881 1.254902 0.050000
v -0.094119 1.154902 0.050000
v 0.105881 1.154902 0.050000
v -0.094119 1.054902 0.050000
v 0.105881 1.054902 0.050000
v -0.094119 0.954902 0.050000
v 0.105881 0.954902 0.050000
v -0.094119 0.854902 0.050000
v 0.105881 0.854902 0.050000
v -0.094119 0.754902 0.050000
v 0.105881 0.754902 0.050000
v -0.094119 0.654902 0.050000
v 0.105881 0.654902 0.050000
v -0.194119 0.554902 0.050000
v 0.205881 0.554902 0.050000
v -0.194119 0.454902 0.050000
v 0.205881 0.454902 0.050000
v -0.194119 0.354902 0.050000
v 0.205881 0.354902 0.050000
v -0.194119 0.154902 0.050000
v 0.205881 0.154902 0.050000
v -0.194119 -5.745098 0.050000
v -0.094119 -5.745098 0.050000
v -0.094119 -5.845098 0.050000
v 0.005881 -5.845098 0.050000
v 0.005881 -5.945098 0.050000
v 0.205881 -5.945098 0.050000
v -0.194119 2.454902 -0.050000
v -0.094119 2.454902 -0.050000
v 0.105881 2.454902 -0.050000
v 0.205881 2.454902 -0.050000
v -0.194119 2.354902 -0.050000
v -0.094119 2.354902 -0.050000
v 0.105881 2.354902 -0.050000
v 0.205881 2.354902 -0.050000
v -0.194119 2.254902 -0.050000
v 0.205881 2.254902 -0.050000
v -0.094119 2.154902 -0.050000
v 0.105881 2.154902 -0.050000
v -0.094119 2.054902 -0.050000
v 0.105881 2.054902 -0.050000
v -0.094119 1.954902 -0.050000
v 0.105881 1.954902 -0.050000
v -0.094119 1.854902 -0.050000
v 0.105881 1.854902 -0.050000
v -0.094119 1.754902 -0.050000
v 0.105881 1.754902 -0.050000
v -0.094119 1.654902 -0.050000
v 0.105881 1.654902 -0.050000
v -0.094119 1.554902 -0.050000
v 0.105881 1.554902 -0.050000
v -0.094119 1.454902 -0.050000
v 0.105881 1.454902 -0.050000
v -0.094119 1.354902 -0.050000
v 0.105881 1.354902 -0.050000
v -0.094119 1.254902 -0.050000
v 0.105881 1.254902 -0.050000
v -0.094119 1.154902 -0.050000
v 0.105881 1.154902 -0.050000
v -0.094119 1.054902 -0.050000
v 0.105881 1.054902 -0.050000
v -0.094119 0.954902 -0.050000
v 0.105881 0.954902 -0.050000
v -0.094119 0.854902 -0.050000
v 0.105881 0.854902 -0.050000
v -0.094119 0.754902 -0.050000
v 0.105881 0.754902 -0.050000
v -0.094119 0.654902 -0.050000
v 0.105881 0.654902 -0.050000
v -0.194119 0.554902 -0.050000
v 0.205881 0.554902 -0.050000
v -0.194119 0.454902 -0.050000
v 0.205881 0.454902 -0.050000
v -0.194119 0.354902 -0.050000
v 0.205881 0.354902 -0.050000
v -0.194119 0.154902 -0.050000
v 0.205881 0.154902 -0.050000
v -0.194119 -5.745098 -0.050000
v -0.094119 -5.745098 -0.050000
v -0.094119 -5.845098 -0.050000
v 0.005881 -5.845098 -0.050000
v 0.005881 -5.945098 -0.050000
v 0.205881 -5.945098 -0.050000
v -0.394119 0.454902 -0.350000
v 0.405881 0.454902 -0.350000
v -0.394119 0.354902 -0.350000
v 0.405881 0.354902 -0.350000
vn -1.0000 -0.0000 -0.0000
vn 1.0000 -0.0000 -0.0000
vn -0.0000 1.0000 -0.0000
vn -0.0000 -1.0000 -0.0000
vn -0.0000 -0.0000 1.0000
vn -0.0000 -0.0000 -1.0000
vt 0.990234 0.500000
vt 0.876953 0.500000
vt 0.060547 0.500000
vt 0.064453 0.500000
vt 0.962891 0.500000
s 1
usemtl palette.193
f 3/1/1 2/1/1 1/1/1
f 4/1/1 2/1/1 3/1/1
f 13/2/1 6/2/1 5/2/1
f 14/3/1 7/3/1 6/3/1
f 14/2/1 6/2/1 13/2/1
f 15/2/1 8/2/1 7/2/1
f 15/3/1 7/3/1 14/3/1
f 16/3/1 9/3/1 8/3/1
f 16/2/1 8/2/1 15/2/1
f 17/3/1 9/3/1 16/3/1
f 18/4/1 11/4/1 10/4/1
f 19/5/1 12/5/1 11/5/1
f 19/4/1 11/4/1 18/4/1
f 20/5/1 12/5/1 19/5/1
f 23/5/1 22/5/1 21/5/1
f 24/5/1 22/5/1 23/5/1
f 27/5/1 26/5/1 25/5/1
f 28/5/1 26/5/1 27/5/1
f 29/2/2 30/2/2 37/2/2
f 30/3/2 31/3/2 38/3/2
f 37/2/2 30/2/2 38/2/2
f 31/2/2 32/2/2 39/2/2
f 38/3/2 31/3/2 39/3/2
f 32/3/2 33/3/2 40/3/2
f 39/2/2 32/2/2 40/2/2
f 40/3/2 33/3/2 41/3/2
f 34/4/2 35/4/2 42/4/2
f 35/5/2 36/5/2 43/5/2
f 42/4/2 35/4/2 43/4/2
f 43/5/2 36/5/2 44/5/2
f 45/1/2 46/1/2 47/1/2
f 47/1/2 46/1/2 48/1/2
f 51/2/3 50/2/3 49/2/3
f 52/2/3 50/2/3 51/2/3
f 53/3/3 52/3/3 51/3/3
f 54/3/3 52/3/3 53/3/3
f 55/2/3 54/2/3 53/2/3
f 56/2/3 54/2/3 55/2/3
f 59/1/3 58/1/3 57/1/3
f 60/1/3 58/1/3 59/1/3
f 61/1/3 59/1/3 57/1/3
f 62/1/3 58/1/3 60/1/3
f 63/1/3 61/1/3 57/1/3
f 63/1/3 62/1/3 61/1/3
f 64/1/3 58/1/3 62/1/3
f 64/1/3 62/1/3 63/1/3
f 65/1/4 66/1/4 67/1/4
f 67/1/4 66/1/4 68/1/4
f 65/1/4 67/1/4 69/1/4
f 68/1/4 66/1/4 70/1/4
f 65/1/4 69/1/4 71/1/4
f 69/1/4 70/1/4 71/1/4
f 70/1/4 66/1/4 72/1/4
f 71/1/4 70/1/4 72/1/4
f 73/5/4 74/5/4 75/5/4
f 75/5/4 74/5/4 76/5/4
f 77/5/4 78/5/4 79/5/4
f 79/5/4 78/5/4 80/5/4
f 81/5/4 82/5/4 83/5/4
f 83/5/4 82/5/4 84/5/4
f 87/1/5 86/1/5 85/1/5
f 88/1/5 86/1/5 87/1/5
f 93/2/5 90/2/5 89/2/5
f 94/3/5 91/3/5 90/3/5
f 94/2/5 90/2/5 93/2/5
f 95/2/5 92/2/5 91/2/5
f 95/3/5 91/3/5 94/3/5
f 96/2/5 92/2/5 95/2/5
f 97/3/5 94/3/5 93/3/5
f 97/3/5 95/3/5 94/3/5
f 97/3/5 96/3/5 95/3/5
f 98/3/5 96/3/5 97/3/5
f 99/2/5 98/2/5 97/2/5
f 100/2/5 98/2/5 99/2/5
f 101/2/5 99/2/5 97/2/5
f 101/4/5 100/4/5 99/4/5
f 102/2/5 98/2/5 100/2/5
f 102/4/5 100/4/5 101/4/5
f 103/2/5 101/2/5 97/2/5
f 103/2/5 102/2/5 101/2/5
f 104/2/5 98/2/5 102/2/5
f 104/2/5 102/2/5 103/2/5
f 105/2/5 103/2/5 97/2/5
f 105/4/5 104/4/5 103/4/5
f 106/2/5 98/2/5 104/2/5
f 106/4/5 104/4/5 105/4/5
f 107/2/5 105/2/5 97/2/5
f 107/2/5 106/2/5 105/2/5
f 108/2/5 98/2/5 106/2/5
f 108/2/5 106/2/5 107/2/5
f 109/2/5 107/2/5 97/2/5
f 109/4/5 108/4/5 107/4/5
f 110/2/5 98/2/5 108/2/5
f 110/4/5 108/4/5 109/4/5
f 111/2/5 109/2/5 97/2/5
f 111/2/5 110/2/5 109/2/5
f 112/2/5 98/2/5 110/2/5
f 112/2/5 110/2/5 111/2/5
f 113/2/5 111/2/5 97/2/5
f 113/4/5 112/4/5 111/4/5
f 114/2/5 98/2/5 112/2/5
f 114/4/5 112/4/5 113/4/5
f 115/2/5 113/2/5 97/2/5
f 115/2/5 114/2/5 113/2/5
f 116/2/5 98/2/5 114/2/5
f 116/2/5 114/2/5 115/2/5
f 117/2/5 115/2/5 97/2/5
f 117/4/5 116/4/5 115/4/5
f 118/2/5 98/2/5 116/2/5
f 118/4/5 116/4/5 117/4/5
f 119/2/5 117/2/5 97/2/5
f 119/2/5 118/2/5 117/2/5
f 120/2/5 98/2/5 118/2/5
f 120/2/5 118/2/5 119/2/5
f 121/2/5 119/2/5 97/2/5
f 121/4/5 120/4/5 119/4/5
f 122/2/5 98/2/5 120/2/5
f 122/4/5 120/4/5 121/4/5
f 123/2/5 121/2/5 97/2/5
f 123/2/5 122/2/5 121/2/5
f 124/2/5 98/2/5 122/2/5
f 124/2/5 122/2/5 123/2/5
f 125/2/5 123/2/5 97/2/5
f 125/4/5 124/4/5 123/4/5
f 126/2/5 98/2/5 124/2/5
f 126/4/5 124/4/5 125/4/5
f 127/2/5 125/2/5 97/2/5
f 127/2/5 126/2/5 125/2/5
f 128/2/5 98/2/5 126/2/5
f 128/2/5 126/2/5 127/2/5
f 129/2/5 127/2/5 97/2/5
f 129/4/5 128/4/5 127/4/5
f 130/2/5 98/2/5 128/2/5
f 130/4/5 128/4/5 129/4/5
f 131/2/5 129/2/5 97/2/5
f 131/2/5 130/2/5 129/2/5
f 132/2/5 98/2/5 130/2/5
f 132/2/5 130/2/5 131/2/5
f 133/3/5 132/3/5 131/3/5
f 134/3/5 132/3/5 133/3/5
f 137/4/5 136/4/5 135/4/5
f 138/4/5 136/4/5 137/4/5
f 139/5/5 138/5/5 137/5/5
f 140/5/5 138/5/5 139/5/5
f 141/5/5 138/5/5 140/5/5
f 142/5/5 138/5/5 141/5/5
f 143/5/5 138/5/5 142/5/5
f 144/5/5 138/5/5 143/5/5
f 145/2/6 146/2/6 149/2/6
f 146/3/6 147/3/6 150/3/6
f 149/2/6 146/2/6 150/2/6
f 147/2/6 148/2/6 151/2/6
f 150/3/6 147/3/6 151/3/6
f 151/2/6 148/2/6 152/2/6
f 149/3/6 150/3/6 153/3/6
f 150/3/6 151/3/6 153/3/6
f 151/3/6 152/3/6 153/3/6
f 153/3/6 152/3/6 154/3/6
f 153/2/6 154/2/6 155/2/6
f 155/2/6 154/2/6 156/2/6
f 153/2/6 155/2/6 157/2/6
f 155/4/6 156/4/6 157/4/6
f 156/2/6 154/2/6 158/2/6
f 157/4/6 156/4/6 158/4/6
f 153/2/6 157/2/6 159/2/6
f 157/2/6 158/2/6 159/2/6
f 158/2/6 154/2/6 160/2/6
f 159/2/6 158/2/6 160/2/6
f 153/2/6 159/2/6 161/2/6
f 159/4/6 160/4/6 161/4/6
f 160/2/6 154/2/6 162/2/6
f 161/4/6 160/4/6 162/4/6
f 153/2/6 161/2/6 163/2/6
f 161/2/6 162/2/6 163/2/6
f 162/2/6 154/2/6 164/2/6
f 163/2/6 162/2/6 164/2/6
f 153/2/6 163/2/6 165/2/6
f 163/4/6 164/4/6 165/4/6
f 164/2/6 154/2/6 166/2/6
f 165/4/6 164/4/6 166/4/6
f 153/2/6 165/2/6 167/2/6
f 165/2/6 166/2/6 167/2/6
f 166/2/6 154/2/6 168/2/6
f 167/2/6 166/2/6 168/2/6
f 153/2/6 167/2/6 169/2/6
f 167/4/6 168/4/6 169/4/6
f 168/2/6 154/2/6 170/2/6
f 169/4/6 168/4/6 170/4/6
f 153/2/6 169/2/6 171/2/6
f 169/2/6 170/2/6 171/2/6
f 170/2/6 154/2/6 172/2/6
f 171/2/6 170/2/6 172/2/6
f 153/2/6 171/2/6 173/2/6
f 171/4/6 172/4/6 173/4/6
f 172/2/6 154/2/6 174/2/6
f 173/4/6 172/4/6 174/4/6
f 153/2/6 173/2/6 175/2/6
f 173/2/6 174/2/6 175/2/6
f 174/2/6 154/2/6 176/2/6
f 175/2/6 174/2/6 176/2/6
f 153/2/6 175/2/6 177/2/6
f 175/4/6 176/4/6 177/4/6
f 176/2/6 154/2/6 178/2/6
f 177/4/6 176/4/6 178/4/6
f 153/2/6 177/2/6 179/2/6
f 177/2/6 178/2/6 179/2/6
f 178/2/6 154/2/6 180/2/6
f 179/2/6 178/2/6 180/2/6
f 153/2/6 179/2/6 181/2/6
f 179/4/6 180/4/6 181/4/6
f 180/2/6 154/2/6 182/2/6
f 181/4/6 180/4/6 182/4/6
f 153/2/6 181/2/6 183/2/6
f 181/2/6 182/2/6 183/2/6
f 182/2/6 154/2/6 184/2/6
f 183/2/6 182/2/6 184/2/6
f 153/2/6 183/2/6 185/2/6
f 183/4/6 184/4/6 185/4/6
f 184/2/6 154/2/6 186/2/6
f 185/4/6 184/4/6 186/4/6
f 153/2/6 185/2/6 187/2/6
f 185/2/6 186/2/6 187/2/6
f 186/2/6 154/2/6 188/2/6
f 187/2/6 186/2/6 188/2/6
f 187/3/6 188/3/6 189/3/6
f 189/3/6 188/3/6 190/3/6
f 191/4/6 192/4/6 193/4/6
f 193/4/6 192/4/6 194/4/6
f 193/5/6 194/5/6 195/5/6
f 195/5/6 194/5/6 196/5/6
f 196/5/6 194/5/6 197/5/6
f 197/5/6 194/5/6 198/5/6
f 198/5/6 194/5/6 199/5/6
f 199/5/6 194/5/6 200/5/6
f 201/1/6 202/1/6 203/1/6
f 203/1/6 202/1/6 204/1/6
