# Blender 4.4.3
# www.blender.org
mtllib Untitled_065.mtl
o Untitled.065
v -0.250490 0.213593 0.050000
v -0.650491 0.213593 0.050000
v -0.250490 0.213593 -0.050000
v -0.650491 0.213593 -0.050000
v 0.749510 0.113593 0.050000
v 0.649509 0.113593 0.050000
v 0.549510 0.113593 0.050000
v 0.449510 0.113593 0.050000
v 0.349509 0.113593 0.050000
v 0.249510 0.113593 0.050000
v 0.149509 0.113593 0.050000
v -0.250490 0.113593 0.050000
v -0.650491 0.113593 0.050000
v -0.750490 0.113593 0.050000
v 0.749510 0.113593 -0.050000
v 0.649509 0.113593 -0.050000
v 0.549510 0.113593 -0.050000
v 0.449510 0.113593 -0.050000
v 0.349509 0.113593 -0.050000
v 0.249510 0.113593 -0.050000
v 0.149509 0.113593 -0.050000
v -0.250490 0.113593 -0.050000
v -0.650491 0.113593 -0.050000
v -0.750490 0.113593 -0.050000
v 0.849509 0.013593 0.050000
v 0.749510 0.013593 0.050000
v 0.649509 0.013593 0.050000
v 0.549510 0.013593 0.050000
v 0.449510 0.013593 0.050000
v 0.349509 0.013593 0.050000
v 0.249510 0.013593 0.050000
v 0.149509 0.013593 0.050000
v -0.350491 0.013593 0.050000
v -0.550490 0.013593 0.050000
v 0.849509 0.013593 -0.050000
v 0.749510 0.013593 -0.050000
v 0.649509 0.013593 -0.050000
v 0.549510 0.013593 -0.050000
v 0.449510 0.013593 -0.050000
v 0.349509 0.013593 -0.050000
v 0.249510 0.013593 -0.050000
v 0.149509 0.013593 -0.050000
v -0.350491 0.013593 -0.050000
v -0.550490 0.013593 -0.050000
v -0.350491 -0.186407 0.050000
v -0.650491 -0.186407 0.050000
v -0.350491 -0.186407 -0.050000
v -0.650491 -0.186407 -0.050000
v -0.350491 0.113593 0.050000
v -0.650491 0.113593 0.050000
v -0.350491 0.113593 -0.050000
v -0.650491 0.113593 -0.050000
v -0.350491 -0.086407 0.050000
v -0.550490 -0.086407 0.050000
v -0.350491 -0.086407 -0.050000
v -0.550490 -0.086407 -0.050000
v 0.849509 -0.186407 0.050000
v -0.250490 -0.186407 0.050000
v -0.650491 -0.186407 0.050000
v -0.750490 -0.186407 0.050000
v 0.849509 -0.186407 -0.050000
v -0.250490 -0.186407 -0.050000
v -0.650491 -0.186407 -0.050000
v -0.750490 -0.186407 -0.050000
v -0.250490 -0.286407 0.050000
v -0.650491 -0.286407 0.050000
v -0.250490 -0.286407 -0.050000
v -0.650491 -0.286407 -0.050000
v 0.849509 0.013593 0.050000
v 0.849509 0.013593 -0.050000
v 0.849509 -0.086407 0.050000
v 0.849509 -0.086407 -0.050000
v 0.849509 -0.186407 0.050000
v 0.849509 -0.186407 -0.050000
v 0.749510 0.113593 0.050000
v 0.749510 0.113593 -0.050000
v 0.749510 0.013593 0.050000
v 0.749510 0.013593 -0.050000
v 0.549510 0.113593 0.050000
v 0.549510 0.113593 -0.050000
v 0.549510 0.013593 0.050000
v 0.549510 0.013593 -0.050000
v 0.349509 0.113593 0.050000
v 0.349509 0.113593 -0.050000
v 0.349509 0.013593 0.050000
v 0.349509 0.013593 -0.050000
v 0.149509 0.113593 0.050000
v 0.149509 0.113593 -0.050000
v 0.149509 0.013593 0.050000
v 0.149509 0.013593 -0.050000
v -0.250490 0.213593 0.050000
v -0.250490 0.213593 -0.050000
v -0.250490 0.113593 0.050000
v -0.250490 0.113593 -0.050000
v -0.250490 -0.186407 0.050000
v -0.250490 -0.186407 -0.050000
v -0.250490 -0.286407 0.050000
v -0.250490 -0.286407 -0.050000
v -0.650491 0.113593 0.050000
v -0.650491 0.113593 -0.050000
v -0.650491 -0.186407 0.050000
v -0.650491 -0.186407 -0.050000
v 0.649509 0.113593 0.050000
v 0.649509 0.113593 -0.050000
v 0.649509 0.013593 0.050000
v 0.649509 0.013593 -0.050000
v 0.449510 0.113593 0.050000
v 0.449510 0.113593 -0.050000
v 0.449510 0.013593 0.050000
v 0.449510 0.013593 -0.050000
v 0.249510 0.113593 0.050000
v 0.249510 0.113593 -0.050000
v 0.249510 0.013593 0.050000
v 0.249510 0.013593 -0.050000
v -0.350491 0.113593 0.050000
v -0.350491 0.113593 -0.050000
v -0.350491 0.013593 0.050000
v -0.350491 0.013593 -0.050000
v -0.350491 -0.086407 0.050000
v -0.350491 -0.086407 -0.050000
v -0.350491 -0.186407 0.050000
v -0.350491 -0.186407 -0.050000
v -0.550490 0.013593 0.050000
v -0.550490 0.013593 -0.050000
v -0.550490 -0.086407 0.050000
v -0.550490 -0.086407 -0.050000
v -0.650491 0.213593 0.050000
v -0.650491 0.213593 -0.050000
v -0.650491 0.113593 0.050000
v -0.650491 0.113593 -0.050000
v -0.650491 -0.186407 0.050000
v -0.650491 -0.186407 -0.050000
v -0.650491 -0.286407 0.050000
v -0.650491 -0.286407 -0.050000
v -0.750490 0.113593 0.050000
v -0.750490 0.113593 -0.050000
v -0.750490 -0.186407 0.050000
v -0.750490 -0.186407 -0.050000
v 0.849509 0.013593 0.050000
v 0.849509 -0.086407 0.050000
v 0.849509 -0.186407 0.050000
v 0.749510 0.113593 0.050000
v 0.749510 0.013593 0.050000
v 0.649509 0.113593 0.050000
v 0.649509 0.013593 0.050000
v 0.549510 0.113593 0.050000
v 0.549510 0.013593 0.050000
v 0.449510 0.113593 0.050000
v 0.449510 0.013593 0.050000
v 0.349509 0.113593 0.050000
v 0.349509 0.013593 0.050000
v 0.249510 0.113593 0.050000
v 0.249510 0.013593 0.050000
v 0.149509 0.113593 0.050000
v 0.149509 0.013593 0.050000
v -0.250490 0.213593 0.050000
v -0.250490 0.113593 0.050000
v -0.250490 -0.086407 0.050000
v -0.250490 -0.186407 0.050000
v -0.250490 -0.286407 0.050000
v -0.350491 0.113593 0.050000
v -0.350491 0.013593 0.050000
v -0.350491 -0.086407 0.050000
v -0.350491 -0.186407 0.050000
v -0.550490 0.013593 0.050000
v -0.550490 -0.086407 0.050000
v -0.650491 0.213593 0.050000
v -0.650491 0.113593 0.050000
v -0.650491 -0.186407 0.050000
v -0.650491 -0.286407 0.050000
v -0.750490 0.113593 0.050000
v -0.750490 -0.186407 0.050000
v 0.849509 0.013593 -0.050000
v 0.849509 -0.086407 -0.050000
v 0.849509 -0.186407 -0.050000
v 0.749510 0.113593 -0.050000
v 0.749510 0.013593 -0.050000
v 0.649509 0.113593 -0.050000
v 0.649509 0.013593 -0.050000
v 0.549510 0.113593 -0.050000
v 0.549510 0.013593 -0.050000
v 0.449510 0.113593 -0.050000
v 0.449510 0.013593 -0.050000
v 0.349509 0.113593 -0.050000
v 0.349509 0.013593 -0.050000
v 0.249510 0.113593 -0.050000
v 0.249510 0.013593 -0.050000
v 0.149509 0.113593 -0.050000
v 0.149509 0.013593 -0.050000
v -0.250490 0.213593 -0.050000
v -0.250490 0.113593 -0.050000
v -0.250490 -0.086407 -0.050000
v -0.250490 -0.186407 -0.050000
v -0.250490 -0.286407 -0.050000
v -0.350491 0.113593 -0.050000
v -0.350491 0.013593 -0.050000
v -0.350491 -0.086407 -0.050000
v -0.350491 -0.186407 -0.050000
v -0.550490 0.013593 -0.050000
v -0.550490 -0.086407 -0.050000
v -0.650491 0.213593 -0.050000
v -0.650491 0.113593 -0.050000
v -0.650491 -0.186407 -0.050000
v -0.650491 -0.286407 -0.050000
v -0.750490 0.113593 -0.050000
v -0.750490 -0.186407 -0.050000
vn -0.0000 1.0000 -0.0000
vn -0.0000 -1.0000 -0.0000
vn 1.0000 -0.0000 -0.0000
vn -1.0000 -0.0000 -0.0000
vn -0.0000 -0.0000 1.0000
vn -0.0000 -0.0000 -1.0000
vt 0.947266 0.500000
vt 0.982422 0.500000
vt 0.916016 0.500000
s 1
usemtl palette.216
f 3/1/1 2/1/1 1/1/1
f 4/1/1 2/1/1 3/1/1
f 15/2/1 6/2/1 5/2/1
f 16/2/1 6/2/1 15/2/1
f 17/2/1 8/2/1 7/2/1
f 18/2/1 8/2/1 17/2/1
f 19/2/1 10/2/1 9/2/1
f 20/2/1 10/2/1 19/2/1
f 21/3/1 12/3/1 11/3/1
f 22/3/1 12/3/1 21/3/1
f 23/1/1 14/1/1 13/1/1
f 24/1/1 14/1/1 23/1/1
f 35/3/1 26/3/1 25/3/1
f 36/3/1 26/3/1 35/3/1
f 37/3/1 28/3/1 27/3/1
f 38/3/1 28/3/1 37/3/1
f 39/3/1 30/3/1 29/3/1
f 40/3/1 30/3/1 39/3/1
f 41/3/1 32/3/1 31/3/1
f 42/3/1 32/3/1 41/3/1
f 43/2/1 34/2/1 33/2/1
f 44/2/1 34/2/1 43/2/1
f 47/1/1 46/1/1 45/1/1
f 48/1/1 46/1/1 47/1/1
f 49/1/2 50/1/2 51/1/2
f 51/1/2 50/1/2 52/1/2
f 53/2/2 54/2/2 55/2/2
f 55/2/2 54/2/2 56/2/2
f 57/1/2 58/1/2 61/1/2
f 61/1/2 58/1/2 62/1/2
f 59/1/2 60/1/2 63/1/2
f 63/1/2 60/1/2 64/1/2
f 65/1/2 66/1/2 67/1/2
f 67/1/2 66/1/2 68/1/2
f 71/3/3 70/3/3 69/3/3
f 72/3/3 70/3/3 71/3/3
f 73/1/3 72/1/3 71/1/3
f 74/1/3 72/1/3 73/1/3
f 77/2/3 76/2/3 75/2/3
f 78/2/3 76/2/3 77/2/3
f 81/2/3 80/2/3 79/2/3
f 82/2/3 80/2/3 81/2/3
f 85/2/3 84/2/3 83/2/3
f 86/2/3 84/2/3 85/2/3
f 89/3/3 88/3/3 87/3/3
f 90/3/3 88/3/3 89/3/3
f 93/1/3 92/1/3 91/1/3
f 94/1/3 92/1/3 93/1/3
f 97/1/3 96/1/3 95/1/3
f 98/1/3 96/1/3 97/1/3
f 101/1/3 100/1/3 99/1/3
f 102/1/3 100/1/3 101/1/3
f 103/2/4 104/2/4 105/2/4
f 105/2/4 104/2/4 106/2/4
f 107/2/4 108/2/4 109/2/4
f 109/2/4 108/2/4 110/2/4
f 111/2/4 112/2/4 113/2/4
f 113/2/4 112/2/4 114/2/4
f 115/1/4 116/1/4 117/1/4
f 117/1/4 116/1/4 118/1/4
f 119/1/4 120/1/4 121/1/4
f 121/1/4 120/1/4 122/1/4
f 123/2/4 124/2/4 125/2/4
f 125/2/4 124/2/4 126/2/4
f 127/1/4 128/1/4 129/1/4
f 129/1/4 128/1/4 130/1/4
f 131/1/4 132/1/4 133/1/4
f 133/1/4 132/1/4 134/1/4
f 135/1/4 136/1/4 137/1/4
f 137/1/4 136/1/4 138/1/4
f 143/3/5 140/3/5 139/3/5
f 144/2/5 143/2/5 142/2/5
f 145/3/5 140/3/5 143/3/5
f 145/2/5 143/2/5 144/2/5
f 147/3/5 140/3/5 145/3/5
f 148/2/5 147/2/5 146/2/5
f 149/3/5 140/3/5 147/3/5
f 149/2/5 147/2/5 148/2/5
f 151/3/5 140/3/5 149/3/5
f 152/2/5 151/2/5 150/2/5
f 153/3/5 140/3/5 151/3/5
f 153/2/5 151/2/5 152/2/5
f 155/3/5 140/3/5 153/3/5
f 157/3/5 155/3/5 154/3/5
f 158/1/5 141/1/5 140/1/5
f 158/3/5 140/3/5 155/3/5
f 158/3/5 155/3/5 157/3/5
f 159/1/5 141/1/5 158/1/5
f 161/1/5 157/1/5 156/1/5
f 161/1/5 160/1/5 159/1/5
f 161/1/5 159/1/5 158/1/5
f 161/1/5 158/1/5 157/1/5
f 162/1/5 160/1/5 161/1/5
f 163/1/5 160/1/5 162/1/5
f 164/1/5 160/1/5 163/1/5
f 165/2/5 163/2/5 162/2/5
f 166/2/5 163/2/5 165/2/5
f 167/1/5 161/1/5 156/1/5
f 168/1/5 161/1/5 167/1/5
f 169/1/5 160/1/5 164/1/5
f 170/1/5 160/1/5 169/1/5
f 171/1/5 169/1/5 168/1/5
f 172/1/5 169/1/5 171/1/5
f 173/3/6 174/3/6 177/3/6
f 176/2/6 177/2/6 178/2/6
f 177/3/6 174/3/6 179/3/6
f 178/2/6 177/2/6 179/2/6
f 179/3/6 174/3/6 181/3/6
f 180/2/6 181/2/6 182/2/6
f 181/3/6 174/3/6 183/3/6
f 182/2/6 181/2/6 183/2/6
f 183/3/6 174/3/6 185/3/6
f 184/2/6 185/2/6 186/2/6
f 185/3/6 174/3/6 187/3/6
f 186/2/6 185/2/6 187/2/6
f 187/3/6 174/3/6 189/3/6
f 188/3/6 189/3/6 191/3/6
f 174/1/6 175/1/6 192/1/6
f 189/3/6 174/3/6 192/3/6
f 191/3/6 189/3/6 192/3/6
f 192/1/6 175/1/6 193/1/6
f 190/1/6 191/1/6 195/1/6
f 193/1/6 194/1/6 195/1/6
f 192/1/6 193/1/6 195/1/6
f 191/1/6 192/1/6 195/1/6
f 195/1/6 194/1/6 196/1/6
f 196/1/6 194/1/6 197/1/6
f 197/1/6 194/1/6 198/1/6
f 196/2/6 197/2/6 199/2/6
f 199/2/6 197/2/6 200/2/6
f 190/1/6 195/1/6 201/1/6
f 201/1/6 195/1/6 202/1/6
f 198/1/6 194/1/6 203/1/6
f 203/1/6 194/1/6 204/1/6
f 202/1/6 203/1/6 205/1/6
f 205/1/6 203/1/6 206/1/6
