# Blender 4.4.3
# www.blender.org
mtllib Untitled_048.mtl
o Untitled.048
v 0.019502 0.683817 0.123652
v -0.080498 0.683817 0.123652
v 0.019502 0.683817 0.023652
v -0.080498 0.683817 0.023652
v 0.019502 0.683817 -0.076348
v -0.080498 0.683817 -0.076348
v 0.119502 0.583817 0.123652
v 0.019502 0.583817 0.123652
v 0.119502 0.583817 0.023652
v 0.019502 0.583817 0.023652
v 0.119502 0.583817 -0.076348
v 0.019502 0.583817 -0.076348
v 0.219501 0.483817 0.123652
v 0.119502 0.483817 0.123652
v -0.080498 0.483817 0.123652
v -0.180498 0.483817 0.123652
v 0.219501 0.483817 0.023652
v 0.119502 0.483817 0.023652
v -0.080498 0.483817 0.023652
v -0.180498 0.483817 0.023652
v 0.219501 0.483817 -0.076348
v 0.119502 0.483817 -0.076348
v -0.080498 0.483817 -0.076348
v -0.180498 0.483817 -0.076348
v -0.180498 0.283817 0.123652
v -0.280499 0.283817 0.123652
v -0.180498 0.283817 0.023652
v -0.280499 0.283817 0.023652
v -0.180498 0.283817 -0.076348
v -0.280499 0.283817 -0.076348
v 0.319502 0.183817 0.123652
v 0.219501 0.183817 0.123652
v 0.319502 0.183817 0.023652
v 0.219501 0.183817 0.023652
v 0.319502 0.183817 -0.076348
v 0.219501 0.183817 -0.076348
v -0.280499 -0.016183 0.123652
v -0.380498 -0.016183 0.123652
v -0.280499 -0.016183 0.023652
v -0.380498 -0.016183 0.023652
v -0.280499 -0.016183 -0.076348
v -0.380498 -0.016183 -0.076348
v 0.419502 -0.216183 0.123652
v 0.319502 -0.216183 0.123652
v 0.419502 -0.216183 0.023652
v 0.319502 -0.216183 0.023652
v 0.419502 -0.216183 -0.076348
v 0.319502 -0.216183 -0.076348
v 0.519502 -0.416183 0.123652
v 0.419502 -0.416183 0.123652
v -0.380498 -0.416183 0.123652
v -0.480498 -0.416183 0.123652
v 0.519502 -0.416183 0.023652
v 0.419502 -0.416183 0.023652
v -0.380498 -0.416183 0.023652
v -0.480498 -0.416183 0.023652
v 0.519502 -0.416183 -0.076348
v 0.419502 -0.416183 -0.076348
v -0.380498 -0.416183 -0.076348
v -0.480498 -0.416183 -0.076348
v -0.480498 -0.516183 0.123652
v -0.580498 -0.516183 0.123652
v -0.480498 -0.516183 0.023652
v 0.519502 -0.516183 -0.076348
v -0.180498 -0.516183 -0.076348
v -0.380498 -0.516183 -0.076348
v -0.480498 -0.516183 -0.076348
v 0.519502 -0.516183 -0.176348
v -0.580498 -0.516183 -0.176348
v 0.519502 -0.716183 0.123652
v -0.580498 -0.716183 0.123652
v 0.519502 -0.716183 -0.176348
v -0.580498 -0.716183 -0.176348
v 0.519502 -0.416183 0.123652
v 0.519502 -0.416183 0.023652
v 0.519502 -0.416183 -0.076348
v 0.519502 -0.516183 0.123652
v 0.519502 -0.516183 0.023652
v 0.519502 -0.516183 -0.076348
v 0.519502 -0.516183 -0.176348
v 0.519502 -0.716183 0.123652
v 0.519502 -0.716183 -0.176348
v 0.419502 -0.216183 0.123652
v 0.419502 -0.216183 0.023652
v 0.419502 -0.216183 -0.076348
v 0.419502 -0.316183 0.023652
v 0.419502 -0.316183 -0.076348
v 0.419502 -0.416183 0.123652
v 0.419502 -0.416183 0.023652
v 0.419502 -0.416183 -0.076348
v 0.319502 0.183817 0.123652
v 0.319502 0.183817 0.023652
v 0.319502 0.183817 -0.076348
v 0.319502 0.083817 0.023652
v 0.319502 0.083817 -0.076348
v 0.319502 -0.016183 0.023652
v 0.319502 -0.016183 -0.076348
v 0.319502 -0.216183 0.123652
v 0.319502 -0.216183 0.023652
v 0.319502 -0.216183 -0.076348
v 0.219501 0.483817 0.123652
v 0.219501 0.483817 0.023652
v 0.219501 0.483817 -0.076348
v 0.219501 0.183817 0.123652
v 0.219501 0.183817 0.023652
v 0.219501 0.183817 -0.076348
v 0.119502 0.583817 0.123652
v 0.119502 0.583817 0.023652
v 0.119502 0.583817 -0.076348
v 0.119502 0.483817 0.123652
v 0.119502 0.483817 0.023652
v 0.119502 0.483817 -0.076348
v 0.019502 0.683817 0.123652
v 0.019502 0.683817 0.023652
v 0.019502 0.683817 -0.076348
v 0.019502 0.583817 0.123652
v 0.019502 0.583817 0.023652
v 0.019502 0.583817 -0.076348
v -0.080498 0.683817 0.123652
v -0.080498 0.683817 0.023652
v -0.080498 0.683817 -0.076348
v -0.080498 0.483817 0.123652
v -0.080498 0.483817 0.023652
v -0.080498 0.483817 -0.076348
v -0.180498 0.483817 0.123652
v -0.180498 0.483817 0.023652
v -0.180498 0.483817 -0.076348
v -0.180498 0.283817 0.123652
v -0.180498 0.283817 0.023652
v -0.180498 0.283817 -0.076348
v -0.280499 0.283817 0.123652
v -0.280499 0.283817 0.023652
v -0.280499 0.283817 -0.076348
v -0.280499 0.183817 0.023652
v -0.280499 0.183817 -0.076348
v -0.280499 -0.016183 0.123652
v -0.280499 -0.016183 0.023652
v -0.280499 -0.016183 -0.076348
v -0.380498 -0.016183 0.123652
v -0.380498 -0.016183 0.023652
v -0.380498 -0.016183 -0.076348
v -0.380498 -0.316183 0.023652
v -0.380498 -0.316183 -0.076348
v -0.380498 -0.416183 0.123652
v -0.380498 -0.416183 0.023652
v -0.380498 -0.416183 -0.076348
v -0.480498 -0.416183 0.123652
v -0.480498 -0.416183 0.023652
v -0.480498 -0.416183 -0.076348
v -0.480498 -0.516183 0.123652
v -0.480498 -0.516183 0.023652
v -0.480498 -0.516183 -0.076348
v -0.580498 -0.516183 0.123652
v -0.580498 -0.516183 -0.176348
v -0.580498 -0.716183 0.123652
v -0.580498 -0.716183 -0.176348
v 0.519502 -0.416183 0.123652
v 0.519502 -0.516183 0.123652
v 0.519502 -0.716183 0.123652
v 0.419502 -0.216183 0.123652
v 0.419502 -0.416183 0.123652
v 0.319502 0.183817 0.123652
v 0.319502 -0.216183 0.123652
v 0.219501 0.483817 0.123652
v 0.219501 0.183817 0.123652
v 0.119502 0.583817 0.123652
v 0.119502 0.483817 0.123652
v 0.019502 0.683817 0.123652
v 0.019502 0.583817 0.123652
v -0.080498 0.683817 0.123652
v -0.080498 0.483817 0.123652
v -0.180498 0.483817 0.123652
v -0.180498 0.283817 0.123652
v -0.280499 0.283817 0.123652
v -0.280499 -0.016183 0.123652
v -0.380498 -0.016183 0.123652
v -0.380498 -0.416183 0.123652
v -0.480498 -0.416183 0.123652
v -0.480498 -0.516183 0.123652
v -0.580498 -0.516183 0.123652
v -0.580498 -0.716183 0.123652
v 0.519502 -0.416183 -0.076348
v 0.519502 -0.516183 -0.076348
v 0.419502 -0.216183 -0.076348
v 0.419502 -0.316183 -0.076348
v 0.419502 -0.416183 -0.076348
v 0.319502 0.183817 -0.076348
v 0.319502 0.083817 -0.076348
v 0.319502 -0.016183 -0.076348
v 0.319502 -0.216183 -0.076348
v 0.219501 0.483817 -0.076348
v 0.219501 0.183817 -0.076348
v 0.219501 -0.016183 -0.076348
v 0.219501 -0.316183 -0.076348
v 0.219501 -0.416183 -0.076348
v 0.119502 0.583817 -0.076348
v 0.119502 0.483817 -0.076348
v 0.119502 0.383817 -0.076348
v 0.119502 0.183817 -0.076348
v 0.119502 0.083817 -0.076348
v 0.119502 -0.016183 -0.076348
v 0.119502 -0.316183 -0.076348
v 0.119502 -0.416183 -0.076348
v 0.019502 0.683817 -0.076348
v 0.019502 0.583817 -0.076348
v 0.019502 0.083817 -0.076348
v 0.019502 -0.016183 -0.076348
v 0.019502 -0.116183 -0.076348
v 0.019502 -0.216183 -0.076348
v 0.019502 -0.316183 -0.076348
v 0.019502 -0.416183 -0.076348
v -0.080498 0.683817 -0.076348
v -0.080498 0.483817 -0.076348
v -0.080498 0.383817 -0.076348
v -0.080498 0.283817 -0.076348
v -0.080498 0.183817 -0.076348
v -0.080498 0.083817 -0.076348
v -0.080498 -0.116183 -0.076348
v -0.080498 -0.216183 -0.076348
v -0.080498 -0.316183 -0.076348
v -0.180498 0.483817 -0.076348
v -0.180498 0.283817 -0.076348
v -0.180498 -0.116183 -0.076348
v -0.180498 -0.216183 -0.076348
v -0.180498 -0.316183 -0.076348
v -0.180498 -0.516183 -0.076348
v -0.280499 0.283817 -0.076348
v -0.280499 0.183817 -0.076348
v -0.280499 -0.016183 -0.076348
v -0.280499 -0.116183 -0.076348
v -0.280499 -0.216183 -0.076348
v -0.380498 -0.016183 -0.076348
v -0.380498 -0.316183 -0.076348
v -0.380498 -0.416183 -0.076348
v -0.380498 -0.516183 -0.076348
v -0.480498 -0.416183 -0.076348
v -0.480498 -0.516183 -0.076348
v 0.519502 -0.516183 -0.176348
v 0.519502 -0.716183 -0.176348
v -0.580498 -0.516183 -0.176348
v -0.580498 -0.716183 -0.176348
vn -0.0000 1.0000 -0.0000
vn -0.0000 -1.0000 -0.0000
vn 1.0000 -0.0000 -0.0000
vn -1.0000 -0.0000 -0.0000
vn -0.0000 -0.0000 1.0000
vn -0.0000 -0.0000 -1.0000
vt 0.033203 0.500000
vt 0.064453 0.500000
vt 0.939453 0.500000
vt 0.548828 0.500000
vt 0.767578 0.500000
vt 0.908203 0.500000
vt 0.044922 0.500000
vt 0.986328 0.500000
s 1
usemtl palette.190
f 3/1/1 2/1/1 1/1/1
f 4/1/1 2/1/1 3/1/1
f 5/2/1 4/2/1 3/2/1
f 6/2/1 4/2/1 5/2/1
f 9/1/1 8/1/1 7/1/1
f 10/1/1 8/1/1 9/1/1
f 11/2/1 10/2/1 9/2/1
f 12/2/1 10/2/1 11/2/1
f 17/1/1 14/1/1 13/1/1
f 18/1/1 14/1/1 17/1/1
f 19/1/1 16/1/1 15/1/1
f 20/1/1 16/1/1 19/1/1
f 21/2/1 18/2/1 17/2/1
f 22/2/1 18/2/1 21/2/1
f 23/2/1 20/2/1 19/2/1
f 24/2/1 20/2/1 23/2/1
f 27/1/1 26/1/1 25/1/1
f 28/1/1 26/1/1 27/1/1
f 29/3/1 28/3/1 27/3/1
f 30/3/1 28/3/1 29/3/1
f 33/1/1 32/1/1 31/1/1
f 34/1/1 32/1/1 33/1/1
f 35/2/1 34/2/1 33/2/1
f 36/2/1 34/2/1 35/2/1
f 39/1/1 38/1/1 37/1/1
f 40/1/1 38/1/1 39/1/1
f 41/2/1 40/2/1 39/2/1
f 42/2/1 40/2/1 41/2/1
f 45/1/1 44/1/1 43/1/1
f 46/1/1 44/1/1 45/1/1
f 47/2/1 46/2/1 45/2/1
f 48/2/1 46/2/1 47/2/1
f 53/1/1 50/1/1 49/1/1
f 54/1/1 50/1/1 53/1/1
f 55/1/1 52/1/1 51/1/1
f 56/1/1 52/1/1 55/1/1
f 57/2/1 54/2/1 53/2/1
f 58/2/1 54/2/1 57/2/1
f 59/2/1 56/2/1 55/2/1
f 60/2/1 56/2/1 59/2/1
f 63/4/1 62/4/1 61/4/1
f 67/4/1 62/4/1 63/4/1
f 68/4/1 66/4/1 65/4/1
f 68/4/1 67/4/1 66/4/1
f 68/4/1 65/4/1 64/4/1
f 69/4/1 62/4/1 67/4/1
f 69/4/1 67/4/1 68/4/1
f 70/4/2 71/4/2 72/4/2
f 72/4/2 71/4/2 73/4/2
f 77/1/3 75/1/3 74/1/3
f 78/2/3 76/2/3 75/2/3
f 78/1/3 75/1/3 77/1/3
f 79/2/3 76/2/3 78/2/3
f 81/4/3 78/4/3 77/4/3
f 81/4/3 80/4/3 79/4/3
f 81/4/3 79/4/3 78/4/3
f 82/4/3 80/4/3 81/4/3
f 86/1/3 84/1/3 83/1/3
f 86/2/3 85/2/3 84/2/3
f 87/2/3 85/2/3 86/2/3
f 88/1/3 86/1/3 83/1/3
f 89/5/3 87/5/3 86/5/3
f 89/1/3 86/1/3 88/1/3
f 90/5/3 87/5/3 89/5/3
f 94/1/3 92/1/3 91/1/3
f 94/2/3 93/2/3 92/2/3
f 95/2/3 93/2/3 94/2/3
f 96/1/3 94/1/3 91/1/3
f 96/3/3 95/3/3 94/3/3
f 97/3/3 95/3/3 96/3/3
f 98/1/3 96/1/3 91/1/3
f 99/2/3 97/2/3 96/2/3
f 99/1/3 96/1/3 98/1/3
f 100/2/3 97/2/3 99/2/3
f 104/1/3 102/1/3 101/1/3
f 105/2/3 103/2/3 102/2/3
f 105/1/3 102/1/3 104/1/3
f 106/2/3 103/2/3 105/2/3
f 110/1/3 108/1/3 107/1/3
f 111/2/3 109/2/3 108/2/3
f 111/1/3 108/1/3 110/1/3
f 112/2/3 109/2/3 111/2/3
f 116/1/3 114/1/3 113/1/3
f 117/2/3 115/2/3 114/2/3
f 117/1/3 114/1/3 116/1/3
f 118/2/3 115/2/3 117/2/3
f 119/1/4 120/1/4 122/1/4
f 120/2/4 121/2/4 123/2/4
f 122/1/4 120/1/4 123/1/4
f 123/2/4 121/2/4 124/2/4
f 125/1/4 126/1/4 128/1/4
f 126/2/4 127/2/4 129/2/4
f 128/1/4 126/1/4 129/1/4
f 129/2/4 127/2/4 130/2/4
f 131/1/4 132/1/4 134/1/4
f 132/3/4 133/3/4 134/3/4
f 134/3/4 133/3/4 135/3/4
f 131/1/4 134/1/4 136/1/4
f 134/2/4 135/2/4 137/2/4
f 136/1/4 134/1/4 137/1/4
f 137/2/4 135/2/4 138/2/4
f 139/1/4 140/1/4 142/1/4
f 140/2/4 141/2/4 142/2/4
f 142/2/4 141/2/4 143/2/4
f 139/1/4 142/1/4 144/1/4
f 142/6/4 143/6/4 145/6/4
f 144/1/4 142/1/4 145/1/4
f 145/6/4 143/6/4 146/6/4
f 147/1/4 148/1/4 150/1/4
f 148/2/4 149/2/4 151/2/4
f 150/1/4 148/1/4 151/1/4
f 151/2/4 149/2/4 152/2/4
f 153/4/4 154/4/4 155/4/4
f 155/4/4 154/4/4 156/4/4
f 161/1/5 158/1/5 157/1/5
f 163/1/5 161/1/5 160/1/5
f 165/1/5 163/1/5 162/1/5
f 167/1/5 165/1/5 164/1/5
f 169/1/5 167/1/5 166/1/5
f 170/1/5 169/1/5 168/1/5
f 171/1/5 165/1/5 167/1/5
f 171/1/5 169/1/5 170/1/5
f 171/1/5 167/1/5 169/1/5
f 172/1/5 165/1/5 171/1/5
f 173/1/5 165/1/5 172/1/5
f 174/1/5 165/1/5 173/1/5
f 175/1/5 163/1/5 165/1/5
f 175/1/5 165/1/5 174/1/5
f 176/1/5 163/1/5 175/1/5
f 177/1/5 158/1/5 161/1/5
f 177/1/5 163/1/5 176/1/5
f 177/1/5 161/1/5 163/1/5
f 178/1/5 158/1/5 177/1/5
f 179/4/5 159/4/5 158/4/5
f 179/1/5 158/1/5 178/1/5
f 180/4/5 159/4/5 179/4/5
f 181/4/5 159/4/5 180/4/5
f 182/2/6 183/2/6 186/2/6
f 184/2/6 185/2/6 190/2/6
f 187/2/6 188/2/6 192/2/6
f 188/3/6 189/3/6 193/3/6
f 189/2/6 190/2/6 193/2/6
f 185/5/6 186/5/6 194/5/6
f 193/2/6 190/2/6 194/2/6
f 190/2/6 185/2/6 194/2/6
f 186/2/6 183/2/6 195/2/6
f 194/5/6 186/5/6 195/5/6
f 191/2/6 192/2/6 197/2/6
f 197/2/6 192/2/6 198/2/6
f 192/2/6 188/2/6 199/2/6
f 198/2/6 192/2/6 199/2/6
f 188/3/6 193/3/6 200/3/6
f 199/2/6 188/2/6 200/2/6
f 193/6/6 194/6/6 201/6/6
f 200/3/6 193/3/6 201/3/6
f 194/2/6 195/2/6 202/2/6
f 201/6/6 194/6/6 202/6/6
f 195/2/6 183/2/6 203/2/6
f 202/2/6 195/2/6 203/2/6
f 197/2/6 198/2/6 205/2/6
f 196/2/6 197/2/6 205/2/6
f 199/2/6 200/2/6 206/2/6
f 200/2/6 201/2/6 206/2/6
f 201/6/6 202/6/6 207/6/6
f 206/2/6 201/2/6 207/2/6
f 207/6/6 202/6/6 208/6/6
f 208/6/6 202/6/6 209/6/6
f 202/3/6 203/3/6 210/3/6
f 209/6/6 202/6/6 210/6/6
f 203/2/6 183/2/6 211/2/6
f 210/3/6 203/3/6 211/3/6
f 204/2/6 205/2/6 212/2/6
f 205/2/6 198/2/6 213/2/6
f 212/2/6 205/2/6 213/2/6
f 198/6/6 199/6/6 214/6/6
f 213/2/6 198/2/6 214/2/6
f 214/6/6 199/6/6 215/6/6
f 199/2/6 206/2/6 216/2/6
f 215/6/6 199/6/6 216/6/6
f 206/5/6 207/5/6 217/5/6
f 216/2/6 206/2/6 217/2/6
f 207/5/6 208/5/6 217/5/6
f 208/7/6 209/7/6 218/7/6
f 217/5/6 208/5/6 218/5/6
f 209/3/6 210/3/6 219/3/6
f 218/7/6 209/7/6 219/7/6
f 210/2/6 211/2/6 220/2/6
f 219/3/6 210/3/6 220/3/6
f 214/2/6 215/2/6 221/2/6
f 213/2/6 214/2/6 221/2/6
f 215/3/6 216/3/6 222/3/6
f 221/2/6 215/2/6 222/2/6
f 217/2/6 218/2/6 223/2/6
f 216/2/6 217/2/6 223/2/6
f 218/2/6 219/2/6 223/2/6
f 219/8/6 220/8/6 224/8/6
f 223/2/6 219/2/6 224/2/6
f 220/2/6 211/2/6 225/2/6
f 224/8/6 220/8/6 225/8/6
f 211/2/6 183/2/6 226/2/6
f 225/2/6 211/2/6 226/2/6
f 222/3/6 216/3/6 227/3/6
f 216/2/6 223/2/6 228/2/6
f 227/3/6 216/3/6 228/3/6
f 228/2/6 223/2/6 229/2/6
f 223/7/6 224/7/6 230/7/6
f 229/2/6 223/2/6 230/2/6
f 224/2/6 225/2/6 231/2/6
f 230/7/6 224/7/6 231/7/6
f 229/2/6 230/2/6 232/2/6
f 230/2/6 231/2/6 232/2/6
f 231/2/6 225/2/6 233/2/6
f 232/2/6 231/2/6 233/2/6
f 225/6/6 226/6/6 233/6/6
f 233/6/6 226/6/6 234/6/6
f 234/6/6 226/6/6 235/6/6
f 234/2/6 235/2/6 236/2/6
f 236/2/6 235/2/6 237/2/6
f 238/4/6 239/4/6 240/4/6
f 240/4/6 239/4/6 241/4/6
