# Blender 4.4.3
# www.blender.org
mtllib Untitled_079.mtl
o Untitled.079
v 0.800002 0.050000 0.050000
v 0.700003 0.050000 0.050000
v 0.600002 0.050000 0.050000
v -0.599998 0.050000 0.050000
v -0.699998 0.050000 0.050000
v -0.799997 0.050000 0.050000
v 0.800002 0.050000 -0.050000
v 0.700003 0.050000 -0.050000
v 0.600002 0.050000 -0.050000
v -0.599998 0.050000 -0.050000
v -0.699998 0.050000 -0.050000
v -0.799997 0.050000 -0.050000
v 0.800002 -0.050000 0.050000
v 0.700003 -0.050000 0.050000
v 0.600002 -0.050000 0.050000
v -0.599998 -0.050000 0.050000
v -0.699998 -0.050000 0.050000
v -0.799997 -0.050000 0.050000
v 0.800002 -0.050000 -0.050000
v 0.700003 -0.050000 -0.050000
v 0.600002 -0.050000 -0.050000
v -0.599998 -0.050000 -0.050000
v -0.699998 -0.050000 -0.050000
v -0.799997 -0.050000 -0.050000
v 0.800002 0.050000 0.050000
v 0.800002 0.050000 -0.050000
v 0.800002 -0.050000 0.050000
v 0.800002 -0.050000 -0.050000
v -0.799997 0.050000 0.050000
v -0.799997 0.050000 -0.050000
v -0.799997 -0.050000 0.050000
v -0.799997 -0.050000 -0.050000
v 0.800002 0.050000 0.050000
v 0.800002 -0.050000 0.050000
v 0.700003 0.050000 0.050000
v 0.700003 -0.050000 0.050000
v 0.600002 0.050000 0.050000
v 0.600002 -0.050000 0.050000
v -0.599998 0.050000 0.050000
v -0.599998 -0.050000 0.050000
v -0.699998 0.050000 0.050000
v -0.699998 -0.050000 0.050000
v -0.799997 0.050000 0.050000
v -0.799997 -0.050000 0.050000
v 0.800002 0.050000 -0.050000
v 0.800002 -0.050000 -0.050000
v 0.700003 0.050000 -0.050000
v 0.700003 -0.050000 -0.050000
v 0.600002 0.050000 -0.050000
v 0.600002 -0.050000 -0.050000
v -0.599998 0.050000 -0.050000
v -0.599998 -0.050000 -0.050000
v -0.699998 0.050000 -0.050000
v -0.699998 -0.050000 -0.050000
v -0.799997 0.050000 -0.050000
v -0.799997 -0.050000 -0.050000
vn -0.0000 1.0000 -0.0000
vn -0.0000 -1.0000 -0.0000
vn 1.0000 -0.0000 -0.0000
vn -1.0000 -0.0000 -0.0000
vn -0.0000 -0.0000 1.0000
vn -0.0000 -0.0000 -1.0000
vt 0.994141 0.500000
vt 0.056641 0.500000
vt 0.041016 0.500000
vt 0.986328 0.500000
vt 0.939453 0.500000
s 1
usemtl palette.234
f 7/1/1 2/1/1 1/1/1
f 8/2/1 3/2/1 2/2/1
f 8/1/1 2/1/1 7/1/1
f 9/3/1 4/3/1 3/3/1
f 9/2/1 3/2/1 8/2/1
f 10/4/1 5/4/1 4/4/1
f 10/3/1 4/3/1 9/3/1
f 11/5/1 6/5/1 5/5/1
f 11/4/1 5/4/1 10/4/1
f 12/5/1 6/5/1 11/5/1
f 13/1/2 14/1/2 19/1/2
f 14/2/2 15/2/2 20/2/2
f 19/1/2 14/1/2 20/1/2
f 15/3/2 16/3/2 21/3/2
f 20/2/2 15/2/2 21/2/2
f 16/4/2 17/4/2 22/4/2
f 21/3/2 16/3/2 22/3/2
f 17/5/2 18/5/2 23/5/2
f 22/4/2 17/4/2 23/4/2
f 23/5/2 18/5/2 24/5/2
f 27/1/3 26/1/3 25/1/3
f 28/1/3 26/1/3 27/1/3
f 29/5/4 30/5/4 31/5/4
f 31/5/4 30/5/4 32/5/4
f 35/1/5 34/1/5 33/1/5
f 36/1/5 34/1/5 35/1/5
f 37/2/5 36/2/5 35/2/5
f 38/2/5 36/2/5 37/2/5
f 39/3/5 38/3/5 37/3/5
f 40/3/5 38/3/5 39/3/5
f 41/4/5 40/4/5 39/4/5
f 42/4/5 40/4/5 41/4/5
f 43/5/5 42/5/5 41/5/5
f 44/5/5 42/5/5 43/5/5
f 45/1/6 46/1/6 47/1/6
f 47/1/6 46/1/6 48/1/6
f 47/2/6 48/2/6 49/2/6
f 49/2/6 48/2/6 50/2/6
f 49/3/6 50/3/6 51/3/6
f 51/3/6 50/3/6 52/3/6
f 51/4/6 52/4/6 53/4/6
f 53/4/6 52/4/6 54/4/6
f 53/5/6 54/5/6 55/5/6
f 55/5/6 54/5/6 56/5/6
