# Blender 4.4.3
# www.blender.org
mtllib Untitled_035.mtl
o Untitled.035
v -0.955565 0.606790 0.050000
v -0.955565 -0.493210 0.050000
v -0.955565 0.606790 -0.050000
v -0.955565 -0.493210 -0.050000
v -0.855565 -0.493210 0.050000
v -0.855565 -0.593210 0.050000
v -0.855565 -0.493210 -0.050000
v -0.855565 -0.593210 -0.050000
v -0.455565 0.506790 0.050000
v -0.455565 0.406790 0.050000
v -0.455565 0.506790 -0.050000
v -0.455565 0.406790 -0.050000
v -0.355565 0.106790 0.050000
v -0.355565 0.006790 0.050000
v -0.355565 -0.093210 0.050000
v -0.355565 -0.193210 0.050000
v -0.355565 0.106790 -0.050000
v -0.355565 0.006790 -0.050000
v -0.355565 -0.093210 -0.050000
v -0.355565 -0.193210 -0.050000
v -0.255565 0.006790 0.050000
v -0.255565 -0.093210 0.050000
v -0.255565 0.006790 -0.050000
v -0.255565 -0.093210 -0.050000
v 0.144435 0.106790 0.050000
v 0.144435 -0.193210 0.050000
v 0.144435 0.106790 -0.050000
v 0.144435 -0.193210 -0.050000
v 0.444435 0.106790 0.050000
v 0.444435 0.006790 0.050000
v 0.444435 -0.093210 0.050000
v 0.444435 -0.193210 0.050000
v 0.444435 0.106790 -0.050000
v 0.444435 0.006790 -0.050000
v 0.444435 -0.093210 -0.050000
v 0.444435 -0.193210 -0.050000
v 0.544435 0.506790 0.050000
v 0.544435 0.406790 0.050000
v 0.544435 0.006790 0.050000
v 0.544435 -0.093210 0.050000
v 0.544435 0.506790 -0.050000
v 0.544435 0.406790 -0.050000
v 0.544435 0.006790 -0.050000
v 0.544435 -0.093210 -0.050000
v -0.555565 0.506790 0.050000
v -0.555565 0.406790 0.050000
v -0.555565 0.006790 0.050000
v -0.555565 -0.093210 0.050000
v -0.555565 0.506790 -0.050000
v -0.555565 0.406790 -0.050000
v -0.555565 0.006790 -0.050000
v -0.555565 -0.093210 -0.050000
v -0.455565 0.106790 0.050000
v -0.455565 0.006790 0.050000
v -0.455565 -0.093210 0.050000
v -0.455565 -0.193210 0.050000
v -0.455565 0.106790 -0.050000
v -0.455565 0.006790 -0.050000
v -0.455565 -0.093210 -0.050000
v -0.455565 -0.193210 -0.050000
v 0.044435 0.106790 0.050000
v 0.044435 -0.193210 0.050000
v 0.044435 0.106790 -0.050000
v 0.044435 -0.193210 -0.050000
v 0.244435 0.006790 0.050000
v 0.244435 -0.093210 0.050000
v 0.244435 0.006790 -0.050000
v 0.244435 -0.093210 -0.050000
v 0.344435 0.106790 0.050000
v 0.344435 0.006790 0.050000
v 0.344435 -0.093210 0.050000
v 0.344435 -0.193210 0.050000
v 0.344435 0.106790 -0.050000
v 0.344435 0.006790 -0.050000
v 0.344435 -0.093210 -0.050000
v 0.344435 -0.193210 -0.050000
v 0.444435 0.506790 0.050000
v 0.444435 0.406790 0.050000
v 0.444435 0.506790 -0.050000
v 0.444435 0.406790 -0.050000
v 0.844435 -0.493210 0.050000
v 0.844435 -0.593210 0.050000
v 0.844435 -0.493210 -0.050000
v 0.844435 -0.593210 -0.050000
v 0.944435 0.606790 0.050000
v 0.944435 -0.493210 0.050000
v 0.944435 0.606790 -0.050000
v 0.944435 -0.493210 -0.050000
v -0.955565 0.606790 0.050000
v -0.955565 0.606790 -0.050000
v 0.944435 0.606790 0.050000
v 0.944435 0.606790 -0.050000
v -0.555565 0.406790 0.050000
v -0.555565 0.406790 -0.050000
v -0.455565 0.406790 0.050000
v -0.455565 0.406790 -0.050000
v 0.444435 0.406790 0.050000
v 0.444435 0.406790 -0.050000
v 0.544435 0.406790 0.050000
v 0.544435 0.406790 -0.050000
v -0.555565 -0.093210 0.050000
v -0.555565 -0.093210 -0.050000
v -0.455565 -0.093210 0.050000
v -0.455565 -0.093210 -0.050000
v -0.355565 -0.093210 0.050000
v -0.355565 -0.093210 -0.050000
v -0.255565 -0.093210 0.050000
v -0.255565 -0.093210 -0.050000
v 0.244435 -0.093210 0.050000
v 0.244435 -0.093210 -0.050000
v 0.344435 -0.093210 0.050000
v 0.344435 -0.093210 -0.050000
v 0.444435 -0.093210 0.050000
v 0.444435 -0.093210 -0.050000
v 0.544435 -0.093210 0.050000
v 0.544435 -0.093210 -0.050000
v -0.455565 -0.193210 0.050000
v -0.455565 -0.193210 -0.050000
v -0.355565 -0.193210 0.050000
v -0.355565 -0.193210 -0.050000
v 0.044435 -0.193210 0.050000
v 0.044435 -0.193210 -0.050000
v 0.144435 -0.193210 0.050000
v 0.144435 -0.193210 -0.050000
v 0.344435 -0.193210 0.050000
v 0.344435 -0.193210 -0.050000
v 0.444435 -0.193210 0.050000
v 0.444435 -0.193210 -0.050000
v -0.555565 0.506790 0.050000
v -0.555565 0.506790 -0.050000
v -0.455565 0.506790 0.050000
v -0.455565 0.506790 -0.050000
v 0.444435 0.506790 0.050000
v 0.444435 0.506790 -0.050000
v 0.544435 0.506790 0.050000
v 0.544435 0.506790 -0.050000
v -0.455565 0.106790 0.050000
v -0.455565 0.106790 -0.050000
v -0.355565 0.106790 0.050000
v -0.355565 0.106790 -0.050000
v 0.044435 0.106790 0.050000
v 0.044435 0.106790 -0.050000
v 0.144435 0.106790 0.050000
v 0.144435 0.106790 -0.050000
v 0.344435 0.106790 0.050000
v 0.344435 0.106790 -0.050000
v 0.444435 0.106790 0.050000
v 0.444435 0.106790 -0.050000
v -0.555565 0.006790 0.050000
v -0.555565 0.006790 -0.050000
v -0.455565 0.006790 0.050000
v -0.455565 0.006790 -0.050000
v -0.355565 0.006790 0.050000
v -0.355565 0.006790 -0.050000
v -0.255565 0.006790 0.050000
v -0.255565 0.006790 -0.050000
v 0.244435 0.006790 0.050000
v 0.244435 0.006790 -0.050000
v 0.344435 0.006790 0.050000
v 0.344435 0.006790 -0.050000
v 0.444435 0.006790 0.050000
v 0.444435 0.006790 -0.050000
v 0.544435 0.006790 0.050000
v 0.544435 0.006790 -0.050000
v -0.955565 -0.493210 0.050000
v -0.955565 -0.493210 -0.050000
v -0.855565 -0.493210 0.050000
v -0.855565 -0.493210 -0.050000
v 0.844435 -0.493210 0.050000
v 0.844435 -0.493210 -0.050000
v 0.944435 -0.493210 0.050000
v 0.944435 -0.493210 -0.050000
v -0.855565 -0.593210 0.050000
v -0.855565 -0.593210 -0.050000
v 0.844435 -0.593210 0.050000
v 0.844435 -0.593210 -0.050000
v -0.955565 0.606790 0.050000
v 0.944435 0.606790 0.050000
v -0.555565 0.506790 0.050000
v -0.455565 0.506790 0.050000
v 0.444435 0.506790 0.050000
v 0.544435 0.506790 0.050000
v -0.555565 0.406790 0.050000
v -0.455565 0.406790 0.050000
v 0.444435 0.406790 0.050000
v 0.544435 0.406790 0.050000
v -0.755565 0.306790 0.050000
v 0.744435 0.306790 0.050000
v -0.755565 0.206790 0.050000
v -0.655565 0.206790 0.050000
v 0.644435 0.206790 0.050000
v 0.744435 0.206790 0.050000
v -0.755565 0.106790 0.050000
v -0.655565 0.106790 0.050000
v -0.455565 0.106790 0.050000
v -0.355565 0.106790 0.050000
v -0.155565 0.106790 0.050000
v 0.044435 0.106790 0.050000
v 0.144435 0.106790 0.050000
v 0.344435 0.106790 0.050000
v 0.444435 0.106790 0.050000
v 0.644435 0.106790 0.050000
v 0.744435 0.106790 0.050000
v -0.755565 0.006790 0.050000
v -0.655565 0.006790 0.050000
v -0.555565 0.006790 0.050000
v -0.455565 0.006790 0.050000
v -0.355565 0.006790 0.050000
v -0.255565 0.006790 0.050000
v 0.244435 0.006790 0.050000
v 0.344435 0.006790 0.050000
v 0.444435 0.006790 0.050000
v 0.544435 0.006790 0.050000
v 0.644435 0.006790 0.050000
v 0.744435 0.006790 0.050000
v -0.755565 -0.093210 0.050000
v -0.655565 -0.093210 0.050000
v -0.555565 -0.093210 0.050000
v -0.455565 -0.093210 0.050000
v -0.355565 -0.093210 0.050000
v -0.255565 -0.093210 0.050000
v 0.244435 -0.093210 0.050000
v 0.344435 -0.093210 0.050000
v 0.444435 -0.093210 0.050000
v 0.544435 -0.093210 0.050000
v 0.644435 -0.093210 0.050000
v 0.744435 -0.093210 0.050000
v -0.755565 -0.193210 0.050000
v -0.655565 -0.193210 0.050000
v -0.455565 -0.193210 0.050000
v -0.355565 -0.193210 0.050000
v -0.155565 -0.193210 0.050000
v 0.044435 -0.193210 0.050000
v 0.144435 -0.193210 0.050000
v 0.344435 -0.193210 0.050000
v 0.444435 -0.193210 0.050000
v 0.644435 -0.193210 0.050000
v 0.744435 -0.193210 0.050000
v -0.755565 -0.293210 0.050000
v -0.655565 -0.293210 0.050000
v 0.644435 -0.293210 0.050000
v 0.744435 -0.293210 0.050000
v -0.955565 -0.493210 0.050000
v -0.855565 -0.493210 0.050000
v -0.755565 -0.493210 0.050000
v 0.744435 -0.493210 0.050000
v 0.844435 -0.493210 0.050000
v 0.944435 -0.493210 0.050000
v -0.855565 -0.593210 0.050000
v 0.844435 -0.593210 0.050000
v -0.955565 0.606790 -0.050000
v 0.944435 0.606790 -0.050000
v -0.555565 0.506790 -0.050000
v -0.455565 0.506790 -0.050000
v 0.444435 0.506790 -0.050000
v 0.544435 0.506790 -0.050000
v -0.555565 0.406790 -0.050000
v -0.455565 0.406790 -0.050000
v 0.444435 0.406790 -0.050000
v 0.544435 0.406790 -0.050000
v -0.755565 0.306790 -0.050000
v 0.744435 0.306790 -0.050000
v -0.755565 0.206790 -0.050000
v -0.655565 0.206790 -0.050000
v 0.644435 0.206790 -0.050000
v 0.744435 0.206790 -0.050000
v -0.755565 0.106790 -0.050000
v -0.655565 0.106790 -0.050000
v -0.455565 0.106790 -0.050000
v -0.355565 0.106790 -0.050000
v -0.155565 0.106790 -0.050000
v 0.044435 0.106790 -0.050000
v 0.144435 0.106790 -0.050000
v 0.344435 0.106790 -0.050000
v 0.444435 0.106790 -0.050000
v 0.644435 0.106790 -0.050000
v 0.744435 0.106790 -0.050000
v -0.755565 0.006790 -0.050000
v -0.655565 0.006790 -0.050000
v -0.555565 0.006790 -0.050000
v -0.455565 0.006790 -0.050000
v -0.355565 0.006790 -0.050000
v -0.255565 0.006790 -0.050000
v 0.244435 0.006790 -0.050000
v 0.344435 0.006790 -0.050000
v 0.444435 0.006790 -0.050000
v 0.544435 0.006790 -0.050000
v 0.644435 0.006790 -0.050000
v 0.744435 0.006790 -0.050000
v -0.755565 -0.093210 -0.050000
v -0.655565 -0.093210 -0.050000
v -0.555565 -0.093210 -0.050000
v -0.455565 -0.093210 -0.050000
v -0.355565 -0.093210 -0.050000
v -0.255565 -0.093210 -0.050000
v 0.244435 -0.093210 -0.050000
v 0.344435 -0.093210 -0.050000
v 0.444435 -0.093210 -0.050000
v 0.544435 -0.093210 -0.050000
v 0.644435 -0.093210 -0.050000
v 0.744435 -0.093210 -0.050000
v -0.755565 -0.193210 -0.050000
v -0.655565 -0.193210 -0.050000
v -0.455565 -0.193210 -0.050000
v -0.355565 -0.193210 -0.050000
v -0.155565 -0.193210 -0.050000
v 0.044435 -0.193210 -0.050000
v 0.144435 -0.193210 -0.050000
v 0.344435 -0.193210 -0.050000
v 0.444435 -0.193210 -0.050000
v 0.644435 -0.193210 -0.050000
v 0.744435 -0.193210 -0.050000
v -0.755565 -0.293210 -0.050000
v -0.655565 -0.293210 -0.050000
v 0.644435 -0.293210 -0.050000
v 0.744435 -0.293210 -0.050000
v -0.955565 -0.493210 -0.050000
v -0.855565 -0.493210 -0.050000
v -0.755565 -0.493210 -0.050000
v 0.744435 -0.493210 -0.050000
v 0.844435 -0.493210 -0.050000
v 0.944435 -0.493210 -0.050000
v -0.855565 -0.593210 -0.050000
v 0.844435 -0.593210 -0.050000
vn -1.0000 -0.0000 -0.0000
vn 1.0000 -0.0000 -0.0000
vn -0.0000 1.0000 -0.0000
vn -0.0000 -1.0000 -0.0000
vn -0.0000 -0.0000 1.0000
vn -0.0000 -0.0000 -1.0000
vt 0.994141 0.500000
vt 0.533203 0.500000
vt 0.947266 0.500000
vt 0.986328 0.500000
vt 0.970703 0.500000
s 1
usemtl palette.164
f 3/1/1 2/1/1 1/1/1
f 4/1/1 2/1/1 3/1/1
f 7/1/1 6/1/1 5/1/1
f 8/1/1 6/1/1 7/1/1
f 11/1/1 10/1/1 9/1/1
f 12/1/1 10/1/1 11/1/1
f 17/1/1 14/1/1 13/1/1
f 18/1/1 14/1/1 17/1/1
f 19/1/1 16/1/1 15/1/1
f 20/1/1 16/1/1 19/1/1
f 23/1/1 22/1/1 21/1/1
f 24/1/1 22/1/1 23/1/1
f 27/1/1 26/1/1 25/1/1
f 28/1/1 26/1/1 27/1/1
f 33/1/1 30/1/1 29/1/1
f 34/1/1 30/1/1 33/1/1
f 35/1/1 32/1/1 31/1/1
f 36/1/1 32/1/1 35/1/1
f 41/1/1 38/1/1 37/1/1
f 42/1/1 38/1/1 41/1/1
f 43/1/1 40/1/1 39/1/1
f 44/1/1 40/1/1 43/1/1
f 45/1/2 46/1/2 49/1/2
f 49/1/2 46/1/2 50/1/2
f 47/1/2 48/1/2 51/1/2
f 51/1/2 48/1/2 52/1/2
f 53/1/2 54/1/2 57/1/2
f 57/1/2 54/1/2 58/1/2
f 55/1/2 56/1/2 59/1/2
f 59/1/2 56/1/2 60/1/2
f 61/2/2 62/2/2 63/2/2
f 63/2/2 62/2/2 64/2/2
f 65/1/2 66/1/2 67/1/2
f 67/1/2 66/1/2 68/1/2
f 69/1/2 70/1/2 73/1/2
f 73/1/2 70/1/2 74/1/2
f 71/1/2 72/1/2 75/1/2
f 75/1/2 72/1/2 76/1/2
f 77/1/2 78/1/2 79/1/2
f 79/1/2 78/1/2 80/1/2
f 81/1/2 82/1/2 83/1/2
f 83/1/2 82/1/2 84/1/2
f 85/1/2 86/1/2 87/1/2
f 87/1/2 86/1/2 88/1/2
f 91/1/3 90/1/3 89/1/3
f 92/1/3 90/1/3 91/1/3
f 95/1/3 94/1/3 93/1/3
f 96/1/3 94/1/3 95/1/3
f 99/1/3 98/1/3 97/1/3
f 100/1/3 98/1/3 99/1/3
f 103/1/3 102/1/3 101/1/3
f 104/1/3 102/1/3 103/1/3
f 107/1/3 106/1/3 105/1/3
f 108/1/3 106/1/3 107/1/3
f 111/1/3 110/1/3 109/1/3
f 112/1/3 110/1/3 111/1/3
f 115/1/3 114/1/3 113/1/3
f 116/1/3 114/1/3 115/1/3
f 119/1/3 118/1/3 117/1/3
f 120/1/3 118/1/3 119/1/3
f 123/1/3 122/1/3 121/1/3
f 124/1/3 122/1/3 123/1/3
f 127/1/3 126/1/3 125/1/3
f 128/1/3 126/1/3 127/1/3
f 129/1/4 130/1/4 131/1/4
f 131/1/4 130/1/4 132/1/4
f 133/1/4 134/1/4 135/1/4
f 135/1/4 134/1/4 136/1/4
f 137/1/4 138/1/4 139/1/4
f 139/1/4 138/1/4 140/1/4
f 141/1/4 142/1/4 143/1/4
f 143/1/4 142/1/4 144/1/4
f 145/1/4 146/1/4 147/1/4
f 147/1/4 146/1/4 148/1/4
f 149/1/4 150/1/4 151/1/4
f 151/1/4 150/1/4 152/1/4
f 153/1/4 154/1/4 155/1/4
f 155/1/4 154/1/4 156/1/4
f 157/1/4 158/1/4 159/1/4
f 159/1/4 158/1/4 160/1/4
f 161/1/4 162/1/4 163/1/4
f 163/1/4 162/1/4 164/1/4
f 165/1/4 166/1/4 167/1/4
f 167/1/4 166/1/4 168/1/4
f 169/1/4 170/1/4 171/1/4
f 171/1/4 170/1/4 172/1/4
f 173/1/4 174/1/4 175/1/4
f 175/1/4 174/1/4 176/1/4
f 179/1/5 178/1/5 177/1/5
f 180/1/5 178/1/5 179/1/5
f 181/1/5 178/1/5 180/1/5
f 182/1/5 178/1/5 181/1/5
f 183/1/5 179/1/5 177/1/5
f 184/1/5 181/1/5 180/1/5
f 185/1/5 181/1/5 184/1/5
f 186/1/5 178/1/5 182/1/5
f 187/1/5 185/1/5 184/1/5
f 187/1/5 186/1/5 185/1/5
f 187/1/5 183/1/5 177/1/5
f 187/1/5 184/1/5 183/1/5
f 188/1/5 178/1/5 186/1/5
f 188/1/5 186/1/5 187/1/5
f 189/1/5 187/1/5 177/1/5
f 189/3/5 188/3/5 187/3/5
f 190/3/5 188/3/5 189/3/5
f 191/3/5 188/3/5 190/3/5
f 192/1/5 178/1/5 188/1/5
f 192/3/5 188/3/5 191/3/5
f 193/1/5 189/1/5 177/1/5
f 193/4/5 190/4/5 189/4/5
f 194/1/5 191/1/5 190/1/5
f 194/4/5 190/4/5 193/4/5
f 195/1/5 191/1/5 194/1/5
f 196/1/5 191/1/5 195/1/5
f 197/1/5 191/1/5 196/1/5
f 198/1/5 191/1/5 197/1/5
f 199/1/5 191/1/5 198/1/5
f 200/1/5 191/1/5 199/1/5
f 201/1/5 191/1/5 200/1/5
f 202/4/5 192/4/5 191/4/5
f 202/1/5 191/1/5 201/1/5
f 203/1/5 178/1/5 192/1/5
f 203/4/5 192/4/5 202/4/5
f 204/1/5 193/1/5 177/1/5
f 204/5/5 194/5/5 193/5/5
f 205/1/5 195/1/5 194/1/5
f 205/5/5 194/5/5 204/5/5
f 206/1/5 195/1/5 205/1/5
f 207/1/5 195/1/5 206/1/5
f 208/1/5 197/1/5 196/1/5
f 209/1/5 197/1/5 208/1/5
f 210/1/5 200/1/5 199/1/5
f 211/1/5 200/1/5 210/1/5
f 212/1/5 202/1/5 201/1/5
f 213/1/5 202/1/5 212/1/5
f 214/5/5 203/5/5 202/5/5
f 214/1/5 202/1/5 213/1/5
f 215/1/5 178/1/5 203/1/5
f 215/5/5 203/5/5 214/5/5
f 216/1/5 204/1/5 177/1/5
f 216/4/5 205/4/5 204/4/5
f 217/1/5 206/1/5 205/1/5
f 217/4/5 205/4/5 216/4/5
f 218/1/5 206/1/5 217/1/5
f 221/1/5 197/1/5 209/1/5
f 222/1/5 210/1/5 199/1/5
f 225/1/5 214/1/5 213/1/5
f 226/4/5 215/4/5 214/4/5
f 226/1/5 214/1/5 225/1/5
f 227/1/5 178/1/5 215/1/5
f 227/4/5 215/4/5 226/4/5
f 228/1/5 216/1/5 177/1/5
f 228/5/5 217/5/5 216/5/5
f 229/1/5 219/1/5 218/1/5
f 229/5/5 217/5/5 228/5/5
f 229/1/5 218/1/5 217/1/5
f 230/1/5 219/1/5 229/1/5
f 231/1/5 221/1/5 220/1/5
f 232/2/5 198/2/5 197/2/5
f 232/1/5 197/1/5 221/1/5
f 232/1/5 221/1/5 231/1/5
f 233/2/5 198/2/5 232/2/5
f 234/1/5 223/1/5 222/1/5
f 234/1/5 222/1/5 199/1/5
f 235/1/5 223/1/5 234/1/5
f 236/1/5 226/1/5 225/1/5
f 236/1/5 225/1/5 224/1/5
f 237/5/5 227/5/5 226/5/5
f 237/1/5 226/1/5 236/1/5
f 238/1/5 178/1/5 227/1/5
f 238/5/5 227/5/5 237/5/5
f 239/1/5 228/1/5 177/1/5
f 239/4/5 229/4/5 228/4/5
f 240/1/5 233/1/5 232/1/5
f 240/4/5 229/4/5 239/4/5
f 240/1/5 235/1/5 234/1/5
f 240/1/5 234/1/5 233/1/5
f 240/1/5 231/1/5 230/1/5
f 240/1/5 230/1/5 229/1/5
f 240/1/5 232/1/5 231/1/5
f 240/1/5 237/1/5 236/1/5
f 240/1/5 236/1/5 235/1/5
f 241/4/5 238/4/5 237/4/5
f 241/1/5 237/1/5 240/1/5
f 242/1/5 178/1/5 238/1/5
f 242/4/5 238/4/5 241/4/5
f 243/1/5 239/1/5 177/1/5
f 244/1/5 239/1/5 243/1/5
f 245/3/5 241/3/5 240/3/5
f 245/1/5 239/1/5 244/1/5
f 245/3/5 240/3/5 239/3/5
f 245/3/5 242/3/5 241/3/5
f 246/1/5 178/1/5 242/1/5
f 246/3/5 242/3/5 245/3/5
f 247/1/5 178/1/5 246/1/5
f 248/1/5 178/1/5 247/1/5
f 249/1/5 245/1/5 244/1/5
f 249/1/5 247/1/5 246/1/5
f 249/1/5 246/1/5 245/1/5
f 250/1/5 247/1/5 249/1/5
f 251/1/6 252/1/6 253/1/6
f 253/1/6 252/1/6 254/1/6
f 254/1/6 252/1/6 255/1/6
f 255/1/6 252/1/6 256/1/6
f 251/1/6 253/1/6 257/1/6
f 254/1/6 255/1/6 258/1/6
f 258/1/6 255/1/6 259/1/6
f 256/1/6 252/1/6 260/1/6
f 258/1/6 259/1/6 261/1/6
f 259/1/6 260/1/6 261/1/6
f 251/1/6 257/1/6 261/1/6
f 257/1/6 258/1/6 261/1/6
f 260/1/6 252/1/6 262/1/6
f 261/1/6 260/1/6 262/1/6
f 251/1/6 261/1/6 263/1/6
f 261/3/6 262/3/6 263/3/6
f 263/3/6 262/3/6 264/3/6
f 264/3/6 262/3/6 265/3/6
f 262/1/6 252/1/6 266/1/6
f 265/3/6 262/3/6 266/3/6
f 251/1/6 263/1/6 267/1/6
f 263/4/6 264/4/6 267/4/6
f 264/1/6 265/1/6 268/1/6
f 267/4/6 264/4/6 268/4/6
f 268/1/6 265/1/6 269/1/6
f 269/1/6 265/1/6 270/1/6
f 270/1/6 265/1/6 271/1/6
f 271/1/6 265/1/6 272/1/6
f 272/1/6 265/1/6 273/1/6
f 273/1/6 265/1/6 274/1/6
f 274/1/6 265/1/6 275/1/6
f 265/4/6 266/4/6 276/4/6
f 275/1/6 265/1/6 276/1/6
f 266/1/6 252/1/6 277/1/6
f 276/4/6 266/4/6 277/4/6
f 251/1/6 267/1/6 278/1/6
f 267/5/6 268/5/6 278/5/6
f 268/1/6 269/1/6 279/1/6
f 278/5/6 268/5/6 279/5/6
f 279/1/6 269/1/6 280/1/6
f 280/1/6 269/1/6 281/1/6
f 270/1/6 271/1/6 282/1/6
f 282/1/6 271/1/6 283/1/6
f 273/1/6 274/1/6 284/1/6
f 284/1/6 274/1/6 285/1/6
f 275/1/6 276/1/6 286/1/6
f 286/1/6 276/1/6 287/1/6
f 276/5/6 277/5/6 288/5/6
f 287/1/6 276/1/6 288/1/6
f 277/1/6 252/1/6 289/1/6
f 288/5/6 277/5/6 289/5/6
f 251/1/6 278/1/6 290/1/6
f 278/4/6 279/4/6 290/4/6
f 279/1/6 280/1/6 291/1/6
f 290/4/6 279/4/6 291/4/6
f 291/1/6 280/1/6 292/1/6
f 283/1/6 271/1/6 295/1/6
f 273/1/6 284/1/6 296/1/6
f 287/1/6 288/1/6 299/1/6
f 288/4/6 289/4/6 300/4/6
f 299/1/6 288/1/6 300/1/6
f 289/1/6 252/1/6 301/1/6
f 300/4/6 289/4/6 301/4/6
f 251/1/6 290/1/6 302/1/6
f 290/5/6 291/5/6 302/5/6
f 292/1/6 293/1/6 303/1/6
f 302/5/6 291/5/6 303/5/6
f 291/1/6 292/1/6 303/1/6
f 303/1/6 293/1/6 304/1/6
f 294/1/6 295/1/6 305/1/6
f 271/2/6 272/2/6 306/2/6
f 295/1/6 271/1/6 306/1/6
f 305/1/6 295/1/6 306/1/6
f 306/2/6 272/2/6 307/2/6
f 296/1/6 297/1/6 308/1/6
f 273/1/6 296/1/6 308/1/6
f 308/1/6 297/1/6 309/1/6
f 299/1/6 300/1/6 310/1/6
f 298/1/6 299/1/6 310/1/6
f 300/5/6 301/5/6 311/5/6
f 310/1/6 300/1/6 311/1/6
f 301/1/6 252/1/6 312/1/6
f 311/5/6 301/5/6 312/5/6
f 251/1/6 302/1/6 313/1/6
f 302/4/6 303/4/6 313/4/6
f 306/1/6 307/1/6 314/1/6
f 313/4/6 303/4/6 314/4/6
f 308/1/6 309/1/6 314/1/6
f 307/1/6 308/1/6 314/1/6
f 304/1/6 305/1/6 314/1/6
f 303/1/6 304/1/6 314/1/6
f 305/1/6 306/1/6 314/1/6
f 310/1/6 311/1/6 314/1/6
f 309/1/6 310/1/6 314/1/6
f 311/4/6 312/4/6 315/4/6
f 314/1/6 311/1/6 315/1/6
f 312/1/6 252/1/6 316/1/6
f 315/4/6 312/4/6 316/4/6
f 251/1/6 313/1/6 317/1/6
f 317/1/6 313/1/6 318/1/6
f 314/3/6 315/3/6 319/3/6
f 318/1/6 313/1/6 319/1/6
f 313/3/6 314/3/6 319/3/6
f 315/3/6 316/3/6 319/3/6
f 316/1/6 252/1/6 320/1/6
f 319/3/6 316/3/6 320/3/6
f 320/1/6 252/1/6 321/1/6
f 321/1/6 252/1/6 322/1/6
f 318/1/6 319/1/6 323/1/6
f 320/1/6 321/1/6 323/1/6
f 319/1/6 320/1/6 323/1/6
f 323/1/6 321/1/6 324/1/6
