# Blender 4.4.3
# www.blender.org
mtllib Untitled_072.mtl
o Untitled.072
v -1.010000 -1.151999 0.167000
v 0.590000 -1.151999 0.167000
v -0.310000 -1.151999 0.067000
v -0.110000 -1.151999 0.067000
v -0.310000 -1.151999 -0.133000
v -0.110000 -1.151999 -0.133000
v -1.010000 -1.151999 -0.433000
v 0.590000 -1.151999 -0.433000
v -1.010000 0.048000 0.067000
v -0.910000 0.048000 0.067000
v 0.490000 0.048000 0.067000
v 0.590000 0.048000 0.067000
v -0.910000 0.048000 -0.333000
v 0.490000 0.048000 -0.333000
v -1.010000 0.048000 -0.433000
v 0.590000 0.048000 -0.433000
v -1.010000 0.648001 0.167000
v 0.590000 0.648001 0.167000
v -1.010000 0.648001 0.067000
v 0.590000 0.648001 0.067000
v -1.010000 -1.151999 0.167000
v -1.010000 -1.151999 -0.433000
v -1.010000 -0.452000 0.067000
v -1.010000 -0.452000 -0.133000
v -1.010000 -0.151999 0.067000
v -1.010000 -0.151999 -0.133000
v -1.010000 0.048000 0.067000
v -1.010000 0.048000 -0.433000
v -1.010000 0.648001 0.167000
v -1.010000 0.648001 0.067000
v 0.590000 -1.151999 0.167000
v 0.590000 -1.151999 -0.433000
v 0.590000 -0.452000 0.067000
v 0.590000 -0.452000 -0.133000
v 0.590000 -0.151999 0.067000
v 0.590000 -0.151999 -0.133000
v 0.590000 0.048000 0.067000
v 0.590000 0.048000 -0.433000
v 0.590000 0.648001 0.167000
v 0.590000 0.648001 0.067000
v -1.010000 -1.151999 0.167000
v -1.010000 0.648001 0.167000
v 0.090000 0.148001 0.167000
v 0.090000 0.248000 0.167000
v 0.090000 0.448001 0.167000
v 0.090000 0.548000 0.167000
v 0.190000 0.148001 0.167000
v 0.190000 0.248000 0.167000
v 0.190000 0.348001 0.167000
v 0.190000 0.448001 0.167000
v 0.190000 0.548000 0.167000
v 0.290000 0.248000 0.167000
v 0.290000 0.348001 0.167000
v 0.290000 0.448001 0.167000
v 0.390000 0.148001 0.167000
v 0.390000 0.248000 0.167000
v 0.390000 0.348001 0.167000
v 0.390000 0.448001 0.167000
v 0.390000 0.548000 0.167000
v 0.490000 0.148001 0.167000
v 0.490000 0.248000 0.167000
v 0.490000 0.448001 0.167000
v 0.490000 0.548000 0.167000
v 0.590000 -1.151999 0.167000
v 0.590000 0.648001 0.167000
v -1.010000 0.048000 0.067000
v -1.010000 0.648001 0.067000
v -0.910000 0.048000 0.067000
v 0.090000 0.148001 0.067000
v 0.090000 0.248000 0.067000
v 0.090000 0.448001 0.067000
v 0.090000 0.548000 0.067000
v 0.190000 0.148001 0.067000
v 0.190000 0.248000 0.067000
v 0.190000 0.348001 0.067000
v 0.190000 0.448001 0.067000
v 0.190000 0.548000 0.067000
v 0.290000 0.248000 0.067000
v 0.290000 0.348001 0.067000
v 0.290000 0.448001 0.067000
v 0.390000 0.148001 0.067000
v 0.390000 0.248000 0.067000
v 0.390000 0.348001 0.067000
v 0.390000 0.448001 0.067000
v 0.390000 0.548000 0.067000
v 0.490000 0.048000 0.067000
v 0.490000 0.148001 0.067000
v 0.490000 0.248000 0.067000
v 0.490000 0.448001 0.067000
v 0.490000 0.548000 0.067000
v 0.590000 0.048000 0.067000
v 0.590000 0.648001 0.067000
v -1.010000 -1.151999 -0.433000
v -1.010000 0.048000 -0.433000
v -0.310000 -0.651999 -0.433000
v -0.310000 -0.551999 -0.433000
v -0.110000 -0.651999 -0.433000
v -0.110000 -0.551999 -0.433000
v 0.590000 -1.151999 -0.433000
v 0.590000 0.048000 -0.433000
vn -0.0000 -1.0000 -0.0000
vn -0.0000 1.0000 -0.0000
vn -1.0000 -0.0000 -0.0000
vn 1.0000 -0.0000 -0.0000
vn -0.0000 -0.0000 1.0000
vn -0.0000 -0.0000 -1.0000
vt 0.779297 0.500000
vt 0.958984 0.500000
vt 0.806641 0.500000
vt 0.990234 0.500000
vt 0.044922 0.500000
s 1
usemtl palette.226
f 3/1/1 2/1/1 1/1/1
f 4/1/1 2/1/1 3/1/1
f 5/1/1 3/1/1 1/1/1
f 5/2/1 4/2/1 3/2/1
f 6/1/1 2/1/1 4/1/1
f 6/2/1 4/2/1 5/2/1
f 7/1/1 5/1/1 1/1/1
f 7/1/1 6/1/1 5/1/1
f 8/1/1 2/1/1 6/1/1
f 8/1/1 6/1/1 7/1/1
f 9/1/2 10/1/2 13/1/2
f 10/2/2 11/2/2 13/2/2
f 11/1/2 12/1/2 14/1/2
f 13/2/2 11/2/2 14/2/2
f 9/1/2 13/1/2 15/1/2
f 13/1/2 14/1/2 15/1/2
f 14/1/2 12/1/2 16/1/2
f 15/1/2 14/1/2 16/1/2
f 17/1/2 18/1/2 19/1/2
f 19/1/2 18/1/2 20/1/2
f 23/1/3 22/1/3 21/1/3
f 24/1/3 22/1/3 23/1/3
f 25/1/3 23/1/3 21/1/3
f 25/2/3 24/2/3 23/2/3
f 26/1/3 22/1/3 24/1/3
f 26/2/3 24/2/3 25/2/3
f 27/1/3 25/1/3 21/1/3
f 27/1/3 26/1/3 25/1/3
f 28/1/3 22/1/3 26/1/3
f 28/1/3 26/1/3 27/1/3
f 29/1/3 27/1/3 21/1/3
f 30/1/3 27/1/3 29/1/3
f 31/1/4 32/1/4 33/1/4
f 33/1/4 32/1/4 34/1/4
f 31/1/4 33/1/4 35/1/4
f 33/2/4 34/2/4 35/2/4
f 34/1/4 32/1/4 36/1/4
f 35/2/4 34/2/4 36/2/4
f 31/1/4 35/1/4 37/1/4
f 35/1/4 36/1/4 37/1/4
f 36/1/4 32/1/4 38/1/4
f 37/1/4 36/1/4 38/1/4
f 31/1/4 37/1/4 39/1/4
f 39/1/4 37/1/4 40/1/4
f 43/1/5 42/1/5 41/1/5
f 44/1/5 42/1/5 43/1/5
f 45/1/5 42/1/5 44/1/5
f 46/1/5 42/1/5 45/1/5
f 47/1/5 43/1/5 41/1/5
f 47/3/5 44/3/5 43/3/5
f 48/4/5 45/4/5 44/4/5
f 48/3/5 44/3/5 47/3/5
f 49/4/5 45/4/5 48/4/5
f 50/3/5 46/3/5 45/3/5
f 50/4/5 45/4/5 49/4/5
f 51/1/5 42/1/5 46/1/5
f 51/3/5 46/3/5 50/3/5
f 52/4/5 49/4/5 48/4/5
f 52/4/5 48/4/5 47/4/5
f 53/5/5 50/5/5 49/5/5
f 53/4/5 49/4/5 52/4/5
f 54/4/5 51/4/5 50/4/5
f 54/5/5 50/5/5 53/5/5
f 55/4/5 52/4/5 47/4/5
f 55/1/5 47/1/5 41/1/5
f 56/5/5 53/5/5 52/5/5
f 56/4/5 52/4/5 55/4/5
f 57/4/5 54/4/5 53/4/5
f 57/5/5 53/5/5 56/5/5
f 58/4/5 51/4/5 54/4/5
f 58/4/5 54/4/5 57/4/5
f 59/1/5 42/1/5 51/1/5
f 59/4/5 51/4/5 58/4/5
f 60/3/5 56/3/5 55/3/5
f 60/1/5 55/1/5 41/1/5
f 61/4/5 57/4/5 56/4/5
f 61/3/5 56/3/5 60/3/5
f 61/4/5 58/4/5 57/4/5
f 62/3/5 59/3/5 58/3/5
f 62/4/5 58/4/5 61/4/5
f 63/1/5 42/1/5 59/1/5
f 63/3/5 59/3/5 62/3/5
f 64/1/5 60/1/5 41/1/5
f 64/1/5 61/1/5 60/1/5
f 64/1/5 63/1/5 62/1/5
f 64/1/5 62/1/5 61/1/5
f 65/1/5 42/1/5 63/1/5
f 65/1/5 63/1/5 64/1/5
f 66/1/6 67/1/6 68/1/6
f 68/1/6 67/1/6 69/1/6
f 69/1/6 67/1/6 70/1/6
f 70/1/6 67/1/6 71/1/6
f 71/1/6 67/1/6 72/1/6
f 68/1/6 69/1/6 73/1/6
f 69/3/6 70/3/6 73/3/6
f 70/4/6 71/4/6 74/4/6
f 73/3/6 70/3/6 74/3/6
f 74/4/6 71/4/6 75/4/6
f 71/3/6 72/3/6 76/3/6
f 75/4/6 71/4/6 76/4/6
f 72/1/6 67/1/6 77/1/6
f 76/3/6 72/3/6 77/3/6
f 74/4/6 75/4/6 78/4/6
f 73/4/6 74/4/6 78/4/6
f 75/5/6 76/5/6 79/5/6
f 78/4/6 75/4/6 79/4/6
f 76/4/6 77/4/6 80/4/6
f 79/5/6 76/5/6 80/5/6
f 73/4/6 78/4/6 81/4/6
f 68/1/6 73/1/6 81/1/6
f 78/5/6 79/5/6 82/5/6
f 81/4/6 78/4/6 82/4/6
f 79/4/6 80/4/6 83/4/6
f 82/5/6 79/5/6 83/5/6
f 80/4/6 77/4/6 84/4/6
f 83/4/6 80/4/6 84/4/6
f 77/1/6 67/1/6 85/1/6
f 84/4/6 77/4/6 85/4/6
f 68/1/6 81/1/6 86/1/6
f 81/3/6 82/3/6 87/3/6
f 86/1/6 81/1/6 87/1/6
f 82/4/6 83/4/6 88/4/6
f 87/3/6 82/3/6 88/3/6
f 83/4/6 84/4/6 88/4/6
f 84/3/6 85/3/6 89/3/6
f 88/4/6 84/4/6 89/4/6
f 85/1/6 67/1/6 90/1/6
f 89/3/6 85/3/6 90/3/6
f 86/1/6 87/1/6 91/1/6
f 87/1/6 88/1/6 91/1/6
f 89/1/6 90/1/6 91/1/6
f 88/1/6 89/1/6 91/1/6
f 90/1/6 67/1/6 92/1/6
f 91/1/6 90/1/6 92/1/6
f 93/1/6 94/1/6 95/1/6
f 95/1/6 94/1/6 96/1/6
f 93/1/6 95/1/6 97/1/6
f 95/3/6 96/3/6 97/3/6
f 96/1/6 94/1/6 98/1/6
f 97/3/6 96/3/6 98/3/6
f 93/1/6 97/1/6 99/1/6
f 97/1/6 98/1/6 99/1/6
f 98/1/6 94/1/6 100/1/6
f 99/1/6 98/1/6 100/1/6
