# Blender 4.4.3
# www.blender.org
mtllib Untitled_030.mtl
o Untitled.030
v 1.334393 0.196890 1.195835
v -1.365608 0.196890 1.195835
v 1.234392 0.196890 0.795835
v -1.265608 0.196890 0.795835
v 1.134392 0.196890 0.695835
v 0.934393 0.196890 0.695835
v 0.834393 0.196890 0.695835
v 0.634392 0.196890 0.695835
v 0.434393 0.196890 0.695835
v 0.234392 0.196890 0.695835
v 0.134392 0.196890 0.695835
v -0.065607 0.196890 0.695835
v -0.465607 0.196890 0.595835
v -0.565607 0.196890 0.595835
v -0.665607 0.196890 0.595835
v -0.765608 0.196890 0.595835
v -0.865608 0.196890 0.595835
v -0.965607 0.196890 0.595835
v -1.065607 0.196890 0.595835
v -1.165607 0.196890 0.595835
v 1.134392 0.196890 0.495835
v 0.934393 0.196890 0.495835
v 0.834393 0.196890 0.495835
v 0.634392 0.196890 0.495835
v 0.434393 0.196890 0.495835
v 0.234392 0.196890 0.495835
v 0.134392 0.196890 0.495835
v -0.065607 0.196890 0.495835
v -0.465607 0.196890 0.495835
v -0.565607 0.196890 0.495835
v -0.665607 0.196890 0.495835
v -0.765608 0.196890 0.495835
v -0.865608 0.196890 0.495835
v -0.965607 0.196890 0.495835
v -1.065607 0.196890 0.495835
v -1.165607 0.196890 0.495835
v 1.234392 0.196890 -0.004165
v -1.265608 0.196890 -0.004165
v 1.334393 0.196890 -0.104165
v -1.365608 0.196890 -0.104165
v 1.134392 0.196890 -0.904165
v 0.934393 0.196890 -0.904165
v 1.134392 0.196890 -2.004165
v 0.934393 0.196890 -2.004165
v 1.234392 0.096889 0.795835
v -1.265608 0.096889 0.795835
v 1.134392 0.096889 0.695835
v 0.934393 0.096889 0.695835
v 0.834393 0.096889 0.695835
v 0.634392 0.096889 0.695835
v 0.434393 0.096889 0.695835
v 0.234392 0.096889 0.695835
v 0.134392 0.096889 0.695835
v -0.065607 0.096889 0.695835
v -0.465607 0.096889 0.595835
v -0.565607 0.096889 0.595835
v -0.665607 0.096889 0.595835
v -0.765608 0.096889 0.595835
v -0.865608 0.096889 0.595835
v -0.965607 0.096889 0.595835
v -1.065607 0.096889 0.595835
v -1.165607 0.096889 0.595835
v 1.134392 0.096889 0.495835
v 0.934393 0.096889 0.495835
v 0.834393 0.096889 0.495835
v 0.634392 0.096889 0.495835
v 0.434393 0.096889 0.495835
v 0.234392 0.096889 0.495835
v 0.134392 0.096889 0.495835
v -0.065607 0.096889 0.495835
v -0.465607 0.096889 0.495835
v -0.565607 0.096889 0.495835
v -0.665607 0.096889 0.495835
v -0.765608 0.096889 0.495835
v -0.865608 0.096889 0.495835
v -0.965607 0.096889 0.495835
v -1.065607 0.096889 0.495835
v -1.165607 0.096889 0.495835
v 1.134392 0.096889 0.395835
v 0.634392 0.096889 0.395835
v 0.434393 0.096889 0.395835
v -0.065607 0.096889 0.395835
v -0.465607 0.096889 0.395835
v -1.165607 0.096889 0.395835
v 1.134392 0.096889 0.295835
v 1.034393 0.096889 0.295835
v 0.734392 0.096889 0.295835
v 0.634392 0.096889 0.295835
v 0.434393 0.096889 0.295835
v 0.334393 0.096889 0.295835
v 0.034393 0.096889 0.295835
v -0.065607 0.096889 0.295835
v -0.565607 0.096889 0.295835
v -0.665607 0.096889 0.295835
v -0.765608 0.096889 0.295835
v -0.865608 0.096889 0.295835
v -0.965607 0.096889 0.295835
v -1.065607 0.096889 0.295835
v 1.134392 0.096889 0.195835
v 1.034393 0.096889 0.195835
v 0.934393 0.096889 0.195835
v 0.834393 0.096889 0.195835
v 0.734392 0.096889 0.195835
v 0.634392 0.096889 0.195835
v 0.434393 0.096889 0.195835
v 0.334393 0.096889 0.195835
v 0.234392 0.096889 0.195835
v 0.134392 0.096889 0.195835
v 0.034393 0.096889 0.195835
v -0.065607 0.096889 0.195835
v -0.565607 0.096889 0.195835
v -0.665607 0.096889 0.195835
v -0.765608 0.096889 0.195835
v -0.865608 0.096889 0.195835
v -0.965607 0.096889 0.195835
v -1.065607 0.096889 0.195835
v 1.134392 0.096889 0.095835
v 0.934393 0.096889 0.095835
v 0.834393 0.096889 0.095835
v 0.634392 0.096889 0.095835
v 0.434393 0.096889 0.095835
v 0.234392 0.096889 0.095835
v 0.134392 0.096889 0.095835
v -0.065607 0.096889 0.095835
v -0.465607 0.096889 0.095835
v -1.165607 0.096889 0.095835
v 1.234392 0.096889 -0.004165
v -1.265608 0.096889 -0.004165
v 1.334393 0.096889 -0.304165
v -1.365608 0.096889 -0.304165
v 1.134392 0.096889 -0.904165
v 0.934393 0.096889 -0.904165
v 1.134392 0.096889 -2.004165
v 0.934393 0.096889 -2.004165
v 1.334393 0.096889 -2.804165
v -1.365608 0.096889 -2.804165
v 1.234392 -0.003111 -0.104165
v -1.265608 -0.003111 -0.104165
v 1.234392 -0.003111 -0.304165
v -1.265608 -0.003111 -0.304165
v 1.334393 -0.303110 -0.104165
v 1.234392 -0.303110 -0.104165
v -1.265608 -0.303110 -0.104165
v -1.365608 -0.303110 -0.104165
v 1.234392 -0.303110 -2.704165
v -1.265608 -0.303110 -2.704165
v 1.334393 -0.303110 -2.804165
v -1.365608 -0.303110 -2.804165
v 1.334393 -0.203110 -0.304165
v 1.234392 -0.203110 -0.304165
v -1.265608 -0.203110 -0.304165
v -1.365608 -0.203110 -0.304165
v 1.234392 -0.203110 -2.704165
v -1.265608 -0.203110 -2.704165
v 1.334393 -0.203110 -2.804165
v -1.365608 -0.203110 -2.804165
v 1.334393 -2.603109 1.195835
v -1.365608 -2.603109 1.195835
v 1.334393 -2.603109 -2.804165
v -1.365608 -2.603109 -2.804165
v 1.334393 0.196890 1.195835
v 1.334393 0.196890 -0.104165
v 1.334393 0.096889 -0.304165
v 1.334393 0.096889 -2.804165
v 1.334393 -0.203110 -0.304165
v 1.334393 -0.203110 -2.804165
v 1.334393 -0.303110 -0.104165
v 1.334393 -0.303110 -2.804165
v 1.334393 -2.603109 1.195835
v 1.334393 -2.603109 -2.804165
v 1.234392 -0.003111 -0.104165
v 1.234392 -0.003111 -0.304165
v 1.234392 -0.203110 -0.304165
v 1.234392 -0.203110 -2.704165
v 1.234392 -0.303110 -0.104165
v 1.234392 -0.303110 -2.704165
v 1.134392 0.196890 0.695835
v 1.134392 0.196890 0.495835
v 1.134392 0.196890 -0.904165
v 1.134392 0.196890 -2.004165
v 1.134392 0.096889 0.695835
v 1.134392 0.096889 0.495835
v 1.134392 0.096889 -0.904165
v 1.134392 0.096889 -2.004165
v 0.834393 0.196890 0.695835
v 0.834393 0.196890 0.495835
v 0.834393 0.096889 0.695835
v 0.834393 0.096889 0.495835
v 0.434393 0.196890 0.695835
v 0.434393 0.196890 0.495835
v 0.434393 0.096889 0.695835
v 0.434393 0.096889 0.495835
v 0.134392 0.196890 0.695835
v 0.134392 0.196890 0.495835
v 0.134392 0.096889 0.695835
v 0.134392 0.096889 0.495835
v -0.465607 0.196890 0.595835
v -0.465607 0.196890 0.495835
v -0.465607 0.096889 0.595835
v -0.465607 0.096889 0.495835
v -0.665607 0.196890 0.595835
v -0.665607 0.196890 0.495835
v -0.665607 0.096889 0.595835
v -0.665607 0.096889 0.495835
v -0.865608 0.196890 0.595835
v -0.865608 0.196890 0.495835
v -0.865608 0.096889 0.595835
v -0.865608 0.096889 0.495835
v -1.065607 0.196890 0.595835
v -1.065607 0.196890 0.495835
v -1.065607 0.096889 0.595835
v -1.065607 0.096889 0.495835
v -1.265608 0.196890 0.795835
v -1.265608 0.196890 -0.004165
v -1.265608 0.096889 0.795835
v -1.265608 0.096889 -0.004165
v 1.234392 0.196890 0.795835
v 1.234392 0.196890 -0.004165
v 1.234392 0.096889 0.795835
v 1.234392 0.096889 -0.004165
v 0.934393 0.196890 0.695835
v 0.934393 0.196890 0.495835
v 0.934393 0.196890 -0.904165
v 0.934393 0.196890 -2.004165
v 0.934393 0.096889 0.695835
v 0.934393 0.096889 0.495835
v 0.934393 0.096889 -0.904165
v 0.934393 0.096889 -2.004165
v 0.634392 0.196890 0.695835
v 0.634392 0.196890 0.495835
v 0.634392 0.096889 0.695835
v 0.634392 0.096889 0.495835
v 0.234392 0.196890 0.695835
v 0.234392 0.196890 0.495835
v 0.234392 0.096889 0.695835
v 0.234392 0.096889 0.495835
v -0.065607 0.196890 0.695835
v -0.065607 0.196890 0.495835
v -0.065607 0.096889 0.695835
v -0.065607 0.096889 0.495835
v -0.565607 0.196890 0.595835
v -0.565607 0.196890 0.495835
v -0.565607 0.096889 0.595835
v -0.565607 0.096889 0.495835
v -0.765608 0.196890 0.595835
v -0.765608 0.196890 0.495835
v -0.765608 0.096889 0.595835
v -0.765608 0.096889 0.495835
v -0.965607 0.196890 0.595835
v -0.965607 0.196890 0.495835
v -0.965607 0.096889 0.595835
v -0.965607 0.096889 0.495835
v -1.165607 0.196890 0.595835
v -1.165607 0.196890 0.495835
v -1.165607 0.096889 0.595835
v -1.165607 0.096889 0.495835
v -1.265608 -0.003111 -0.104165
v -1.265608 -0.003111 -0.304165
v -1.265608 -0.203110 -0.304165
v -1.265608 -0.203110 -2.704165
v -1.265608 -0.303110 -0.104165
v -1.265608 -0.303110 -2.704165
v -1.365608 0.196890 1.195835
v -1.365608 0.196890 -0.104165
v -1.365608 0.096889 -0.304165
v -1.365608 0.096889 -2.804165
v -1.365608 -0.203110 -0.304165
v -1.365608 -0.203110 -2.804165
v -1.365608 -0.303110 -0.104165
v -1.365608 -0.303110 -2.804165
v -1.365608 -2.603109 1.195835
v -1.365608 -2.603109 -2.804165
v 1.334393 0.196890 1.195835
v 1.334393 -2.603109 1.195835
v -1.365608 0.196890 1.195835
v -1.365608 -2.603109 1.195835
v 1.134392 0.196890 0.695835
v 1.134392 0.096889 0.695835
v 0.934393 0.196890 0.695835
v 0.934393 0.096889 0.695835
v 0.834393 0.196890 0.695835
v 0.834393 0.096889 0.695835
v 0.634392 0.196890 0.695835
v 0.634392 0.096889 0.695835
v 0.434393 0.196890 0.695835
v 0.434393 0.096889 0.695835
v 0.234392 0.196890 0.695835
v 0.234392 0.096889 0.695835
v 0.134392 0.196890 0.695835
v 0.134392 0.096889 0.695835
v -0.065607 0.196890 0.695835
v -0.065607 0.096889 0.695835
v -0.465607 0.196890 0.595835
v -0.465607 0.096889 0.595835
v -0.565607 0.196890 0.595835
v -0.565607 0.096889 0.595835
v -0.665607 0.196890 0.595835
v -0.665607 0.096889 0.595835
v -0.765608 0.196890 0.595835
v -0.765608 0.096889 0.595835
v -0.865608 0.196890 0.595835
v -0.865608 0.096889 0.595835
v -0.965607 0.196890 0.595835
v -0.965607 0.096889 0.595835
v -1.065607 0.196890 0.595835
v -1.065607 0.096889 0.595835
v -1.165607 0.196890 0.595835
v -1.165607 0.096889 0.595835
v 1.234392 0.196890 -0.004165
v 1.234392 0.096889 -0.004165
v -1.265608 0.196890 -0.004165
v -1.265608 0.096889 -0.004165
v 1.334393 0.096889 -0.304165
v 1.334393 -0.203110 -0.304165
v 1.234392 -0.003111 -0.304165
v 1.234392 -0.203110 -0.304165
v -1.265608 -0.003111 -0.304165
v -1.265608 -0.203110 -0.304165
v -1.365608 0.096889 -0.304165
v -1.365608 -0.203110 -0.304165
v 1.134392 0.196890 -0.904165
v 1.134392 0.096889 -0.904165
v 0.934393 0.196890 -0.904165
v 0.934393 0.096889 -0.904165
v 1.234392 0.196890 0.795835
v 1.234392 0.096889 0.795835
v -1.265608 0.196890 0.795835
v -1.265608 0.096889 0.795835
v 1.134392 0.196890 0.495835
v 1.134392 0.096889 0.495835
v 0.934393 0.196890 0.495835
v 0.934393 0.096889 0.495835
v 0.834393 0.196890 0.495835
v 0.834393 0.096889 0.495835
v 0.634392 0.196890 0.495835
v 0.634392 0.096889 0.495835
v 0.434393 0.196890 0.495835
v 0.434393 0.096889 0.495835
v 0.234392 0.196890 0.495835
v 0.234392 0.096889 0.495835
v 0.134392 0.196890 0.495835
v 0.134392 0.096889 0.495835
v -0.065607 0.196890 0.495835
v -0.065607 0.096889 0.495835
v -0.465607 0.196890 0.495835
v -0.465607 0.096889 0.495835
v -0.565607 0.196890 0.495835
v -0.565607 0.096889 0.495835
v -0.665607 0.196890 0.495835
v -0.665607 0.096889 0.495835
v -0.765608 0.196890 0.495835
v -0.765608 0.096889 0.495835
v -0.865608 0.196890 0.495835
v -0.865608 0.096889 0.495835
v -0.965607 0.196890 0.495835
v -0.965607 0.096889 0.495835
v -1.065607 0.196890 0.495835
v -1.065607 0.096889 0.495835
v -1.165607 0.196890 0.495835
v -1.165607 0.096889 0.495835
v 1.334393 0.196890 -0.104165
v 1.334393 -0.303110 -0.104165
v 1.234392 -0.003111 -0.104165
v 1.234392 -0.303110 -0.104165
v -1.265608 -0.003111 -0.104165
v -1.265608 -0.303110 -0.104165
v -1.365608 0.196890 -0.104165
v -1.365608 -0.303110 -0.104165
v 1.134392 0.196890 -2.004165
v 1.134392 0.096889 -2.004165
v 0.934393 0.196890 -2.004165
v 0.934393 0.096889 -2.004165
v 1.234392 -0.203110 -2.704165
v 1.234392 -0.303110 -2.704165
v -1.265608 -0.203110 -2.704165
v -1.265608 -0.303110 -2.704165
v 1.334393 0.096889 -2.804165
v 1.334393 -0.203110 -2.804165
v 1.334393 -0.303110 -2.804165
v 1.334393 -2.603109 -2.804165
v -1.365608 0.096889 -2.804165
v -1.365608 -0.203110 -2.804165
v -1.365608 -0.303110 -2.804165
v -1.365608 -2.603109 -2.804165
vn -0.0000 1.0000 -0.0000
vn 0.0001 1.0000 -0.0000
vn -0.0001 1.0000 -0.0000
vn -0.0000 -1.0000 -0.0000
vn 1.0000 -0.0000 -0.0000
vn -1.0000 -0.0000 -0.0000
vn -0.0000 -0.0000 1.0000
vn -0.0000 -0.0000 -1.0000
vt 0.751953 0.500000
vt 0.841797 0.500000
vt 0.626953 0.500000
vt 0.958984 0.500000
vt 0.990234 0.500000
vt 0.966797 0.500000
vt 0.572266 0.500000
s 1
usemtl palette.156
f 3/1/1 2/1/1 1/1/1
f 4/1/1 2/1/1 3/1/1
f 21/2/1 6/2/1 5/2/1
f 22/2/1 6/2/1 21/2/1
f 23/3/1 8/3/1 7/3/1
f 24/3/1 8/3/1 23/3/1
f 25/2/1 10/2/1 9/2/1
f 26/2/1 10/2/1 25/2/1
f 27/3/1 12/3/1 11/3/1
f 28/3/1 12/3/1 27/3/1
f 29/4/1 14/4/1 13/4/1
f 30/4/1 14/4/1 29/4/1
f 31/4/1 16/4/1 15/4/1
f 32/4/1 16/4/1 31/4/1
f 33/4/1 18/4/1 17/4/1
f 34/4/1 18/4/1 33/4/1
f 35/4/1 20/4/1 19/4/1
f 36/4/1 20/4/1 35/4/1
f 37/1/1 3/1/1 1/1/1
f 38/1/1 2/1/1 4/1/1
f 39/1/1 37/1/1 1/1/1
f 39/1/1 38/1/1 37/1/1
f 40/1/1 2/1/1 38/1/1
f 40/1/1 38/1/1 39/1/1
f 43/1/1 42/1/1 41/1/1
f 44/1/1 42/1/1 43/1/1
f 47/5/1 46/5/1 45/5/1
f 48/5/1 46/5/1 47/5/1
f 49/5/1 46/5/1 48/5/1
f 50/5/1 46/5/1 49/5/1
f 51/5/1 46/5/1 50/5/1
f 52/5/1 46/5/1 51/5/1
f 53/5/1 46/5/1 52/5/1
f 54/5/1 46/5/1 53/5/1
f 55/5/1 46/5/1 54/5/1
f 56/5/1 46/5/1 55/5/1
f 57/5/1 46/5/1 56/5/1
f 58/5/1 46/5/1 57/5/1
f 59/5/1 46/5/1 58/5/1
f 60/5/1 46/5/1 59/5/1
f 61/5/1 46/5/1 60/5/1
f 62/5/1 46/5/1 61/5/1
f 63/5/1 47/5/1 45/5/1
f 64/5/1 49/5/1 48/5/1
f 65/5/1 49/5/1 64/5/1
f 66/5/1 51/5/1 50/5/1
f 67/5/1 51/5/1 66/5/1
f 68/5/1 53/5/1 52/5/1
f 69/5/1 53/5/1 68/5/1
f 70/5/1 55/5/1 54/5/1
f 71/5/1 55/5/1 70/5/1
f 72/5/1 57/5/1 56/5/1
f 73/5/1 57/5/1 72/5/1
f 74/5/1 59/5/1 58/5/1
f 75/5/1 59/5/1 74/5/1
f 76/5/1 61/5/1 60/5/1
f 77/5/1 61/5/1 76/5/1
f 78/5/1 46/5/1 62/5/1
f 79/5/1 77/5/1 76/5/1
f 79/5/1 78/5/1 77/5/1
f 79/5/1 67/5/1 66/5/1
f 79/5/1 63/5/1 45/5/1
f 79/5/1 76/5/1 75/5/1
f 79/5/1 65/5/1 64/5/1
f 79/5/1 74/5/1 73/5/1
f 79/5/1 69/5/1 68/5/1
f 79/5/1 72/5/1 71/5/1
f 79/5/1 75/5/1 74/5/1
f 79/5/1 70/5/1 69/5/1
f 79/5/1 71/5/1 70/5/1
f 79/5/1 68/5/1 67/5/1
f 79/5/1 73/5/1 72/5/1
f 79/5/1 66/5/1 65/5/1
f 79/5/1 64/5/1 63/5/1
f 80/5/1 78/5/1 79/5/1
f 81/5/1 78/5/1 80/5/1
f 82/5/1 78/5/1 81/5/1
f 83/5/1 78/5/1 82/5/1
f 84/5/1 46/5/1 78/5/1
f 84/5/1 78/5/1 83/5/1
f 85/5/2 79/5/1 45/5/1
f 85/4/2 80/4/1 79/4/1
f 86/4/1 80/4/1 85/4/2
f 87/4/1 80/4/1 86/4/1
f 88/5/1 81/5/1 80/5/1
f 88/4/1 80/4/1 87/4/1
f 89/4/1 82/4/1 81/4/1
f 89/5/1 81/5/1 88/5/1
f 90/4/1 82/4/1 89/4/1
f 91/4/1 82/4/1 90/4/1
f 92/5/1 83/5/1 82/5/1
f 92/4/1 82/4/1 91/4/1
f 93/2/1 84/2/1 83/2/1
f 94/2/1 84/2/1 93/2/1
f 95/2/1 84/2/1 94/2/1
f 96/2/1 84/2/1 95/2/1
f 97/2/1 84/2/1 96/2/1
f 98/2/1 84/2/1 97/2/1
f 99/5/3 85/5/2 45/5/1
f 99/6/3 86/6/1 85/6/2
f 100/4/1 87/4/1 86/4/1
f 100/6/1 86/6/1 99/6/3
f 101/4/1 87/4/1 100/4/1
f 102/4/1 87/4/1 101/4/1
f 103/6/1 88/6/1 87/6/1
f 103/4/1 87/4/1 102/4/1
f 104/5/1 89/5/1 88/5/1
f 104/6/1 88/6/1 103/6/1
f 105/6/1 90/6/1 89/6/1
f 105/5/1 89/5/1 104/5/1
f 106/4/1 91/4/1 90/4/1
f 106/6/1 90/6/1 105/6/1
f 107/4/1 91/4/1 106/4/1
f 108/4/1 91/4/1 107/4/1
f 109/6/1 92/6/1 91/6/1
f 109/4/1 91/4/1 108/4/1
f 110/5/1 83/5/1 92/5/1
f 110/6/1 92/6/1 109/6/1
f 111/2/1 93/2/1 83/2/1
f 111/7/1 94/7/1 93/7/1
f 112/2/1 95/2/1 94/2/1
f 112/7/1 94/7/1 111/7/1
f 113/7/1 96/7/1 95/7/1
f 113/2/1 95/2/1 112/2/1
f 114/2/1 97/2/1 96/2/1
f 114/7/1 96/7/1 113/7/1
f 115/7/1 98/7/1 97/7/1
f 115/2/1 97/2/1 114/2/1
f 116/2/1 84/2/1 98/2/1
f 116/7/1 98/7/1 115/7/1
f 117/5/1 99/5/3 45/5/1
f 117/4/1 100/4/1 99/4/3
f 117/4/1 101/4/1 100/4/1
f 118/6/1 102/6/1 101/6/1
f 118/4/1 101/4/1 117/4/1
f 119/4/1 103/4/1 102/4/1
f 119/6/1 102/6/1 118/6/1
f 119/4/1 104/4/1 103/4/1
f 120/5/1 105/5/1 104/5/1
f 120/4/1 104/4/1 119/4/1
f 121/4/1 106/4/1 105/4/1
f 121/5/1 105/5/1 120/5/1
f 121/4/1 107/4/1 106/4/1
f 122/6/1 108/6/1 107/6/1
f 122/4/1 107/4/1 121/4/1
f 123/4/1 109/4/1 108/4/1
f 123/6/1 108/6/1 122/6/1
f 123/4/1 110/4/1 109/4/1
f 124/5/1 83/5/1 110/5/1
f 124/4/1 110/4/1 123/4/1
f 125/2/1 115/2/1 114/2/1
f 125/5/1 83/5/1 124/5/1
f 125/2/1 114/2/1 113/2/1
f 125/2/1 113/2/1 112/2/1
f 125/2/1 112/2/1 111/2/1
f 125/2/1 111/2/1 83/2/1
f 125/2/1 116/2/1 115/2/1
f 126/5/1 46/5/1 84/5/1
f 126/2/1 116/2/1 125/2/1
f 126/2/1 84/2/1 116/2/1
f 127/5/1 119/5/1 118/5/1
f 127/5/1 125/5/1 124/5/1
f 127/5/1 126/5/1 125/5/1
f 127/5/1 120/5/1 119/5/1
f 127/5/1 118/5/1 117/5/1
f 127/5/1 123/5/1 122/5/1
f 127/5/1 124/5/1 123/5/1
f 127/5/1 117/5/1 45/5/1
f 127/5/1 121/5/1 120/5/1
f 127/5/1 122/5/1 121/5/1
f 128/5/1 46/5/1 126/5/1
f 128/5/1 126/5/1 127/5/1
f 131/4/1 130/4/1 129/4/1
f 132/4/1 130/4/1 131/4/1
f 133/4/1 131/4/1 129/4/1
f 134/4/1 130/4/1 132/4/1
f 135/4/1 133/4/1 129/4/1
f 135/4/1 134/4/1 133/4/1
f 136/4/1 130/4/1 134/4/1
f 136/4/1 134/4/1 135/4/1
f 139/1/1 138/1/1 137/1/1
f 140/1/1 138/1/1 139/1/1
f 145/1/1 142/1/1 141/1/1
f 146/1/1 144/1/1 143/1/1
f 147/1/1 145/1/1 141/1/1
f 147/1/1 146/1/1 145/1/1
f 148/1/1 144/1/1 146/1/1
f 148/1/1 146/1/1 147/1/1
f 149/4/4 150/4/4 153/4/4
f 151/4/4 152/4/4 154/4/4
f 149/4/4 153/4/4 155/4/4
f 153/4/4 154/4/4 155/4/4
f 154/4/4 152/4/4 156/4/4
f 155/4/4 154/4/4 156/4/4
f 157/1/4 158/1/4 159/1/4
f 159/1/4 158/1/4 160/1/4
f 165/4/5 164/4/5 163/4/5
f 166/4/5 164/4/5 165/4/5
f 167/1/5 162/1/5 161/1/5
f 169/1/5 167/1/5 161/1/5
f 169/1/5 168/1/5 167/1/5
f 170/1/5 168/1/5 169/1/5
f 173/1/5 172/1/5 171/1/5
f 175/1/5 173/1/5 171/1/5
f 175/1/5 174/1/5 173/1/5
f 176/1/5 174/1/5 175/1/5
f 181/2/5 178/2/5 177/2/5
f 182/2/5 178/2/5 181/2/5
f 183/1/5 180/1/5 179/1/5
f 184/1/5 180/1/5 183/1/5
f 187/3/5 186/3/5 185/3/5
f 188/3/5 186/3/5 187/3/5
f 191/2/5 190/2/5 189/2/5
f 192/2/5 190/2/5 191/2/5
f 195/3/5 194/3/5 193/3/5
f 196/3/5 194/3/5 195/3/5
f 199/4/5 198/4/5 197/4/5
f 200/4/5 198/4/5 199/4/5
f 203/4/5 202/4/5 201/4/5
f 204/4/5 202/4/5 203/4/5
f 207/4/5 206/4/5 205/4/5
f 208/4/5 206/4/5 207/4/5
f 211/4/5 210/4/5 209/4/5
f 212/4/5 210/4/5 211/4/5
f 215/1/5 214/1/5 213/1/5
f 216/1/5 214/1/5 215/1/5
f 217/1/6 218/1/6 219/1/6
f 219/1/6 218/1/6 220/1/6
f 221/2/6 222/2/6 225/2/6
f 225/2/6 222/2/6 226/2/6
f 223/1/6 224/1/6 227/1/6
f 227/1/6 224/1/6 228/1/6
f 229/3/6 230/3/6 231/3/6
f 231/3/6 230/3/6 232/3/6
f 233/2/6 234/2/6 235/2/6
f 235/2/6 234/2/6 236/2/6
f 237/3/6 238/3/6 239/3/6
f 239/3/6 238/3/6 240/3/6
f 241/4/6 242/4/6 243/4/6
f 243/4/6 242/4/6 244/4/6
f 245/4/6 246/4/6 247/4/6
f 247/4/6 246/4/6 248/4/6
f 249/4/6 250/4/6 251/4/6
f 251/4/6 250/4/6 252/4/6
f 253/4/6 254/4/6 255/4/6
f 255/4/6 254/4/6 256/4/6
f 257/1/6 258/1/6 259/1/6
f 257/1/6 259/1/6 261/1/6
f 259/1/6 260/1/6 261/1/6
f 261/1/6 260/1/6 262/1/6
f 265/4/6 266/4/6 267/4/6
f 267/4/6 266/4/6 268/4/6
f 263/1/6 264/1/6 269/1/6
f 263/1/6 269/1/6 271/1/6
f 269/1/6 270/1/6 271/1/6
f 271/1/6 270/1/6 272/1/6
f 275/1/7 274/1/7 273/1/7
f 276/1/7 274/1/7 275/1/7
f 279/2/7 278/2/7 277/2/7
f 280/2/7 278/2/7 279/2/7
f 283/3/7 282/3/7 281/3/7
f 284/3/7 282/3/7 283/3/7
f 287/2/7 286/2/7 285/2/7
f 288/2/7 286/2/7 287/2/7
f 291/3/7 290/3/7 289/3/7
f 292/3/7 290/3/7 291/3/7
f 295/4/7 294/4/7 293/4/7
f 296/4/7 294/4/7 295/4/7
f 299/4/7 298/4/7 297/4/7
f 300/4/7 298/4/7 299/4/7
f 303/4/7 302/4/7 301/4/7
f 304/4/7 302/4/7 303/4/7
f 307/4/7 306/4/7 305/4/7
f 308/4/7 306/4/7 307/4/7
f 311/1/7 310/1/7 309/1/7
f 312/1/7 310/1/7 311/1/7
f 315/4/7 314/4/7 313/4/7
f 316/4/7 314/4/7 315/4/7
f 317/4/7 315/4/7 313/4/7
f 319/4/7 317/4/7 313/4/7
f 319/4/7 318/4/7 317/4/7
f 320/4/7 318/4/7 319/4/7
f 323/1/7 322/1/7 321/1/7
f 324/1/7 322/1/7 323/1/7
f 325/1/8 326/1/8 327/1/8
f 327/1/8 326/1/8 328/1/8
f 329/2/8 330/2/8 331/2/8
f 331/2/8 330/2/8 332/2/8
f 333/3/8 334/3/8 335/3/8
f 335/3/8 334/3/8 336/3/8
f 337/2/8 338/2/8 339/2/8
f 339/2/8 338/2/8 340/2/8
f 341/3/8 342/3/8 343/3/8
f 343/3/8 342/3/8 344/3/8
f 345/4/8 346/4/8 347/4/8
f 347/4/8 346/4/8 348/4/8
f 349/4/8 350/4/8 351/4/8
f 351/4/8 350/4/8 352/4/8
f 353/4/8 354/4/8 355/4/8
f 355/4/8 354/4/8 356/4/8
f 357/4/8 358/4/8 359/4/8
f 359/4/8 358/4/8 360/4/8
f 361/1/8 362/1/8 363/1/8
f 363/1/8 362/1/8 364/1/8
f 361/1/8 363/1/8 365/1/8
f 361/1/8 365/1/8 367/1/8
f 365/1/8 366/1/8 367/1/8
f 367/1/8 366/1/8 368/1/8
f 369/1/8 370/1/8 371/1/8
f 371/1/8 370/1/8 372/1/8
f 373/1/8 374/1/8 375/1/8
f 375/1/8 374/1/8 376/1/8
f 377/4/8 378/4/8 381/4/8
f 381/4/8 378/4/8 382/4/8
f 379/1/8 380/1/8 383/1/8
f 383/1/8 380/1/8 384/1/8
