# Blender 4.4.3
# www.blender.org
mtllib Untitled_073.mtl
o Untitled.073
v 0.049999 0.199999 -0.026471
v -0.050000 0.199999 -0.026471
v 0.049999 0.199999 -0.226471
v -0.050000 0.199999 -0.226471
v 0.349999 0.099999 0.573529
v -0.350000 0.099999 0.573529
v 0.250000 0.099999 0.473529
v -0.250000 0.099999 0.473529
v 0.250000 0.099999 0.073529
v -0.250000 0.099999 0.073529
v 0.349999 0.099999 -0.026471
v 0.049999 0.099999 -0.026471
v -0.050000 0.099999 -0.026471
v -0.350000 0.099999 -0.026471
v 0.150000 0.099999 -0.126471
v 0.049999 0.099999 -0.126471
v -0.050000 0.099999 -0.126471
v -0.150001 0.099999 -0.126471
v 0.049999 0.099999 -0.226471
v -0.050000 0.099999 -0.226471
v 0.150000 0.099999 -0.326471
v -0.150001 0.099999 -0.326471
v 0.349999 -0.100001 0.573529
v -0.350000 -0.100001 0.573529
v 0.250000 -0.100001 0.473529
v -0.250000 -0.100001 0.473529
v 0.250000 -0.100001 0.073529
v -0.250000 -0.100001 0.073529
v 0.349999 -0.100001 -0.026471
v 0.049999 -0.100001 -0.026471
v -0.050000 -0.100001 -0.026471
v -0.350000 -0.100001 -0.026471
v 0.150000 -0.100001 -0.126471
v 0.049999 -0.100001 -0.126471
v -0.050000 -0.100001 -0.126471
v -0.150001 -0.100001 -0.126471
v 0.049999 -0.100001 -0.226471
v -0.050000 -0.100001 -0.226471
v 0.150000 -0.100001 -0.326471
v -0.150001 -0.100001 -0.326471
v 0.049999 -0.200001 -0.026471
v -0.050000 -0.200001 -0.026471
v 0.049999 -0.200001 -0.226471
v -0.050000 -0.200001 -0.226471
v 0.349999 0.099999 0.573529
v 0.349999 0.099999 -0.026471
v 0.349999 -0.100001 0.573529
v 0.349999 -0.100001 -0.026471
v 0.150000 0.099999 -0.126471
v 0.150000 0.099999 -0.326471
v 0.150000 -0.100001 -0.126471
v 0.150000 -0.100001 -0.326471
v 0.049999 0.199999 -0.026471
v 0.049999 0.199999 -0.226471
v 0.049999 0.099999 -0.026471
v 0.049999 0.099999 -0.126471
v 0.049999 0.099999 -0.226471
v 0.049999 -0.100001 -0.026471
v 0.049999 -0.100001 -0.126471
v 0.049999 -0.100001 -0.226471
v 0.049999 -0.200001 -0.026471
v 0.049999 -0.200001 -0.226471
v -0.250000 0.099999 0.473529
v -0.250000 0.099999 0.073529
v -0.250000 -0.100001 0.473529
v -0.250000 -0.100001 0.073529
v 0.250000 0.099999 0.473529
v 0.250000 0.099999 0.073529
v 0.250000 -0.100001 0.473529
v 0.250000 -0.100001 0.073529
v -0.050000 0.199999 -0.026471
v -0.050000 0.199999 -0.226471
v -0.050000 0.099999 -0.026471
v -0.050000 0.099999 -0.126471
v -0.050000 0.099999 -0.226471
v -0.050000 -0.100001 -0.026471
v -0.050000 -0.100001 -0.126471
v -0.050000 -0.100001 -0.226471
v -0.050000 -0.200001 -0.026471
v -0.050000 -0.200001 -0.226471
v -0.150001 0.099999 -0.126471
v -0.150001 0.099999 -0.326471
v -0.150001 -0.100001 -0.126471
v -0.150001 -0.100001 -0.326471
v -0.350000 0.099999 0.573529
v -0.350000 0.099999 -0.026471
v -0.350000 -0.100001 0.573529
v -0.350000 -0.100001 -0.026471
v 0.349999 0.099999 0.573529
v 0.349999 -0.100001 0.573529
v -0.350000 0.099999 0.573529
v -0.350000 -0.100001 0.573529
v 0.250000 0.099999 0.073529
v 0.250000 -0.100001 0.073529
v -0.250000 0.099999 0.073529
v -0.250000 -0.100001 0.073529
v 0.049999 0.199999 -0.026471
v 0.049999 0.099999 -0.026471
v 0.049999 -0.100001 -0.026471
v 0.049999 -0.200001 -0.026471
v -0.050000 0.199999 -0.026471
v -0.050000 0.099999 -0.026471
v -0.050000 -0.100001 -0.026471
v -0.050000 -0.200001 -0.026471
v 0.150000 0.099999 -0.126471
v 0.150000 -0.100001 -0.126471
v 0.049999 0.099999 -0.126471
v 0.049999 -0.100001 -0.126471
v -0.050000 0.099999 -0.126471
v -0.050000 -0.100001 -0.126471
v -0.150001 0.099999 -0.126471
v -0.150001 -0.100001 -0.126471
v 0.250000 0.099999 0.473529
v 0.250000 -0.100001 0.473529
v -0.250000 0.099999 0.473529
v -0.250000 -0.100001 0.473529
v 0.349999 0.099999 -0.026471
v 0.349999 -0.100001 -0.026471
v 0.049999 0.099999 -0.026471
v 0.049999 -0.100001 -0.026471
v -0.050000 0.099999 -0.026471
v -0.050000 -0.100001 -0.026471
v -0.350000 0.099999 -0.026471
v -0.350000 -0.100001 -0.026471
v 0.049999 0.199999 -0.226471
v 0.049999 0.099999 -0.226471
v 0.049999 -0.100001 -0.226471
v 0.049999 -0.200001 -0.226471
v -0.050000 0.199999 -0.226471
v -0.050000 0.099999 -0.226471
v -0.050000 -0.100001 -0.226471
v -0.050000 -0.200001 -0.226471
v 0.150000 0.099999 -0.326471
v 0.150000 -0.100001 -0.326471
v -0.150001 0.099999 -0.326471
v -0.150001 -0.100001 -0.326471
vn -0.0000 1.0000 -0.0000
vn -0.0000 -1.0000 -0.0000
vn 1.0000 -0.0000 -0.0000
vn -1.0000 -0.0000 -0.0000
vn -0.0000 -0.0000 1.0000
vn -0.0000 -0.0000 -1.0000
vt 0.970703 0.500000
vt 0.912109 0.500000
s 1
usemtl palette.227
f 3/1/1 2/1/1 1/1/1
f 4/1/1 2/1/1 3/1/1
f 7/1/1 6/1/1 5/1/1
f 8/1/1 6/1/1 7/1/1
f 9/1/1 7/1/1 5/1/1
f 10/1/1 6/1/1 8/1/1
f 11/1/1 9/1/1 5/1/1
f 11/1/1 10/1/1 9/1/1
f 12/1/1 10/1/1 11/1/1
f 13/1/1 10/1/1 12/1/1
f 14/1/1 6/1/1 10/1/1
f 14/1/1 10/1/1 13/1/1
f 19/2/1 16/2/1 15/2/1
f 20/2/1 18/2/1 17/2/1
f 21/2/1 19/2/1 15/2/1
f 21/2/1 20/2/1 19/2/1
f 22/2/1 18/2/1 20/2/1
f 22/2/1 20/2/1 21/2/1
f 23/1/2 24/1/2 25/1/2
f 25/1/2 24/1/2 26/1/2
f 23/1/2 25/1/2 27/1/2
f 26/1/2 24/1/2 28/1/2
f 23/1/2 27/1/2 29/1/2
f 27/1/2 28/1/2 29/1/2
f 29/1/2 28/1/2 30/1/2
f 30/1/2 28/1/2 31/1/2
f 28/1/2 24/1/2 32/1/2
f 31/1/2 28/1/2 32/1/2
f 33/2/2 34/2/2 37/2/2
f 35/2/2 36/2/2 38/2/2
f 33/2/2 37/2/2 39/2/2
f 37/2/2 38/2/2 39/2/2
f 38/2/2 36/2/2 40/2/2
f 39/2/2 38/2/2 40/2/2
f 41/1/2 42/1/2 43/1/2
f 43/1/2 42/1/2 44/1/2
f 47/1/3 46/1/3 45/1/3
f 48/1/3 46/1/3 47/1/3
f 51/2/3 50/2/3 49/2/3
f 52/2/3 50/2/3 51/2/3
f 55/1/3 54/1/3 53/1/3
f 56/1/3 54/1/3 55/1/3
f 57/1/3 54/1/3 56/1/3
f 58/1/3 56/1/3 55/1/3
f 59/1/3 56/1/3 58/1/3
f 61/1/3 59/1/3 58/1/3
f 61/1/3 60/1/3 59/1/3
f 62/1/3 60/1/3 61/1/3
f 65/1/3 64/1/3 63/1/3
f 66/1/3 64/1/3 65/1/3
f 67/1/4 68/1/4 69/1/4
f 69/1/4 68/1/4 70/1/4
f 71/1/4 72/1/4 73/1/4
f 73/1/4 72/1/4 74/1/4
f 74/1/4 72/1/4 75/1/4
f 73/1/4 74/1/4 76/1/4
f 76/1/4 74/1/4 77/1/4
f 76/1/4 77/1/4 79/1/4
f 77/1/4 78/1/4 79/1/4
f 79/1/4 78/1/4 80/1/4
f 81/2/4 82/2/4 83/2/4
f 83/2/4 82/2/4 84/2/4
f 85/1/4 86/1/4 87/1/4
f 87/1/4 86/1/4 88/1/4
f 91/1/5 90/1/5 89/1/5
f 92/1/5 90/1/5 91/1/5
f 95/1/5 94/1/5 93/1/5
f 96/1/5 94/1/5 95/1/5
f 101/1/5 98/1/5 97/1/5
f 102/1/5 98/1/5 101/1/5
f 103/1/5 100/1/5 99/1/5
f 104/1/5 100/1/5 103/1/5
f 107/2/5 106/2/5 105/2/5
f 108/2/5 106/2/5 107/2/5
f 111/2/5 110/2/5 109/2/5
f 112/2/5 110/2/5 111/2/5
f 113/1/6 114/1/6 115/1/6
f 115/1/6 114/1/6 116/1/6
f 117/1/6 118/1/6 119/1/6
f 119/1/6 118/1/6 120/1/6
f 121/1/6 122/1/6 123/1/6
f 123/1/6 122/1/6 124/1/6
f 125/1/6 126/1/6 129/1/6
f 129/1/6 126/1/6 130/1/6
f 127/1/6 128/1/6 131/1/6
f 131/1/6 128/1/6 132/1/6
f 133/2/6 134/2/6 135/2/6
f 135/2/6 134/2/6 136/2/6
