# Blender 4.4.3
# www.blender.org
mtllib Untitled_070.mtl
o Untitled.070
v 0.841966 1.428567 0.448214
v -1.058034 1.428567 0.448214
v 0.741966 1.428567 0.348214
v 0.641966 1.428567 0.348214
v 0.441966 1.428567 0.348214
v 0.341966 1.428567 0.348214
v -0.058034 1.428567 0.348214
v -0.158034 1.428567 0.348214
v 0.641966 1.428567 0.248214
v 0.441966 1.428567 0.248214
v 0.341966 1.428567 0.248214
v 0.141966 1.428567 0.248214
v 0.741966 1.428567 0.148214
v 0.541966 1.428567 0.148214
v 0.241966 1.428567 0.148214
v 0.141966 1.428567 0.148214
v 0.741966 1.428567 0.048214
v 0.541966 1.428567 0.048214
v 0.441966 1.428567 0.048214
v 0.341966 1.428567 0.048214
v 0.241966 1.428567 0.048214
v 0.141966 1.428567 0.048214
v 0.741966 1.428567 -0.051786
v 0.141966 1.428567 -0.051786
v -0.058034 1.428567 -0.051786
v -0.158034 1.428567 -0.051786
v 0.841966 1.428567 -0.451786
v -1.058034 1.428567 -0.451786
v 0.841966 -1.271433 0.448214
v -1.058034 -1.271433 0.448214
v 0.641966 -1.271433 0.048214
v -0.558034 -1.271433 0.048214
v 0.641966 -1.271433 -0.051786
v -0.558034 -1.271433 -0.051786
v 0.641966 -1.271433 -0.151786
v -0.558034 -1.271433 -0.151786
v 0.641966 -1.271433 -0.251786
v -0.558034 -1.271433 -0.251786
v 0.841966 -1.271433 -0.451786
v -1.058034 -1.271433 -0.451786
v 0.841966 1.428567 0.448214
v 0.841966 1.428567 -0.451786
v 0.841966 0.328568 0.448214
v 0.841966 0.328568 0.348214
v 0.841966 0.328568 -0.351786
v 0.841966 0.328568 -0.451786
v 0.841966 -0.171432 0.448214
v 0.841966 -0.171432 0.348214
v 0.841966 -0.171432 -0.351786
v 0.841966 -0.171432 -0.451786
v 0.841966 -0.571433 0.148214
v 0.841966 -0.571433 -0.051786
v 0.841966 -0.571433 -0.151786
v 0.841966 -0.571433 -0.251786
v 0.841966 -0.771433 0.148214
v 0.841966 -0.771433 -0.051786
v 0.841966 -0.771433 -0.151786
v 0.841966 -0.771433 -0.251786
v 0.841966 -0.871432 0.148214
v 0.841966 -0.871432 -0.051786
v 0.841966 -0.871432 -0.151786
v 0.841966 -0.871432 -0.251786
v 0.841966 -1.071433 0.148214
v 0.841966 -1.071433 -0.051786
v 0.841966 -1.071433 -0.151786
v 0.841966 -1.071433 -0.251786
v 0.841966 -1.271433 0.448214
v 0.841966 -1.271433 -0.451786
v -1.058034 1.428567 0.448214
v -1.058034 1.428567 -0.451786
v -1.058034 0.328568 0.448214
v -1.058034 0.328568 0.348214
v -1.058034 0.328568 -0.351786
v -1.058034 0.328568 -0.451786
v -1.058034 -0.171432 0.448214
v -1.058034 -0.171432 0.348214
v -1.058034 -0.171432 -0.351786
v -1.058034 -0.171432 -0.451786
v -1.058034 -0.771433 0.048214
v -1.058034 -0.771433 -0.051786
v -1.058034 -0.771433 -0.151786
v -1.058034 -0.771433 -0.251786
v -1.058034 -0.871432 0.048214
v -1.058034 -0.871432 -0.051786
v -1.058034 -0.871432 -0.151786
v -1.058034 -0.871432 -0.251786
v -1.058034 -0.971433 0.048214
v -1.058034 -0.971433 -0.051786
v -1.058034 -0.971433 -0.151786
v -1.058034 -0.971433 -0.251786
v -1.058034 -1.071433 0.048214
v -1.058034 -1.071433 -0.051786
v -1.058034 -1.071433 -0.151786
v -1.058034 -1.071433 -0.251786
v -1.058034 -1.271433 0.448214
v -1.058034 -1.271433 -0.451786
v 0.841966 1.428567 0.448214
v 0.841966 0.328568 0.448214
v 0.841966 -0.171432 0.448214
v 0.841966 -1.271433 0.448214
v -1.058034 1.428567 0.448214
v -1.058034 0.328568 0.448214
v -1.058034 -0.171432 0.448214
v -1.058034 -1.271433 0.448214
v 0.841966 1.428567 -0.451786
v 0.841966 0.328568 -0.451786
v 0.841966 -0.171432 -0.451786
v 0.841966 -1.271433 -0.451786
v -1.058034 1.428567 -0.451786
v -1.058034 0.328568 -0.451786
v -1.058034 -0.171432 -0.451786
v -1.058034 -1.271433 -0.451786
vn -0.0000 1.0000 -0.0000
vn -0.0000 -1.0000 -0.0000
vn 1.0000 -0.0000 -0.0000
vn -1.0000 -0.0000 -0.0000
vn -0.0000 -0.0000 1.0000
vn -0.0000 -0.0000 -1.0000
vt 0.947266 0.500000
vt 0.990234 0.500000
vt 0.306641 0.500000
s 1
usemtl palette.222
f 3/1/1 2/1/1 1/1/1
f 4/1/1 2/1/1 3/1/1
f 5/1/1 2/1/1 4/1/1
f 6/1/1 2/1/1 5/1/1
f 7/1/1 2/1/1 6/1/1
f 8/1/1 2/1/1 7/1/1
f 9/2/1 4/2/1 3/2/1
f 9/1/1 5/1/1 4/1/1
f 10/2/1 6/2/1 5/2/1
f 10/1/1 5/1/1 9/1/1
f 11/1/1 7/1/1 6/1/1
f 11/2/1 6/2/1 10/2/1
f 12/1/1 7/1/1 11/1/1
f 13/1/1 3/1/1 1/1/1
f 13/2/1 9/2/1 3/2/1
f 13/2/1 10/2/1 9/2/1
f 14/2/1 10/2/1 13/2/1
f 15/2/1 12/2/1 11/2/1
f 16/1/1 7/1/1 12/1/1
f 16/2/1 12/2/1 15/2/1
f 17/1/1 13/1/1 1/1/1
f 17/1/1 14/1/1 13/1/1
f 18/2/1 10/2/1 14/2/1
f 18/1/1 14/1/1 17/1/1
f 19/1/1 11/1/1 10/1/1
f 19/2/1 10/2/1 18/2/1
f 20/2/1 15/2/1 11/2/1
f 20/1/1 11/1/1 19/1/1
f 21/1/1 16/1/1 15/1/1
f 21/2/1 15/2/1 20/2/1
f 22/1/1 7/1/1 16/1/1
f 22/1/1 16/1/1 21/1/1
f 23/2/1 19/2/1 18/2/1
f 23/1/1 17/1/1 1/1/1
f 23/2/1 22/2/1 21/2/1
f 23/2/1 20/2/1 19/2/1
f 23/2/1 21/2/1 20/2/1
f 23/2/1 18/2/1 17/2/1
f 24/1/1 7/1/1 22/1/1
f 24/2/1 22/2/1 23/2/1
f 25/3/1 8/3/1 7/3/1
f 25/1/1 7/1/1 24/1/1
f 26/1/1 2/1/1 8/1/1
f 26/3/1 8/3/1 25/3/1
f 27/1/1 23/1/1 1/1/1
f 27/1/1 25/1/1 24/1/1
f 27/1/1 26/1/1 25/1/1
f 27/1/1 24/1/1 23/1/1
f 28/1/1 2/1/1 26/1/1
f 28/1/1 26/1/1 27/1/1
f 29/1/2 30/1/2 31/1/2
f 31/1/2 30/1/2 32/1/2
f 29/1/2 31/1/2 33/1/2
f 31/3/2 32/3/2 33/3/2
f 32/1/2 30/1/2 34/1/2
f 33/3/2 32/3/2 34/3/2
f 29/1/2 33/1/2 35/1/2
f 33/1/2 34/1/2 35/1/2
f 34/1/2 30/1/2 36/1/2
f 35/1/2 34/1/2 36/1/2
f 29/1/2 35/1/2 37/1/2
f 35/3/2 36/3/2 37/3/2
f 36/1/2 30/1/2 38/1/2
f 37/3/2 36/3/2 38/3/2
f 29/1/2 37/1/2 39/1/2
f 37/1/2 38/1/2 39/1/2
f 38/1/2 30/1/2 40/1/2
f 39/1/2 38/1/2 40/1/2
f 43/1/3 42/1/3 41/1/3
f 44/1/3 42/1/3 43/1/3
f 45/1/3 42/1/3 44/1/3
f 46/1/3 42/1/3 45/1/3
f 47/3/3 44/3/3 43/3/3
f 48/1/3 45/1/3 44/1/3
f 48/3/3 44/3/3 47/3/3
f 49/3/3 46/3/3 45/3/3
f 49/1/3 45/1/3 48/1/3
f 50/3/3 46/3/3 49/3/3
f 51/1/3 48/1/3 47/1/3
f 51/1/3 49/1/3 48/1/3
f 51/1/3 50/1/3 49/1/3
f 52/1/3 50/1/3 51/1/3
f 53/1/3 50/1/3 52/1/3
f 54/1/3 50/1/3 53/1/3
f 55/1/3 51/1/3 47/1/3
f 55/3/3 52/3/3 51/3/3
f 56/1/3 53/1/3 52/1/3
f 56/3/3 52/3/3 55/3/3
f 57/3/3 54/3/3 53/3/3
f 57/1/3 53/1/3 56/1/3
f 58/1/3 50/1/3 54/1/3
f 58/3/3 54/3/3 57/3/3
f 59/1/3 57/1/3 56/1/3
f 59/1/3 56/1/3 55/1/3
f 59/1/3 58/1/3 57/1/3
f 59/1/3 55/1/3 47/1/3
f 60/1/3 58/1/3 59/1/3
f 61/1/3 58/1/3 60/1/3
f 62/1/3 50/1/3 58/1/3
f 62/1/3 58/1/3 61/1/3
f 63/1/3 59/1/3 47/1/3
f 63/3/3 60/3/3 59/3/3
f 64/1/3 61/1/3 60/1/3
f 64/3/3 60/3/3 63/3/3
f 65/3/3 62/3/3 61/3/3
f 65/1/3 61/1/3 64/1/3
f 66/1/3 50/1/3 62/1/3
f 66/3/3 62/3/3 65/3/3
f 67/1/3 63/1/3 47/1/3
f 67/1/3 65/1/3 64/1/3
f 67/1/3 66/1/3 65/1/3
f 67/1/3 64/1/3 63/1/3
f 68/1/3 50/1/3 66/1/3
f 68/1/3 66/1/3 67/1/3
f 69/1/4 70/1/4 71/1/4
f 71/1/4 70/1/4 72/1/4
f 72/1/4 70/1/4 73/1/4
f 73/1/4 70/1/4 74/1/4
f 71/3/4 72/3/4 75/3/4
f 72/1/4 73/1/4 76/1/4
f 75/3/4 72/3/4 76/3/4
f 73/3/4 74/3/4 77/3/4
f 76/1/4 73/1/4 77/1/4
f 77/3/4 74/3/4 78/3/4
f 75/1/4 76/1/4 79/1/4
f 76/1/4 77/1/4 79/1/4
f 77/1/4 78/1/4 79/1/4
f 79/1/4 78/1/4 80/1/4
f 80/1/4 78/1/4 81/1/4
f 81/1/4 78/1/4 82/1/4
f 75/1/4 79/1/4 83/1/4
f 79/3/4 80/3/4 83/3/4
f 80/1/4 81/1/4 84/1/4
f 83/3/4 80/3/4 84/3/4
f 81/3/4 82/3/4 85/3/4
f 84/1/4 81/1/4 85/1/4
f 82/1/4 78/1/4 86/1/4
f 85/3/4 82/3/4 86/3/4
f 84/1/4 85/1/4 87/1/4
f 83/1/4 84/1/4 87/1/4
f 85/1/4 86/1/4 87/1/4
f 75/1/4 83/1/4 87/1/4
f 87/1/4 86/1/4 88/1/4
f 88/1/4 86/1/4 89/1/4
f 86/1/4 78/1/4 90/1/4
f 89/1/4 86/1/4 90/1/4
f 75/1/4 87/1/4 91/1/4
f 87/3/4 88/3/4 91/3/4
f 88/1/4 89/1/4 92/1/4
f 91/3/4 88/3/4 92/3/4
f 89/3/4 90/3/4 93/3/4
f 92/1/4 89/1/4 93/1/4
f 90/1/4 78/1/4 94/1/4
f 93/3/4 90/3/4 94/3/4
f 75/1/4 91/1/4 95/1/4
f 92/1/4 93/1/4 95/1/4
f 93/1/4 94/1/4 95/1/4
f 91/1/4 92/1/4 95/1/4
f 94/1/4 78/1/4 96/1/4
f 95/1/4 94/1/4 96/1/4
f 101/1/5 98/1/5 97/1/5
f 102/3/5 99/3/5 98/3/5
f 102/1/5 98/1/5 101/1/5
f 103/1/5 100/1/5 99/1/5
f 103/3/5 99/3/5 102/3/5
f 104/1/5 100/1/5 103/1/5
f 105/1/6 106/1/6 109/1/6
f 106/3/6 107/3/6 110/3/6
f 109/1/6 106/1/6 110/1/6
f 107/1/6 108/1/6 111/1/6
f 110/3/6 107/3/6 111/3/6
f 111/1/6 108/1/6 112/1/6
