# Blender 4.4.3
# www.blender.org
mtllib Untitled_056.mtl
o Untitled.056
v -0.774286 0.614287 0.050000
v -0.774286 -0.485713 0.050000
v -0.774286 0.614287 -0.050000
v -0.774286 -0.485713 -0.050000
v 0.825714 0.614287 0.050000
v 0.825714 -0.485713 0.050000
v 0.825714 0.614287 -0.050000
v 0.825714 -0.485713 -0.050000
v -0.774286 0.614287 0.050000
v -0.774286 0.614287 -0.050000
v 0.825714 0.614287 0.050000
v 0.825714 0.614287 -0.050000
v -0.774286 -0.485713 0.050000
v -0.774286 -0.485713 -0.050000
v 0.825714 -0.485713 0.050000
v 0.825714 -0.485713 -0.050000
v -0.774286 0.614287 0.050000
v 0.825714 0.614287 0.050000
v 0.025714 0.514287 0.050000
v 0.725714 0.514287 0.050000
v -0.674286 0.414287 0.050000
v -0.074286 0.414287 0.050000
v 0.025714 0.414287 0.050000
v 0.725714 0.414287 0.050000
v -0.674286 0.314287 0.050000
v -0.574286 0.314287 0.050000
v -0.474286 0.314287 0.050000
v -0.274286 0.314287 0.050000
v -0.174286 0.314287 0.050000
v -0.074286 0.314287 0.050000
v 0.025714 0.314287 0.050000
v 0.725714 0.314287 0.050000
v -0.574286 0.214287 0.050000
v -0.474286 0.214287 0.050000
v -0.274286 0.214287 0.050000
v -0.174286 0.214287 0.050000
v 0.025714 0.214287 0.050000
v 0.725714 0.214287 0.050000
v -0.674286 0.114287 0.050000
v -0.574286 0.114287 0.050000
v -0.174286 0.114287 0.050000
v -0.074286 0.114287 0.050000
v 0.025714 0.114287 0.050000
v 0.725714 0.114287 0.050000
v 0.025714 0.014287 0.050000
v 0.725714 0.014287 0.050000
v -0.674286 -0.085713 0.050000
v -0.574286 -0.085713 0.050000
v -0.174286 -0.085713 0.050000
v -0.074286 -0.085713 0.050000
v 0.025714 -0.085713 0.050000
v 0.725714 -0.085713 0.050000
v -0.574286 -0.185713 0.050000
v -0.174286 -0.185713 0.050000
v 0.025714 -0.185713 0.050000
v 0.725714 -0.185713 0.050000
v -0.674286 -0.285713 0.050000
v -0.574286 -0.285713 0.050000
v -0.174286 -0.285713 0.050000
v -0.074286 -0.285713 0.050000
v 0.025714 -0.285713 0.050000
v 0.225714 -0.285713 0.050000
v 0.325714 -0.285713 0.050000
v 0.525714 -0.285713 0.050000
v 0.625714 -0.285713 0.050000
v 0.725714 -0.285713 0.050000
v -0.674286 -0.385713 0.050000
v -0.574286 -0.385713 0.050000
v -0.174286 -0.385713 0.050000
v -0.074286 -0.385713 0.050000
v 0.025714 -0.385713 0.050000
v 0.225714 -0.385713 0.050000
v 0.325714 -0.385713 0.050000
v 0.525714 -0.385713 0.050000
v 0.625714 -0.385713 0.050000
v 0.725714 -0.385713 0.050000
v -0.774286 -0.485713 0.050000
v 0.825714 -0.485713 0.050000
v -0.774286 0.614287 -0.050000
v 0.825714 0.614287 -0.050000
v 0.025714 0.514287 -0.050000
v 0.725714 0.514287 -0.050000
v -0.674286 0.414287 -0.050000
v -0.074286 0.414287 -0.050000
v 0.025714 0.414287 -0.050000
v 0.725714 0.414287 -0.050000
v -0.674286 0.314287 -0.050000
v -0.574286 0.314287 -0.050000
v -0.474286 0.314287 -0.050000
v -0.274286 0.314287 -0.050000
v -0.174286 0.314287 -0.050000
v -0.074286 0.314287 -0.050000
v 0.025714 0.314287 -0.050000
v 0.725714 0.314287 -0.050000
v -0.574286 0.214287 -0.050000
v -0.474286 0.214287 -0.050000
v -0.274286 0.214287 -0.050000
v -0.174286 0.214287 -0.050000
v 0.025714 0.214287 -0.050000
v 0.725714 0.214287 -0.050000
v -0.674286 0.114287 -0.050000
v -0.574286 0.114287 -0.050000
v -0.174286 0.114287 -0.050000
v -0.074286 0.114287 -0.050000
v 0.025714 0.114287 -0.050000
v 0.725714 0.114287 -0.050000
v 0.025714 0.014287 -0.050000
v 0.725714 0.014287 -0.050000
v -0.674286 -0.085713 -0.050000
v -0.574286 -0.085713 -0.050000
v -0.174286 -0.085713 -0.050000
v -0.074286 -0.085713 -0.050000
v 0.025714 -0.085713 -0.050000
v 0.725714 -0.085713 -0.050000
v -0.574286 -0.185713 -0.050000
v -0.174286 -0.185713 -0.050000
v 0.025714 -0.185713 -0.050000
v 0.725714 -0.185713 -0.050000
v -0.674286 -0.285713 -0.050000
v -0.574286 -0.285713 -0.050000
v -0.174286 -0.285713 -0.050000
v -0.074286 -0.285713 -0.050000
v 0.025714 -0.285713 -0.050000
v 0.225714 -0.285713 -0.050000
v 0.325714 -0.285713 -0.050000
v 0.525714 -0.285713 -0.050000
v 0.625714 -0.285713 -0.050000
v 0.725714 -0.285713 -0.050000
v -0.674286 -0.385713 -0.050000
v -0.574286 -0.385713 -0.050000
v -0.174286 -0.385713 -0.050000
v -0.074286 -0.385713 -0.050000
v 0.025714 -0.385713 -0.050000
v 0.225714 -0.385713 -0.050000
v 0.325714 -0.385713 -0.050000
v 0.525714 -0.385713 -0.050000
v 0.625714 -0.385713 -0.050000
v 0.725714 -0.385713 -0.050000
v -0.774286 -0.485713 -0.050000
v 0.825714 -0.485713 -0.050000
vn -1.0000 -0.0000 -0.0000
vn 1.0000 -0.0000 -0.0000
vn -0.0000 1.0000 -0.0000
vn -0.0000 -1.0000 -0.0000
vn -0.0000 -0.0000 1.0000
vn -0.0000 -0.0000 -1.0000
vt 0.310547 0.500000
vt 0.978516 0.500000
vt 0.798828 0.500000
vt 0.970703 0.500000
vt 0.236328 0.500000
vt 0.947266 0.500000
s 1
usemtl palette.202
f 3/1/1 2/1/1 1/1/1
f 4/1/1 2/1/1 3/1/1
f 5/1/2 6/1/2 7/1/2
f 7/1/2 6/1/2 8/1/2
f 11/1/3 10/1/3 9/1/3
f 12/1/3 10/1/3 11/1/3
f 13/1/4 14/1/4 15/1/4
f 15/1/4 14/1/4 16/1/4
f 19/1/5 18/1/5 17/1/5
f 20/1/5 18/1/5 19/1/5
f 21/1/5 19/1/5 17/1/5
f 22/1/5 19/1/5 21/1/5
f 23/2/5 20/2/5 19/2/5
f 23/1/5 19/1/5 22/1/5
f 24/1/5 18/1/5 20/1/5
f 24/2/5 20/2/5 23/2/5
f 25/3/5 22/3/5 21/3/5
f 25/1/5 21/1/5 17/1/5
f 26/3/5 22/3/5 25/3/5
f 27/3/5 22/3/5 26/3/5
f 28/3/5 22/3/5 27/3/5
f 29/3/5 22/3/5 28/3/5
f 30/1/5 23/1/5 22/1/5
f 30/3/5 22/3/5 29/3/5
f 30/1/5 24/1/5 23/1/5
f 31/1/5 24/1/5 30/1/5
f 32/1/5 18/1/5 24/1/5
f 32/1/5 24/1/5 31/1/5
f 33/4/5 26/4/5 25/4/5
f 33/3/5 27/3/5 26/3/5
f 34/5/5 28/5/5 27/5/5
f 34/3/5 27/3/5 33/3/5
f 35/3/5 29/3/5 28/3/5
f 35/5/5 28/5/5 34/5/5
f 36/4/5 30/4/5 29/4/5
f 36/3/5 29/3/5 35/3/5
f 37/1/5 31/1/5 30/1/5
f 37/2/5 32/2/5 31/2/5
f 38/1/5 18/1/5 32/1/5
f 38/2/5 32/2/5 37/2/5
f 39/4/5 33/4/5 25/4/5
f 39/1/5 25/1/5 17/1/5
f 40/5/5 34/5/5 33/5/5
f 40/4/5 33/4/5 39/4/5
f 40/5/5 36/5/5 35/5/5
f 40/5/5 35/5/5 34/5/5
f 41/4/5 30/4/5 36/4/5
f 41/5/5 36/5/5 40/5/5
f 42/1/5 38/1/5 37/1/5
f 42/4/5 30/4/5 41/4/5
f 42/1/5 37/1/5 30/1/5
f 43/1/5 38/1/5 42/1/5
f 44/1/5 18/1/5 38/1/5
f 44/1/5 38/1/5 43/1/5
f 45/1/5 43/1/5 42/1/5
f 45/2/5 44/2/5 43/2/5
f 46/1/5 18/1/5 44/1/5
f 46/2/5 44/2/5 45/2/5
f 47/1/5 39/1/5 17/1/5
f 47/2/5 40/2/5 39/2/5
f 47/2/5 41/2/5 40/2/5
f 47/2/5 42/2/5 41/2/5
f 48/2/5 42/2/5 47/2/5
f 49/2/5 42/2/5 48/2/5
f 50/1/5 46/1/5 45/1/5
f 50/2/5 42/2/5 49/2/5
f 50/1/5 45/1/5 42/1/5
f 51/1/5 46/1/5 50/1/5
f 52/1/5 18/1/5 46/1/5
f 52/1/5 46/1/5 51/1/5
f 53/5/5 49/5/5 48/5/5
f 53/6/5 48/6/5 47/6/5
f 54/6/5 50/6/5 49/6/5
f 54/5/5 49/5/5 53/5/5
f 55/1/5 51/1/5 50/1/5
f 55/2/5 52/2/5 51/2/5
f 56/1/5 18/1/5 52/1/5
f 56/2/5 52/2/5 55/2/5
f 57/6/5 54/6/5 53/6/5
f 57/1/5 47/1/5 17/1/5
f 57/6/5 53/6/5 47/6/5
f 58/6/5 54/6/5 57/6/5
f 59/6/5 50/6/5 54/6/5
f 59/6/5 54/6/5 58/6/5
f 60/1/5 55/1/5 50/1/5
f 60/6/5 50/6/5 59/6/5
f 60/1/5 56/1/5 55/1/5
f 61/1/5 56/1/5 60/1/5
f 62/1/5 56/1/5 61/1/5
f 63/1/5 56/1/5 62/1/5
f 64/1/5 56/1/5 63/1/5
f 65/1/5 56/1/5 64/1/5
f 66/1/5 18/1/5 56/1/5
f 66/1/5 56/1/5 65/1/5
f 67/4/5 58/4/5 57/4/5
f 67/1/5 57/1/5 17/1/5
f 68/6/5 59/6/5 58/6/5
f 68/4/5 58/4/5 67/4/5
f 69/4/5 60/4/5 59/4/5
f 69/6/5 59/6/5 68/6/5
f 70/1/5 61/1/5 60/1/5
f 70/4/5 60/4/5 69/4/5
f 71/2/5 62/2/5 61/2/5
f 71/1/5 61/1/5 70/1/5
f 72/1/5 63/1/5 62/1/5
f 72/2/5 62/2/5 71/2/5
f 73/2/5 64/2/5 63/2/5
f 73/1/5 63/1/5 72/1/5
f 74/1/5 65/1/5 64/1/5
f 74/2/5 64/2/5 73/2/5
f 75/2/5 66/2/5 65/2/5
f 75/1/5 65/1/5 74/1/5
f 76/1/5 18/1/5 66/1/5
f 76/2/5 66/2/5 75/2/5
f 77/1/5 75/1/5 74/1/5
f 77/1/5 67/1/5 17/1/5
f 77/1/5 76/1/5 75/1/5
f 77/1/5 72/1/5 71/1/5
f 77/1/5 71/1/5 70/1/5
f 77/1/5 70/1/5 69/1/5
f 77/1/5 69/1/5 68/1/5
f 77/1/5 68/1/5 67/1/5
f 77/1/5 74/1/5 73/1/5
f 77/1/5 73/1/5 72/1/5
f 78/1/5 18/1/5 76/1/5
f 78/1/5 76/1/5 77/1/5
f 79/1/6 80/1/6 81/1/6
f 81/1/6 80/1/6 82/1/6
f 79/1/6 81/1/6 83/1/6
f 83/1/6 81/1/6 84/1/6
f 81/2/6 82/2/6 85/2/6
f 84/1/6 81/1/6 85/1/6
f 82/1/6 80/1/6 86/1/6
f 85/2/6 82/2/6 86/2/6
f 83/3/6 84/3/6 87/3/6
f 79/1/6 83/1/6 87/1/6
f 87/3/6 84/3/6 88/3/6
f 88/3/6 84/3/6 89/3/6
f 89/3/6 84/3/6 90/3/6
f 90/3/6 84/3/6 91/3/6
f 84/1/6 85/1/6 92/1/6
f 91/3/6 84/3/6 92/3/6
f 85/1/6 86/1/6 92/1/6
f 92/1/6 86/1/6 93/1/6
f 86/1/6 80/1/6 94/1/6
f 93/1/6 86/1/6 94/1/6
f 87/4/6 88/4/6 95/4/6
f 88/3/6 89/3/6 95/3/6
f 89/5/6 90/5/6 96/5/6
f 95/3/6 89/3/6 96/3/6
f 90/3/6 91/3/6 97/3/6
f 96/5/6 90/5/6 97/5/6
f 91/4/6 92/4/6 98/4/6
f 97/3/6 91/3/6 98/3/6
f 92/1/6 93/1/6 99/1/6
f 93/2/6 94/2/6 99/2/6
f 94/1/6 80/1/6 100/1/6
f 99/2/6 94/2/6 100/2/6
f 87/4/6 95/4/6 101/4/6
f 79/1/6 87/1/6 101/1/6
f 95/5/6 96/5/6 102/5/6
f 101/4/6 95/4/6 102/4/6
f 97/5/6 98/5/6 102/5/6
f 96/5/6 97/5/6 102/5/6
f 98/4/6 92/4/6 103/4/6
f 102/5/6 98/5/6 103/5/6
f 99/1/6 100/1/6 104/1/6
f 103/4/6 92/4/6 104/4/6
f 92/1/6 99/1/6 104/1/6
f 104/1/6 100/1/6 105/1/6
f 100/1/6 80/1/6 106/1/6
f 105/1/6 100/1/6 106/1/6
f 104/1/6 105/1/6 107/1/6
f 105/2/6 106/2/6 107/2/6
f 106/1/6 80/1/6 108/1/6
f 107/2/6 106/2/6 108/2/6
f 79/1/6 101/1/6 109/1/6
f 101/2/6 102/2/6 109/2/6
f 102/2/6 103/2/6 109/2/6
f 103/2/6 104/2/6 109/2/6
f 109/2/6 104/2/6 110/2/6
f 110/2/6 104/2/6 111/2/6
f 107/1/6 108/1/6 112/1/6
f 111/2/6 104/2/6 112/2/6
f 104/1/6 107/1/6 112/1/6
f 112/1/6 108/1/6 113/1/6
f 108/1/6 80/1/6 114/1/6
f 113/1/6 108/1/6 114/1/6
f 110/5/6 111/5/6 115/5/6
f 109/6/6 110/6/6 115/6/6
f 111/6/6 112/6/6 116/6/6
f 115/5/6 111/5/6 116/5/6
f 112/1/6 113/1/6 117/1/6
f 113/2/6 114/2/6 117/2/6
f 114/1/6 80/1/6 118/1/6
f 117/2/6 114/2/6 118/2/6
f 115/6/6 116/6/6 119/6/6
f 79/1/6 109/1/6 119/1/6
f 109/6/6 115/6/6 119/6/6
f 119/6/6 116/6/6 120/6/6
f 116/6/6 112/6/6 121/6/6
f 120/6/6 116/6/6 121/6/6
f 112/1/6 117/1/6 122/1/6
f 121/6/6 112/6/6 122/6/6
f 117/1/6 118/1/6 122/1/6
f 122/1/6 118/1/6 123/1/6
f 123/1/6 118/1/6 124/1/6
f 124/1/6 118/1/6 125/1/6
f 125/1/6 118/1/6 126/1/6
f 126/1/6 118/1/6 127/1/6
f 118/1/6 80/1/6 128/1/6
f 127/1/6 118/1/6 128/1/6
f 119/4/6 120/4/6 129/4/6
f 79/1/6 119/1/6 129/1/6
f 120/6/6 121/6/6 130/6/6
f 129/4/6 120/4/6 130/4/6
f 121/4/6 122/4/6 131/4/6
f 130/6/6 121/6/6 131/6/6
f 122/1/6 123/1/6 132/1/6
f 131/4/6 122/4/6 132/4/6
f 123/2/6 124/2/6 133/2/6
f 132/1/6 123/1/6 133/1/6
f 124/1/6 125/1/6 134/1/6
f 133/2/6 124/2/6 134/2/6
f 125/2/6 126/2/6 135/2/6
f 134/1/6 125/1/6 135/1/6
f 126/1/6 127/1/6 136/1/6
f 135/2/6 126/2/6 136/2/6
f 127/2/6 128/2/6 137/2/6
f 136/1/6 127/1/6 137/1/6
f 128/1/6 80/1/6 138/1/6
f 137/2/6 128/2/6 138/2/6
f 136/1/6 137/1/6 139/1/6
f 79/1/6 129/1/6 139/1/6
f 137/1/6 138/1/6 139/1/6
f 133/1/6 134/1/6 139/1/6
f 132/1/6 133/1/6 139/1/6
f 131/1/6 132/1/6 139/1/6
f 130/1/6 131/1/6 139/1/6
f 129/1/6 130/1/6 139/1/6
f 135/1/6 136/1/6 139/1/6
f 134/1/6 135/1/6 139/1/6
f 138/1/6 80/1/6 140/1/6
f 139/1/6 138/1/6 140/1/6
