# Blender 4.4.3
# www.blender.org
mtllib Untitled_023.mtl
o Untitled.023
v -1.099966 -0.100886 0.430358
v -1.099966 -0.500886 0.430358
v -1.099966 0.599113 0.330357
v -1.099966 0.499114 0.330357
v -1.099966 -0.100886 0.330357
v -1.099966 -0.200887 0.330357
v -1.099966 -0.400887 0.330357
v -1.099966 0.499114 0.230357
v -1.099966 -0.100886 0.230357
v -1.099966 0.499114 0.130358
v -1.099966 -0.100886 0.130358
v -1.099966 0.599113 0.030357
v -1.099966 0.499114 0.030357
v -1.099966 -0.100886 0.030357
v -1.099966 -0.200887 0.030357
v -1.099966 -0.400887 0.030357
v -1.099966 -0.100886 -0.069642
v -1.099966 -0.200887 -0.069642
v -1.099966 -0.400887 -0.069642
v -1.099966 -0.500886 -0.069642
v -1.099966 -0.200887 -0.669642
v -1.099966 -0.400887 -0.669642
v -1.099966 -0.200887 -0.869642
v -1.099966 -0.400887 -0.869642
v -0.999966 0.099113 0.630358
v -0.999966 -0.700887 0.630358
v -0.999966 -0.000886 0.530357
v -0.999966 -0.600886 0.530357
v -0.999966 -0.100886 0.430358
v -0.999966 -0.500886 0.430358
v -0.999966 0.699114 0.330357
v -0.999966 0.599113 0.330357
v -0.999966 0.099113 0.330357
v -0.999966 -0.000886 0.330357
v -0.999966 -0.100886 0.330357
v -0.999966 0.699114 0.030357
v -0.999966 0.599113 0.030357
v -0.999966 0.099113 0.030357
v -0.999966 -0.000886 0.030357
v -0.999966 -0.100886 0.030357
v -0.999966 -0.100886 -0.069642
v -0.999966 -0.200887 -0.069642
v -0.999966 -0.400887 -0.069642
v -0.999966 -0.500886 -0.069642
v -0.999966 -0.000886 -0.169643
v -0.999966 -0.100886 -0.169643
v -0.999966 -0.200887 -0.169643
v -0.999966 -0.400887 -0.169643
v -0.999966 -0.500886 -0.169643
v -0.999966 -0.600886 -0.169643
v -0.999966 0.099113 -0.269642
v -0.999966 -0.000886 -0.269642
v -0.999966 -0.100886 -0.269642
v -0.999966 -0.200887 -0.269642
v -0.999966 -0.400887 -0.269642
v -0.999966 -0.500886 -0.269642
v -0.999966 -0.600886 -0.269642
v -0.999966 -0.700887 -0.269642
v -0.899965 0.899114 0.530357
v -0.899965 0.499114 0.530357
v -0.899965 0.799114 0.330357
v -0.899965 0.699114 0.330357
v -0.899965 0.499114 0.330357
v -0.899965 0.799114 0.030357
v -0.899965 0.699114 0.030357
v -0.899965 0.499114 0.030357
v -0.899965 0.899114 -0.169643
v -0.899965 0.499114 -0.169643
v 0.800035 0.099113 0.630358
v 0.800035 -0.700887 0.630358
v 0.800035 -0.000886 0.530357
v 0.800035 -0.600886 0.530357
v 0.800035 -0.000886 -0.069642
v 0.800035 -0.600886 -0.069642
v 0.800035 -0.000886 -0.169643
v 0.800035 -0.100886 -0.169643
v 0.800035 -0.200887 -0.169643
v 0.800035 -0.400887 -0.169643
v 0.800035 -0.500886 -0.169643
v 0.800035 -0.600886 -0.169643
v 0.800035 0.099113 -0.269642
v 0.800035 -0.000886 -0.269642
v 0.800035 -0.100886 -0.269642
v 0.800035 -0.200887 -0.269642
v 0.800035 -0.400887 -0.269642
v 0.800035 -0.500886 -0.269642
v 0.800035 -0.600886 -0.269642
v 0.800035 -0.700887 -0.269642
v 0.900034 0.499114 0.330357
v 0.900034 0.099113 0.330357
v 0.900034 0.499114 0.030357
v 0.900034 0.099113 0.030357
v 1.000034 -0.200887 -0.269642
v 1.000034 -0.400887 -0.269642
v 1.000034 -0.200887 -0.669642
v 1.000034 -0.400887 -0.669642
v 1.000034 -0.200887 -0.869642
v 1.000034 -0.400887 -0.869642
v -0.999966 -0.200887 -0.269642
v -0.999966 -0.400887 -0.269642
v -0.999966 -0.200887 -0.669642
v -0.999966 -0.400887 -0.669642
v -0.999966 -0.200887 -0.869642
v -0.999966 -0.400887 -0.869642
v -0.899965 0.499114 0.330357
v -0.899965 0.099113 0.330357
v -0.899965 0.499114 0.030357
v -0.899965 0.099113 0.030357
v -0.799965 0.099113 0.630358
v -0.799965 -0.700887 0.630358
v -0.799965 -0.000886 0.530357
v -0.799965 -0.600886 0.530357
v -0.799965 -0.000886 -0.069642
v -0.799965 -0.600886 -0.069642
v -0.799965 -0.000886 -0.169643
v -0.799965 -0.100886 -0.169643
v -0.799965 -0.200887 -0.169643
v -0.799965 -0.400887 -0.169643
v -0.799965 -0.500886 -0.169643
v -0.799965 -0.600886 -0.169643
v -0.799965 0.099113 -0.269642
v -0.799965 -0.000886 -0.269642
v -0.799965 -0.100886 -0.269642
v -0.799965 -0.200887 -0.269642
v -0.799965 -0.400887 -0.269642
v -0.799965 -0.500886 -0.269642
v -0.799965 -0.600886 -0.269642
v -0.799965 -0.700887 -0.269642
v 0.900034 0.899114 0.530357
v 0.900034 0.499114 0.530357
v 0.900034 0.799114 0.330357
v 0.900034 0.699114 0.330357
v 0.900034 0.499114 0.330357
v 0.900034 0.799114 0.030357
v 0.900034 0.699114 0.030357
v 0.900034 0.499114 0.030357
v 0.900034 0.899114 -0.169643
v 0.900034 0.499114 -0.169643
v 1.000034 0.099113 0.630358
v 1.000034 -0.700887 0.630358
v 1.000034 -0.000886 0.530357
v 1.000034 -0.600886 0.530357
v 1.000034 -0.100886 0.430358
v 1.000034 -0.500886 0.430358
v 1.000034 0.699114 0.330357
v 1.000034 0.599113 0.330357
v 1.000034 0.099113 0.330357
v 1.000034 -0.000886 0.330357
v 1.000034 -0.100886 0.330357
v 1.000034 0.699114 0.030357
v 1.000034 0.599113 0.030357
v 1.000034 0.099113 0.030357
v 1.000034 -0.000886 0.030357
v 1.000034 -0.100886 0.030357
v 1.000034 -0.100886 -0.069642
v 1.000034 -0.200887 -0.069642
v 1.000034 -0.400887 -0.069642
v 1.000034 -0.500886 -0.069642
v 1.000034 -0.000886 -0.169643
v 1.000034 -0.100886 -0.169643
v 1.000034 -0.200887 -0.169643
v 1.000034 -0.400887 -0.169643
v 1.000034 -0.500886 -0.169643
v 1.000034 -0.600886 -0.169643
v 1.000034 0.099113 -0.269642
v 1.000034 -0.000886 -0.269642
v 1.000034 -0.100886 -0.269642
v 1.000034 -0.200887 -0.269642
v 1.000034 -0.400887 -0.269642
v 1.000034 -0.500886 -0.269642
v 1.000034 -0.600886 -0.269642
v 1.000034 -0.700887 -0.269642
v 1.100035 -0.100886 0.430358
v 1.100035 -0.500886 0.430358
v 1.100035 0.599113 0.330357
v 1.100035 0.499114 0.330357
v 1.100035 -0.100886 0.330357
v 1.100035 -0.200887 0.330357
v 1.100035 -0.400887 0.330357
v 1.100035 0.499114 0.230357
v 1.100035 -0.100886 0.230357
v 1.100035 0.499114 0.130358
v 1.100035 -0.100886 0.130358
v 1.100035 0.599113 0.030357
v 1.100035 0.499114 0.030357
v 1.100035 -0.100886 0.030357
v 1.100035 -0.200887 0.030357
v 1.100035 -0.400887 0.030357
v 1.100035 -0.100886 -0.069642
v 1.100035 -0.200887 -0.069642
v 1.100035 -0.400887 -0.069642
v 1.100035 -0.500886 -0.069642
v 1.100035 -0.200887 -0.669642
v 1.100035 -0.400887 -0.669642
v 1.100035 -0.200887 -0.869642
v 1.100035 -0.400887 -0.869642
v -0.899965 0.899114 0.530357
v -0.899965 0.899114 -0.169643
v -0.799965 0.899114 0.430358
v -0.799965 0.899114 -0.069642
v -0.699965 0.899114 0.330357
v -0.699965 0.899114 0.030357
v 0.700035 0.899114 0.330357
v 0.700035 0.899114 0.030357
v 0.800035 0.899114 0.430358
v 0.800035 0.899114 -0.069642
v 0.900034 0.899114 0.530357
v 0.900034 0.899114 -0.169643
v -0.999966 0.699114 0.330357
v -0.999966 0.699114 0.030357
v -0.899965 0.699114 0.330357
v -0.899965 0.699114 0.030357
v 0.900034 0.699114 0.330357
v 0.900034 0.699114 0.030357
v 1.000034 0.699114 0.330357
v 1.000034 0.699114 0.030357
v -1.099966 0.599113 0.330357
v -1.099966 0.599113 0.030357
v -0.999966 0.599113 0.330357
v -0.999966 0.599113 0.030357
v 1.000034 0.599113 0.330357
v 1.000034 0.599113 0.030357
v 1.100035 0.599113 0.330357
v 1.100035 0.599113 0.030357
v -0.999966 0.099113 0.630358
v -0.999966 0.099113 0.330357
v -0.999966 0.099113 0.030357
v -0.999966 0.099113 -0.269642
v -0.899965 0.099113 0.330357
v -0.899965 0.099113 0.030357
v -0.799965 0.099113 0.630358
v -0.799965 0.099113 -0.269642
v 0.800035 0.099113 0.630358
v 0.800035 0.099113 -0.269642
v 0.900034 0.099113 0.330357
v 0.900034 0.099113 0.030357
v 1.000034 0.099113 0.630358
v 1.000034 0.099113 0.330357
v 1.000034 0.099113 0.030357
v 1.000034 0.099113 -0.269642
v -1.099966 -0.100886 0.430358
v -1.099966 -0.100886 0.330357
v -1.099966 -0.100886 0.030357
v -1.099966 -0.100886 -0.069642
v -0.999966 -0.100886 0.430358
v -0.999966 -0.100886 0.330357
v -0.999966 -0.100886 0.030357
v -0.999966 -0.100886 -0.069642
v 1.000034 -0.100886 0.430358
v 1.000034 -0.100886 0.330357
v 1.000034 -0.100886 0.030357
v 1.000034 -0.100886 -0.069642
v 1.100035 -0.100886 0.430358
v 1.100035 -0.100886 0.330357
v 1.100035 -0.100886 0.030357
v 1.100035 -0.100886 -0.069642
v -1.099966 -0.200887 -0.069642
v -1.099966 -0.200887 -0.669642
v -1.099966 -0.200887 -0.869642
v -0.999966 -0.200887 -0.069642
v -0.999966 -0.200887 -0.169643
v -0.999966 -0.200887 -0.269642
v -0.999966 -0.200887 -0.669642
v -0.999966 -0.200887 -0.869642
v 1.000034 -0.200887 -0.069642
v 1.000034 -0.200887 -0.169643
v 1.000034 -0.200887 -0.269642
v 1.000034 -0.200887 -0.669642
v 1.000034 -0.200887 -0.869642
v 1.100035 -0.200887 -0.069642
v 1.100035 -0.200887 -0.669642
v 1.100035 -0.200887 -0.869642
v -0.899965 0.499114 0.530357
v -0.899965 0.499114 0.330357
v -0.899965 0.499114 0.030357
v -0.899965 0.499114 -0.169643
v 0.900034 0.499114 0.530357
v 0.900034 0.499114 0.330357
v 0.900034 0.499114 0.030357
v 0.900034 0.499114 -0.169643
v -1.099966 -0.400887 -0.069642
v -1.099966 -0.400887 -0.669642
v -1.099966 -0.400887 -0.869642
v -0.999966 -0.400887 -0.069642
v -0.999966 -0.400887 -0.169643
v -0.999966 -0.400887 -0.269642
v -0.999966 -0.400887 -0.669642
v -0.999966 -0.400887 -0.869642
v 1.000034 -0.400887 -0.069642
v 1.000034 -0.400887 -0.169643
v 1.000034 -0.400887 -0.269642
v 1.000034 -0.400887 -0.669642
v 1.000034 -0.400887 -0.869642
v 1.100035 -0.400887 -0.069642
v 1.100035 -0.400887 -0.669642
v 1.100035 -0.400887 -0.869642
v -1.099966 -0.500886 0.430358
v -1.099966 -0.500886 -0.069642
v -0.999966 -0.500886 0.430358
v -0.999966 -0.500886 -0.069642
v 1.000034 -0.500886 0.430358
v 1.000034 -0.500886 -0.069642
v 1.100035 -0.500886 0.430358
v 1.100035 -0.500886 -0.069642
v -0.999966 -0.700887 0.630358
v -0.999966 -0.700887 -0.269642
v -0.799965 -0.700887 0.630358
v -0.799965 -0.700887 -0.269642
v 0.800035 -0.700887 0.630358
v 0.800035 -0.700887 -0.269642
v 1.000034 -0.700887 0.630358
v 1.000034 -0.700887 -0.269642
v -0.999966 0.099113 0.630358
v -0.799965 0.099113 0.630358
v 0.800035 0.099113 0.630358
v 1.000034 0.099113 0.630358
v -0.999966 -0.700887 0.630358
v -0.799965 -0.700887 0.630358
v 0.800035 -0.700887 0.630358
v 1.000034 -0.700887 0.630358
v -0.899965 0.899114 0.530357
v 0.900034 0.899114 0.530357
v -0.899965 0.499114 0.530357
v 0.900034 0.499114 0.530357
v -1.099966 -0.100886 0.430358
v -0.999966 -0.100886 0.430358
v 1.000034 -0.100886 0.430358
v 1.100035 -0.100886 0.430358
v -1.099966 -0.500886 0.430358
v -0.999966 -0.500886 0.430358
v 1.000034 -0.500886 0.430358
v 1.100035 -0.500886 0.430358
v -0.999966 0.699114 0.330357
v -0.899965 0.699114 0.330357
v 0.900034 0.699114 0.330357
v 1.000034 0.699114 0.330357
v -1.099966 0.599113 0.330357
v -0.999966 0.599113 0.330357
v 1.000034 0.599113 0.330357
v 1.100035 0.599113 0.330357
v -1.099966 0.499114 0.330357
v -0.999966 0.499114 0.330357
v -0.899965 0.499114 0.330357
v 0.900034 0.499114 0.330357
v 1.000034 0.499114 0.330357
v 1.100035 0.499114 0.330357
v -0.999966 0.099113 0.330357
v -0.899965 0.099113 0.330357
v 0.900034 0.099113 0.330357
v 1.000034 0.099113 0.330357
v -0.999966 -0.000886 0.330357
v 1.000034 -0.000886 0.330357
v -1.099966 -0.100886 0.330357
v -0.999966 -0.100886 0.330357
v 1.000034 -0.100886 0.330357
v 1.100035 -0.100886 0.330357
v -0.999966 0.699114 0.030357
v -0.899965 0.699114 0.030357
v 0.900034 0.699114 0.030357
v 1.000034 0.699114 0.030357
v -1.099966 0.599113 0.030357
v -0.999966 0.599113 0.030357
v 1.000034 0.599113 0.030357
v 1.100035 0.599113 0.030357
v -1.099966 0.499114 0.030357
v -0.999966 0.499114 0.030357
v -0.899965 0.499114 0.030357
v 0.900034 0.499114 0.030357
v 1.000034 0.499114 0.030357
v 1.100035 0.499114 0.030357
v -0.999966 0.099113 0.030357
v -0.899965 0.099113 0.030357
v 0.900034 0.099113 0.030357
v 1.000034 0.099113 0.030357
v -0.999966 -0.000886 0.030357
v 1.000034 -0.000886 0.030357
v -1.099966 -0.100886 0.030357
v -0.999966 -0.100886 0.030357
v 1.000034 -0.100886 0.030357
v 1.100035 -0.100886 0.030357
v -1.099966 -0.100886 -0.069642
v -0.999966 -0.100886 -0.069642
v 1.000034 -0.100886 -0.069642
v 1.100035 -0.100886 -0.069642
v -1.099966 -0.200887 -0.069642
v -0.999966 -0.200887 -0.069642
v 1.000034 -0.200887 -0.069642
v 1.100035 -0.200887 -0.069642
v -1.099966 -0.400887 -0.069642
v -0.999966 -0.400887 -0.069642
v 1.000034 -0.400887 -0.069642
v 1.100035 -0.400887 -0.069642
v -1.099966 -0.500886 -0.069642
v -0.999966 -0.500886 -0.069642
v 1.000034 -0.500886 -0.069642
v 1.100035 -0.500886 -0.069642
v -0.899965 0.899114 -0.169643
v 0.900034 0.899114 -0.169643
v -0.799965 0.799114 -0.169643
v -0.399965 0.799114 -0.169643
v 0.400034 0.799114 -0.169643
v 0.800035 0.799114 -0.169643
v -0.799965 0.599113 -0.169643
v -0.399965 0.599113 -0.169643
v 0.400034 0.599113 -0.169643
v 0.800035 0.599113 -0.169643
v -0.899965 0.499114 -0.169643
v 0.900034 0.499114 -0.169643
v -0.999966 0.099113 -0.269642
v -0.799965 0.099113 -0.269642
v 0.800035 0.099113 -0.269642
v 1.000034 0.099113 -0.269642
v -0.999966 -0.000886 -0.269642
v -0.799965 -0.000886 -0.269642
v 0.800035 -0.000886 -0.269642
v 1.000034 -0.000886 -0.269642
v -0.999966 -0.100886 -0.269642
v -0.799965 -0.100886 -0.269642
v 0.800035 -0.100886 -0.269642
v 1.000034 -0.100886 -0.269642
v -0.999966 -0.200887 -0.269642
v -0.799965 -0.200887 -0.269642
v 0.800035 -0.200887 -0.269642
v 1.000034 -0.200887 -0.269642
v -0.999966 -0.400887 -0.269642
v -0.799965 -0.400887 -0.269642
v 0.800035 -0.400887 -0.269642
v 1.000034 -0.400887 -0.269642
v -0.999966 -0.500886 -0.269642
v -0.799965 -0.500886 -0.269642
v 0.800035 -0.500886 -0.269642
v 1.000034 -0.500886 -0.269642
v -0.999966 -0.600886 -0.269642
v -0.799965 -0.600886 -0.269642
v 0.800035 -0.600886 -0.269642
v 1.000034 -0.600886 -0.269642
v -0.999966 -0.700887 -0.269642
v -0.799965 -0.700887 -0.269642
v 0.800035 -0.700887 -0.269642
v 1.000034 -0.700887 -0.269642
v -1.099966 -0.200887 -0.869642
v -0.999966 -0.200887 -0.869642
v 1.000034 -0.200887 -0.869642
v 1.100035 -0.200887 -0.869642
v -1.099966 -0.400887 -0.869642
v -0.999966 -0.400887 -0.869642
v 1.000034 -0.400887 -0.869642
v 1.100035 -0.400887 -0.869642
vn -1.0000 -0.0000 -0.0000
vn 1.0000 -0.0000 -0.0000
vn -0.0000 1.0000 -0.0000
vn -0.0000 -1.0000 -0.0000
vn -0.0000 -0.0000 1.0000
vn -0.0000 -0.0000 -1.0000
vt 0.958984 0.500000
vt 0.779297 0.500000
vt 0.810547 0.500000
vt 0.837891 0.500000
vt 0.951172 0.500000
vt 0.728516 0.500000
s 1
usemtl palette.146
f 5/1/1 2/1/1 1/1/1
f 6/1/1 2/1/1 5/1/1
f 7/1/1 2/1/1 6/1/1
f 8/2/1 4/2/1 3/2/1
f 8/1/1 5/1/1 4/1/1
f 8/1/1 6/1/1 5/1/1
f 9/1/1 6/1/1 8/1/1
f 10/2/1 8/2/1 3/2/1
f 10/2/1 9/2/1 8/2/1
f 11/1/1 6/1/1 9/1/1
f 11/2/1 9/2/1 10/2/1
f 12/2/1 10/2/1 3/2/1
f 13/1/1 11/1/1 10/1/1
f 13/2/1 10/2/1 12/2/1
f 14/1/1 6/1/1 11/1/1
f 14/1/1 11/1/1 13/1/1
f 15/2/1 7/2/1 6/2/1
f 15/1/1 6/1/1 14/1/1
f 16/1/1 2/1/1 7/1/1
f 16/2/1 7/2/1 15/2/1
f 17/1/1 15/1/1 14/1/1
f 17/1/1 16/1/1 15/1/1
f 18/1/1 16/1/1 17/1/1
f 19/1/1 2/1/1 16/1/1
f 19/1/1 16/1/1 18/1/1
f 20/1/1 2/1/1 19/1/1
f 21/2/1 19/2/1 18/2/1
f 22/2/1 19/2/1 21/2/1
f 23/3/1 22/3/1 21/3/1
f 24/3/1 22/3/1 23/3/1
f 27/4/1 26/4/1 25/4/1
f 28/4/1 26/4/1 27/4/1
f 29/1/1 28/1/1 27/1/1
f 30/1/1 28/1/1 29/1/1
f 33/4/1 27/4/1 25/4/1
f 34/1/1 29/1/1 27/1/1
f 34/4/1 27/4/1 33/4/1
f 35/1/1 29/1/1 34/1/1
f 36/2/1 32/2/1 31/2/1
f 37/2/1 32/2/1 36/2/1
f 41/1/1 40/1/1 39/1/1
f 44/1/1 28/1/1 30/1/1
f 45/1/1 41/1/1 39/1/1
f 45/1/1 42/1/1 41/1/1
f 45/4/1 39/4/1 38/4/1
f 46/1/1 42/1/1 45/1/1
f 47/1/1 42/1/1 46/1/1
f 48/1/1 44/1/1 43/1/1
f 49/1/1 28/1/1 44/1/1
f 49/1/1 44/1/1 48/1/1
f 50/4/1 26/4/1 28/4/1
f 50/1/1 28/1/1 49/1/1
f 51/4/1 45/4/1 38/4/1
f 52/3/1 46/3/1 45/3/1
f 52/4/1 45/4/1 51/4/1
f 53/4/1 47/4/1 46/4/1
f 53/3/1 46/3/1 52/3/1
f 54/4/1 47/4/1 53/4/1
f 55/4/1 49/4/1 48/4/1
f 56/3/1 50/3/1 49/3/1
f 56/4/1 49/4/1 55/4/1
f 57/4/1 26/4/1 50/4/1
f 57/3/1 50/3/1 56/3/1
f 58/4/1 26/4/1 57/4/1
f 61/4/1 60/4/1 59/4/1
f 62/4/1 60/4/1 61/4/1
f 63/4/1 60/4/1 62/4/1
f 64/4/1 61/4/1 59/4/1
f 64/3/1 62/3/1 61/3/1
f 65/3/1 62/3/1 64/3/1
f 67/4/1 64/4/1 59/4/1
f 67/4/1 66/4/1 65/4/1
f 67/4/1 65/4/1 64/4/1
f 68/4/1 66/4/1 67/4/1
f 71/4/1 70/4/1 69/4/1
f 72/4/1 70/4/1 71/4/1
f 73/4/1 71/4/1 69/4/1
f 73/5/1 72/5/1 71/5/1
f 74/4/1 70/4/1 72/4/1
f 74/5/1 72/5/1 73/5/1
f 75/4/1 73/4/1 69/4/1
f 75/4/1 74/4/1 73/4/1
f 76/4/1 74/4/1 75/4/1
f 77/4/1 74/4/1 76/4/1
f 78/4/1 74/4/1 77/4/1
f 79/4/1 74/4/1 78/4/1
f 80/4/1 70/4/1 74/4/1
f 80/4/1 74/4/1 79/4/1
f 81/4/1 75/4/1 69/4/1
f 82/3/1 76/3/1 75/3/1
f 82/4/1 75/4/1 81/4/1
f 83/4/1 77/4/1 76/4/1
f 83/3/1 76/3/1 82/3/1
f 84/3/1 78/3/1 77/3/1
f 84/4/1 77/4/1 83/4/1
f 85/4/1 79/4/1 78/4/1
f 85/3/1 78/3/1 84/3/1
f 86/3/1 80/3/1 79/3/1
f 86/4/1 79/4/1 85/4/1
f 87/4/1 70/4/1 80/4/1
f 87/3/1 80/3/1 86/3/1
f 88/4/1 70/4/1 87/4/1
f 91/2/1 90/2/1 89/2/1
f 92/2/1 90/2/1 91/2/1
f 95/2/1 94/2/1 93/2/1
f 96/2/1 94/2/1 95/2/1
f 97/3/1 96/3/1 95/3/1
f 98/3/1 96/3/1 97/3/1
f 99/2/2 100/2/2 101/2/2
f 101/2/2 100/2/2 102/2/2
f 101/3/2 102/3/2 103/3/2
f 103/3/2 102/3/2 104/3/2
f 105/2/2 106/2/2 107/2/2
f 107/2/2 106/2/2 108/2/2
f 109/4/2 110/4/2 111/4/2
f 111/4/2 110/4/2 112/4/2
f 109/4/2 111/4/2 113/4/2
f 111/5/2 112/5/2 113/5/2
f 112/4/2 110/4/2 114/4/2
f 113/5/2 112/5/2 114/5/2
f 109/4/2 113/4/2 115/4/2
f 113/4/2 114/4/2 115/4/2
f 115/4/2 114/4/2 116/4/2
f 116/4/2 114/4/2 117/4/2
f 117/4/2 114/4/2 118/4/2
f 118/4/2 114/4/2 119/4/2
f 114/4/2 110/4/2 120/4/2
f 119/4/2 114/4/2 120/4/2
f 109/4/2 115/4/2 121/4/2
f 115/3/2 116/3/2 122/3/2
f 121/4/2 115/4/2 122/4/2
f 116/4/2 117/4/2 123/4/2
f 122/3/2 116/3/2 123/3/2
f 117/3/2 118/3/2 124/3/2
f 123/4/2 117/4/2 124/4/2
f 118/4/2 119/4/2 125/4/2
f 124/3/2 118/3/2 125/3/2
f 119/3/2 120/3/2 126/3/2
f 125/4/2 119/4/2 126/4/2
f 120/4/2 110/4/2 127/4/2
f 126/3/2 120/3/2 127/3/2
f 127/4/2 110/4/2 128/4/2
f 129/4/2 130/4/2 131/4/2
f 131/4/2 130/4/2 132/4/2
f 132/4/2 130/4/2 133/4/2
f 129/4/2 131/4/2 134/4/2
f 131/3/2 132/3/2 134/3/2
f 134/3/2 132/3/2 135/3/2
f 129/4/2 134/4/2 137/4/2
f 135/4/2 136/4/2 137/4/2
f 134/4/2 135/4/2 137/4/2
f 137/4/2 136/4/2 138/4/2
f 139/4/2 140/4/2 141/4/2
f 141/4/2 140/4/2 142/4/2
f 141/1/2 142/1/2 143/1/2
f 143/1/2 142/1/2 144/1/2
f 139/4/2 141/4/2 147/4/2
f 141/1/2 143/1/2 148/1/2
f 147/4/2 141/4/2 148/4/2
f 148/1/2 143/1/2 149/1/2
f 145/2/2 146/2/2 150/2/2
f 150/2/2 146/2/2 151/2/2
f 153/1/2 154/1/2 155/1/2
f 144/1/2 142/1/2 158/1/2
f 153/1/2 155/1/2 159/1/2
f 155/1/2 156/1/2 159/1/2
f 152/4/2 153/4/2 159/4/2
f 159/1/2 156/1/2 160/1/2
f 160/1/2 156/1/2 161/1/2
f 157/1/2 158/1/2 162/1/2
f 158/1/2 142/1/2 163/1/2
f 162/1/2 158/1/2 163/1/2
f 142/4/2 140/4/2 164/4/2
f 163/1/2 142/1/2 164/1/2
f 152/4/2 159/4/2 165/4/2
f 159/3/2 160/3/2 166/3/2
f 165/4/2 159/4/2 166/4/2
f 160/4/2 161/4/2 167/4/2
f 166/3/2 160/3/2 167/3/2
f 167/4/2 161/4/2 168/4/2
f 162/4/2 163/4/2 169/4/2
f 163/3/2 164/3/2 170/3/2
f 169/4/2 163/4/2 170/4/2
f 164/4/2 140/4/2 171/4/2
f 170/3/2 164/3/2 171/3/2
f 171/4/2 140/4/2 172/4/2
f 173/1/2 174/1/2 177/1/2
f 177/1/2 174/1/2 178/1/2
f 178/1/2 174/1/2 179/1/2
f 175/2/2 176/2/2 180/2/2
f 176/1/2 177/1/2 180/1/2
f 177/1/2 178/1/2 180/1/2
f 180/1/2 178/1/2 181/1/2
f 175/2/2 180/2/2 182/2/2
f 180/2/2 181/2/2 182/2/2
f 181/1/2 178/1/2 183/1/2
f 182/2/2 181/2/2 183/2/2
f 175/2/2 182/2/2 184/2/2
f 182/1/2 183/1/2 185/1/2
f 184/2/2 182/2/2 185/2/2
f 183/1/2 178/1/2 186/1/2
f 185/1/2 183/1/2 186/1/2
f 178/2/2 179/2/2 187/2/2
f 186/1/2 178/1/2 187/1/2
f 179/1/2 174/1/2 188/1/2
f 187/2/2 179/2/2 188/2/2
f 186/1/2 187/1/2 189/1/2
f 187/1/2 188/1/2 189/1/2
f 189/1/2 188/1/2 190/1/2
f 188/1/2 174/1/2 191/1/2
f 190/1/2 188/1/2 191/1/2
f 191/1/2 174/1/2 192/1/2
f 190/2/2 191/2/2 193/2/2
f 193/2/2 191/2/2 194/2/2
f 193/3/2 194/3/2 195/3/2
f 195/3/2 194/3/2 196/3/2
f 199/4/3 198/4/3 197/4/3
f 200/4/3 198/4/3 199/4/3
f 201/6/3 200/6/3 199/6/3
f 202/6/3 200/6/3 201/6/3
f 203/6/3 201/6/3 199/6/3
f 203/2/3 202/2/3 201/2/3
f 204/6/3 200/6/3 202/6/3
f 204/2/3 202/2/3 203/2/3
f 205/4/3 199/4/3 197/4/3
f 205/6/3 203/6/3 199/6/3
f 205/6/3 204/6/3 203/6/3
f 206/6/3 200/6/3 204/6/3
f 206/6/3 204/6/3 205/6/3
f 206/4/3 198/4/3 200/4/3
f 207/4/3 205/4/3 197/4/3
f 207/4/3 206/4/3 205/4/3
f 208/4/3 198/4/3 206/4/3
f 208/4/3 206/4/3 207/4/3
f 211/2/3 210/2/3 209/2/3
f 212/2/3 210/2/3 211/2/3
f 215/2/3 214/2/3 213/2/3
f 216/2/3 214/2/3 215/2/3
f 219/2/3 218/2/3 217/2/3
f 220/2/3 218/2/3 219/2/3
f 223/2/3 222/2/3 221/2/3
f 224/2/3 222/2/3 223/2/3
f 229/4/3 226/4/3 225/4/3
f 230/4/3 228/4/3 227/4/3
f 231/4/3 229/4/3 225/4/3
f 231/4/3 230/4/3 229/4/3
f 232/4/3 228/4/3 230/4/3
f 232/4/3 230/4/3 231/4/3
f 235/4/3 234/4/3 233/4/3
f 236/4/3 234/4/3 235/4/3
f 237/4/3 235/4/3 233/4/3
f 238/4/3 235/4/3 237/4/3
f 239/4/3 234/4/3 236/4/3
f 240/4/3 234/4/3 239/4/3
f 245/1/3 242/1/3 241/1/3
f 246/1/3 242/1/3 245/1/3
f 247/1/3 244/1/3 243/1/3
f 248/1/3 244/1/3 247/1/3
f 253/1/3 250/1/3 249/1/3
f 254/1/3 250/1/3 253/1/3
f 255/1/3 252/1/3 251/1/3
f 256/1/3 252/1/3 255/1/3
f 260/2/3 258/2/3 257/2/3
f 261/2/3 258/2/3 260/2/3
f 262/2/3 258/2/3 261/2/3
f 263/3/3 259/3/3 258/3/3
f 263/2/3 258/2/3 262/2/3
f 264/3/3 259/3/3 263/3/3
f 270/2/3 266/2/3 265/2/3
f 270/2/3 267/2/3 266/2/3
f 270/2/3 268/2/3 267/2/3
f 271/3/3 269/3/3 268/3/3
f 271/2/3 268/2/3 270/2/3
f 272/3/3 269/3/3 271/3/3
f 273/4/4 274/4/4 277/4/4
f 275/4/4 276/4/4 277/4/4
f 274/4/4 275/4/4 277/4/4
f 277/4/4 276/4/4 278/4/4
f 278/4/4 276/4/4 279/4/4
f 279/4/4 276/4/4 280/4/4
f 281/2/4 282/2/4 284/2/4
f 284/2/4 282/2/4 285/2/4
f 285/2/4 282/2/4 286/2/4
f 282/3/4 283/3/4 287/3/4
f 286/2/4 282/2/4 287/2/4
f 287/3/4 283/3/4 288/3/4
f 289/2/4 290/2/4 294/2/4
f 290/2/4 291/2/4 294/2/4
f 291/2/4 292/2/4 294/2/4
f 292/3/4 293/3/4 295/3/4
f 294/2/4 292/2/4 295/2/4
f 295/3/4 293/3/4 296/3/4
f 297/1/4 298/1/4 299/1/4
f 299/1/4 298/1/4 300/1/4
f 301/1/4 302/1/4 303/1/4
f 303/1/4 302/1/4 304/1/4
f 305/4/4 306/4/4 307/4/4
f 307/4/4 306/4/4 308/4/4
f 309/4/4 310/4/4 311/4/4
f 311/4/4 310/4/4 312/4/4
f 317/4/5 314/4/5 313/4/5
f 318/4/5 314/4/5 317/4/5
f 319/4/5 316/4/5 315/4/5
f 320/4/5 316/4/5 319/4/5
f 323/4/5 322/4/5 321/4/5
f 324/4/5 322/4/5 323/4/5
f 329/1/5 326/1/5 325/1/5
f 330/1/5 326/1/5 329/1/5
f 331/1/5 328/1/5 327/1/5
f 332/1/5 328/1/5 331/1/5
f 338/2/5 334/2/5 333/2/5
f 339/2/5 336/2/5 335/2/5
f 341/2/5 338/2/5 337/2/5
f 342/2/5 334/2/5 338/2/5
f 342/2/5 338/2/5 341/2/5
f 343/2/5 334/2/5 342/2/5
f 344/2/5 340/2/5 339/2/5
f 344/2/5 339/2/5 335/2/5
f 345/2/5 340/2/5 344/2/5
f 346/2/5 340/2/5 345/2/5
f 347/2/5 343/2/5 342/2/5
f 347/1/5 342/1/5 341/1/5
f 348/2/5 343/2/5 347/2/5
f 349/2/5 345/2/5 344/2/5
f 350/1/5 346/1/5 345/1/5
f 350/2/5 345/2/5 349/2/5
f 351/1/5 347/1/5 341/1/5
f 352/1/5 346/1/5 350/1/5
f 353/1/5 351/1/5 341/1/5
f 354/1/5 351/1/5 353/1/5
f 355/1/5 346/1/5 352/1/5
f 356/1/5 346/1/5 355/1/5
f 357/2/6 358/2/6 362/2/6
f 359/2/6 360/2/6 363/2/6
f 361/2/6 362/2/6 365/2/6
f 362/2/6 358/2/6 366/2/6
f 365/2/6 362/2/6 366/2/6
f 366/2/6 358/2/6 367/2/6
f 363/2/6 364/2/6 368/2/6
f 359/2/6 363/2/6 368/2/6
f 368/2/6 364/2/6 369/2/6
f 369/2/6 364/2/6 370/2/6
f 366/2/6 367/2/6 371/2/6
f 365/1/6 366/1/6 371/1/6
f 371/2/6 367/2/6 372/2/6
f 368/2/6 369/2/6 373/2/6
f 369/1/6 370/1/6 374/1/6
f 373/2/6 369/2/6 374/2/6
f 365/1/6 371/1/6 375/1/6
f 374/1/6 370/1/6 376/1/6
f 365/1/6 375/1/6 377/1/6
f 377/1/6 375/1/6 378/1/6
f 376/1/6 370/1/6 379/1/6
f 379/1/6 370/1/6 380/1/6
f 381/1/6 382/1/6 385/1/6
f 385/1/6 382/1/6 386/1/6
f 383/1/6 384/1/6 387/1/6
f 387/1/6 384/1/6 388/1/6
f 389/1/6 390/1/6 393/1/6
f 393/1/6 390/1/6 394/1/6
f 391/1/6 392/1/6 395/1/6
f 395/1/6 392/1/6 396/1/6
f 397/4/6 398/4/6 399/4/6
f 399/4/6 398/4/6 400/4/6
f 400/4/6 398/4/6 401/4/6
f 401/4/6 398/4/6 402/4/6
f 397/4/6 399/4/6 403/4/6
f 399/3/6 400/3/6 403/3/6
f 400/4/6 401/4/6 404/4/6
f 403/3/6 400/3/6 404/3/6
f 401/3/6 402/3/6 405/3/6
f 404/4/6 401/4/6 405/4/6
f 402/4/6 398/4/6 406/4/6
f 405/3/6 402/3/6 406/3/6
f 404/4/6 405/4/6 407/4/6
f 403/4/6 404/4/6 407/4/6
f 405/4/6 406/4/6 407/4/6
f 397/4/6 403/4/6 407/4/6
f 406/4/6 398/4/6 408/4/6
f 407/4/6 406/4/6 408/4/6
f 409/4/6 410/4/6 413/4/6
f 413/4/6 410/4/6 414/4/6
f 411/4/6 412/4/6 415/4/6
f 415/4/6 412/4/6 416/4/6
f 413/3/6 414/3/6 417/3/6
f 417/3/6 414/3/6 418/3/6
f 415/3/6 416/3/6 419/3/6
f 419/3/6 416/3/6 420/3/6
f 417/4/6 418/4/6 421/4/6
f 421/4/6 418/4/6 422/4/6
f 419/4/6 420/4/6 423/4/6
f 423/4/6 420/4/6 424/4/6
f 421/3/6 422/3/6 425/3/6
f 425/3/6 422/3/6 426/3/6
f 423/3/6 424/3/6 427/3/6
f 427/3/6 424/3/6 428/3/6
f 425/4/6 426/4/6 429/4/6
f 429/4/6 426/4/6 430/4/6
f 427/4/6 428/4/6 431/4/6
f 431/4/6 428/4/6 432/4/6
f 429/3/6 430/3/6 433/3/6
f 433/3/6 430/3/6 434/3/6
f 431/3/6 432/3/6 435/3/6
f 435/3/6 432/3/6 436/3/6
f 433/4/6 434/4/6 437/4/6
f 437/4/6 434/4/6 438/4/6
f 435/4/6 436/4/6 439/4/6
f 439/4/6 436/4/6 440/4/6
f 441/3/6 442/3/6 445/3/6
f 445/3/6 442/3/6 446/3/6
f 443/3/6 444/3/6 447/3/6
f 447/3/6 444/3/6 448/3/6
