# Blender 4.4.3
# www.blender.org
mtllib Untitled_050.mtl
o Untitled.050
v -1.100001 0.301932 0.085990
v -1.100001 0.201932 0.085990
v -1.100001 0.101932 0.085990
v -1.100001 -0.098068 0.085990
v -1.100001 -0.198068 0.085990
v -1.100001 -0.298069 0.085990
v -1.100001 0.301932 -0.014010
v -1.100001 0.201932 -0.014010
v -1.100001 0.101932 -0.014010
v -1.100001 -0.098068 -0.014010
v -1.100001 -0.198068 -0.014010
v -1.100001 -0.298069 -0.014010
v -1.000001 0.301932 0.185990
v -1.000001 0.101932 0.185990
v -1.000001 0.001932 0.185990
v -1.000001 -0.298069 0.185990
v -1.000001 0.301932 0.085990
v -1.000001 0.201932 0.085990
v -1.000001 0.101932 0.085990
v -1.000001 0.001932 0.085990
v -1.000001 -0.098068 0.085990
v -1.000001 -0.198068 0.085990
v -1.000001 -0.298069 0.085990
v -1.000001 0.301932 -0.014010
v -1.000001 0.201932 -0.014010
v -1.000001 0.101932 -0.014010
v -1.000001 -0.098068 -0.014010
v -1.000001 -0.198068 -0.014010
v -1.000001 -0.298069 -0.014010
v -1.000001 0.301932 -0.114010
v -1.000001 -0.298069 -0.114010
v 0.999999 0.301932 0.185990
v 0.999999 0.101932 0.185990
v 0.999999 0.001932 0.185990
v 0.999999 -0.298069 0.185990
v 0.999999 0.301932 0.085990
v 0.999999 0.201932 0.085990
v 0.999999 0.101932 0.085990
v 0.999999 0.001932 0.085990
v 0.999999 -0.098068 0.085990
v 0.999999 -0.198068 0.085990
v 0.999999 -0.298069 0.085990
v 0.999999 0.301932 -0.014010
v 0.999999 0.201932 -0.014010
v 0.999999 0.101932 -0.014010
v 0.999999 -0.098068 -0.014010
v 0.999999 -0.198068 -0.014010
v 0.999999 -0.298069 -0.014010
v 0.999999 0.301932 -0.114010
v 0.999999 -0.298069 -0.114010
v 1.099999 0.301932 0.085990
v 1.099999 0.201932 0.085990
v 1.099999 0.101932 0.085990
v 1.099999 -0.098068 0.085990
v 1.099999 -0.198068 0.085990
v 1.099999 -0.298069 0.085990
v 1.099999 0.301932 -0.014010
v 1.099999 0.201932 -0.014010
v 1.099999 0.101932 -0.014010
v 1.099999 -0.098068 -0.014010
v 1.099999 -0.198068 -0.014010
v 1.099999 -0.298069 -0.014010
v -1.100001 0.301932 0.085990
v -1.100001 0.301932 -0.014010
v -1.000001 0.301932 0.185990
v -1.000001 0.301932 0.085990
v -1.000001 0.301932 -0.014010
v -1.000001 0.301932 -0.114010
v 0.999999 0.301932 0.185990
v 0.999999 0.301932 0.085990
v 0.999999 0.301932 -0.014010
v 0.999999 0.301932 -0.114010
v 1.099999 0.301932 0.085990
v 1.099999 0.301932 -0.014010
v -1.100001 -0.298069 0.085990
v -1.100001 -0.298069 -0.014010
v -1.000001 -0.298069 0.185990
v -1.000001 -0.298069 0.085990
v -1.000001 -0.298069 -0.014010
v -1.000001 -0.298069 -0.114010
v 0.999999 -0.298069 0.185990
v 0.999999 -0.298069 0.085990
v 0.999999 -0.298069 -0.014010
v 0.999999 -0.298069 -0.114010
v 1.099999 -0.298069 0.085990
v 1.099999 -0.298069 -0.014010
v -1.000001 0.301932 0.185990
v 0.999999 0.301932 0.185990
v -1.000001 0.101932 0.185990
v 0.999999 0.101932 0.185990
v -1.000001 0.001932 0.185990
v 0.999999 0.001932 0.185990
v -1.000001 -0.298069 0.185990
v 0.999999 -0.298069 0.185990
v -1.100001 0.301932 0.085990
v -1.000001 0.301932 0.085990
v 0.999999 0.301932 0.085990
v 1.099999 0.301932 0.085990
v -1.100001 0.201932 0.085990
v -1.000001 0.201932 0.085990
v 0.999999 0.201932 0.085990
v 1.099999 0.201932 0.085990
v -1.100001 0.101932 0.085990
v -1.000001 0.101932 0.085990
v 0.999999 0.101932 0.085990
v 1.099999 0.101932 0.085990
v -1.000001 0.001932 0.085990
v 0.999999 0.001932 0.085990
v -1.100001 -0.098068 0.085990
v -1.000001 -0.098068 0.085990
v 0.999999 -0.098068 0.085990
v 1.099999 -0.098068 0.085990
v -1.100001 -0.198068 0.085990
v -1.000001 -0.198068 0.085990
v 0.999999 -0.198068 0.085990
v 1.099999 -0.198068 0.085990
v -1.100001 -0.298069 0.085990
v -1.000001 -0.298069 0.085990
v 0.999999 -0.298069 0.085990
v 1.099999 -0.298069 0.085990
v -1.100001 0.301932 -0.014010
v -1.000001 0.301932 -0.014010
v 0.999999 0.301932 -0.014010
v 1.099999 0.301932 -0.014010
v -1.100001 0.201932 -0.014010
v -1.000001 0.201932 -0.014010
v 0.999999 0.201932 -0.014010
v 1.099999 0.201932 -0.014010
v -1.100001 0.101932 -0.014010
v -1.000001 0.101932 -0.014010
v 0.999999 0.101932 -0.014010
v 1.099999 0.101932 -0.014010
v -1.100001 -0.098068 -0.014010
v -1.000001 -0.098068 -0.014010
v 0.999999 -0.098068 -0.014010
v 1.099999 -0.098068 -0.014010
v -1.100001 -0.198068 -0.014010
v -1.000001 -0.198068 -0.014010
v 0.999999 -0.198068 -0.014010
v 1.099999 -0.198068 -0.014010
v -1.100001 -0.298069 -0.014010
v -1.000001 -0.298069 -0.014010
v 0.999999 -0.298069 -0.014010
v 1.099999 -0.298069 -0.014010
v -1.000001 0.301932 -0.114010
v 0.999999 0.301932 -0.114010
v -0.900001 0.201932 -0.114010
v -0.200001 0.201932 -0.114010
v -0.100001 0.201932 -0.114010
v 0.099999 0.201932 -0.114010
v 0.199999 0.201932 -0.114010
v 0.299999 0.201932 -0.114010
v 0.499999 0.201932 -0.114010
v 0.599999 0.201932 -0.114010
v 0.699999 0.201932 -0.114010
v 0.799999 0.201932 -0.114010
v -0.900001 0.101932 -0.114010
v -0.800001 0.101932 -0.114010
v -0.700001 0.101932 -0.114010
v -0.500001 0.101932 -0.114010
v -0.400001 0.101932 -0.114010
v -0.200001 0.101932 -0.114010
v -0.100001 0.101932 -0.114010
v 0.099999 0.101932 -0.114010
v 0.199999 0.101932 -0.114010
v 0.399999 0.101932 -0.114010
v 0.499999 0.101932 -0.114010
v 0.599999 0.101932 -0.114010
v 0.699999 0.101932 -0.114010
v -0.800001 0.001932 -0.114010
v -0.700001 0.001932 -0.114010
v -0.600001 0.001932 -0.114010
v 0.299999 0.001932 -0.114010
v 0.399999 0.001932 -0.114010
v 0.499999 0.001932 -0.114010
v 0.599999 0.001932 -0.114010
v 0.699999 0.001932 -0.114010
v -0.900001 -0.098068 -0.114010
v -0.800001 -0.098068 -0.114010
v -0.700001 -0.098068 -0.114010
v -0.600001 -0.098068 -0.114010
v -0.500001 -0.098068 -0.114010
v -0.400001 -0.098068 -0.114010
v -0.200001 -0.098068 -0.114010
v -0.100001 -0.098068 -0.114010
v 0.099999 -0.098068 -0.114010
v 0.199999 -0.098068 -0.114010
v 0.299999 -0.098068 -0.114010
v 0.399999 -0.098068 -0.114010
v 0.499999 -0.098068 -0.114010
v 0.599999 -0.098068 -0.114010
v 0.699999 -0.098068 -0.114010
v -0.900001 -0.198068 -0.114010
v -0.800001 -0.198068 -0.114010
v -0.500001 -0.198068 -0.114010
v -0.400001 -0.198068 -0.114010
v -0.200001 -0.198068 -0.114010
v -0.100001 -0.198068 -0.114010
v 0.099999 -0.198068 -0.114010
v 0.199999 -0.198068 -0.114010
v 0.299999 -0.198068 -0.114010
v 0.399999 -0.198068 -0.114010
v 0.499999 -0.198068 -0.114010
v 0.699999 -0.198068 -0.114010
v 0.799999 -0.198068 -0.114010
v -1.000001 -0.298069 -0.114010
v 0.999999 -0.298069 -0.114010
vn -1.0000 -0.0000 -0.0000
vn 1.0000 -0.0000 -0.0000
vn -0.0000 1.0000 -0.0000
vn -0.0000 -1.0000 -0.0000
vn -0.0000 -0.0000 1.0000
vn -0.0000 -0.0000 -1.0000
vt 0.853516 0.500000
vt 0.908203 0.500000
vt 0.947266 0.500000
vt 0.939453 0.500000
s 1
usemtl palette.192
f 7/1/1 2/1/1 1/1/1
f 8/2/1 3/2/1 2/2/1
f 8/1/1 2/1/1 7/1/1
f 9/1/1 4/1/1 3/1/1
f 9/2/1 3/2/1 8/2/1
f 10/2/1 5/2/1 4/2/1
f 10/1/1 4/1/1 9/1/1
f 11/1/1 6/1/1 5/1/1
f 11/2/1 5/2/1 10/2/1
f 12/1/1 6/1/1 11/1/1
f 17/2/1 14/2/1 13/2/1
f 18/2/1 14/2/1 17/2/1
f 19/1/1 15/1/1 14/1/1
f 19/2/1 14/2/1 18/2/1
f 20/2/1 16/2/1 15/2/1
f 20/1/1 15/1/1 19/1/1
f 21/2/1 16/2/1 20/2/1
f 22/2/1 16/2/1 21/2/1
f 23/2/1 16/2/1 22/2/1
f 30/2/1 25/2/1 24/2/1
f 30/2/1 29/2/1 28/2/1
f 30/2/1 28/2/1 27/2/1
f 30/2/1 27/2/1 26/2/1
f 30/2/1 26/2/1 25/2/1
f 31/2/1 29/2/1 30/2/1
f 32/2/2 33/2/2 36/2/2
f 36/2/2 33/2/2 37/2/2
f 33/1/2 34/1/2 38/1/2
f 37/2/2 33/2/2 38/2/2
f 34/2/2 35/2/2 39/2/2
f 38/1/2 34/1/2 39/1/2
f 39/2/2 35/2/2 40/2/2
f 40/2/2 35/2/2 41/2/2
f 41/2/2 35/2/2 42/2/2
f 43/2/2 44/2/2 49/2/2
f 47/2/2 48/2/2 49/2/2
f 46/2/2 47/2/2 49/2/2
f 45/2/2 46/2/2 49/2/2
f 44/2/2 45/2/2 49/2/2
f 49/2/2 48/2/2 50/2/2
f 51/1/2 52/1/2 57/1/2
f 52/2/2 53/2/2 58/2/2
f 57/1/2 52/1/2 58/1/2
f 53/1/2 54/1/2 59/1/2
f 58/2/2 53/2/2 59/2/2
f 54/2/2 55/2/2 60/2/2
f 59/1/2 54/1/2 60/1/2
f 55/1/2 56/1/2 61/1/2
f 60/2/2 55/2/2 61/2/2
f 61/1/2 56/1/2 62/1/2
f 66/1/3 64/1/3 63/1/3
f 67/1/3 64/1/3 66/1/3
f 69/2/3 66/2/3 65/2/3
f 69/2/3 68/2/3 67/2/3
f 69/2/3 67/2/3 66/2/3
f 70/2/3 68/2/3 69/2/3
f 71/2/3 68/2/3 70/2/3
f 72/2/3 68/2/3 71/2/3
f 73/1/3 71/1/3 70/1/3
f 74/1/3 71/1/3 73/1/3
f 75/1/4 76/1/4 78/1/4
f 78/1/4 76/1/4 79/1/4
f 77/2/4 78/2/4 81/2/4
f 79/2/4 80/2/4 81/2/4
f 78/2/4 79/2/4 81/2/4
f 81/2/4 80/2/4 82/2/4
f 82/2/4 80/2/4 83/2/4
f 83/2/4 80/2/4 84/2/4
f 82/1/4 83/1/4 85/1/4
f 85/1/4 83/1/4 86/1/4
f 89/2/5 88/2/5 87/2/5
f 90/2/5 88/2/5 89/2/5
f 91/1/5 90/1/5 89/1/5
f 92/1/5 90/1/5 91/1/5
f 93/2/5 92/2/5 91/2/5
f 94/2/5 92/2/5 93/2/5
f 99/1/5 96/1/5 95/1/5
f 100/1/5 96/1/5 99/1/5
f 101/1/5 98/1/5 97/1/5
f 102/1/5 98/1/5 101/1/5
f 103/2/5 100/2/5 99/2/5
f 104/2/5 100/2/5 103/2/5
f 105/2/5 102/2/5 101/2/5
f 106/2/5 102/2/5 105/2/5
f 107/1/5 104/1/5 103/1/5
f 108/1/5 106/1/5 105/1/5
f 109/1/5 107/1/5 103/1/5
f 110/1/5 107/1/5 109/1/5
f 111/1/5 106/1/5 108/1/5
f 112/1/5 106/1/5 111/1/5
f 113/2/5 110/2/5 109/2/5
f 114/2/5 110/2/5 113/2/5
f 115/2/5 112/2/5 111/2/5
f 116/2/5 112/2/5 115/2/5
f 117/1/5 114/1/5 113/1/5
f 118/1/5 114/1/5 117/1/5
f 119/1/5 116/1/5 115/1/5
f 120/1/5 116/1/5 119/1/5
f 121/1/6 122/1/6 125/1/6
f 125/1/6 122/1/6 126/1/6
f 123/1/6 124/1/6 127/1/6
f 127/1/6 124/1/6 128/1/6
f 125/2/6 126/2/6 129/2/6
f 129/2/6 126/2/6 130/2/6
f 127/2/6 128/2/6 131/2/6
f 131/2/6 128/2/6 132/2/6
f 129/1/6 130/1/6 133/1/6
f 133/1/6 130/1/6 134/1/6
f 131/1/6 132/1/6 135/1/6
f 135/1/6 132/1/6 136/1/6
f 133/2/6 134/2/6 137/2/6
f 137/2/6 134/2/6 138/2/6
f 135/2/6 136/2/6 139/2/6
f 139/2/6 136/2/6 140/2/6
f 137/1/6 138/1/6 141/1/6
f 141/1/6 138/1/6 142/1/6
f 139/1/6 140/1/6 143/1/6
f 143/1/6 140/1/6 144/1/6
f 145/2/6 146/2/6 147/2/6
f 147/2/6 146/2/6 148/2/6
f 148/2/6 146/2/6 149/2/6
f 149/2/6 146/2/6 150/2/6
f 150/2/6 146/2/6 151/2/6
f 151/2/6 146/2/6 152/2/6
f 152/2/6 146/2/6 153/2/6
f 153/2/6 146/2/6 154/2/6
f 154/2/6 146/2/6 155/2/6
f 155/2/6 146/2/6 156/2/6
f 145/2/6 147/2/6 157/2/6
f 147/3/6 148/3/6 157/3/6
f 157/3/6 148/3/6 158/3/6
f 158/3/6 148/3/6 159/3/6
f 159/3/6 148/3/6 160/3/6
f 160/3/6 148/3/6 161/3/6
f 148/4/6 149/4/6 162/4/6
f 161/3/6 148/3/6 162/3/6
f 149/3/6 150/3/6 163/3/6
f 162/4/6 149/4/6 163/4/6
f 150/4/6 151/4/6 164/4/6
f 163/3/6 150/3/6 164/3/6
f 151/3/6 152/3/6 165/3/6
f 164/4/6 151/4/6 165/4/6
f 152/2/6 153/2/6 166/2/6
f 153/3/6 154/3/6 167/3/6
f 166/2/6 153/2/6 167/2/6
f 154/2/6 155/2/6 168/2/6
f 167/3/6 154/3/6 168/3/6
f 155/3/6 156/3/6 169/3/6
f 168/2/6 155/2/6 169/2/6
f 157/2/6 158/2/6 170/2/6
f 158/3/6 159/3/6 170/3/6
f 159/2/6 160/2/6 171/2/6
f 170/3/6 159/3/6 171/3/6
f 171/2/6 160/2/6 172/2/6
f 165/3/6 152/3/6 173/3/6
f 152/2/6 166/2/6 173/2/6
f 164/3/6 165/3/6 173/3/6
f 166/3/6 167/3/6 174/3/6
f 173/2/6 166/2/6 174/2/6
f 167/4/6 168/4/6 175/4/6
f 174/3/6 167/3/6 175/3/6
f 168/4/6 169/4/6 175/4/6
f 175/4/6 169/4/6 176/4/6
f 169/3/6 156/3/6 177/3/6
f 176/4/6 169/4/6 177/4/6
f 145/2/6 157/2/6 178/2/6
f 170/2/6 171/2/6 178/2/6
f 157/2/6 170/2/6 178/2/6
f 178/2/6 171/2/6 179/2/6
f 171/3/6 172/3/6 180/3/6
f 179/2/6 171/2/6 180/2/6
f 172/2/6 160/2/6 181/2/6
f 180/3/6 172/3/6 181/3/6
f 160/3/6 161/3/6 182/3/6
f 181/2/6 160/2/6 182/2/6
f 161/2/6 162/2/6 183/2/6
f 182/3/6 161/3/6 183/3/6
f 162/3/6 163/3/6 184/3/6
f 183/2/6 162/2/6 184/2/6
f 163/2/6 164/2/6 185/2/6
f 184/3/6 163/3/6 185/3/6
f 173/3/6 174/3/6 186/3/6
f 185/2/6 164/2/6 186/2/6
f 164/3/6 173/3/6 186/3/6
f 186/3/6 174/3/6 187/3/6
f 187/3/6 174/3/6 188/3/6
f 175/2/6 176/2/6 189/2/6
f 188/3/6 174/3/6 189/3/6
f 174/2/6 175/2/6 189/2/6
f 189/2/6 176/2/6 190/2/6
f 176/3/6 177/3/6 191/3/6
f 190/2/6 176/2/6 191/2/6
f 177/3/6 156/3/6 192/3/6
f 191/3/6 177/3/6 192/3/6
f 178/4/6 179/4/6 193/4/6
f 145/2/6 178/2/6 193/2/6
f 180/3/6 181/3/6 194/3/6
f 193/4/6 179/4/6 194/4/6
f 181/3/6 182/3/6 194/3/6
f 179/3/6 180/3/6 194/3/6
f 182/4/6 183/4/6 195/4/6
f 194/3/6 182/3/6 195/3/6
f 183/3/6 184/3/6 196/3/6
f 195/4/6 183/4/6 196/4/6
f 184/4/6 185/4/6 197/4/6
f 196/3/6 184/3/6 197/3/6
f 185/3/6 186/3/6 198/3/6
f 197/4/6 185/4/6 198/4/6
f 186/4/6 187/4/6 199/4/6
f 198/3/6 186/3/6 199/3/6
f 187/3/6 188/3/6 200/3/6
f 199/4/6 187/4/6 200/4/6
f 188/2/6 189/2/6 201/2/6
f 200/3/6 188/3/6 201/3/6
f 189/3/6 190/3/6 202/3/6
f 201/2/6 189/2/6 202/2/6
f 191/2/6 192/2/6 203/2/6
f 202/3/6 190/3/6 203/3/6
f 190/2/6 191/2/6 203/2/6
f 192/3/6 156/3/6 204/3/6
f 203/2/6 192/2/6 204/2/6
f 156/2/6 146/2/6 205/2/6
f 204/3/6 156/3/6 205/3/6
f 203/2/6 204/2/6 206/2/6
f 195/2/6 196/2/6 206/2/6
f 204/2/6 205/2/6 206/2/6
f 200/2/6 201/2/6 206/2/6
f 198/2/6 199/2/6 206/2/6
f 197/2/6 198/2/6 206/2/6
f 201/2/6 202/2/6 206/2/6
f 202/2/6 203/2/6 206/2/6
f 196/2/6 197/2/6 206/2/6
f 194/2/6 195/2/6 206/2/6
f 193/2/6 194/2/6 206/2/6
f 199/2/6 200/2/6 206/2/6
f 145/2/6 193/2/6 206/2/6
f 205/2/6 146/2/6 207/2/6
f 206/2/6 205/2/6 207/2/6
