# Blender 4.4.3
# www.blender.org
mtllib Untitled_071.mtl
o Untitled.071
v -0.349999 0.111110 0.250000
v -0.349999 -0.288890 0.250000
v -0.349999 0.111110 -0.250000
v -0.349999 -0.288890 -0.250000
v -0.249999 0.111110 0.350000
v -0.249999 -0.288890 0.350000
v -0.249999 0.211110 0.250000
v -0.249999 0.111110 0.250000
v -0.249999 -0.288890 0.250000
v -0.249999 -0.388890 0.250000
v -0.249999 0.211110 0.150000
v -0.249999 0.111110 0.150000
v -0.249999 0.211110 -0.150000
v -0.249999 0.111110 -0.150000
v -0.249999 0.211110 -0.250000
v -0.249999 0.111110 -0.250000
v -0.249999 -0.288890 -0.250000
v -0.249999 -0.388890 -0.250000
v -0.249999 0.111110 -0.350000
v -0.249999 -0.288890 -0.350000
v 0.250001 0.111110 0.350000
v 0.250001 -0.288890 0.350000
v 0.250001 0.211110 0.250000
v 0.250001 0.111110 0.250000
v 0.250001 -0.288890 0.250000
v 0.250001 -0.388890 0.250000
v 0.250001 0.211110 0.150000
v 0.250001 0.111110 0.150000
v 0.250001 0.211110 -0.150000
v 0.250001 0.111110 -0.150000
v 0.250001 0.211110 -0.250000
v 0.250001 0.111110 -0.250000
v 0.250001 -0.288890 -0.250000
v 0.250001 -0.388890 -0.250000
v 0.250001 0.111110 -0.350000
v 0.250001 -0.288890 -0.350000
v 0.350001 0.111110 0.250000
v 0.350001 -0.288890 0.250000
v 0.350001 0.111110 -0.250000
v 0.350001 -0.288890 -0.250000
v -0.249999 0.211110 0.250000
v -0.249999 0.211110 0.150000
v -0.249999 0.211110 -0.150000
v -0.249999 0.211110 -0.250000
v -0.149999 0.211110 0.250000
v -0.149999 0.211110 0.150000
v -0.149999 0.211110 0.050000
v -0.149999 0.211110 -0.050000
v -0.149999 0.211110 -0.150000
v -0.149999 0.211110 -0.250000
v -0.049999 0.211110 0.150000
v -0.049999 0.211110 0.050000
v -0.049999 0.211110 -0.050000
v -0.049999 0.211110 -0.150000
v 0.050001 0.211110 0.150000
v 0.050001 0.211110 0.050000
v 0.050001 0.211110 -0.050000
v 0.050001 0.211110 -0.150000
v 0.150001 0.211110 0.250000
v 0.150001 0.211110 0.150000
v 0.150001 0.211110 0.050000
v 0.150001 0.211110 -0.050000
v 0.150001 0.211110 -0.150000
v 0.150001 0.211110 -0.250000
v 0.250001 0.211110 0.250000
v 0.250001 0.211110 0.150000
v 0.250001 0.211110 -0.150000
v 0.250001 0.211110 -0.250000
v -0.349999 0.111110 0.250000
v -0.349999 0.111110 -0.250000
v -0.249999 0.111110 0.350000
v -0.249999 0.111110 0.250000
v -0.249999 0.111110 0.150000
v -0.249999 0.111110 -0.150000
v -0.249999 0.111110 -0.250000
v -0.249999 0.111110 -0.350000
v -0.149999 0.111110 0.250000
v -0.149999 0.111110 -0.250000
v 0.150001 0.111110 0.250000
v 0.150001 0.111110 -0.250000
v 0.250001 0.111110 0.350000
v 0.250001 0.111110 0.250000
v 0.250001 0.111110 0.150000
v 0.250001 0.111110 -0.150000
v 0.250001 0.111110 -0.250000
v 0.250001 0.111110 -0.350000
v 0.350001 0.111110 0.250000
v 0.350001 0.111110 -0.250000
v -0.349999 -0.288890 0.250000
v -0.349999 -0.288890 -0.250000
v -0.249999 -0.288890 0.350000
v -0.249999 -0.288890 0.250000
v -0.249999 -0.288890 -0.250000
v -0.249999 -0.288890 -0.350000
v 0.250001 -0.288890 0.350000
v 0.250001 -0.288890 0.250000
v 0.250001 -0.288890 -0.250000
v 0.250001 -0.288890 -0.350000
v 0.350001 -0.288890 0.250000
v 0.350001 -0.288890 -0.250000
v -0.249999 -0.388890 0.250000
v -0.249999 -0.388890 -0.250000
v 0.250001 -0.388890 0.250000
v 0.250001 -0.388890 -0.250000
v -0.249999 0.111110 0.350000
v 0.250001 0.111110 0.350000
v -0.249999 -0.288890 0.350000
v 0.250001 -0.288890 0.350000
v -0.249999 0.211110 0.250000
v -0.149999 0.211110 0.250000
v 0.150001 0.211110 0.250000
v 0.250001 0.211110 0.250000
v -0.349999 0.111110 0.250000
v -0.249999 0.111110 0.250000
v -0.149999 0.111110 0.250000
v 0.150001 0.111110 0.250000
v 0.250001 0.111110 0.250000
v 0.350001 0.111110 0.250000
v -0.349999 -0.288890 0.250000
v -0.249999 -0.288890 0.250000
v 0.250001 -0.288890 0.250000
v 0.350001 -0.288890 0.250000
v -0.249999 -0.388890 0.250000
v 0.250001 -0.388890 0.250000
v -0.249999 0.211110 -0.250000
v -0.149999 0.211110 -0.250000
v 0.150001 0.211110 -0.250000
v 0.250001 0.211110 -0.250000
v -0.349999 0.111110 -0.250000
v -0.249999 0.111110 -0.250000
v -0.149999 0.111110 -0.250000
v 0.150001 0.111110 -0.250000
v 0.250001 0.111110 -0.250000
v 0.350001 0.111110 -0.250000
v -0.349999 -0.288890 -0.250000
v -0.249999 -0.288890 -0.250000
v 0.250001 -0.288890 -0.250000
v 0.350001 -0.288890 -0.250000
v -0.249999 -0.388890 -0.250000
v 0.250001 -0.388890 -0.250000
v -0.249999 0.111110 -0.350000
v 0.250001 0.111110 -0.350000
v -0.249999 -0.288890 -0.350000
v 0.250001 -0.288890 -0.350000
vn -1.0000 -0.0000 -0.0000
vn 1.0000 -0.0000 -0.0000
vn -0.0000 1.0000 -0.0000
vn -0.0000 -1.0000 -0.0000
vn -0.0000 -0.0000 1.0000
vn -0.0000 -0.0000 -1.0000
vt 0.958984 0.500000
vt 0.751953 0.500000
vt 0.931641 0.500000
vt 0.955078 0.500000
s 1
usemtl palette.224
f 3/1/1 2/1/1 1/1/1
f 4/1/1 2/1/1 3/1/1
f 8/1/1 6/1/1 5/1/1
f 9/1/1 6/1/1 8/1/1
f 11/1/1 8/1/1 7/1/1
f 12/1/1 8/1/1 11/1/1
f 13/2/1 12/2/1 11/2/1
f 14/2/1 12/2/1 13/2/1
f 15/1/1 14/1/1 13/1/1
f 16/1/1 14/1/1 15/1/1
f 17/1/1 10/1/1 9/1/1
f 18/1/1 10/1/1 17/1/1
f 19/1/1 17/1/1 16/1/1
f 20/1/1 17/1/1 19/1/1
f 21/1/2 22/1/2 24/1/2
f 24/1/2 22/1/2 25/1/2
f 23/1/2 24/1/2 27/1/2
f 27/1/2 24/1/2 28/1/2
f 27/2/2 28/2/2 29/2/2
f 29/2/2 28/2/2 30/2/2
f 29/1/2 30/1/2 31/1/2
f 31/1/2 30/1/2 32/1/2
f 25/1/2 26/1/2 33/1/2
f 33/1/2 26/1/2 34/1/2
f 32/1/2 33/1/2 35/1/2
f 35/1/2 33/1/2 36/1/2
f 37/1/2 38/1/2 39/1/2
f 39/1/2 38/1/2 40/1/2
f 45/1/3 42/1/3 41/1/3
f 46/2/3 43/2/3 42/2/3
f 46/1/3 42/1/3 45/1/3
f 47/2/3 43/2/3 46/2/3
f 48/2/3 43/2/3 47/2/3
f 49/1/3 44/1/3 43/1/3
f 49/2/3 43/2/3 48/2/3
f 50/1/3 44/1/3 49/1/3
f 51/2/3 46/2/3 45/2/3
f 51/2/3 47/2/3 46/2/3
f 52/3/3 48/3/3 47/3/3
f 52/2/3 47/2/3 51/2/3
f 53/2/3 50/2/3 49/2/3
f 53/3/3 48/3/3 52/3/3
f 53/2/3 49/2/3 48/2/3
f 54/2/3 50/2/3 53/2/3
f 55/2/3 51/2/3 45/2/3
f 55/3/3 52/3/3 51/3/3
f 56/4/3 53/4/3 52/4/3
f 56/3/3 52/3/3 55/3/3
f 57/3/3 54/3/3 53/3/3
f 57/4/3 53/4/3 56/4/3
f 58/2/3 50/2/3 54/2/3
f 58/3/3 54/3/3 57/3/3
f 59/2/3 56/2/3 55/2/3
f 59/2/3 55/2/3 45/2/3
f 60/2/3 56/2/3 59/2/3
f 61/3/3 57/3/3 56/3/3
f 61/2/3 56/2/3 60/2/3
f 62/2/3 58/2/3 57/2/3
f 62/3/3 57/3/3 61/3/3
f 63/2/3 50/2/3 58/2/3
f 63/2/3 58/2/3 62/2/3
f 64/2/3 50/2/3 63/2/3
f 65/1/3 60/1/3 59/1/3
f 66/2/3 62/2/3 61/2/3
f 66/1/3 60/1/3 65/1/3
f 66/2/3 61/2/3 60/2/3
f 66/2/3 63/2/3 62/2/3
f 67/1/3 64/1/3 63/1/3
f 67/2/3 63/2/3 66/2/3
f 68/1/3 64/1/3 67/1/3
f 72/1/3 70/1/3 69/1/3
f 73/1/3 70/1/3 72/1/3
f 74/1/3 70/1/3 73/1/3
f 75/1/3 70/1/3 74/1/3
f 77/1/3 72/1/3 71/1/3
f 78/1/3 76/1/3 75/1/3
f 79/1/3 77/1/3 71/1/3
f 80/1/3 76/1/3 78/1/3
f 81/1/3 79/1/3 71/1/3
f 82/1/3 79/1/3 81/1/3
f 85/1/3 76/1/3 80/1/3
f 86/1/3 76/1/3 85/1/3
f 87/1/3 84/1/3 83/1/3
f 87/1/3 85/1/3 84/1/3
f 87/1/3 83/1/3 82/1/3
f 88/1/3 85/1/3 87/1/3
f 89/1/4 90/1/4 92/1/4
f 92/1/4 90/1/4 93/1/4
f 91/1/4 92/1/4 95/1/4
f 95/1/4 92/1/4 96/1/4
f 93/1/4 94/1/4 97/1/4
f 97/1/4 94/1/4 98/1/4
f 96/1/4 97/1/4 99/1/4
f 99/1/4 97/1/4 100/1/4
f 101/1/4 102/1/4 103/1/4
f 103/1/4 102/1/4 104/1/4
f 107/1/5 106/1/5 105/1/5
f 108/1/5 106/1/5 107/1/5
f 114/1/5 110/1/5 109/1/5
f 115/2/5 111/2/5 110/2/5
f 115/1/5 110/1/5 114/1/5
f 116/1/5 112/1/5 111/1/5
f 116/2/5 111/2/5 115/2/5
f 117/1/5 112/1/5 116/1/5
f 119/1/5 114/1/5 113/1/5
f 120/1/5 114/1/5 119/1/5
f 121/1/5 118/1/5 117/1/5
f 122/1/5 118/1/5 121/1/5
f 123/1/5 121/1/5 120/1/5
f 124/1/5 121/1/5 123/1/5
f 125/1/6 126/1/6 130/1/6
f 126/2/6 127/2/6 131/2/6
f 130/1/6 126/1/6 131/1/6
f 127/1/6 128/1/6 132/1/6
f 131/2/6 127/2/6 132/2/6
f 132/1/6 128/1/6 133/1/6
f 129/1/6 130/1/6 135/1/6
f 135/1/6 130/1/6 136/1/6
f 133/1/6 134/1/6 137/1/6
f 137/1/6 134/1/6 138/1/6
f 136/1/6 137/1/6 139/1/6
f 139/1/6 137/1/6 140/1/6
f 141/1/6 142/1/6 143/1/6
f 143/1/6 142/1/6 144/1/6
