# Blender 4.4.3
# www.blender.org
mtllib Untitled_057.mtl
o Untitled.057
v -1.510715 -2.087498 0.721429
v 1.189285 -2.087498 0.721429
v -1.510715 -2.087498 -2.178571
v 1.189285 -2.087498 -2.178571
v -1.310715 -1.887499 1.021429
v -1.010715 -1.887499 1.021429
v 0.689285 -1.887499 1.021429
v 0.989285 -1.887499 1.021429
v -1.310715 -1.887499 0.721429
v -1.010715 -1.887499 0.721429
v 0.689285 -1.887499 0.721429
v 0.989285 -1.887499 0.721429
v -1.310715 0.212502 1.021429
v -1.010715 0.212502 1.021429
v 0.689285 0.212502 1.021429
v 0.989285 0.212502 1.021429
v -1.310715 0.212502 0.721429
v -1.010715 0.212502 0.721429
v 0.689285 0.212502 0.721429
v 0.989285 0.212502 0.721429
v 0.489285 0.812502 -0.378571
v 0.689285 0.812502 -0.378571
v 0.489285 0.812502 -0.878571
v 0.689285 0.812502 -0.878571
v -1.310715 -1.587498 1.021429
v -1.010715 -1.587498 1.021429
v 0.689285 -1.587498 1.021429
v 0.989285 -1.587498 1.021429
v -1.310715 -1.587498 0.721429
v -1.010715 -1.587498 0.721429
v 0.689285 -1.587498 0.721429
v 0.989285 -1.587498 0.721429
v -1.310715 0.512501 1.021429
v -1.010715 0.512501 1.021429
v 0.689285 0.512501 1.021429
v 0.989285 0.512501 1.021429
v -1.310715 0.512501 0.721429
v -1.010715 0.512501 0.721429
v 0.689285 0.512501 0.721429
v 0.989285 0.512501 0.721429
v -1.510715 0.712502 0.721429
v 1.189285 0.712502 0.721429
v -1.310715 0.712502 0.521429
v 0.989285 0.712502 0.521429
v -1.210715 0.712502 0.421429
v 0.889285 0.712502 0.421429
v -0.510715 0.712502 -0.278571
v 0.189285 0.712502 -0.278571
v 0.489285 0.712502 -0.278571
v 0.689285 0.712502 -0.278571
v 0.489285 0.712502 -0.378571
v 0.689285 0.712502 -0.378571
v 0.489285 0.712502 -0.878571
v 0.689285 0.712502 -0.878571
v -0.510715 0.712502 -0.978571
v 0.189285 0.712502 -0.978571
v 0.489285 0.712502 -0.978571
v 0.689285 0.712502 -0.978571
v -1.210715 0.712502 -1.878571
v 0.889285 0.712502 -1.878571
v -1.310715 0.712502 -1.978571
v 0.989285 0.712502 -1.978571
v -1.510715 0.712502 -2.178571
v 1.189285 0.712502 -2.178571
v -0.510715 0.812502 -0.278571
v 0.189285 0.812502 -0.278571
v -0.310715 0.812502 -0.478571
v -0.010715 0.812502 -0.478571
v -0.310715 0.812502 -0.778571
v -0.010715 0.812502 -0.778571
v -0.510715 0.812502 -0.978571
v 0.189285 0.812502 -0.978571
v 0.489285 0.912502 -0.278571
v 0.689285 0.912502 -0.278571
v -0.310715 0.912502 -0.478571
v -0.010715 0.912502 -0.478571
v -0.310715 0.912502 -0.778571
v -0.010715 0.912502 -0.778571
v 0.489285 0.912502 -0.978571
v 0.689285 0.912502 -0.978571
v -1.510715 -2.087498 0.721429
v -1.510715 -2.087498 -2.178571
v -1.510715 0.712502 0.721429
v -1.510715 0.712502 -2.178571
v -1.310715 -1.887499 1.021429
v -1.310715 -1.887499 0.721429
v -1.310715 -1.587498 1.021429
v -1.310715 -1.587498 0.721429
v -1.310715 0.212502 1.021429
v -1.310715 0.212502 0.721429
v -1.310715 0.512501 1.021429
v -1.310715 0.512501 0.721429
v -0.510715 0.712502 -0.278571
v -0.510715 0.712502 -0.978571
v -0.510715 0.812502 -0.278571
v -0.510715 0.812502 -0.978571
v -0.310715 0.812502 -0.478571
v -0.310715 0.812502 -0.778571
v -0.310715 0.912502 -0.478571
v -0.310715 0.912502 -0.778571
v 0.489285 0.712502 -0.278571
v 0.489285 0.712502 -0.378571
v 0.489285 0.712502 -0.878571
v 0.489285 0.712502 -0.978571
v 0.489285 0.812502 -0.378571
v 0.489285 0.812502 -0.878571
v 0.489285 0.912502 -0.278571
v 0.489285 0.912502 -0.978571
v 0.689285 -1.887499 1.021429
v 0.689285 -1.887499 0.721429
v 0.689285 -1.587498 1.021429
v 0.689285 -1.587498 0.721429
v 0.689285 0.212502 1.021429
v 0.689285 0.212502 0.721429
v 0.689285 0.512501 1.021429
v 0.689285 0.512501 0.721429
v -1.010715 -1.887499 1.021429
v -1.010715 -1.887499 0.721429
v -1.010715 -1.587498 1.021429
v -1.010715 -1.587498 0.721429
v -1.010715 0.212502 1.021429
v -1.010715 0.212502 0.721429
v -1.010715 0.512501 1.021429
v -1.010715 0.512501 0.721429
v -0.010715 0.812502 -0.478571
v -0.010715 0.812502 -0.778571
v -0.010715 0.912502 -0.478571
v -0.010715 0.912502 -0.778571
v 0.189285 0.712502 -0.278571
v 0.189285 0.712502 -0.978571
v 0.189285 0.812502 -0.278571
v 0.189285 0.812502 -0.978571
v 0.689285 0.712502 -0.278571
v 0.689285 0.712502 -0.378571
v 0.689285 0.712502 -0.878571
v 0.689285 0.712502 -0.978571
v 0.689285 0.812502 -0.378571
v 0.689285 0.812502 -0.878571
v 0.689285 0.912502 -0.278571
v 0.689285 0.912502 -0.978571
v 0.989285 -1.887499 1.021429
v 0.989285 -1.887499 0.721429
v 0.989285 -1.587498 1.021429
v 0.989285 -1.587498 0.721429
v 0.989285 0.212502 1.021429
v 0.989285 0.212502 0.721429
v 0.989285 0.512501 1.021429
v 0.989285 0.512501 0.721429
v 1.189285 -2.087498 0.721429
v 1.189285 -2.087498 -2.178571
v 1.189285 0.712502 0.721429
v 1.189285 0.712502 -2.178571
v -1.310715 -1.887499 1.021429
v -1.310715 -1.587498 1.021429
v -1.310715 0.212502 1.021429
v -1.310715 0.512501 1.021429
v -1.010715 -1.887499 1.021429
v -1.010715 -1.587498 1.021429
v -1.010715 0.212502 1.021429
v -1.010715 0.512501 1.021429
v 0.689285 -1.887499 1.021429
v 0.689285 -1.587498 1.021429
v 0.689285 0.212502 1.021429
v 0.689285 0.512501 1.021429
v 0.989285 -1.887499 1.021429
v 0.989285 -1.587498 1.021429
v 0.989285 0.212502 1.021429
v 0.989285 0.512501 1.021429
v -1.510715 -2.087498 0.721429
v -1.510715 0.712502 0.721429
v -1.310715 -1.887499 0.721429
v -1.310715 -1.587498 0.721429
v -1.310715 0.212502 0.721429
v -1.310715 0.512501 0.721429
v -1.010715 -1.887499 0.721429
v -1.010715 -1.587498 0.721429
v -1.010715 0.212502 0.721429
v -1.010715 0.512501 0.721429
v 0.689285 -1.887499 0.721429
v 0.689285 -1.587498 0.721429
v 0.689285 0.212502 0.721429
v 0.689285 0.512501 0.721429
v 0.989285 -1.887499 0.721429
v 0.989285 -1.587498 0.721429
v 0.989285 0.212502 0.721429
v 0.989285 0.512501 0.721429
v 1.189285 -2.087498 0.721429
v 1.189285 0.712502 0.721429
v -0.510715 0.712502 -0.278571
v -0.510715 0.812502 -0.278571
v 0.189285 0.712502 -0.278571
v 0.189285 0.812502 -0.278571
v 0.489285 0.712502 -0.278571
v 0.489285 0.912502 -0.278571
v 0.689285 0.712502 -0.278571
v 0.689285 0.912502 -0.278571
v -0.310715 0.812502 -0.478571
v -0.310715 0.912502 -0.478571
v -0.010715 0.812502 -0.478571
v -0.010715 0.912502 -0.478571
v 0.489285 0.712502 -0.878571
v 0.489285 0.812502 -0.878571
v 0.689285 0.712502 -0.878571
v 0.689285 0.812502 -0.878571
v 0.489285 0.712502 -0.378571
v 0.489285 0.812502 -0.378571
v 0.689285 0.712502 -0.378571
v 0.689285 0.812502 -0.378571
v -0.310715 0.812502 -0.778571
v -0.310715 0.912502 -0.778571
v -0.010715 0.812502 -0.778571
v -0.010715 0.912502 -0.778571
v -0.510715 0.712502 -0.978571
v -0.510715 0.812502 -0.978571
v 0.189285 0.712502 -0.978571
v 0.189285 0.812502 -0.978571
v 0.489285 0.712502 -0.978571
v 0.489285 0.912502 -0.978571
v 0.689285 0.712502 -0.978571
v 0.689285 0.912502 -0.978571
v -1.510715 -2.087498 -2.178571
v -1.510715 0.712502 -2.178571
v 1.189285 -2.087498 -2.178571
v 1.189285 0.712502 -2.178571
vn -0.0000 -1.0000 -0.0000
vn -0.0000 1.0000 -0.0000
vn -1.0000 -0.0000 -0.0000
vn 1.0000 -0.0000 -0.0000
vn -0.0000 -0.0000 1.0000
vn -0.0000 -0.0000 -1.0000
vt 0.990234 0.500000
vt 0.994141 0.500000
vt 0.966797 0.500000
s 1
usemtl palette.203
f 3/1/1 2/1/1 1/1/1
f 4/1/1 2/1/1 3/1/1
f 9/2/1 6/2/1 5/2/1
f 10/2/1 6/2/1 9/2/1
f 11/2/1 8/2/1 7/2/1
f 12/2/1 8/2/1 11/2/1
f 17/2/1 14/2/1 13/2/1
f 18/2/1 14/2/1 17/2/1
f 19/2/1 16/2/1 15/2/1
f 20/2/1 16/2/1 19/2/1
f 23/3/1 22/3/1 21/3/1
f 24/3/1 22/3/1 23/3/1
f 25/2/2 26/2/2 29/2/2
f 29/2/2 26/2/2 30/2/2
f 27/2/2 28/2/2 31/2/2
f 31/2/2 28/2/2 32/2/2
f 33/2/2 34/2/2 37/2/2
f 37/2/2 34/2/2 38/2/2
f 35/2/2 36/2/2 39/2/2
f 39/2/2 36/2/2 40/2/2
f 41/1/2 42/1/2 43/1/2
f 43/1/2 42/1/2 44/1/2
f 43/2/2 44/2/2 45/2/2
f 45/2/2 44/2/2 46/2/2
f 45/1/2 46/1/2 47/1/2
f 47/1/2 46/1/2 48/1/2
f 48/1/2 46/1/2 49/1/2
f 49/1/2 46/1/2 50/1/2
f 48/1/2 49/1/2 51/1/2
f 50/1/2 46/1/2 52/1/2
f 48/1/2 51/1/2 53/1/2
f 51/1/2 52/1/2 53/1/2
f 52/1/2 46/1/2 54/1/2
f 53/1/2 52/1/2 54/1/2
f 45/1/2 47/1/2 55/1/2
f 48/1/2 53/1/2 56/1/2
f 56/1/2 53/1/2 57/1/2
f 54/1/2 46/1/2 58/1/2
f 43/2/2 45/2/2 59/2/2
f 57/1/2 58/1/2 59/1/2
f 56/1/2 57/1/2 59/1/2
f 45/1/2 55/1/2 59/1/2
f 55/1/2 56/1/2 59/1/2
f 58/1/2 46/1/2 60/1/2
f 59/1/2 58/1/2 60/1/2
f 46/2/2 44/2/2 60/2/2
f 41/1/2 43/1/2 61/1/2
f 43/2/2 59/2/2 61/2/2
f 59/2/2 60/2/2 61/2/2
f 60/2/2 44/2/2 62/2/2
f 61/2/2 60/2/2 62/2/2
f 44/1/2 42/1/2 62/1/2
f 41/1/2 61/1/2 63/1/2
f 61/1/2 62/1/2 63/1/2
f 62/1/2 42/1/2 64/1/2
f 63/1/2 62/1/2 64/1/2
f 65/3/2 66/3/2 67/3/2
f 67/3/2 66/3/2 68/3/2
f 65/3/2 67/3/2 69/3/2
f 68/3/2 66/3/2 70/3/2
f 65/3/2 69/3/2 71/3/2
f 69/3/2 70/3/2 71/3/2
f 70/3/2 66/3/2 72/3/2
f 71/3/2 70/3/2 72/3/2
f 75/2/2 76/2/2 77/2/2
f 77/2/2 76/2/2 78/2/2
f 73/3/2 74/3/2 79/3/2
f 79/3/2 74/3/2 80/3/2
f 83/1/3 82/1/3 81/1/3
f 84/1/3 82/1/3 83/1/3
f 87/2/3 86/2/3 85/2/3
f 88/2/3 86/2/3 87/2/3
f 91/2/3 90/2/3 89/2/3
f 92/2/3 90/2/3 91/2/3
f 95/3/3 94/3/3 93/3/3
f 96/3/3 94/3/3 95/3/3
f 99/2/3 98/2/3 97/2/3
f 100/2/3 98/2/3 99/2/3
f 105/3/3 102/3/3 101/3/3
f 106/3/3 104/3/3 103/3/3
f 107/3/3 105/3/3 101/3/3
f 107/3/3 106/3/3 105/3/3
f 108/3/3 104/3/3 106/3/3
f 108/3/3 106/3/3 107/3/3
f 111/2/3 110/2/3 109/2/3
f 112/2/3 110/2/3 111/2/3
f 115/2/3 114/2/3 113/2/3
f 116/2/3 114/2/3 115/2/3
f 117/2/4 118/2/4 119/2/4
f 119/2/4 118/2/4 120/2/4
f 121/2/4 122/2/4 123/2/4
f 123/2/4 122/2/4 124/2/4
f 125/2/4 126/2/4 127/2/4
f 127/2/4 126/2/4 128/2/4
f 129/3/4 130/3/4 131/3/4
f 131/3/4 130/3/4 132/3/4
f 133/3/4 134/3/4 137/3/4
f 135/3/4 136/3/4 138/3/4
f 133/3/4 137/3/4 139/3/4
f 137/3/4 138/3/4 139/3/4
f 138/3/4 136/3/4 140/3/4
f 139/3/4 138/3/4 140/3/4
f 141/2/4 142/2/4 143/2/4
f 143/2/4 142/2/4 144/2/4
f 145/2/4 146/2/4 147/2/4
f 147/2/4 146/2/4 148/2/4
f 149/1/4 150/1/4 151/1/4
f 151/1/4 150/1/4 152/1/4
f 157/2/5 154/2/5 153/2/5
f 158/2/5 154/2/5 157/2/5
f 159/2/5 156/2/5 155/2/5
f 160/2/5 156/2/5 159/2/5
f 165/2/5 162/2/5 161/2/5
f 166/2/5 162/2/5 165/2/5
f 167/2/5 164/2/5 163/2/5
f 168/2/5 164/2/5 167/2/5
f 171/1/5 170/1/5 169/1/5
f 172/1/5 170/1/5 171/1/5
f 173/1/5 170/1/5 172/1/5
f 174/1/5 170/1/5 173/1/5
f 175/1/5 171/1/5 169/1/5
f 176/1/5 173/1/5 172/1/5
f 177/1/5 173/1/5 176/1/5
f 178/1/5 170/1/5 174/1/5
f 179/1/5 177/1/5 176/1/5
f 179/1/5 178/1/5 177/1/5
f 179/1/5 175/1/5 169/1/5
f 179/1/5 176/1/5 175/1/5
f 180/1/5 178/1/5 179/1/5
f 181/1/5 178/1/5 180/1/5
f 182/1/5 170/1/5 178/1/5
f 182/1/5 178/1/5 181/1/5
f 183/1/5 179/1/5 169/1/5
f 184/1/5 181/1/5 180/1/5
f 185/1/5 181/1/5 184/1/5
f 186/1/5 170/1/5 182/1/5
f 187/1/5 183/1/5 169/1/5
f 187/1/5 186/1/5 185/1/5
f 187/1/5 185/1/5 184/1/5
f 187/1/5 184/1/5 183/1/5
f 188/1/5 170/1/5 186/1/5
f 188/1/5 186/1/5 187/1/5
f 191/3/5 190/3/5 189/3/5
f 192/3/5 190/3/5 191/3/5
f 195/3/5 194/3/5 193/3/5
f 196/3/5 194/3/5 195/3/5
f 199/2/5 198/2/5 197/2/5
f 200/2/5 198/2/5 199/2/5
f 203/3/5 202/3/5 201/3/5
f 204/3/5 202/3/5 203/3/5
f 205/3/6 206/3/6 207/3/6
f 207/3/6 206/3/6 208/3/6
f 209/2/6 210/2/6 211/2/6
f 211/2/6 210/2/6 212/2/6
f 213/3/6 214/3/6 215/3/6
f 215/3/6 214/3/6 216/3/6
f 217/3/6 218/3/6 219/3/6
f 219/3/6 218/3/6 220/3/6
f 221/1/6 222/1/6 223/1/6
f 223/1/6 222/1/6 224/1/6
