# MagicaVoxel @ Ephtracy

# group
o Documents_colored-2

# material
mtllib Bunker - Free Sample-84-Documents_colored-2.mtl
usemtl palette

# normals
vn -1 0 0
vn 1 0 0
vn 0 0 1
vn 0 0 -1
vn 0 -1 0
vn 0 1 0

# texcoords
vt 0.0253906 0.5
vt 0.0488281 0.5
vt 0.193359 0.5
vt 0.251953 0.5
vt 0.416016 0.5
vt 0.599609 0.5
vt 0.708984 0.5
vt 0.732422 0.5
vt 0.923828 0.5

# verts
v 0 1.42 -5.28
v 0 1.42 -5.3
v 0 1.58 -5.28
v 0 1.58 -5.3
v 0.14 1.32 -5.28
v 0.14 1.32 -5.3
v 0.14 1.48 -5.28
v 0.14 1.48 -5.3
v 0.2 1.48 -5.28
v 0.2 1.48 -5.3
v 0.2 1.64 -5.28
v 0.2 1.64 -5.3
v 0.22 1.66 -5.28
v 0.22 1.66 -5.3
v 0.22 1.82 -5.28
v 0.22 1.82 -5.3
v 0.36 1.34 -5.28
v 0.36 1.34 -5.3
v 0.36 1.5 -5.28
v 0.36 1.5 -5.3
v 0.36 1.56 -5.28
v 0.36 1.56 -5.3
v 0.36 1.72 -5.28
v 0.36 1.72 -5.3
v 0.42 1.72 -5.28
v 0.42 1.72 -5.3
v 0.42 1.88 -5.28
v 0.42 1.88 -5.3
v 0.5 1.44 -5.28
v 0.5 1.44 -5.3
v 0.5 1.6 -5.28
v 0.5 1.6 -5.3
v 0.12 1.42 -5.28
v 0.12 1.42 -5.3
v 0.12 1.58 -5.28
v 0.12 1.58 -5.3
v 0.26 1.32 -5.28
v 0.26 1.32 -5.3
v 0.26 1.44 -5.28
v 0.26 1.44 -5.3
v 0.34 1.44 -5.28
v 0.34 1.44 -5.3
v 0.34 1.64 -5.28
v 0.34 1.64 -5.3
v 0.34 1.66 -5.28
v 0.34 1.66 -5.3
v 0.34 1.82 -5.28
v 0.34 1.82 -5.3
v 0.48 1.34 -5.28
v 0.48 1.34 -5.3
v 0.48 1.5 -5.28
v 0.48 1.5 -5.3
v 0.48 1.56 -5.28
v 0.48 1.56 -5.3
v 0.48 1.68 -5.28
v 0.48 1.68 -5.3
v 0.56 1.68 -5.28
v 0.56 1.68 -5.3
v 0.56 1.88 -5.28
v 0.56 1.88 -5.3
v 0.62 1.44 -5.28
v 0.62 1.44 -5.3
v 0.62 1.6 -5.28
v 0.62 1.6 -5.3
v 0 1.42 -5.28
v 0 1.58 -5.28
v 0.02 1.46 -5.28
v 0.02 1.48 -5.28
v 0.02 1.52 -5.28
v 0.02 1.56 -5.28
v 0.04 1.48 -5.28
v 0.04 1.5 -5.28
v 0.06 1.44 -5.28
v 0.06 1.46 -5.28
v 0.08 1.46 -5.28
v 0.08 1.5 -5.28
v 0.08 1.54 -5.28
v 0.08 1.56 -5.28
v 0.1 1.44 -5.28
v 0.1 1.46 -5.28
v 0.1 1.52 -5.28
v 0.1 1.54 -5.28
v 0.12 1.42 -5.28
v 0.12 1.58 -5.28
v 0.14 1.32 -5.28
v 0.14 1.48 -5.28
v 0.16 1.36 -5.28
v 0.16 1.4 -5.28
v 0.16 1.42 -5.28
v 0.16 1.44 -5.28
v 0.2 1.38 -5.28
v 0.2 1.4 -5.28
v 0.2 1.42 -5.28
v 0.2 1.44 -5.28
v 0.2 1.48 -5.28
v 0.2 1.64 -5.28
v 0.22 1.34 -5.28
v 0.22 1.36 -5.28
v 0.22 1.38 -5.28
v 0.22 1.4 -5.28
v 0.22 1.48 -5.28
v 0.22 1.54 -5.28
v 0.22 1.6 -5.28
v 0.22 1.62 -5.28
v 0.22 1.66 -5.28
v 0.22 1.82 -5.28
v 0.24 1.34 -5.28
v 0.24 1.4 -5.28
v 0.24 1.54 -5.28
v 0.24 1.56 -5.28
v 0.24 1.58 -5.28
v 0.24 1.6 -5.28
v 0.24 1.7 -5.28
v 0.24 1.72 -5.28
v 0.24 1.76 -5.28
v 0.24 1.8 -5.28
v 0.26 1.32 -5.28
v 0.26 1.44 -5.28
v 0.26 1.58 -5.28
v 0.26 1.62 -5.28
v 0.26 1.72 -5.28
v 0.26 1.74 -5.28
v 0.28 1.68 -5.28
v 0.28 1.7 -5.28
v 0.3 1.54 -5.28
v 0.3 1.56 -5.28
v 0.3 1.7 -5.28
v 0.3 1.74 -5.28
v 0.3 1.78 -5.28
v 0.3 1.8 -5.28
v 0.32 1.48 -5.28
v 0.32 1.54 -5.28
v 0.32 1.68 -5.28
v 0.32 1.7 -5.28
v 0.32 1.76 -5.28
v 0.32 1.78 -5.28
v 0.34 1.44 -5.28
v 0.34 1.64 -5.28
v 0.34 1.66 -5.28
v 0.34 1.82 -5.28
v 0.36 1.34 -5.28
v 0.36 1.5 -5.28
v 0.36 1.56 -5.28
v 0.36 1.72 -5.28
v 0.38 1.36 -5.28
v 0.38 1.42 -5.28
v 0.38 1.44 -5.28
v 0.38 1.46 -5.28
v 0.38 1.6 -5.28
v 0.38 1.64 -5.28
v 0.38 1.66 -5.28
v 0.38 1.68 -5.28
v 0.4 1.36 -5.28
v 0.4 1.38 -5.28
v 0.4 1.4 -5.28
v 0.4 1.42 -5.28
v 0.42 1.4 -5.28
v 0.42 1.42 -5.28
v 0.42 1.62 -5.28
v 0.42 1.64 -5.28
v 0.42 1.66 -5.28
v 0.42 1.68 -5.28
v 0.42 1.72 -5.28
v 0.42 1.88 -5.28
v 0.44 1.58 -5.28
v 0.44 1.6 -5.28
v 0.44 1.62 -5.28
v 0.44 1.64 -5.28
v 0.44 1.72 -5.28
v 0.44 1.78 -5.28
v 0.44 1.84 -5.28
v 0.44 1.86 -5.28
v 0.46 1.38 -5.28
v 0.46 1.42 -5.28
v 0.46 1.44 -5.28
v 0.46 1.46 -5.28
v 0.46 1.58 -5.28
v 0.46 1.64 -5.28
v 0.46 1.78 -5.28
v 0.46 1.8 -5.28
v 0.46 1.82 -5.28
v 0.46 1.84 -5.28
v 0.48 1.34 -5.28
v 0.48 1.5 -5.28
v 0.48 1.56 -5.28
v 0.48 1.68 -5.28
v 0.48 1.82 -5.28
v 0.48 1.86 -5.28
v 0.5 1.44 -5.28
v 0.5 1.6 -5.28
v 0.52 1.46 -5.28
v 0.52 1.48 -5.28
v 0.52 1.54 -5.28
v 0.52 1.56 -5.28
v 0.52 1.78 -5.28
v 0.52 1.8 -5.28
v 0.54 1.48 -5.28
v 0.54 1.52 -5.28
v 0.54 1.56 -5.28
v 0.54 1.58 -5.28
v 0.54 1.72 -5.28
v 0.54 1.78 -5.28
v 0.56 1.46 -5.28
v 0.56 1.48 -5.28
v 0.56 1.68 -5.28
v 0.56 1.88 -5.28
v 0.58 1.5 -5.28
v 0.58 1.52 -5.28
v 0.6 1.48 -5.28
v 0.6 1.5 -5.28
v 0.6 1.54 -5.28
v 0.6 1.58 -5.28
v 0.62 1.44 -5.28
v 0.62 1.6 -5.28
v 0 1.42 -5.3
v 0 1.58 -5.3
v 0.02 1.46 -5.3
v 0.02 1.48 -5.3
v 0.02 1.52 -5.3
v 0.02 1.56 -5.3
v 0.04 1.48 -5.3
v 0.04 1.5 -5.3
v 0.06 1.44 -5.3
v 0.06 1.46 -5.3
v 0.08 1.46 -5.3
v 0.08 1.5 -5.3
v 0.08 1.54 -5.3
v 0.08 1.56 -5.3
v 0.1 1.44 -5.3
v 0.1 1.46 -5.3
v 0.1 1.52 -5.3
v 0.1 1.54 -5.3
v 0.12 1.42 -5.3
v 0.12 1.58 -5.3
v 0.14 1.32 -5.3
v 0.14 1.48 -5.3
v 0.16 1.36 -5.3
v 0.16 1.4 -5.3
v 0.16 1.42 -5.3
v 0.16 1.44 -5.3
v 0.2 1.38 -5.3
v 0.2 1.4 -5.3
v 0.2 1.42 -5.3
v 0.2 1.44 -5.3
v 0.2 1.48 -5.3
v 0.2 1.64 -5.3
v 0.22 1.34 -5.3
v 0.22 1.36 -5.3
v 0.22 1.38 -5.3
v 0.22 1.4 -5.3
v 0.22 1.48 -5.3
v 0.22 1.54 -5.3
v 0.22 1.6 -5.3
v 0.22 1.62 -5.3
v 0.22 1.66 -5.3
v 0.22 1.82 -5.3
v 0.24 1.34 -5.3
v 0.24 1.4 -5.3
v 0.24 1.54 -5.3
v 0.24 1.56 -5.3
v 0.24 1.58 -5.3
v 0.24 1.6 -5.3
v 0.24 1.7 -5.3
v 0.24 1.72 -5.3
v 0.24 1.76 -5.3
v 0.24 1.8 -5.3
v 0.26 1.32 -5.3
v 0.26 1.44 -5.3
v 0.26 1.58 -5.3
v 0.26 1.62 -5.3
v 0.26 1.72 -5.3
v 0.26 1.74 -5.3
v 0.28 1.68 -5.3
v 0.28 1.7 -5.3
v 0.3 1.54 -5.3
v 0.3 1.56 -5.3
v 0.3 1.7 -5.3
v 0.3 1.74 -5.3
v 0.3 1.78 -5.3
v 0.3 1.8 -5.3
v 0.32 1.48 -5.3
v 0.32 1.54 -5.3
v 0.32 1.68 -5.3
v 0.32 1.7 -5.3
v 0.32 1.76 -5.3
v 0.32 1.78 -5.3
v 0.34 1.44 -5.3
v 0.34 1.64 -5.3
v 0.34 1.66 -5.3
v 0.34 1.82 -5.3
v 0.36 1.34 -5.3
v 0.36 1.5 -5.3
v 0.36 1.56 -5.3
v 0.36 1.72 -5.3
v 0.38 1.36 -5.3
v 0.38 1.42 -5.3
v 0.38 1.44 -5.3
v 0.38 1.46 -5.3
v 0.38 1.6 -5.3
v 0.38 1.64 -5.3
v 0.38 1.66 -5.3
v 0.38 1.68 -5.3
v 0.4 1.36 -5.3
v 0.4 1.38 -5.3
v 0.4 1.4 -5.3
v 0.4 1.42 -5.3
v 0.42 1.4 -5.3
v 0.42 1.42 -5.3
v 0.42 1.62 -5.3
v 0.42 1.64 -5.3
v 0.42 1.66 -5.3
v 0.42 1.68 -5.3
v 0.42 1.72 -5.3
v 0.42 1.88 -5.3
v 0.44 1.58 -5.3
v 0.44 1.6 -5.3
v 0.44 1.62 -5.3
v 0.44 1.64 -5.3
v 0.44 1.72 -5.3
v 0.44 1.78 -5.3
v 0.44 1.84 -5.3
v 0.44 1.86 -5.3
v 0.46 1.38 -5.3
v 0.46 1.42 -5.3
v 0.46 1.44 -5.3
v 0.46 1.46 -5.3
v 0.46 1.58 -5.3
v 0.46 1.64 -5.3
v 0.46 1.78 -5.3
v 0.46 1.8 -5.3
v 0.46 1.82 -5.3
v 0.46 1.84 -5.3
v 0.48 1.34 -5.3
v 0.48 1.5 -5.3
v 0.48 1.56 -5.3
v 0.48 1.68 -5.3
v 0.48 1.82 -5.3
v 0.48 1.86 -5.3
v 0.5 1.44 -5.3
v 0.5 1.6 -5.3
v 0.52 1.46 -5.3
v 0.52 1.48 -5.3
v 0.52 1.54 -5.3
v 0.52 1.56 -5.3
v 0.52 1.78 -5.3
v 0.52 1.8 -5.3
v 0.54 1.48 -5.3
v 0.54 1.52 -5.3
v 0.54 1.56 -5.3
v 0.54 1.58 -5.3
v 0.54 1.72 -5.3
v 0.54 1.78 -5.3
v 0.56 1.46 -5.3
v 0.56 1.48 -5.3
v 0.56 1.68 -5.3
v 0.56 1.88 -5.3
v 0.58 1.5 -5.3
v 0.58 1.52 -5.3
v 0.6 1.48 -5.3
v 0.6 1.5 -5.3
v 0.6 1.54 -5.3
v 0.6 1.58 -5.3
v 0.62 1.44 -5.3
v 0.62 1.6 -5.3
v 0.14 1.32 -5.28
v 0.26 1.32 -5.28
v 0.14 1.32 -5.3
v 0.26 1.32 -5.3
v 0.36 1.34 -5.28
v 0.48 1.34 -5.28
v 0.36 1.34 -5.3
v 0.48 1.34 -5.3
v 0 1.42 -5.28
v 0.12 1.42 -5.28
v 0 1.42 -5.3
v 0.12 1.42 -5.3
v 0.26 1.44 -5.28
v 0.34 1.44 -5.28
v 0.5 1.44 -5.28
v 0.62 1.44 -5.28
v 0.26 1.44 -5.3
v 0.34 1.44 -5.3
v 0.5 1.44 -5.3
v 0.62 1.44 -5.3
v 0.36 1.56 -5.28
v 0.48 1.56 -5.28
v 0.36 1.56 -5.3
v 0.48 1.56 -5.3
v 0.22 1.66 -5.28
v 0.34 1.66 -5.28
v 0.22 1.66 -5.3
v 0.34 1.66 -5.3
v 0.48 1.68 -5.28
v 0.56 1.68 -5.28
v 0.48 1.68 -5.3
v 0.56 1.68 -5.3
v 0.14 1.48 -5.28
v 0.2 1.48 -5.28
v 0.14 1.48 -5.3
v 0.2 1.48 -5.3
v 0.36 1.5 -5.28
v 0.48 1.5 -5.28
v 0.36 1.5 -5.3
v 0.48 1.5 -5.3
v 0 1.58 -5.28
v 0.12 1.58 -5.28
v 0 1.58 -5.3
v 0.12 1.58 -5.3
v 0.5 1.6 -5.28
v 0.62 1.6 -5.28
v 0.5 1.6 -5.3
v 0.62 1.6 -5.3
v 0.2 1.64 -5.28
v 0.34 1.64 -5.28
v 0.2 1.64 -5.3
v 0.34 1.64 -5.3
v 0.36 1.72 -5.28
v 0.42 1.72 -5.28
v 0.36 1.72 -5.3
v 0.42 1.72 -5.3
v 0.22 1.82 -5.28
v 0.34 1.82 -5.28
v 0.22 1.82 -5.3
v 0.34 1.82 -5.3
v 0.42 1.88 -5.28
v 0.56 1.88 -5.28
v 0.42 1.88 -5.3
v 0.56 1.88 -5.3

# faces
f 3/7/1 2/7/1 1/7/1
f 4/7/1 2/7/1 3/7/1
f 7/1/1 6/1/1 5/1/1
f 8/1/1 6/1/1 7/1/1
f 11/3/1 10/3/1 9/3/1
f 12/3/1 10/3/1 11/3/1
f 15/8/1 14/8/1 13/8/1
f 16/8/1 14/8/1 15/8/1
f 19/5/1 18/5/1 17/5/1
f 20/5/1 18/5/1 19/5/1
f 23/9/1 22/9/1 21/9/1
f 24/9/1 22/9/1 23/9/1
f 27/3/1 26/3/1 25/3/1
f 28/3/1 26/3/1 27/3/1
f 31/6/1 30/6/1 29/6/1
f 32/6/1 30/6/1 31/6/1
f 33/7/2 34/7/2 35/7/2
f 35/7/2 34/7/2 36/7/2
f 37/1/2 38/1/2 39/1/2
f 39/1/2 38/1/2 40/1/2
f 41/3/2 42/3/2 43/3/2
f 43/3/2 42/3/2 44/3/2
f 45/8/2 46/8/2 47/8/2
f 47/8/2 46/8/2 48/8/2
f 49/5/2 50/5/2 51/5/2
f 51/5/2 50/5/2 52/5/2
f 53/9/2 54/9/2 55/9/2
f 55/9/2 54/9/2 56/9/2
f 57/3/2 58/3/2 59/3/2
f 59/3/2 58/3/2 60/3/2
f 61/6/2 62/6/2 63/6/2
f 63/6/2 62/6/2 64/6/2
f 67/7/3 66/7/3 65/7/3
f 68/7/3 66/7/3 67/7/3
f 69/7/3 66/7/3 68/7/3
f 70/7/3 66/7/3 69/7/3
f 71/4/3 68/4/3 67/4/3
f 71/7/3 69/7/3 68/7/3
f 72/7/3 69/7/3 71/7/3
f 73/7/3 67/7/3 65/7/3
f 74/4/3 71/4/3 67/4/3
f 74/7/3 67/7/3 73/7/3
f 74/4/3 72/4/3 71/4/3
f 75/4/3 74/4/3 73/4/3
f 75/4/3 72/4/3 74/4/3
f 76/7/3 69/7/3 72/7/3
f 76/4/3 72/4/3 75/4/3
f 77/4/3 70/4/3 69/4/3
f 78/7/3 66/7/3 70/7/3
f 78/4/3 70/4/3 77/4/3
f 79/4/3 75/4/3 73/4/3
f 79/7/3 73/7/3 65/7/3
f 80/7/3 76/7/3 75/7/3
f 80/4/3 75/4/3 79/4/3
f 81/4/3 77/4/3 69/4/3
f 81/7/3 76/7/3 80/7/3
f 81/7/3 69/7/3 76/7/3
f 82/7/3 78/7/3 77/7/3
f 82/4/3 77/4/3 81/4/3
f 83/7/3 80/7/3 79/7/3
f 83/7/3 79/7/3 65/7/3
f 83/7/3 82/7/3 81/7/3
f 83/7/3 81/7/3 80/7/3
f 84/7/3 66/7/3 78/7/3
f 84/7/3 82/7/3 83/7/3
f 84/7/3 78/7/3 82/7/3
f 87/1/3 86/1/3 85/1/3
f 88/1/3 86/1/3 87/1/3
f 89/1/3 86/1/3 88/1/3
f 90/1/3 86/1/3 89/1/3
f 91/4/3 88/4/3 87/4/3
f 92/1/3 89/1/3 88/1/3
f 92/4/3 88/4/3 91/4/3
f 93/4/3 90/4/3 89/4/3
f 93/1/3 89/1/3 92/1/3
f 94/1/3 86/1/3 90/1/3
f 94/4/3 90/4/3 93/4/3
f 95/1/3 86/1/3 94/1/3
f 97/1/3 87/1/3 85/1/3
f 98/4/3 91/4/3 87/4/3
f 98/1/3 87/1/3 97/1/3
f 99/1/3 93/1/3 92/1/3
f 99/4/3 91/4/3 98/4/3
f 99/1/3 92/1/3 91/1/3
f 99/1/3 94/1/3 93/1/3
f 100/1/3 94/1/3 99/1/3
f 101/3/3 95/3/3 94/3/3
f 101/3/3 96/3/3 95/3/3
f 102/3/3 96/3/3 101/3/3
f 103/3/3 96/3/3 102/3/3
f 104/3/3 96/3/3 103/3/3
f 107/4/3 100/4/3 99/4/3
f 107/4/3 98/4/3 97/4/3
f 107/1/3 97/1/3 85/1/3
f 107/4/3 99/4/3 98/4/3
f 108/1/3 94/1/3 100/1/3
f 108/4/3 100/4/3 107/4/3
f 109/3/3 103/3/3 102/3/3
f 109/2/3 102/2/3 101/2/3
f 110/3/3 103/3/3 109/3/3
f 111/3/3 103/3/3 110/3/3
f 112/2/3 104/2/3 103/2/3
f 112/3/3 103/3/3 111/3/3
f 113/8/3 106/8/3 105/8/3
f 114/8/3 106/8/3 113/8/3
f 115/8/3 106/8/3 114/8/3
f 116/8/3 106/8/3 115/8/3
f 117/1/3 107/1/3 85/1/3
f 117/1/3 108/1/3 107/1/3
f 118/1/3 94/1/3 108/1/3
f 118/1/3 108/1/3 117/1/3
f 118/3/3 101/3/3 94/3/3
f 119/3/3 111/3/3 110/3/3
f 119/2/3 112/2/3 111/2/3
f 120/2/3 104/2/3 112/2/3
f 120/2/3 112/2/3 119/2/3
f 120/3/3 96/3/3 104/3/3
f 121/4/3 114/4/3 113/4/3
f 121/8/3 115/8/3 114/8/3
f 122/8/3 115/8/3 121/8/3
f 123/8/3 113/8/3 105/8/3
f 124/4/3 122/4/3 121/4/3
f 124/8/3 113/8/3 123/8/3
f 124/4/3 121/4/3 113/4/3
f 125/2/3 109/2/3 101/2/3
f 125/2/3 110/2/3 109/2/3
f 126/3/3 119/3/3 110/3/3
f 126/2/3 110/2/3 125/2/3
f 126/3/3 120/3/3 119/3/3
f 127/4/3 122/4/3 124/4/3
f 127/4/3 124/4/3 123/4/3
f 128/8/3 115/8/3 122/8/3
f 128/4/3 122/4/3 127/4/3
f 129/4/3 116/4/3 115/4/3
f 130/8/3 106/8/3 116/8/3
f 130/4/3 116/4/3 129/4/3
f 131/2/3 125/2/3 101/2/3
f 131/3/3 101/3/3 118/3/3
f 132/3/3 126/3/3 125/3/3
f 132/2/3 125/2/3 131/2/3
f 133/8/3 123/8/3 105/8/3
f 133/4/3 127/4/3 123/4/3
f 134/8/3 128/8/3 127/8/3
f 134/4/3 127/4/3 133/4/3
f 135/4/3 129/4/3 115/4/3
f 135/8/3 128/8/3 134/8/3
f 135/8/3 115/8/3 128/8/3
f 136/8/3 130/8/3 129/8/3
f 136/4/3 129/4/3 135/4/3
f 137/3/3 131/3/3 118/3/3
f 137/3/3 132/3/3 131/3/3
f 138/3/3 96/3/3 120/3/3
f 138/3/3 132/3/3 137/3/3
f 138/3/3 126/3/3 132/3/3
f 138/3/3 120/3/3 126/3/3
f 139/8/3 134/8/3 133/8/3
f 139/8/3 135/8/3 134/8/3
f 139/8/3 136/8/3 135/8/3
f 139/8/3 133/8/3 105/8/3
f 140/8/3 106/8/3 130/8/3
f 140/8/3 136/8/3 139/8/3
f 140/8/3 130/8/3 136/8/3
f 145/5/3 142/5/3 141/5/3
f 146/5/3 142/5/3 145/5/3
f 147/5/3 142/5/3 146/5/3
f 148/5/3 142/5/3 147/5/3
f 149/9/3 144/9/3 143/9/3
f 150/9/3 144/9/3 149/9/3
f 151/9/3 144/9/3 150/9/3
f 152/9/3 144/9/3 151/9/3
f 153/5/3 145/5/3 141/5/3
f 153/4/3 146/4/3 145/4/3
f 154/4/3 146/4/3 153/4/3
f 155/4/3 146/4/3 154/4/3
f 156/5/3 147/5/3 146/5/3
f 156/4/3 146/4/3 155/4/3
f 157/4/3 155/4/3 154/4/3
f 157/5/3 156/5/3 155/5/3
f 158/5/3 147/5/3 156/5/3
f 158/5/3 156/5/3 157/5/3
f 159/4/3 150/4/3 149/4/3
f 160/9/3 151/9/3 150/9/3
f 160/4/3 150/4/3 159/4/3
f 161/4/3 152/4/3 151/4/3
f 161/9/3 151/9/3 160/9/3
f 162/9/3 144/9/3 152/9/3
f 162/4/3 152/4/3 161/4/3
f 163/9/3 144/9/3 162/9/3
f 165/9/3 149/9/3 143/9/3
f 166/4/3 159/4/3 149/4/3
f 166/9/3 149/9/3 165/9/3
f 167/9/3 161/9/3 160/9/3
f 167/4/3 159/4/3 166/4/3
f 167/9/3 160/9/3 159/9/3
f 167/9/3 162/9/3 161/9/3
f 168/9/3 162/9/3 167/9/3
f 169/3/3 163/3/3 162/3/3
f 169/3/3 164/3/3 163/3/3
f 170/3/3 164/3/3 169/3/3
f 171/3/3 164/3/3 170/3/3
f 172/3/3 164/3/3 171/3/3
f 173/4/3 158/4/3 157/4/3
f 173/4/3 157/4/3 154/4/3
f 173/5/3 154/5/3 153/5/3
f 174/5/3 147/5/3 158/5/3
f 174/4/3 158/4/3 173/4/3
f 175/4/3 148/4/3 147/4/3
f 175/5/3 147/5/3 174/5/3
f 176/5/3 142/5/3 148/5/3
f 176/4/3 148/4/3 175/4/3
f 177/4/3 166/4/3 165/4/3
f 177/4/3 168/4/3 167/4/3
f 177/9/3 165/9/3 143/9/3
f 177/4/3 167/4/3 166/4/3
f 178/9/3 162/9/3 168/9/3
f 178/4/3 168/4/3 177/4/3
f 179/2/3 170/2/3 169/2/3
f 179/3/3 171/3/3 170/3/3
f 180/3/3 171/3/3 179/3/3
f 181/3/3 171/3/3 180/3/3
f 182/2/3 172/2/3 171/2/3
f 182/3/3 171/3/3 181/3/3
f 183/5/3 175/5/3 174/5/3
f 183/5/3 174/5/3 173/5/3
f 183/5/3 176/5/3 175/5/3
f 183/5/3 173/5/3 153/5/3
f 183/5/3 153/5/3 141/5/3
f 184/5/3 142/5/3 176/5/3
f 184/5/3 176/5/3 183/5/3
f 185/9/3 177/9/3 143/9/3
f 185/9/3 178/9/3 177/9/3
f 186/9/3 162/9/3 178/9/3
f 186/9/3 178/9/3 185/9/3
f 186/3/3 169/3/3 162/3/3
f 187/3/3 181/3/3 180/3/3
f 187/2/3 182/2/3 181/2/3
f 188/2/3 172/2/3 182/2/3
f 188/2/3 182/2/3 187/2/3
f 188/3/3 164/3/3 172/3/3
f 191/6/3 190/6/3 189/6/3
f 192/6/3 190/6/3 191/6/3
f 193/6/3 190/6/3 192/6/3
f 194/6/3 190/6/3 193/6/3
f 195/2/3 180/2/3 179/2/3
f 195/2/3 179/2/3 169/2/3
f 196/3/3 187/3/3 180/3/3
f 196/2/3 180/2/3 195/2/3
f 196/3/3 188/3/3 187/3/3
f 197/6/3 193/6/3 192/6/3
f 197/4/3 192/4/3 191/4/3
f 198/6/3 193/6/3 197/6/3
f 199/6/3 190/6/3 194/6/3
f 199/4/3 194/4/3 193/4/3
f 200/6/3 190/6/3 199/6/3
f 201/2/3 195/2/3 169/2/3
f 201/3/3 169/3/3 186/3/3
f 202/3/3 196/3/3 195/3/3
f 202/2/3 195/2/3 201/2/3
f 203/4/3 198/4/3 197/4/3
f 203/6/3 191/6/3 189/6/3
f 203/4/3 197/4/3 191/4/3
f 204/4/3 198/4/3 203/4/3
f 205/3/3 202/3/3 201/3/3
f 205/3/3 201/3/3 186/3/3
f 206/3/3 164/3/3 188/3/3
f 206/3/3 202/3/3 205/3/3
f 206/3/3 188/3/3 196/3/3
f 206/3/3 196/3/3 202/3/3
f 207/4/3 198/4/3 204/4/3
f 208/6/3 193/6/3 198/6/3
f 208/4/3 198/4/3 207/4/3
f 209/4/3 207/4/3 204/4/3
f 209/6/3 204/6/3 203/6/3
f 210/6/3 208/6/3 207/6/3
f 210/4/3 207/4/3 209/4/3
f 211/4/3 200/4/3 199/4/3
f 211/6/3 208/6/3 210/6/3
f 211/6/3 193/6/3 208/6/3
f 211/4/3 199/4/3 193/4/3
f 212/6/3 190/6/3 200/6/3
f 212/4/3 200/4/3 211/4/3
f 213/6/3 211/6/3 210/6/3
f 213/6/3 210/6/3 209/6/3
f 213/6/3 212/6/3 211/6/3
f 213/6/3 203/6/3 189/6/3
f 213/6/3 209/6/3 203/6/3
f 214/6/3 190/6/3 212/6/3
f 214/6/3 212/6/3 213/6/3
f 215/7/4 216/7/4 217/7/4
f 217/7/4 216/7/4 218/7/4
f 218/7/4 216/7/4 219/7/4
f 219/7/4 216/7/4 220/7/4
f 217/4/4 218/4/4 221/4/4
f 218/7/4 219/7/4 221/7/4
f 221/7/4 219/7/4 222/7/4
f 215/7/4 217/7/4 223/7/4
f 217/4/4 221/4/4 224/4/4
f 223/7/4 217/7/4 224/7/4
f 221/4/4 222/4/4 224/4/4
f 223/4/4 224/4/4 225/4/4
f 224/4/4 222/4/4 225/4/4
f 222/7/4 219/7/4 226/7/4
f 225/4/4 222/4/4 226/4/4
f 219/4/4 220/4/4 227/4/4
f 220/7/4 216/7/4 228/7/4
f 227/4/4 220/4/4 228/4/4
f 223/4/4 225/4/4 229/4/4
f 215/7/4 223/7/4 229/7/4
f 225/7/4 226/7/4 230/7/4
f 229/4/4 225/4/4 230/4/4
f 219/4/4 227/4/4 231/4/4
f 230/7/4 226/7/4 231/7/4
f 226/7/4 219/7/4 231/7/4
f 227/7/4 228/7/4 232/7/4
f 231/4/4 227/4/4 232/4/4
f 229/7/4 230/7/4 233/7/4
f 215/7/4 229/7/4 233/7/4
f 231/7/4 232/7/4 233/7/4
f 230/7/4 231/7/4 233/7/4
f 228/7/4 216/7/4 234/7/4
f 233/7/4 232/7/4 234/7/4
f 232/7/4 228/7/4 234/7/4
f 235/1/4 236/1/4 237/1/4
f 237/1/4 236/1/4 238/1/4
f 238/1/4 236/1/4 239/1/4
f 239/1/4 236/1/4 240/1/4
f 237/4/4 238/4/4 241/4/4
f 238/1/4 239/1/4 242/1/4
f 241/4/4 238/4/4 242/4/4
f 239/4/4 240/4/4 243/4/4
f 242/1/4 239/1/4 243/1/4
f 240/1/4 236/1/4 244/1/4
f 243/4/4 240/4/4 244/4/4
f 244/1/4 236/1/4 245/1/4
f 235/1/4 237/1/4 247/1/4
f 237/4/4 241/4/4 248/4/4
f 247/1/4 237/1/4 248/1/4
f 242/1/4 243/1/4 249/1/4
f 248/4/4 241/4/4 249/4/4
f 241/1/4 242/1/4 249/1/4
f 243/1/4 244/1/4 249/1/4
f 249/1/4 244/1/4 250/1/4
f 244/3/4 245/3/4 251/3/4
f 245/3/4 246/3/4 251/3/4
f 251/3/4 246/3/4 252/3/4
f 252/3/4 246/3/4 253/3/4
f 253/3/4 246/3/4 254/3/4
f 249/4/4 250/4/4 257/4/4
f 247/4/4 248/4/4 257/4/4
f 235/1/4 247/1/4 257/1/4
f 248/4/4 249/4/4 257/4/4
f 250/1/4 244/1/4 258/1/4
f 257/4/4 250/4/4 258/4/4
f 252/3/4 253/3/4 259/3/4
f 251/2/4 252/2/4 259/2/4
f 259/3/4 253/3/4 260/3/4
f 260/3/4 253/3/4 261/3/4
f 253/2/4 254/2/4 262/2/4
f 261/3/4 253/3/4 262/3/4
f 255/8/4 256/8/4 263/8/4
f 263/8/4 256/8/4 264/8/4
f 264/8/4 256/8/4 265/8/4
f 265/8/4 256/8/4 266/8/4
f 235/1/4 257/1/4 267/1/4
f 257/1/4 258/1/4 267/1/4
f 258/1/4 244/1/4 268/1/4
f 267/1/4 258/1/4 268/1/4
f 244/3/4 251/3/4 268/3/4
f 260/3/4 261/3/4 269/3/4
f 261/2/4 262/2/4 269/2/4
f 262/2/4 254/2/4 270/2/4
f 269/2/4 262/2/4 270/2/4
f 254/3/4 246/3/4 270/3/4
f 263/4/4 264/4/4 271/4/4
f 264/8/4 265/8/4 271/8/4
f 271/8/4 265/8/4 272/8/4
f 255/8/4 263/8/4 273/8/4
f 271/4/4 272/4/4 274/4/4
f 273/8/4 263/8/4 274/8/4
f 263/4/4 271/4/4 274/4/4
f 251/2/4 259/2/4 275/2/4
f 259/2/4 260/2/4 275/2/4
f 260/3/4 269/3/4 276/3/4
f 275/2/4 260/2/4 276/2/4
f 269/3/4 270/3/4 276/3/4
f 274/4/4 272/4/4 277/4/4
f 273/4/4 274/4/4 277/4/4
f 272/8/4 265/8/4 278/8/4
f 277/4/4 272/4/4 278/4/4
f 265/4/4 266/4/4 279/4/4
f 266/8/4 256/8/4 280/8/4
f 279/4/4 266/4/4 280/4/4
f 251/2/4 275/2/4 281/2/4
f 268/3/4 251/3/4 281/3/4
f 275/3/4 276/3/4 282/3/4
f 281/2/4 275/2/4 282/2/4
f 255/8/4 273/8/4 283/8/4
f 273/4/4 277/4/4 283/4/4
f 277/8/4 278/8/4 284/8/4
f 283/4/4 277/4/4 284/4/4
f 265/4/4 279/4/4 285/4/4
f 284/8/4 278/8/4 285/8/4
f 278/8/4 265/8/4 285/8/4
f 279/8/4 280/8/4 286/8/4
f 285/4/4 279/4/4 286/4/4
f 268/3/4 281/3/4 287/3/4
f 281/3/4 282/3/4 287/3/4
f 270/3/4 246/3/4 288/3/4
f 287/3/4 282/3/4 288/3/4
f 282/3/4 276/3/4 288/3/4
f 276/3/4 270/3/4 288/3/4
f 283/8/4 284/8/4 289/8/4
f 284/8/4 285/8/4 289/8/4
f 285/8/4 286/8/4 289/8/4
f 255/8/4 283/8/4 289/8/4
f 280/8/4 256/8/4 290/8/4
f 289/8/4 286/8/4 290/8/4
f 286/8/4 280/8/4 290/8/4
f 291/5/4 292/5/4 295/5/4
f 295/5/4 292/5/4 296/5/4
f 296/5/4 292/5/4 297/5/4
f 297/5/4 292/5/4 298/5/4
f 293/9/4 294/9/4 299/9/4
f 299/9/4 294/9/4 300/9/4
f 300/9/4 294/9/4 301/9/4
f 301/9/4 294/9/4 302/9/4
f 291/5/4 295/5/4 303/5/4
f 295/4/4 296/4/4 303/4/4
f 303/4/4 296/4/4 304/4/4
f 304/4/4 296/4/4 305/4/4
f 296/5/4 297/5/4 306/5/4
f 305/4/4 296/4/4 306/4/4
f 304/4/4 305/4/4 307/4/4
f 305/5/4 306/5/4 307/5/4
f 306/5/4 297/5/4 308/5/4
f 307/5/4 306/5/4 308/5/4
f 299/4/4 300/4/4 309/4/4
f 300/9/4 301/9/4 310/9/4
f 309/4/4 300/4/4 310/4/4
f 301/4/4 302/4/4 311/4/4
f 310/9/4 301/9/4 311/9/4
f 302/9/4 294/9/4 312/9/4
f 311/4/4 302/4/4 312/4/4
f 312/9/4 294/9/4 313/9/4
f 293/9/4 299/9/4 315/9/4
f 299/4/4 309/4/4 316/4/4
f 315/9/4 299/9/4 316/9/4
f 310/9/4 311/9/4 317/9/4
f 316/4/4 309/4/4 317/4/4
f 309/9/4 310/9/4 317/9/4
f 311/9/4 312/9/4 317/9/4
f 317/9/4 312/9/4 318/9/4
f 312/3/4 313/3/4 319/3/4
f 313/3/4 314/3/4 319/3/4
f 319/3/4 314/3/4 320/3/4
f 320/3/4 314/3/4 321/3/4
f 321/3/4 314/3/4 322/3/4
f 307/4/4 308/4/4 323/4/4
f 304/4/4 307/4/4 323/4/4
f 303/5/4 304/5/4 323/5/4
f 308/5/4 297/5/4 324/5/4
f 323/4/4 308/4/4 324/4/4
f 297/4/4 298/4/4 325/4/4
f 324/5/4 297/5/4 325/5/4
f 298/5/4 292/5/4 326/5/4
f 325/4/4 298/4/4 326/4/4
f 315/4/4 316/4/4 327/4/4
f 317/4/4 318/4/4 327/4/4
f 293/9/4 315/9/4 327/9/4
f 316/4/4 317/4/4 327/4/4
f 318/9/4 312/9/4 328/9/4
f 327/4/4 318/4/4 328/4/4
f 319/2/4 320/2/4 329/2/4
f 320/3/4 321/3/4 329/3/4
f 329/3/4 321/3/4 330/3/4
f 330/3/4 321/3/4 331/3/4
f 321/2/4 322/2/4 332/2/4
f 331/3/4 321/3/4 332/3/4
f 324/5/4 325/5/4 333/5/4
f 323/5/4 324/5/4 333/5/4
f 325/5/4 326/5/4 333/5/4
f 303/5/4 323/5/4 333/5/4
f 291/5/4 303/5/4 333/5/4
f 326/5/4 292/5/4 334/5/4
f 333/5/4 326/5/4 334/5/4
f 293/9/4 327/9/4 335/9/4
f 327/9/4 328/9/4 335/9/4
f 328/9/4 312/9/4 336/9/4
f 335/9/4 328/9/4 336/9/4
f 312/3/4 319/3/4 336/3/4
f 330/3/4 331/3/4 337/3/4
f 331/2/4 332/2/4 337/2/4
f 332/2/4 322/2/4 338/2/4
f 337/2/4 332/2/4 338/2/4
f 322/3/4 314/3/4 338/3/4
f 339/6/4 340/6/4 341/6/4
f 341/6/4 340/6/4 342/6/4
f 342/6/4 340/6/4 343/6/4
f 343/6/4 340/6/4 344/6/4
f 329/2/4 330/2/4 345/2/4
f 319/2/4 329/2/4 345/2/4
f 330/3/4 337/3/4 346/3/4
f 345/2/4 330/2/4 346/2/4
f 337/3/4 338/3/4 346/3/4
f 342/6/4 343/6/4 347/6/4
f 341/4/4 342/4/4 347/4/4
f 347/6/4 343/6/4 348/6/4
f 344/6/4 340/6/4 349/6/4
f 343/4/4 344/4/4 349/4/4
f 349/6/4 340/6/4 350/6/4
f 319/2/4 345/2/4 351/2/4
f 336/3/4 319/3/4 351/3/4
f 345/3/4 346/3/4 352/3/4
f 351/2/4 345/2/4 352/2/4
f 347/4/4 348/4/4 353/4/4
f 339/6/4 341/6/4 353/6/4
f 341/4/4 347/4/4 353/4/4
f 353/4/4 348/4/4 354/4/4
f 351/3/4 352/3/4 355/3/4
f 336/3/4 351/3/4 355/3/4
f 338/3/4 314/3/4 356/3/4
f 355/3/4 352/3/4 356/3/4
f 346/3/4 338/3/4 356/3/4
f 352/3/4 346/3/4 356/3/4
f 354/4/4 348/4/4 357/4/4
f 348/6/4 343/6/4 358/6/4
f 357/4/4 348/4/4 358/4/4
f 354/4/4 357/4/4 359/4/4
f 353/6/4 354/6/4 359/6/4
f 357/6/4 358/6/4 360/6/4
f 359/4/4 357/4/4 360/4/4
f 349/4/4 350/4/4 361/4/4
f 360/6/4 358/6/4 361/6/4
f 358/6/4 343/6/4 361/6/4
f 343/4/4 349/4/4 361/4/4
f 350/6/4 340/6/4 362/6/4
f 361/4/4 350/4/4 362/4/4
f 360/6/4 361/6/4 363/6/4
f 359/6/4 360/6/4 363/6/4
f 361/6/4 362/6/4 363/6/4
f 339/6/4 353/6/4 363/6/4
f 353/6/4 359/6/4 363/6/4
f 362/6/4 340/6/4 364/6/4
f 363/6/4 362/6/4 364/6/4
f 367/1/5 366/1/5 365/1/5
f 368/1/5 366/1/5 367/1/5
f 371/5/5 370/5/5 369/5/5
f 372/5/5 370/5/5 371/5/5
f 375/7/5 374/7/5 373/7/5
f 376/7/5 374/7/5 375/7/5
f 381/3/5 378/3/5 377/3/5
f 382/3/5 378/3/5 381/3/5
f 383/6/5 380/6/5 379/6/5
f 384/6/5 380/6/5 383/6/5
f 387/9/5 386/9/5 385/9/5
f 388/9/5 386/9/5 387/9/5
f 391/8/5 390/8/5 389/8/5
f 392/8/5 390/8/5 391/8/5
f 395/3/5 394/3/5 393/3/5
f 396/3/5 394/3/5 395/3/5
f 397/1/6 398/1/6 399/1/6
f 399/1/6 398/1/6 400/1/6
f 401/5/6 402/5/6 403/5/6
f 403/5/6 402/5/6 404/5/6
f 405/7/6 406/7/6 407/7/6
f 407/7/6 406/7/6 408/7/6
f 409/6/6 410/6/6 411/6/6
f 411/6/6 410/6/6 412/6/6
f 413/3/6 414/3/6 415/3/6
f 415/3/6 414/3/6 416/3/6
f 417/9/6 418/9/6 419/9/6
f 419/9/6 418/9/6 420/9/6
f 421/8/6 422/8/6 423/8/6
f 423/8/6 422/8/6 424/8/6
f 425/3/6 426/3/6 427/3/6
f 427/3/6 426/3/6 428/3/6
