# MagicaVoxel @ Ephtracy

# group
o Cardboard_Dark_Brown_Close-24

# material
mtllib Bunker - Free Sample-44-Cardboard_Dark_Brown_Close-24.mtl
usemtl palette

# normals
vn -1 0 0
vn 1 0 0
vn 0 0 1
vn 0 0 -1
vn 0 -1 0
vn 0 1 0

# texcoords
vt 0.0957031 0.5
vt 0.619141 0.5
vt 0.888672 0.5
vt 0.892578 0.5
vt 0.904297 0.5

# verts
v -0.92 1.84 -3.58
v -0.92 1.84 -3.6
v -0.92 1.84 -3.8
v -0.92 1.84 -3.82
v -0.92 1.86 -3.58
v -0.92 1.86 -3.6
v -0.92 1.86 -3.8
v -0.92 1.86 -3.82
v -0.92 1.94 -3.66
v -0.92 1.94 -3.74
v -0.92 1.96 -3.66
v -0.92 1.96 -3.74
v -0.92 1.98 -3.6
v -0.92 1.98 -3.66
v -0.92 1.98 -3.74
v -0.92 1.98 -3.8
v -0.92 2 -3.58
v -0.92 2 -3.82
v -0.68 1.84 -3.58
v -0.68 1.84 -3.6
v -0.68 1.84 -3.8
v -0.68 1.84 -3.82
v -0.68 1.86 -3.58
v -0.68 1.86 -3.6
v -0.68 1.86 -3.8
v -0.68 1.86 -3.82
v -0.68 1.94 -3.66
v -0.68 1.94 -3.74
v -0.68 1.96 -3.66
v -0.68 1.96 -3.74
v -0.68 1.98 -3.6
v -0.68 1.98 -3.66
v -0.68 1.98 -3.74
v -0.68 1.98 -3.8
v -0.68 2 -3.58
v -0.68 2 -3.82
v -0.92 1.84 -3.58
v -0.92 1.86 -3.58
v -0.92 2 -3.58
v -0.9 1.84 -3.58
v -0.9 1.86 -3.58
v -0.9 1.98 -3.58
v -0.82 1.94 -3.58
v -0.82 1.98 -3.58
v -0.82 2 -3.58
v -0.78 1.94 -3.58
v -0.78 1.98 -3.58
v -0.78 2 -3.58
v -0.7 1.84 -3.58
v -0.7 1.86 -3.58
v -0.7 1.98 -3.58
v -0.68 1.84 -3.58
v -0.68 1.86 -3.58
v -0.68 2 -3.58
v -0.92 1.84 -3.82
v -0.92 1.86 -3.82
v -0.92 2 -3.82
v -0.9 1.84 -3.82
v -0.9 1.86 -3.82
v -0.9 1.98 -3.82
v -0.82 1.94 -3.82
v -0.82 1.98 -3.82
v -0.82 2 -3.82
v -0.78 1.94 -3.82
v -0.78 1.98 -3.82
v -0.78 2 -3.82
v -0.7 1.84 -3.82
v -0.7 1.86 -3.82
v -0.7 1.98 -3.82
v -0.68 1.84 -3.82
v -0.68 1.86 -3.82
v -0.68 2 -3.82
v -0.92 1.84 -3.58
v -0.9 1.84 -3.58
v -0.7 1.84 -3.58
v -0.68 1.84 -3.58
v -0.92 1.84 -3.6
v -0.9 1.84 -3.6
v -0.7 1.84 -3.6
v -0.68 1.84 -3.6
v -0.92 1.84 -3.8
v -0.9 1.84 -3.8
v -0.7 1.84 -3.8
v -0.68 1.84 -3.8
v -0.92 1.84 -3.82
v -0.9 1.84 -3.82
v -0.7 1.84 -3.82
v -0.68 1.84 -3.82
v -0.92 2 -3.58
v -0.82 2 -3.58
v -0.78 2 -3.58
v -0.68 2 -3.58
v -0.9 2 -3.6
v -0.82 2 -3.6
v -0.78 2 -3.6
v -0.7 2 -3.6
v -0.9 2 -3.8
v -0.82 2 -3.8
v -0.78 2 -3.8
v -0.7 2 -3.8
v -0.92 2 -3.82
v -0.82 2 -3.82
v -0.78 2 -3.82
v -0.68 2 -3.82

# faces
f 5/1/1 2/1/1 1/1/1
f 6/3/1 3/3/1 2/3/1
f 6/1/1 2/1/1 5/1/1
f 7/1/1 4/1/1 3/1/1
f 7/3/1 3/3/1 6/3/1
f 8/1/1 4/1/1 7/1/1
f 9/4/1 7/4/1 6/4/1
f 10/4/1 7/4/1 9/4/1
f 11/4/1 9/4/1 6/4/1
f 11/3/1 10/3/1 9/3/1
f 12/4/1 7/4/1 10/4/1
f 12/3/1 10/3/1 11/3/1
f 13/3/1 6/3/1 5/3/1
f 13/4/1 11/4/1 6/4/1
f 14/2/1 12/2/1 11/2/1
f 14/4/1 11/4/1 13/4/1
f 15/4/1 7/4/1 12/4/1
f 15/2/1 12/2/1 14/2/1
f 16/3/1 8/3/1 7/3/1
f 16/4/1 7/4/1 15/4/1
f 17/3/1 14/3/1 13/3/1
f 17/3/1 15/3/1 14/3/1
f 17/3/1 16/3/1 15/3/1
f 17/3/1 13/3/1 5/3/1
f 18/3/1 8/3/1 16/3/1
f 18/3/1 16/3/1 17/3/1
f 19/1/2 20/1/2 23/1/2
f 20/3/2 21/3/2 24/3/2
f 23/1/2 20/1/2 24/1/2
f 21/1/2 22/1/2 25/1/2
f 24/3/2 21/3/2 25/3/2
f 25/1/2 22/1/2 26/1/2
f 24/4/2 25/4/2 27/4/2
f 27/4/2 25/4/2 28/4/2
f 24/4/2 27/4/2 29/4/2
f 27/3/2 28/3/2 29/3/2
f 28/4/2 25/4/2 30/4/2
f 29/3/2 28/3/2 30/3/2
f 23/3/2 24/3/2 31/3/2
f 24/4/2 29/4/2 31/4/2
f 29/2/2 30/2/2 32/2/2
f 31/4/2 29/4/2 32/4/2
f 30/4/2 25/4/2 33/4/2
f 32/2/2 30/2/2 33/2/2
f 25/3/2 26/3/2 34/3/2
f 33/4/2 25/4/2 34/4/2
f 31/3/2 32/3/2 35/3/2
f 32/3/2 33/3/2 35/3/2
f 33/3/2 34/3/2 35/3/2
f 23/3/2 31/3/2 35/3/2
f 34/3/2 26/3/2 36/3/2
f 35/3/2 34/3/2 36/3/2
f 40/1/3 38/1/3 37/1/3
f 41/3/3 39/3/3 38/3/3
f 41/1/3 38/1/3 40/1/3
f 42/3/3 39/3/3 41/3/3
f 43/4/3 42/4/3 41/4/3
f 44/3/3 39/3/3 42/3/3
f 44/4/3 42/4/3 43/4/3
f 45/3/3 39/3/3 44/3/3
f 46/4/3 43/4/3 41/4/3
f 46/5/3 44/5/3 43/5/3
f 46/5/3 45/5/3 44/5/3
f 47/5/3 45/5/3 46/5/3
f 48/5/3 45/5/3 47/5/3
f 49/3/3 41/3/3 40/3/3
f 50/4/3 46/4/3 41/4/3
f 50/3/3 41/3/3 49/3/3
f 50/4/3 47/4/3 46/4/3
f 51/3/3 48/3/3 47/3/3
f 51/4/3 47/4/3 50/4/3
f 52/1/3 50/1/3 49/1/3
f 53/3/3 51/3/3 50/3/3
f 53/1/3 50/1/3 52/1/3
f 54/3/3 48/3/3 51/3/3
f 54/3/3 51/3/3 53/3/3
f 55/1/4 56/1/4 58/1/4
f 56/3/4 57/3/4 59/3/4
f 58/1/4 56/1/4 59/1/4
f 59/3/4 57/3/4 60/3/4
f 59/4/4 60/4/4 61/4/4
f 60/3/4 57/3/4 62/3/4
f 61/4/4 60/4/4 62/4/4
f 62/3/4 57/3/4 63/3/4
f 59/4/4 61/4/4 64/4/4
f 61/5/4 62/5/4 64/5/4
f 62/5/4 63/5/4 64/5/4
f 64/5/4 63/5/4 65/5/4
f 65/5/4 63/5/4 66/5/4
f 58/3/4 59/3/4 67/3/4
f 59/4/4 64/4/4 68/4/4
f 67/3/4 59/3/4 68/3/4
f 64/4/4 65/4/4 68/4/4
f 65/3/4 66/3/4 69/3/4
f 68/4/4 65/4/4 69/4/4
f 67/1/4 68/1/4 70/1/4
f 68/3/4 69/3/4 71/3/4
f 70/1/4 68/1/4 71/1/4
f 69/3/4 66/3/4 72/3/4
f 71/3/4 69/3/4 72/3/4
f 77/1/5 74/1/5 73/1/5
f 78/3/5 75/3/5 74/3/5
f 78/1/5 74/1/5 77/1/5
f 79/1/5 76/1/5 75/1/5
f 79/3/5 75/3/5 78/3/5
f 80/1/5 76/1/5 79/1/5
f 81/3/5 78/3/5 77/3/5
f 82/1/5 79/1/5 78/1/5
f 82/3/5 78/3/5 81/3/5
f 83/3/5 80/3/5 79/3/5
f 83/1/5 79/1/5 82/1/5
f 84/3/5 80/3/5 83/3/5
f 85/1/5 82/1/5 81/1/5
f 86/3/5 83/3/5 82/3/5
f 86/1/5 82/1/5 85/1/5
f 87/1/5 84/1/5 83/1/5
f 87/3/5 83/3/5 86/3/5
f 88/1/5 84/1/5 87/1/5
f 89/3/6 90/3/6 93/3/6
f 90/5/6 91/5/6 94/5/6
f 93/3/6 90/3/6 94/3/6
f 91/3/6 92/3/6 95/3/6
f 94/5/6 91/5/6 95/5/6
f 95/3/6 92/3/6 96/3/6
f 93/4/6 94/4/6 97/4/6
f 89/3/6 93/3/6 97/3/6
f 94/5/6 95/5/6 98/5/6
f 97/4/6 94/4/6 98/4/6
f 95/4/6 96/4/6 99/4/6
f 98/5/6 95/5/6 99/5/6
f 96/3/6 92/3/6 100/3/6
f 99/4/6 96/4/6 100/4/6
f 97/3/6 98/3/6 101/3/6
f 89/3/6 97/3/6 101/3/6
f 98/5/6 99/5/6 102/5/6
f 101/3/6 98/3/6 102/3/6
f 99/3/6 100/3/6 103/3/6
f 102/5/6 99/5/6 103/5/6
f 100/3/6 92/3/6 104/3/6
f 103/3/6 100/3/6 104/3/6
