# Blender 4.4.3
# www.blender.org
mtllib Cardboard_Dark_Brown_Close-23.mtl
o Cardboard_Dark_Brown_Close-23
v 0.120000 0.120000 0.080001
v 0.100000 0.120000 0.080001
v -0.100000 0.120000 0.080001
v -0.120000 0.120000 0.080001
v 0.120000 0.120000 0.060001
v 0.100000 0.120000 0.060001
v -0.100000 0.120000 0.060001
v -0.120000 0.120000 0.060001
v 0.020000 0.120000 -0.020000
v -0.020000 0.120000 -0.020000
v 0.100000 0.120000 -0.059999
v 0.020000 0.120000 -0.059999
v -0.020000 0.120000 -0.059999
v -0.100000 0.120000 -0.059999
v 0.120000 0.120000 -0.079999
v 0.020000 0.120000 -0.079999
v -0.020000 0.120000 -0.079999
v -0.120000 0.120000 -0.079999
v 0.120000 -0.119999 0.080001
v 0.100000 -0.119999 0.080001
v -0.100000 -0.119999 0.080001
v -0.120000 -0.119999 0.080001
v 0.120000 -0.119999 0.060001
v 0.100000 -0.119999 0.060001
v -0.100000 -0.119999 0.060001
v -0.120000 -0.119999 0.060001
v 0.020000 -0.119999 -0.020000
v -0.020000 -0.119999 -0.020000
v 0.100000 -0.119999 -0.059999
v 0.020000 -0.119999 -0.059999
v -0.020000 -0.119999 -0.059999
v -0.100000 -0.119999 -0.059999
v 0.120000 -0.119999 -0.079999
v 0.020000 -0.119999 -0.079999
v -0.020000 -0.119999 -0.079999
v -0.120000 -0.119999 -0.079999
v 0.120000 0.120000 0.080001
v 0.120000 0.120000 0.060001
v 0.120000 0.120000 -0.079999
v 0.120000 0.100000 0.080001
v 0.120000 0.100000 0.060001
v 0.120000 0.100000 -0.059999
v 0.120000 0.040000 -0.020000
v 0.120000 0.040000 -0.039999
v 0.120000 0.040000 -0.059999
v 0.120000 -0.039999 -0.020000
v 0.120000 -0.039999 -0.039999
v 0.120000 -0.039999 -0.059999
v 0.120000 -0.099999 0.080001
v 0.120000 -0.099999 0.060001
v 0.120000 -0.099999 -0.059999
v 0.120000 -0.119999 0.080001
v 0.120000 -0.119999 0.060001
v 0.120000 -0.119999 -0.079999
v -0.120000 0.120000 0.080001
v -0.120000 0.120000 0.060001
v -0.120000 0.120000 -0.079999
v -0.120000 0.100000 0.080001
v -0.120000 0.100000 0.060001
v -0.120000 0.100000 -0.059999
v -0.120000 0.040000 -0.020000
v -0.120000 0.040000 -0.039999
v -0.120000 0.040000 -0.059999
v -0.120000 -0.039999 -0.020000
v -0.120000 -0.039999 -0.039999
v -0.120000 -0.039999 -0.059999
v -0.120000 -0.099999 0.080001
v -0.120000 -0.099999 0.060001
v -0.120000 -0.099999 -0.059999
v -0.120000 -0.119999 0.080001
v -0.120000 -0.119999 0.060001
v -0.120000 -0.119999 -0.079999
v 0.120000 0.120000 0.080001
v 0.120000 0.100000 0.080001
v 0.120000 -0.099999 0.080001
v 0.120000 -0.119999 0.080001
v 0.100000 0.120000 0.080001
v 0.100000 0.100000 0.080001
v 0.100000 -0.099999 0.080001
v 0.100000 -0.119999 0.080001
v -0.100000 0.120000 0.080001
v -0.100000 0.100000 0.080001
v -0.100000 -0.099999 0.080001
v -0.100000 -0.119999 0.080001
v -0.120000 0.120000 0.080001
v -0.120000 0.100000 0.080001
v -0.120000 -0.099999 0.080001
v -0.120000 -0.119999 0.080001
v 0.120000 0.120000 -0.079999
v 0.120000 -0.119999 -0.079999
v 0.100000 0.100000 -0.079999
v 0.100000 -0.099999 -0.079999
v 0.020000 0.120000 -0.079999
v 0.020000 0.100000 -0.079999
v 0.020000 -0.099999 -0.079999
v 0.020000 -0.119999 -0.079999
v -0.020000 0.120000 -0.079999
v -0.020000 0.100000 -0.079999
v -0.020000 -0.099999 -0.079999
v -0.020000 -0.119999 -0.079999
v -0.100000 0.100000 -0.079999
v -0.100000 -0.099999 -0.079999
v -0.120000 0.120000 -0.079999
v -0.120000 -0.119999 -0.079999
vn -0.0000 1.0000 -0.0000
vn -0.0000 -1.0000 -0.0000
vn 1.0000 -0.0000 -0.0000
vn -1.0000 -0.0000 -0.0000
vn -0.0000 -0.0000 1.0000
vn -0.0000 -0.0000 -1.0000
vt 0.095703 0.500000
vt 0.888672 0.500000
vt 0.892578 0.500000
vt 0.904297 0.500000
vt 0.619141 0.500000
s 1
usemtl palette.037
f 5/1/1 2/1/1 1/1/1
f 6/2/1 3/2/1 2/2/1
f 6/1/1 2/1/1 5/1/1
f 7/1/1 4/1/1 3/1/1
f 7/2/1 3/2/1 6/2/1
f 8/1/1 4/1/1 7/1/1
f 9/3/1 7/3/1 6/3/1
f 10/3/1 7/3/1 9/3/1
f 11/2/1 6/2/1 5/2/1
f 11/3/1 9/3/1 6/3/1
f 12/4/1 10/4/1 9/4/1
f 12/3/1 9/3/1 11/3/1
f 13/3/1 7/3/1 10/3/1
f 13/4/1 10/4/1 12/4/1
f 14/2/1 8/2/1 7/2/1
f 14/3/1 7/3/1 13/3/1
f 15/2/1 12/2/1 11/2/1
f 15/2/1 11/2/1 5/2/1
f 16/4/1 13/4/1 12/4/1
f 16/2/1 12/2/1 15/2/1
f 17/2/1 14/2/1 13/2/1
f 17/4/1 13/4/1 16/4/1
f 18/2/1 8/2/1 14/2/1
f 18/2/1 14/2/1 17/2/1
f 19/1/2 20/1/2 23/1/2
f 20/2/2 21/2/2 24/2/2
f 23/1/2 20/1/2 24/1/2
f 21/1/2 22/1/2 25/1/2
f 24/2/2 21/2/2 25/2/2
f 25/1/2 22/1/2 26/1/2
f 24/3/2 25/3/2 27/3/2
f 27/3/2 25/3/2 28/3/2
f 23/2/2 24/2/2 29/2/2
f 24/3/2 27/3/2 29/3/2
f 27/4/2 28/4/2 30/4/2
f 29/3/2 27/3/2 30/3/2
f 28/3/2 25/3/2 31/3/2
f 30/4/2 28/4/2 31/4/2
f 25/2/2 26/2/2 32/2/2
f 31/3/2 25/3/2 32/3/2
f 29/2/2 30/2/2 33/2/2
f 23/2/2 29/2/2 33/2/2
f 30/4/2 31/4/2 34/4/2
f 33/2/2 30/2/2 34/2/2
f 31/2/2 32/2/2 35/2/2
f 34/4/2 31/4/2 35/4/2
f 32/2/2 26/2/2 36/2/2
f 35/2/2 32/2/2 36/2/2
f 40/1/3 38/1/3 37/1/3
f 41/2/3 39/2/3 38/2/3
f 41/1/3 38/1/3 40/1/3
f 42/2/3 39/2/3 41/2/3
f 43/3/3 42/3/3 41/3/3
f 44/3/3 42/3/3 43/3/3
f 45/2/3 39/2/3 42/2/3
f 45/3/3 42/3/3 44/3/3
f 46/2/3 44/2/3 43/2/3
f 46/3/3 43/3/3 41/3/3
f 47/5/3 45/5/3 44/5/3
f 47/2/3 44/2/3 46/2/3
f 48/2/3 39/2/3 45/2/3
f 48/5/3 45/5/3 47/5/3
f 49/2/3 41/2/3 40/2/3
f 50/3/3 47/3/3 46/3/3
f 50/2/3 41/2/3 49/2/3
f 50/3/3 46/3/3 41/3/3
f 50/3/3 48/3/3 47/3/3
f 51/2/3 39/2/3 48/2/3
f 51/3/3 48/3/3 50/3/3
f 52/1/3 50/1/3 49/1/3
f 53/2/3 51/2/3 50/2/3
f 53/1/3 50/1/3 52/1/3
f 54/2/3 39/2/3 51/2/3
f 54/2/3 51/2/3 53/2/3
f 55/1/4 56/1/4 58/1/4
f 56/2/4 57/2/4 59/2/4
f 58/1/4 56/1/4 59/1/4
f 59/2/4 57/2/4 60/2/4
f 59/3/4 60/3/4 61/3/4
f 61/3/4 60/3/4 62/3/4
f 60/2/4 57/2/4 63/2/4
f 62/3/4 60/3/4 63/3/4
f 61/2/4 62/2/4 64/2/4
f 59/3/4 61/3/4 64/3/4
f 62/5/4 63/5/4 65/5/4
f 64/2/4 62/2/4 65/2/4
f 63/2/4 57/2/4 66/2/4
f 65/5/4 63/5/4 66/5/4
f 58/2/4 59/2/4 67/2/4
f 64/3/4 65/3/4 68/3/4
f 67/2/4 59/2/4 68/2/4
f 59/3/4 64/3/4 68/3/4
f 65/3/4 66/3/4 68/3/4
f 66/2/4 57/2/4 69/2/4
f 68/3/4 66/3/4 69/3/4
f 67/1/4 68/1/4 70/1/4
f 68/2/4 69/2/4 71/2/4
f 70/1/4 68/1/4 71/1/4
f 69/2/4 57/2/4 72/2/4
f 71/2/4 69/2/4 72/2/4
f 77/1/5 74/1/5 73/1/5
f 78/2/5 75/2/5 74/2/5
f 78/1/5 74/1/5 77/1/5
f 79/1/5 76/1/5 75/1/5
f 79/2/5 75/2/5 78/2/5
f 80/1/5 76/1/5 79/1/5
f 81/2/5 78/2/5 77/2/5
f 82/1/5 79/1/5 78/1/5
f 82/2/5 78/2/5 81/2/5
f 83/2/5 80/2/5 79/2/5
f 83/1/5 79/1/5 82/1/5
f 84/2/5 80/2/5 83/2/5
f 85/1/5 82/1/5 81/1/5
f 86/2/5 83/2/5 82/2/5
f 86/1/5 82/1/5 85/1/5
f 87/1/5 84/1/5 83/1/5
f 87/2/5 83/2/5 86/2/5
f 88/1/5 84/1/5 87/1/5
f 89/2/6 90/2/6 91/2/6
f 91/2/6 90/2/6 92/2/6
f 89/2/6 91/2/6 93/2/6
f 91/3/6 92/3/6 94/3/6
f 93/2/6 91/2/6 94/2/6
f 92/2/6 90/2/6 95/2/6
f 94/3/6 92/3/6 95/3/6
f 95/2/6 90/2/6 96/2/6
f 93/4/6 94/4/6 97/4/6
f 94/4/6 95/4/6 97/4/6
f 95/4/6 96/4/6 97/4/6
f 97/4/6 96/4/6 98/4/6
f 98/4/6 96/4/6 99/4/6
f 99/4/6 96/4/6 100/4/6
f 97/2/6 98/2/6 101/2/6
f 98/3/6 99/3/6 101/3/6
f 99/2/6 100/2/6 102/2/6
f 101/3/6 99/3/6 102/3/6
f 97/2/6 101/2/6 103/2/6
f 101/2/6 102/2/6 103/2/6
f 102/2/6 100/2/6 104/2/6
f 103/2/6 102/2/6 104/2/6
