# Blender 4.4.3
# www.blender.org
mtllib Lantern-1.mtl
o Lantern-1
v -0.030000 0.064719 0.155000
v -0.030000 0.004719 0.155000
v -0.030000 0.064719 0.095001
v -0.030000 0.044719 0.095001
v -0.030000 0.024719 0.095001
v -0.030000 0.004719 0.095001
v -0.030000 0.044719 0.035000
v -0.030000 0.024719 0.035000
v -0.010000 0.264719 0.075000
v -0.010000 0.044719 0.075000
v -0.010000 0.024719 0.075000
v -0.010000 -0.215281 0.075000
v -0.010000 0.464719 0.055000
v -0.010000 0.264719 0.055000
v -0.010000 -0.215281 0.055000
v -0.010000 -0.415281 0.055000
v -0.010000 0.664719 0.035000
v -0.010000 0.464719 0.035000
v -0.010000 0.264719 0.035000
v -0.010000 0.044719 0.035000
v -0.010000 0.024719 0.035000
v -0.010000 -0.215281 0.035000
v -0.010000 -0.415281 0.035000
v -0.010000 -0.615281 0.035000
v -0.010000 0.904719 0.015000
v -0.010000 0.664719 0.015000
v -0.010000 0.464719 0.015000
v -0.010000 0.264719 0.015000
v -0.010000 0.044719 0.015000
v -0.010000 0.024719 0.015000
v -0.010000 -0.215281 0.015000
v -0.010000 -0.415281 0.015000
v -0.010000 -0.615281 0.015000
v -0.010000 -0.855281 0.015000
v -0.010000 0.964719 -0.005000
v -0.010000 0.904719 -0.005000
v -0.010000 0.664719 -0.005000
v -0.010000 0.464719 -0.005000
v -0.010000 -0.415281 -0.005000
v -0.010000 -0.615281 -0.005000
v -0.010000 -0.855281 -0.005000
v -0.010000 -0.915281 -0.005000
v -0.010000 0.984719 -0.024999
v -0.010000 0.964719 -0.024999
v -0.010000 0.884719 -0.024999
v -0.010000 0.664719 -0.024999
v -0.010000 -0.615281 -0.024999
v -0.010000 -0.835281 -0.024999
v -0.010000 -0.915281 -0.024999
v -0.010000 -0.935281 -0.024999
v -0.010000 1.004719 -0.045000
v -0.010000 0.984719 -0.045000
v -0.010000 0.944719 -0.045000
v -0.010000 0.884719 -0.045000
v -0.010000 -0.835281 -0.045000
v -0.010000 -0.895281 -0.045000
v -0.010000 -0.935281 -0.045000
v -0.010000 -0.955281 -0.045000
v -0.010000 1.024719 -0.065000
v -0.010000 1.004719 -0.065000
v -0.010000 0.964719 -0.065000
v -0.010000 0.944719 -0.065000
v -0.010000 -0.895281 -0.065000
v -0.010000 -0.915281 -0.065000
v -0.010000 -0.955281 -0.065000
v -0.010000 -0.975281 -0.065000
v -0.010000 -0.915281 -0.085000
v -0.010000 -0.935281 -0.085000
v -0.010000 1.024719 -0.105000
v -0.010000 0.964719 -0.105000
v -0.010000 -0.935281 -0.105000
v -0.010000 -0.975281 -0.105000
v 0.010000 0.264719 0.075000
v 0.010000 0.044719 0.075000
v 0.010000 0.024719 0.075000
v 0.010000 -0.215281 0.075000
v 0.010000 0.464719 0.055000
v 0.010000 0.264719 0.055000
v 0.010000 -0.215281 0.055000
v 0.010000 -0.415281 0.055000
v 0.010000 0.664719 0.035000
v 0.010000 0.464719 0.035000
v 0.010000 0.264719 0.035000
v 0.010000 0.044719 0.035000
v 0.010000 0.024719 0.035000
v 0.010000 -0.215281 0.035000
v 0.010000 -0.415281 0.035000
v 0.010000 -0.615281 0.035000
v 0.010000 0.904719 0.015000
v 0.010000 0.664719 0.015000
v 0.010000 0.464719 0.015000
v 0.010000 0.264719 0.015000
v 0.010000 0.044719 0.015000
v 0.010000 0.024719 0.015000
v 0.010000 -0.215281 0.015000
v 0.010000 -0.415281 0.015000
v 0.010000 -0.615281 0.015000
v 0.010000 -0.855281 0.015000
v 0.010000 0.964719 -0.005000
v 0.010000 0.904719 -0.005000
v 0.010000 0.664719 -0.005000
v 0.010000 0.464719 -0.005000
v 0.010000 -0.415281 -0.005000
v 0.010000 -0.615281 -0.005000
v 0.010000 -0.855281 -0.005000
v 0.010000 -0.915281 -0.005000
v 0.010000 0.984719 -0.024999
v 0.010000 0.964719 -0.024999
v 0.010000 0.884719 -0.024999
v 0.010000 0.664719 -0.024999
v 0.010000 -0.615281 -0.024999
v 0.010000 -0.835281 -0.024999
v 0.010000 -0.915281 -0.024999
v 0.010000 -0.935281 -0.024999
v 0.010000 1.004719 -0.045000
v 0.010000 0.984719 -0.045000
v 0.010000 0.944719 -0.045000
v 0.010000 0.884719 -0.045000
v 0.010000 -0.835281 -0.045000
v 0.010000 -0.895281 -0.045000
v 0.010000 -0.935281 -0.045000
v 0.010000 -0.955281 -0.045000
v 0.010000 1.024719 -0.065000
v 0.010000 1.004719 -0.065000
v 0.010000 0.964719 -0.065000
v 0.010000 0.944719 -0.065000
v 0.010000 -0.895281 -0.065000
v 0.010000 -0.915281 -0.065000
v 0.010000 -0.955281 -0.065000
v 0.010000 -0.975281 -0.065000
v 0.010000 -0.915281 -0.085000
v 0.010000 -0.935281 -0.085000
v 0.010000 1.024719 -0.105000
v 0.010000 0.964719 -0.105000
v 0.010000 -0.935281 -0.105000
v 0.010000 -0.975281 -0.105000
v 0.030000 0.064719 0.155000
v 0.030000 0.004719 0.155000
v 0.030000 0.064719 0.095001
v 0.030000 0.044719 0.095001
v 0.030000 0.024719 0.095001
v 0.030000 0.004719 0.095001
v 0.030000 0.044719 0.035000
v 0.030000 0.024719 0.035000
v -0.010000 1.024719 -0.065000
v -0.010000 1.024719 -0.105000
v 0.010000 1.024719 -0.065000
v 0.010000 1.024719 -0.105000
v -0.010000 1.004719 -0.045000
v -0.010000 1.004719 -0.065000
v 0.010000 1.004719 -0.045000
v 0.010000 1.004719 -0.065000
v -0.010000 0.984719 -0.024999
v -0.010000 0.984719 -0.045000
v 0.010000 0.984719 -0.024999
v 0.010000 0.984719 -0.045000
v -0.010000 0.964719 -0.005000
v -0.010000 0.964719 -0.024999
v 0.010000 0.964719 -0.005000
v 0.010000 0.964719 -0.024999
v -0.010000 0.904719 0.015000
v -0.010000 0.904719 -0.005000
v 0.010000 0.904719 0.015000
v 0.010000 0.904719 -0.005000
v -0.010000 0.664719 0.035000
v -0.010000 0.664719 0.015000
v 0.010000 0.664719 0.035000
v 0.010000 0.664719 0.015000
v -0.010000 0.464719 0.055000
v -0.010000 0.464719 0.035000
v 0.010000 0.464719 0.055000
v 0.010000 0.464719 0.035000
v -0.010000 0.264719 0.075000
v -0.010000 0.264719 0.055000
v 0.010000 0.264719 0.075000
v 0.010000 0.264719 0.055000
v -0.030000 0.064719 0.155000
v -0.030000 0.064719 0.095001
v 0.030000 0.064719 0.155000
v 0.030000 0.064719 0.095001
v -0.030000 0.044719 0.095001
v -0.030000 0.044719 0.035000
v -0.010000 0.044719 0.075000
v -0.010000 0.044719 0.035000
v -0.010000 0.044719 0.015000
v 0.010000 0.044719 0.075000
v 0.010000 0.044719 0.035000
v 0.010000 0.044719 0.015000
v 0.030000 0.044719 0.095001
v 0.030000 0.044719 0.035000
v -0.010000 -0.215281 0.035000
v -0.010000 -0.215281 0.015000
v 0.010000 -0.215281 0.035000
v 0.010000 -0.215281 0.015000
v -0.010000 -0.415281 0.015000
v -0.010000 -0.415281 -0.005000
v 0.010000 -0.415281 0.015000
v 0.010000 -0.415281 -0.005000
v -0.010000 -0.615281 -0.005000
v -0.010000 -0.615281 -0.024999
v 0.010000 -0.615281 -0.005000
v 0.010000 -0.615281 -0.024999
v -0.010000 -0.835281 -0.024999
v -0.010000 -0.835281 -0.045000
v 0.010000 -0.835281 -0.024999
v 0.010000 -0.835281 -0.045000
v -0.010000 -0.895281 -0.045000
v -0.010000 -0.895281 -0.065000
v 0.010000 -0.895281 -0.045000
v 0.010000 -0.895281 -0.065000
v -0.010000 -0.915281 -0.065000
v -0.010000 -0.915281 -0.085000
v 0.010000 -0.915281 -0.065000
v 0.010000 -0.915281 -0.085000
v -0.010000 -0.935281 -0.085000
v -0.010000 -0.935281 -0.105000
v 0.010000 -0.935281 -0.085000
v 0.010000 -0.935281 -0.105000
v -0.010000 0.964719 -0.065000
v -0.010000 0.964719 -0.105000
v 0.010000 0.964719 -0.065000
v 0.010000 0.964719 -0.105000
v -0.010000 0.944719 -0.045000
v -0.010000 0.944719 -0.065000
v 0.010000 0.944719 -0.045000
v 0.010000 0.944719 -0.065000
v -0.010000 0.884719 -0.024999
v -0.010000 0.884719 -0.045000
v 0.010000 0.884719 -0.024999
v 0.010000 0.884719 -0.045000
v -0.010000 0.664719 -0.005000
v -0.010000 0.664719 -0.024999
v 0.010000 0.664719 -0.005000
v 0.010000 0.664719 -0.024999
v -0.010000 0.464719 0.015000
v -0.010000 0.464719 -0.005000
v 0.010000 0.464719 0.015000
v 0.010000 0.464719 -0.005000
v -0.010000 0.264719 0.035000
v -0.010000 0.264719 0.015000
v 0.010000 0.264719 0.035000
v 0.010000 0.264719 0.015000
v -0.030000 0.024719 0.095001
v -0.030000 0.024719 0.035000
v -0.010000 0.024719 0.075000
v -0.010000 0.024719 0.035000
v -0.010000 0.024719 0.015000
v 0.010000 0.024719 0.075000
v 0.010000 0.024719 0.035000
v 0.010000 0.024719 0.015000
v 0.030000 0.024719 0.095001
v 0.030000 0.024719 0.035000
v -0.030000 0.004719 0.155000
v -0.030000 0.004719 0.095001
v 0.030000 0.004719 0.155000
v 0.030000 0.004719 0.095001
v -0.010000 -0.215281 0.075000
v -0.010000 -0.215281 0.055000
v 0.010000 -0.215281 0.075000
v 0.010000 -0.215281 0.055000
v -0.010000 -0.415281 0.055000
v -0.010000 -0.415281 0.035000
v 0.010000 -0.415281 0.055000
v 0.010000 -0.415281 0.035000
v -0.010000 -0.615281 0.035000
v -0.010000 -0.615281 0.015000
v 0.010000 -0.615281 0.035000
v 0.010000 -0.615281 0.015000
v -0.010000 -0.855281 0.015000
v -0.010000 -0.855281 -0.005000
v 0.010000 -0.855281 0.015000
v 0.010000 -0.855281 -0.005000
v -0.010000 -0.915281 -0.005000
v -0.010000 -0.915281 -0.024999
v 0.010000 -0.915281 -0.005000
v 0.010000 -0.915281 -0.024999
v -0.010000 -0.935281 -0.024999
v -0.010000 -0.935281 -0.045000
v 0.010000 -0.935281 -0.024999
v 0.010000 -0.935281 -0.045000
v -0.010000 -0.955281 -0.045000
v -0.010000 -0.955281 -0.065000
v 0.010000 -0.955281 -0.045000
v 0.010000 -0.955281 -0.065000
v -0.010000 -0.975281 -0.065000
v -0.010000 -0.975281 -0.105000
v 0.010000 -0.975281 -0.065000
v 0.010000 -0.975281 -0.105000
v -0.030000 0.064719 0.155000
v 0.030000 0.064719 0.155000
v -0.030000 0.004719 0.155000
v 0.030000 0.004719 0.155000
v -0.010000 0.264719 0.075000
v 0.010000 0.264719 0.075000
v -0.010000 0.044719 0.075000
v 0.010000 0.044719 0.075000
v -0.010000 0.024719 0.075000
v 0.010000 0.024719 0.075000
v -0.010000 -0.215281 0.075000
v 0.010000 -0.215281 0.075000
v -0.010000 0.464719 0.055000
v 0.010000 0.464719 0.055000
v -0.010000 0.264719 0.055000
v 0.010000 0.264719 0.055000
v -0.010000 -0.215281 0.055000
v 0.010000 -0.215281 0.055000
v -0.010000 -0.415281 0.055000
v 0.010000 -0.415281 0.055000
v -0.010000 0.664719 0.035000
v 0.010000 0.664719 0.035000
v -0.010000 0.464719 0.035000
v 0.010000 0.464719 0.035000
v -0.010000 -0.415281 0.035000
v 0.010000 -0.415281 0.035000
v -0.010000 -0.615281 0.035000
v 0.010000 -0.615281 0.035000
v -0.010000 0.904719 0.015000
v 0.010000 0.904719 0.015000
v -0.010000 0.664719 0.015000
v 0.010000 0.664719 0.015000
v -0.010000 -0.615281 0.015000
v 0.010000 -0.615281 0.015000
v -0.010000 -0.855281 0.015000
v 0.010000 -0.855281 0.015000
v -0.010000 0.964719 -0.005000
v 0.010000 0.964719 -0.005000
v -0.010000 0.904719 -0.005000
v 0.010000 0.904719 -0.005000
v -0.010000 -0.855281 -0.005000
v 0.010000 -0.855281 -0.005000
v -0.010000 -0.915281 -0.005000
v 0.010000 -0.915281 -0.005000
v -0.010000 0.984719 -0.024999
v 0.010000 0.984719 -0.024999
v -0.010000 0.964719 -0.024999
v 0.010000 0.964719 -0.024999
v -0.010000 -0.915281 -0.024999
v 0.010000 -0.915281 -0.024999
v -0.010000 -0.935281 -0.024999
v 0.010000 -0.935281 -0.024999
v -0.010000 1.004719 -0.045000
v 0.010000 1.004719 -0.045000
v -0.010000 0.984719 -0.045000
v 0.010000 0.984719 -0.045000
v -0.010000 -0.935281 -0.045000
v 0.010000 -0.935281 -0.045000
v -0.010000 -0.955281 -0.045000
v 0.010000 -0.955281 -0.045000
v -0.010000 1.024719 -0.065000
v 0.010000 1.024719 -0.065000
v -0.010000 1.004719 -0.065000
v 0.010000 1.004719 -0.065000
v -0.010000 -0.955281 -0.065000
v 0.010000 -0.955281 -0.065000
v -0.010000 -0.975281 -0.065000
v 0.010000 -0.975281 -0.065000
v -0.030000 0.064719 0.095001
v 0.030000 0.064719 0.095001
v -0.030000 0.044719 0.095001
v 0.030000 0.044719 0.095001
v -0.030000 0.024719 0.095001
v 0.030000 0.024719 0.095001
v -0.030000 0.004719 0.095001
v 0.030000 0.004719 0.095001
v -0.010000 0.264719 0.035000
v 0.010000 0.264719 0.035000
v -0.030000 0.044719 0.035000
v -0.010000 0.044719 0.035000
v 0.010000 0.044719 0.035000
v 0.030000 0.044719 0.035000
v -0.030000 0.024719 0.035000
v -0.010000 0.024719 0.035000
v 0.010000 0.024719 0.035000
v 0.030000 0.024719 0.035000
v -0.010000 -0.215281 0.035000
v 0.010000 -0.215281 0.035000
v -0.010000 0.464719 0.015000
v 0.010000 0.464719 0.015000
v -0.010000 0.264719 0.015000
v 0.010000 0.264719 0.015000
v -0.010000 0.044719 0.015000
v 0.010000 0.044719 0.015000
v -0.010000 0.024719 0.015000
v 0.010000 0.024719 0.015000
v -0.010000 -0.215281 0.015000
v 0.010000 -0.215281 0.015000
v -0.010000 -0.415281 0.015000
v 0.010000 -0.415281 0.015000
v -0.010000 0.664719 -0.005000
v 0.010000 0.664719 -0.005000
v -0.010000 0.464719 -0.005000
v 0.010000 0.464719 -0.005000
v -0.010000 -0.415281 -0.005000
v 0.010000 -0.415281 -0.005000
v -0.010000 -0.615281 -0.005000
v 0.010000 -0.615281 -0.005000
v -0.010000 0.884719 -0.024999
v 0.010000 0.884719 -0.024999
v -0.010000 0.664719 -0.024999
v 0.010000 0.664719 -0.024999
v -0.010000 -0.615281 -0.024999
v 0.010000 -0.615281 -0.024999
v -0.010000 -0.835281 -0.024999
v 0.010000 -0.835281 -0.024999
v -0.010000 0.944719 -0.045000
v 0.010000 0.944719 -0.045000
v -0.010000 0.884719 -0.045000
v 0.010000 0.884719 -0.045000
v -0.010000 -0.835281 -0.045000
v 0.010000 -0.835281 -0.045000
v -0.010000 -0.895281 -0.045000
v 0.010000 -0.895281 -0.045000
v -0.010000 0.964719 -0.065000
v 0.010000 0.964719 -0.065000
v -0.010000 0.944719 -0.065000
v 0.010000 0.944719 -0.065000
v -0.010000 -0.895281 -0.065000
v 0.010000 -0.895281 -0.065000
v -0.010000 -0.915281 -0.065000
v 0.010000 -0.915281 -0.065000
v -0.010000 -0.915281 -0.085000
v 0.010000 -0.915281 -0.085000
v -0.010000 -0.935281 -0.085000
v 0.010000 -0.935281 -0.085000
v -0.010000 1.024719 -0.105000
v 0.010000 1.024719 -0.105000
v -0.010000 0.964719 -0.105000
v 0.010000 0.964719 -0.105000
v -0.010000 -0.935281 -0.105000
v 0.010000 -0.935281 -0.105000
v -0.010000 -0.975281 -0.105000
v 0.010000 -0.975281 -0.105000
vn -1.0000 -0.0000 -0.0000
vn 1.0000 -0.0000 -0.0000
vn -0.0000 1.0000 -0.0000
vn -0.0000 -1.0000 -0.0000
vn -0.0000 -0.0000 1.0000
vn -0.0000 -0.0000 -1.0000
vt 0.498047 0.500000
vt 0.013672 0.500000
vt 0.365234 0.500000
s 1
usemtl palette.023
f 3/1/1 2/1/1 1/1/1
f 4/1/1 2/1/1 3/1/1
f 5/1/1 2/1/1 4/1/1
f 6/1/1 2/1/1 5/1/1
f 7/2/1 5/2/1 4/2/1
f 8/2/1 5/2/1 7/2/1
f 14/3/1 10/3/1 9/3/1
f 15/3/1 12/3/1 11/3/1
f 18/3/1 14/3/1 13/3/1
f 19/3/1 10/3/1 14/3/1
f 19/3/1 14/3/1 18/3/1
f 20/3/1 10/3/1 19/3/1
f 21/3/1 16/3/1 15/3/1
f 21/3/1 15/3/1 11/3/1
f 22/3/1 16/3/1 21/3/1
f 23/3/1 16/3/1 22/3/1
f 26/3/1 18/3/1 17/3/1
f 26/3/1 19/3/1 18/3/1
f 27/3/1 19/3/1 26/3/1
f 28/3/1 19/3/1 27/3/1
f 29/2/1 21/2/1 20/2/1
f 30/2/1 21/2/1 29/2/1
f 31/3/1 24/3/1 23/3/1
f 31/3/1 23/3/1 22/3/1
f 32/3/1 24/3/1 31/3/1
f 33/3/1 24/3/1 32/3/1
f 36/3/1 26/3/1 25/3/1
f 36/3/1 27/3/1 26/3/1
f 37/3/1 27/3/1 36/3/1
f 38/3/1 27/3/1 37/3/1
f 39/3/1 34/3/1 33/3/1
f 39/3/1 33/3/1 32/3/1
f 40/3/1 34/3/1 39/3/1
f 41/3/1 34/3/1 40/3/1
f 44/3/1 37/3/1 36/3/1
f 44/3/1 36/3/1 35/3/1
f 45/3/1 37/3/1 44/3/1
f 46/3/1 37/3/1 45/3/1
f 47/3/1 42/3/1 41/3/1
f 47/3/1 41/3/1 40/3/1
f 48/3/1 42/3/1 47/3/1
f 49/3/1 42/3/1 48/3/1
f 52/3/1 45/3/1 44/3/1
f 52/3/1 44/3/1 43/3/1
f 53/3/1 45/3/1 52/3/1
f 54/3/1 45/3/1 53/3/1
f 55/3/1 50/3/1 49/3/1
f 55/3/1 49/3/1 48/3/1
f 56/3/1 50/3/1 55/3/1
f 57/3/1 50/3/1 56/3/1
f 60/3/1 53/3/1 52/3/1
f 60/3/1 52/3/1 51/3/1
f 61/3/1 53/3/1 60/3/1
f 62/3/1 53/3/1 61/3/1
f 63/3/1 58/3/1 57/3/1
f 63/3/1 57/3/1 56/3/1
f 64/3/1 58/3/1 63/3/1
f 65/3/1 58/3/1 64/3/1
f 67/3/1 66/3/1 65/3/1
f 67/3/1 65/3/1 64/3/1
f 68/3/1 66/3/1 67/3/1
f 69/3/1 61/3/1 60/3/1
f 69/3/1 60/3/1 59/3/1
f 70/3/1 61/3/1 69/3/1
f 71/3/1 66/3/1 68/3/1
f 72/3/1 66/3/1 71/3/1
f 73/3/2 74/3/2 78/3/2
f 75/3/2 76/3/2 79/3/2
f 77/3/2 78/3/2 82/3/2
f 78/3/2 74/3/2 83/3/2
f 82/3/2 78/3/2 83/3/2
f 83/3/2 74/3/2 84/3/2
f 79/3/2 80/3/2 85/3/2
f 75/3/2 79/3/2 85/3/2
f 85/3/2 80/3/2 86/3/2
f 86/3/2 80/3/2 87/3/2
f 81/3/2 82/3/2 90/3/2
f 82/3/2 83/3/2 90/3/2
f 90/3/2 83/3/2 91/3/2
f 91/3/2 83/3/2 92/3/2
f 84/2/2 85/2/2 93/2/2
f 93/2/2 85/2/2 94/2/2
f 87/3/2 88/3/2 95/3/2
f 86/3/2 87/3/2 95/3/2
f 95/3/2 88/3/2 96/3/2
f 96/3/2 88/3/2 97/3/2
f 89/3/2 90/3/2 100/3/2
f 90/3/2 91/3/2 100/3/2
f 100/3/2 91/3/2 101/3/2
f 101/3/2 91/3/2 102/3/2
f 97/3/2 98/3/2 103/3/2
f 96/3/2 97/3/2 103/3/2
f 103/3/2 98/3/2 104/3/2
f 104/3/2 98/3/2 105/3/2
f 100/3/2 101/3/2 108/3/2
f 99/3/2 100/3/2 108/3/2
f 108/3/2 101/3/2 109/3/2
f 109/3/2 101/3/2 110/3/2
f 105/3/2 106/3/2 111/3/2
f 104/3/2 105/3/2 111/3/2
f 111/3/2 106/3/2 112/3/2
f 112/3/2 106/3/2 113/3/2
f 108/3/2 109/3/2 116/3/2
f 107/3/2 108/3/2 116/3/2
f 116/3/2 109/3/2 117/3/2
f 117/3/2 109/3/2 118/3/2
f 113/3/2 114/3/2 119/3/2
f 112/3/2 113/3/2 119/3/2
f 119/3/2 114/3/2 120/3/2
f 120/3/2 114/3/2 121/3/2
f 116/3/2 117/3/2 124/3/2
f 115/3/2 116/3/2 124/3/2
f 124/3/2 117/3/2 125/3/2
f 125/3/2 117/3/2 126/3/2
f 121/3/2 122/3/2 127/3/2
f 120/3/2 121/3/2 127/3/2
f 127/3/2 122/3/2 128/3/2
f 128/3/2 122/3/2 129/3/2
f 129/3/2 130/3/2 131/3/2
f 128/3/2 129/3/2 131/3/2
f 131/3/2 130/3/2 132/3/2
f 124/3/2 125/3/2 133/3/2
f 123/3/2 124/3/2 133/3/2
f 133/3/2 125/3/2 134/3/2
f 132/3/2 130/3/2 135/3/2
f 135/3/2 130/3/2 136/3/2
f 137/1/2 138/1/2 139/1/2
f 139/1/2 138/1/2 140/1/2
f 140/1/2 138/1/2 141/1/2
f 141/1/2 138/1/2 142/1/2
f 140/2/2 141/2/2 143/2/2
f 143/2/2 141/2/2 144/2/2
f 147/3/3 146/3/3 145/3/3
f 148/3/3 146/3/3 147/3/3
f 151/3/3 150/3/3 149/3/3
f 152/3/3 150/3/3 151/3/3
f 155/3/3 154/3/3 153/3/3
f 156/3/3 154/3/3 155/3/3
f 159/3/3 158/3/3 157/3/3
f 160/3/3 158/3/3 159/3/3
f 163/3/3 162/3/3 161/3/3
f 164/3/3 162/3/3 163/3/3
f 167/3/3 166/3/3 165/3/3
f 168/3/3 166/3/3 167/3/3
f 171/3/3 170/3/3 169/3/3
f 172/3/3 170/3/3 171/3/3
f 175/3/3 174/3/3 173/3/3
f 176/3/3 174/3/3 175/3/3
f 179/1/3 178/1/3 177/1/3
f 180/1/3 178/1/3 179/1/3
f 183/2/3 182/2/3 181/2/3
f 184/2/3 182/2/3 183/2/3
f 186/2/3 183/2/3 181/2/3
f 187/2/3 185/2/3 184/2/3
f 188/2/3 185/2/3 187/2/3
f 189/2/3 186/2/3 181/2/3
f 189/2/3 187/2/3 186/2/3
f 190/2/3 187/2/3 189/2/3
f 193/3/3 192/3/3 191/3/3
f 194/3/3 192/3/3 193/3/3
f 197/3/3 196/3/3 195/3/3
f 198/3/3 196/3/3 197/3/3
f 201/3/3 200/3/3 199/3/3
f 202/3/3 200/3/3 201/3/3
f 205/3/3 204/3/3 203/3/3
f 206/3/3 204/3/3 205/3/3
f 209/3/3 208/3/3 207/3/3
f 210/3/3 208/3/3 209/3/3
f 213/3/3 212/3/3 211/3/3
f 214/3/3 212/3/3 213/3/3
f 217/3/3 216/3/3 215/3/3
f 218/3/3 216/3/3 217/3/3
f 219/3/4 220/3/4 221/3/4
f 221/3/4 220/3/4 222/3/4
f 223/3/4 224/3/4 225/3/4
f 225/3/4 224/3/4 226/3/4
f 227/3/4 228/3/4 229/3/4
f 229/3/4 228/3/4 230/3/4
f 231/3/4 232/3/4 233/3/4
f 233/3/4 232/3/4 234/3/4
f 235/3/4 236/3/4 237/3/4
f 237/3/4 236/3/4 238/3/4
f 239/3/4 240/3/4 241/3/4
f 241/3/4 240/3/4 242/3/4
f 243/2/4 244/2/4 245/2/4
f 245/2/4 244/2/4 246/2/4
f 243/2/4 245/2/4 248/2/4
f 246/2/4 247/2/4 249/2/4
f 249/2/4 247/2/4 250/2/4
f 243/2/4 248/2/4 251/2/4
f 248/2/4 249/2/4 251/2/4
f 251/2/4 249/2/4 252/2/4
f 253/1/4 254/1/4 255/1/4
f 255/1/4 254/1/4 256/1/4
f 257/3/4 258/3/4 259/3/4
f 259/3/4 258/3/4 260/3/4
f 261/3/4 262/3/4 263/3/4
f 263/3/4 262/3/4 264/3/4
f 265/3/4 266/3/4 267/3/4
f 267/3/4 266/3/4 268/3/4
f 269/3/4 270/3/4 271/3/4
f 271/3/4 270/3/4 272/3/4
f 273/3/4 274/3/4 275/3/4
f 275/3/4 274/3/4 276/3/4
f 277/3/4 278/3/4 279/3/4
f 279/3/4 278/3/4 280/3/4
f 281/3/4 282/3/4 283/3/4
f 283/3/4 282/3/4 284/3/4
f 285/3/4 286/3/4 287/3/4
f 287/3/4 286/3/4 288/3/4
f 291/1/5 290/1/5 289/1/5
f 292/1/5 290/1/5 291/1/5
f 295/3/5 294/3/5 293/3/5
f 296/3/5 294/3/5 295/3/5
f 299/3/5 298/3/5 297/3/5
f 300/3/5 298/3/5 299/3/5
f 303/3/5 302/3/5 301/3/5
f 304/3/5 302/3/5 303/3/5
f 307/3/5 306/3/5 305/3/5
f 308/3/5 306/3/5 307/3/5
f 311/3/5 310/3/5 309/3/5
f 312/3/5 310/3/5 311/3/5
f 315/3/5 314/3/5 313/3/5
f 316/3/5 314/3/5 315/3/5
f 319/3/5 318/3/5 317/3/5
f 320/3/5 318/3/5 319/3/5
f 323/3/5 322/3/5 321/3/5
f 324/3/5 322/3/5 323/3/5
f 327/3/5 326/3/5 325/3/5
f 328/3/5 326/3/5 327/3/5
f 331/3/5 330/3/5 329/3/5
f 332/3/5 330/3/5 331/3/5
f 335/3/5 334/3/5 333/3/5
f 336/3/5 334/3/5 335/3/5
f 339/3/5 338/3/5 337/3/5
f 340/3/5 338/3/5 339/3/5
f 343/3/5 342/3/5 341/3/5
f 344/3/5 342/3/5 343/3/5
f 347/3/5 346/3/5 345/3/5
f 348/3/5 346/3/5 347/3/5
f 351/3/5 350/3/5 349/3/5
f 352/3/5 350/3/5 351/3/5
f 355/3/5 354/3/5 353/3/5
f 356/3/5 354/3/5 355/3/5
f 357/1/6 358/1/6 359/1/6
f 359/1/6 358/1/6 360/1/6
f 361/1/6 362/1/6 363/1/6
f 363/1/6 362/1/6 364/1/6
f 365/3/6 366/3/6 368/3/6
f 368/3/6 366/3/6 369/3/6
f 367/2/6 368/2/6 371/2/6
f 371/2/6 368/2/6 372/2/6
f 369/2/6 370/2/6 373/2/6
f 373/2/6 370/2/6 374/2/6
f 372/3/6 373/3/6 375/3/6
f 375/3/6 373/3/6 376/3/6
f 377/3/6 378/3/6 379/3/6
f 379/3/6 378/3/6 380/3/6
f 381/2/6 382/2/6 383/2/6
f 383/2/6 382/2/6 384/2/6
f 385/3/6 386/3/6 387/3/6
f 387/3/6 386/3/6 388/3/6
f 389/3/6 390/3/6 391/3/6
f 391/3/6 390/3/6 392/3/6
f 393/3/6 394/3/6 395/3/6
f 395/3/6 394/3/6 396/3/6
f 397/3/6 398/3/6 399/3/6
f 399/3/6 398/3/6 400/3/6
f 401/3/6 402/3/6 403/3/6
f 403/3/6 402/3/6 404/3/6
f 405/3/6 406/3/6 407/3/6
f 407/3/6 406/3/6 408/3/6
f 409/3/6 410/3/6 411/3/6
f 411/3/6 410/3/6 412/3/6
f 413/3/6 414/3/6 415/3/6
f 415/3/6 414/3/6 416/3/6
f 417/3/6 418/3/6 419/3/6
f 419/3/6 418/3/6 420/3/6
f 421/3/6 422/3/6 423/3/6
f 423/3/6 422/3/6 424/3/6
f 425/3/6 426/3/6 427/3/6
f 427/3/6 426/3/6 428/3/6
f 429/3/6 430/3/6 431/3/6
f 431/3/6 430/3/6 432/3/6
